<svg version="1.1" id="Q3" xmlns="http://www.w3.org/2000/svg" xmlns:xlink="http://www.w3.org/1999/xlink" x="0px" y="0px"
	 width="100%" height="100%" viewBox="0 0 460 460" enable-background="new 0 0 460 460" xml:space="preserve">
    
<style>
    #steam3 {
        stroke-dasharray: 22;    
        animation: steam 4.15s 0.15s infinite;
        transform-origin: bottom;
        -webkit-transform-origin: bottom;    
        -moz-transform-origin: bottom;                
        -webkit-animation: steam 4.15s 0.15s infinite;
    }
    
    #steam2 {
        stroke-dasharray: 22;    
        animation: steam 4s infinite;
        transform-origin: bottom;
        -webkit-transform-origin: bottom;    
        -moz-transform-origin: bottom;                
        -webkit-animation: steam 4s infinite;
    }
    
    #steam1 {
        stroke-dasharray: 22;    
        animation: steam 4.25s infinite;
        transform-origin: bottom;
        -webkit-transform-origin: bottom;    
        -moz-transform-origin: bottom;                
        -webkit-animation: steam 4.25s 0.25s infinite;
    }
    
    #microwaveScreenSmall {
        animation: screen 7.5s infinite linear;
        transform-origin: center;
        -webkit-transform-origin: center;
        -moz-transform-origin: bottom;                
        -webkit-animation: screen 7.5s infinite linear;
    }
       
    
    @keyframes steam {
        0% {
            stroke-dashoffset: 22;
            opacity: 1;
        }
        60% {
            opacity: 1;        
        }
        95% {
            stroke-dashoffset: 0;
        }
        100% {
            opacity: 0;
        }
    }
    
    @-webkit-keyframes steam {
        0% {
            stroke-dashoffset: 22;
            opacity: 1;
        }
        60% {
            opacity: 1;        
        }
        95% {
            stroke-dashoffset: 0;
        }
        100% {
            opacity: 0;
        }
    }
    
    @keyframes screen {
        0% {
            fill: #FAF169;
        }
        49% {
            fill: #FAF169;
        }
        50% {
            fill: #3D0F3D;
        }    
        100% {
            fill: #3D0F3D;
        }
    }
    
    @-webkit-keyframes screen {
        0% {
            fill: #FAF169;
        }
        49% {
            fill: #FAF169;
        }
        50% {
            fill: #3D0F3D;
        }    
        100% {
            fill: #3D0F3D;
        }
    } 
       
    
</style>       
    
<g>
	<g id="XMLID_622_">
		<g>
			<pattern  id="SVGID_1_" xlink:href="#bodky_x5F_nove_6" patternTransform="matrix(2.5594 0 0 2.5594 11776.4453 12035.3672)">
			</pattern>
			<rect y="74" fill="url(#SVGID_1_)" width="460" height="386"/>
		</g>
		<g>
			
				<line fill="none" stroke="#3E0F3D" stroke-width="1.5" stroke-linecap="round" stroke-linejoin="round" stroke-miterlimit="10" x1="0" y1="74" x2="460" y2="74"/>
		</g>
	</g>
</g>
<g id="XMLID_399_">
	<g>
		<rect x="57.719" y="261.606" fill="#6287C5" width="361.76" height="174.13"/>
	</g>
	<g>
		
			<rect x="57.719" y="261.606" fill="none" stroke="#3E0F3D" stroke-width="1.5" stroke-linecap="round" stroke-linejoin="round" width="361.76" height="174.13"/>
	</g>
</g>
<g id="XMLID_398_">
	<g>
		<rect x="425.563" y="189" fill="#81BBE6" width="19.399" height="92.67"/>
		<polygon fill="#81BBE6" points="444.963,55.98 444.963,189 425.563,189 32.405,189 14.296,189 14.296,55.98 		"/>
		<rect x="14.296" y="189" fill="#81BBE6" width="18.109" height="92.67"/>
	</g>
	<g>
		<polygon fill="none" stroke="#3E0F3D" stroke-width="1.5" stroke-linecap="round" stroke-linejoin="round" points="444.963,189 
			425.563,189 32.405,189 14.296,189 14.296,55.98 444.963,55.98 		"/>
		<polyline fill="none" stroke="#3E0F3D" stroke-width="1.5" stroke-linecap="round" stroke-linejoin="round" points="14.296,189 
			14.296,281.67 32.405,281.67 32.405,189 		"/>
		<polyline fill="none" stroke="#3E0F3D" stroke-width="1.5" stroke-linecap="round" stroke-linejoin="round" points="425.563,189 
			425.563,281.67 444.963,281.67 444.963,189 		"/>
	</g>
</g>
<g id="XMLID_397_">
	<g>
		<path fill="#FFFFFF" d="M264.194,129.302l0.032,0.256c-0.571,2.743-1.194,5.414-2.067,7.835c-1.108,3.052-2.625,5.696-4.941,7.554
			c-3.576,2.881-7.113,3.812-10.638,4.18l0.039,0.348l0.014,11.996c-12.666,3.833-22.057,0.066-22.057,0.066l0.098-13.571
			c0.899-0.138,1.654-0.368,2.146-0.61c7.238-3.59,3.393-14.956,9.713-19.458c6.608-4.699,7.35-7.416,7.14-13.696
			c-0.217-6.536,5.381-8.196,12.423-11.727c1.312-0.656,2.258-1.463,2.9-2.336c0.854,1.148,1.792,2.54,2.573,3.892
			c1.306,2.284,3.333,6.871,4.829,11.603l1.943,7.265c0,0,2.572,0.164,2.992,2.435c0.217,1.358-0.801,3.163-2.5,3.386
			c-1.261,0.151-2.501-0.663-2.501-0.663C266.07,128.757,265.185,129.184,264.194,129.302z M259.613,110.199
			c0.571-0.689,0.039-1.805-0.755-2.264c-1.267-0.735-2.526-0.643-3.675-0.256c-1.529,0.512-2.639,1.175-3.399,2.559
			c-0.505,0.925-0.085,2.277,0.748,2.514c0.361,0.125,0.735,0.105,1.109,0c0.459-0.138,0.82-0.505,1.135-0.847
			c0.755-0.866,1.884-1.227,2.501-1.135C258.301,110.927,259.075,110.881,259.613,110.199z"/>
		<path fill="#3E0F3D" d="M258.996,100.138c-0.643,0.873-1.588,1.68-2.9,2.336c-7.042,3.531-12.64,5.191-12.423,11.727
			c0.21,6.28-0.531,8.997-7.14,13.696c-6.32,4.502-2.475,15.868-9.713,19.458c-0.492,0.243-1.247,0.473-2.146,0.61
			c-2.5,0.4-6.116,0.131-8.223-2.356c-3.623-4.272-1.634-6.359-4.554-11.176c-2.999-4.948-5.395-6.799-6.149-15.875
			c-1.221-14.687,9.115-28.868,26.525-31.52c12.876-1.962,20.764-0.263,26.073,4.469C259.869,92.86,261.379,96.956,258.996,100.138z
			"/>
		<path fill="#3E0F3D" d="M252.532,112.751c-0.833-0.236-1.253-1.588-0.748-2.514c0.761-1.384,1.87-2.047,3.399-2.559
			c1.148-0.387,2.408-0.479,3.675,0.256c0.794,0.459,1.326,1.575,0.755,2.264c-0.538,0.682-1.312,0.729-2.336,0.571
			c-0.617-0.092-1.746,0.269-2.501,1.135c-0.314,0.341-0.676,0.709-1.135,0.847C253.268,112.856,252.894,112.876,252.532,112.751z"
			/>
	</g>
	<g>
		<path fill="none" stroke="#3E0F3D" stroke-width="1.5" stroke-linecap="round" stroke-linejoin="round" d="M239.631,149.495
			c2.322-0.138,4.633-0.131,6.949-0.367c3.524-0.368,7.062-1.299,10.638-4.18c2.316-1.857,3.833-4.502,4.941-7.554
			c0.873-2.421,1.496-5.092,2.067-7.835"/>
		<path fill="none" stroke="#3E0F3D" stroke-width="1.5" stroke-linecap="round" stroke-linejoin="round" d="M253.642,112.751
			c-0.374,0.105-0.748,0.125-1.109,0c-0.833-0.236-1.253-1.588-0.748-2.514c0.761-1.384,1.87-2.047,3.399-2.559
			c1.148-0.387,2.408-0.479,3.675,0.256c0.794,0.459,1.326,1.575,0.755,2.264c-0.538,0.682-1.312,0.729-2.336,0.571
			c-0.617-0.092-1.746,0.269-2.501,1.135C254.462,112.246,254.101,112.614,253.642,112.751z"/>
		<path fill="none" stroke="#3E0F3D" stroke-width="1.5" stroke-linecap="round" stroke-linejoin="round" d="M258.655,99.686
			c0.111,0.144,0.223,0.295,0.341,0.453c0.854,1.148,1.792,2.54,2.573,3.892c1.306,2.284,3.333,6.871,4.829,11.603l1.943,7.265
			c0,0,2.572,0.164,2.992,2.435c0.217,1.358-0.801,3.163-2.5,3.386c-1.261,0.151-2.501-0.663-2.501-0.663
			c-0.263,0.702-1.148,1.129-2.139,1.247c-1.759,0.197-3.853-0.617-3.348-2.783"/>
		<path fill="none" stroke="#3E0F3D" stroke-width="1.5" stroke-linecap="round" stroke-linejoin="round" d="M224.688,146.476
			l-0.013,1.49l-0.098,13.571c0,0,9.391,3.767,22.057-0.066l-0.014-11.996"/>
		<path fill="none" stroke="#3E0F3D" stroke-width="1.5" stroke-linecap="round" stroke-linejoin="round" d="M260.88,115.285
			c-0.735,1.805-3.853,2.625-5.906,1.312"/>
		<path fill="none" stroke="#3E0F3D" stroke-width="1.5" stroke-linecap="round" stroke-linejoin="round" d="M257.763,136.16
			c0,0,2.316,1.096,4.396,1.234c0.014,0,0.02,0,0.033,0"/>
		<path fill="none" stroke="#3E0F3D" stroke-width="1.5" stroke-linecap="round" stroke-linejoin="round" d="M224.674,147.966
			c-2.5,0.4-6.116,0.131-8.223-2.356c-3.623-4.272-1.634-6.359-4.554-11.176c-2.999-4.948-5.395-6.799-6.149-15.875
			c-1.221-14.687,9.115-28.868,26.525-31.52c12.876-1.962,20.764-0.263,26.073,4.469c1.522,1.352,3.032,5.447,0.649,8.629
			c-0.643,0.873-1.588,1.68-2.9,2.336c-7.042,3.531-12.64,5.191-12.423,11.727c0.21,6.28-0.531,8.997-7.14,13.696
			c-6.32,4.502-2.475,15.868-9.713,19.458C226.328,147.598,225.574,147.828,224.674,147.966z"/>
	</g>
</g>
<g>
	<g id="XMLID_396_">
		<g>
			<path fill="#F15847" d="M311.703,384.707c0.584,9.344,2.782,38.886,2.061,39.504c-0.698,0.618-6.148,0.652-6.446,0.652
				c0.424-0.767-1.168-26.748-2.862-50.004C305.05,375.123,311.291,378.02,311.703,384.707z"/>
			<path fill="#F15847" d="M309.745,358.165c0.504,6.229,0.916,11.508,0.916,11.508l-6.562,0.412
				c-1.248-16.855-2.496-31.156-2.942-31.534c0,0,6.63-0.894,6.858-0.344C308.153,338.539,309.035,349.313,309.745,358.165z"/>
			<path fill="#F15847" d="M266.554,341.013c0,0,33.79-3.172,34.604-2.462c0.446,0.378,1.694,14.679,2.942,31.534h-0.022
				l0.332,4.752c0,0,0.011,0.012,0.046,0.022c1.694,23.256,3.286,49.237,2.862,50.004c-0.012,0-0.012,0-0.012,0
				c0,0.012,0,0.012,0,0.012c-3.194-0.092-10.19-0.034-15.172-6.378c-3.652-4.66-5.416-9.722-6.068-21.538
				c-0.596-10.798-0.618-17.794-4.442-21.47c-3.836-3.676-11.966-1.638-12.768-2.152c-0.034-0.195-0.172-2.004-0.378-4.672
				c-0.47-6.538-1.282-18.275-1.684-24.126C266.646,342.375,266.554,341.013,266.554,341.013z"/>
			<path fill="#F9A36A" d="M268.478,368.665l-0.194,0.012l-13.478,0.561l1.832-24.458l0.32,0.023l9.813-0.264h0.022
				C267.195,350.39,268.008,362.127,268.478,368.665z"/>
			<path fill="#3BB98A" d="M238.592,287.688c0.744,0,1.352-0.606,1.352-1.351s-0.607-1.352-1.352-1.352s-1.351,0.607-1.351,1.352
				S237.848,287.688,238.592,287.688z M161.714,366.593c-18.149-2.806-39.836-7.729-45.562-18.104
				c-7.82-14.198-5.221-37.866,34.283-41.794c16.385-1.626,36.664-2.438,48.435-2.69v-25.638c0,0,75.011-0.412,74.439,0.16
				l0.012,24.194c68.462,0.287,85.912,11.233,85.729,30.092c-0.183,18.836-19.603,25.34-49.305,25.352
				c-0.71-8.852-1.592-19.626-1.729-19.958c-0.229-0.55-6.858,0.344-6.858,0.344c-0.813-0.71-34.604,2.462-34.604,2.462
				s0.092,1.362,0.24,3.526h-0.022l-9.813,0.264l-0.32-0.023l-1.832,24.458l-0.515,6.87c0,0-35.268-2.816-60.905-5.508
				c-5.702-0.595-10.912-1.19-15.171-1.74c-2.829-0.366-6.103-0.778-9.653-1.271C166.375,367.291,164.073,366.959,161.714,366.593z"
				/>
			<path fill="#F15847" d="M193.386,370.6c-2.816,4.5-2.198,12.768-0.206,23.371c2.176,11.633,1.672,16.98-0.778,22.374
				c-3.321,7.339-10.134,8.954-13.214,9.801c0,0,0,0-0.012-0.011c-0.606-0.618-5.232-26.244-9.114-49.248
				c0.023-0.023,0.034-0.035,0.034-0.035l-0.813-4.694h-0.011c-0.252-1.488-0.493-2.966-0.733-4.408l0.023-0.16
				c3.55,0.492,6.824,0.904,9.653,1.271C182.474,369.409,187.684,370.005,193.386,370.6z"/>
			<path fill="#F15847" d="M170.062,376.887c3.882,23.004,8.508,48.63,9.114,49.248c0,0-5.576,1.34-6.423,0.904
				c-0.848-0.436-5.737-29.646-7.386-38.862C164.176,381.547,169.604,377.229,170.062,376.887z"/>
			<path fill="#F15847" d="M169.271,372.157l-6.47,1.168c0,0-0.458-2.806-1.087-6.732c2.358,0.366,4.66,0.698,6.847,0.996
				l-0.023,0.16C168.779,369.191,169.02,370.669,169.271,372.157z"/>
		</g>
		<g>
			
				<path fill="none" stroke="#3E0F3D" stroke-width="1.5" stroke-linecap="round" stroke-linejoin="round" stroke-miterlimit="10" d="
				M220.409,334.509c13.385-2.496,46.969-8.588,73.237-12.138l26.874-2.29"/>
			
				<path fill="none" stroke="#3E0F3D" stroke-width="1.5" stroke-linecap="round" stroke-linejoin="round" stroke-miterlimit="10" d="
				M147.424,326.871c2.806,0.08,14.875,1.82,17.726,2.016c33.515,2.164,91.878,10.694,91.878,10.694l-0.39,5.198l-1.832,24.458
				l-0.515,6.87c0,0-35.268-2.816-60.905-5.508c-5.702-0.595-10.912-1.19-15.171-1.74c-2.829-0.366-6.103-0.778-9.653-1.271
				c-2.187-0.298-4.489-0.63-6.847-0.996c-18.149-2.806-39.836-7.729-45.562-18.104c-7.82-14.198-5.221-37.866,34.283-41.794
				c16.385-1.626,36.664-2.438,48.435-2.69v-25.638c0,0,75.011-0.412,74.439,0.16l0.012,24.194
				c68.462,0.287,85.912,11.233,85.729,30.092c-0.183,18.836-19.603,25.34-49.305,25.352c-0.035,0-0.08,0-0.115,0"/>
			
				<line fill="none" stroke="#3E0F3D" stroke-width="1.5" stroke-linecap="round" stroke-linejoin="round" stroke-miterlimit="10" x1="201.745" y1="290.184" x2="269.222" y2="290.184"/>
			
				<circle fill="none" stroke="#3E0F3D" stroke-width="1.5" stroke-linecap="round" stroke-linejoin="round" stroke-miterlimit="10" cx="238.592" cy="286.337" r="1.351"/>
			
				<path fill="none" stroke="#3E0F3D" stroke-width="1.5" stroke-linecap="round" stroke-linejoin="round" stroke-miterlimit="10" d="
				M307.306,424.863c0,0.012,0,0.012,0,0.012c-3.194-0.092-10.19-0.034-15.172-6.378c-3.652-4.66-5.416-9.722-6.068-21.538
				c-0.596-10.798-0.618-17.794-4.442-21.47c-3.836-3.676-11.966-1.638-12.768-2.152c-0.034-0.195-0.172-2.004-0.378-4.672
				c-0.47-6.538-1.282-18.275-1.684-24.126c-0.148-2.164-0.24-3.526-0.24-3.526s33.79-3.172,34.604-2.462
				c0.446,0.378,1.694,14.679,2.942,31.534c0.126,1.568,0.24,3.16,0.355,4.774c1.694,23.256,3.286,49.237,2.862,50.004"/>
			
				<path fill="none" stroke="#3E0F3D" stroke-width="1.5" stroke-linecap="round" stroke-linejoin="round" stroke-miterlimit="10" d="
				M301.157,338.551c0,0,6.63-0.894,6.858-0.344c0.138,0.332,1.02,11.106,1.729,19.958c0.504,6.229,0.916,11.508,0.916,11.508
				l-6.562,0.412h-0.022l0.332,4.752c0,0,0.011,0.012,0.046,0.022c0.595,0.264,6.836,3.16,7.248,9.848
				c0.584,9.344,2.782,38.886,2.061,39.504c-0.698,0.618-6.148,0.652-6.446,0.652c-0.012,0-0.012,0-0.012,0"/>
			
				<line fill="none" stroke="#3E0F3D" stroke-width="1.5" stroke-linecap="round" stroke-linejoin="round" stroke-miterlimit="10" x1="282.218" y1="368.688" x2="280.581" y2="374.219"/>
			
				<line fill="none" stroke="#3E0F3D" stroke-width="1.5" stroke-linecap="round" stroke-linejoin="round" stroke-miterlimit="10" x1="286.844" y1="373.715" x2="283.168" y2="376.646"/>
			
				<line fill="none" stroke="#3E0F3D" stroke-width="1.5" stroke-linecap="round" stroke-linejoin="round" stroke-miterlimit="10" x1="289.088" y1="379.223" x2="284.771" y2="380.299"/>
			
				<line fill="none" stroke="#3E0F3D" stroke-width="1.5" stroke-linecap="round" stroke-linejoin="round" stroke-miterlimit="10" x1="290.439" y1="384.855" x2="285.63" y2="385.268"/>
			
				<line fill="none" stroke="#3E0F3D" stroke-width="1.5" stroke-linecap="round" stroke-linejoin="round" stroke-miterlimit="10" x1="290.6" y1="390.707" x2="286.111" y2="391.153"/>
			
				<polyline fill="none" stroke="#3E0F3D" stroke-width="1.5" stroke-linecap="round" stroke-linejoin="round" stroke-miterlimit="10" points="
				254.668,369.237 254.806,369.237 268.283,368.677 			"/>
			
				<line fill="none" stroke="#3E0F3D" stroke-width="1.5" stroke-linecap="round" stroke-linejoin="round" stroke-miterlimit="10" x1="266.771" y1="344.539" x2="256.958" y2="344.803"/>
			
				<path fill="none" stroke="#3E0F3D" stroke-width="1.5" stroke-linecap="round" stroke-linejoin="round" stroke-miterlimit="10" d="
				M168.539,367.749c0.24,1.442,0.481,2.92,0.733,4.408c0.263,1.558,0.527,3.138,0.79,4.729c3.882,23.004,8.508,48.63,9.114,49.248
				c0.012,0.011,0.012,0.011,0.012,0.011c3.08-0.847,9.893-2.462,13.214-9.801c2.45-5.394,2.954-10.741,0.778-22.374
				c-1.992-10.604-2.61-18.871,0.206-23.371c0.012-0.011,0.012-0.022,0.023-0.034"/>
			
				<path fill="none" stroke="#3E0F3D" stroke-width="1.5" stroke-linecap="round" stroke-linejoin="round" stroke-miterlimit="10" d="
				M161.691,366.478c0.011,0.035,0.011,0.08,0.023,0.115c0.629,3.927,1.087,6.732,1.087,6.732l6.47-1.168h0.011l0.813,4.694
				c0,0-0.011,0.012-0.034,0.035c-0.458,0.343-5.886,4.66-4.695,11.29c1.649,9.217,6.538,38.427,7.386,38.862
				c0.847,0.436,6.423-0.904,6.423-0.904"/>
			
				<line fill="none" stroke="#3E0F3D" stroke-width="1.5" stroke-linecap="round" stroke-linejoin="round" stroke-miterlimit="10" x1="186.928" y1="372.673" x2="191.165" y2="373.565"/>
			
				<line fill="none" stroke="#3E0F3D" stroke-width="1.5" stroke-linecap="round" stroke-linejoin="round" stroke-miterlimit="10" x1="186.023" y1="377.471" x2="190.478" y2="377.481"/>
			
				<line fill="none" stroke="#3E0F3D" stroke-width="1.5" stroke-linecap="round" stroke-linejoin="round" stroke-miterlimit="10" x1="186.046" y1="383.265" x2="190.821" y2="382.52"/>
			
				<line fill="none" stroke="#3E0F3D" stroke-width="1.5" stroke-linecap="round" stroke-linejoin="round" stroke-miterlimit="10" x1="187.283" y1="388.989" x2="191.749" y2="388.349"/>
		</g>
	</g>
</g>
<g>
	<g>
		<g id="XMLID_395_">
			<g>
				<path fill="#E79CC0" d="M349.861,290.146l0.101,0.215l-3.25,3.628l-10.672,11.919l-3.288,3.667l-0.189,0.252l-4.019-3.087
					c-4.12-2.986-8.038-5.871-11.718-8.731l0.063-0.088l17.639-19.529l0.214-0.265C341.155,283.368,347.404,288.244,349.861,290.146
					z"/>
				<path fill="#FFFFFF" d="M338.812,308.214l-2.368-1.94l-0.403-0.365l10.672-11.919l0.617,0.542
					c2.167,1.663,4.044,3.074,4.989,3.679c2.394,1.513,7.812,2.356,14.035,0.29c6.791-2.242,22.565-4.876,24.984,5.619
					c0.92,4.007,0.58,8.543-2.23,8.543c-0.718,0-1.26-0.114-1.688-0.341c-1.272-0.705-1.524-2.507-2.596-5.82
					c-1.146-3.541-4.712-3.326-7.068-1.475c-1.134,0.895-1.474,3.138-3.011,5.015l0.188,0.151l6.351,4.838
					c-0.454-0.982-0.504-1.979,0.126-2.936c0.869-1.348,2.633-1.663,6.01,0.239c1.045,0.592,2.255,1.398,3.628,2.457
					c4.007,3.062,9.084,7.018,5.947,12.675c-1.613,2.923-4.775,2.771-7.005,2.003l-0.063,0.089c1.55,1.07,2.848,1.952,3.679,2.507
					c3.188,2.116,7.95,5.241,5.695,8.731c-2.028,3.137-7.598,0.895-10.344-1.626l-0.441-0.037
					c-1.928,4.989-14.577-1.878-19.188-5.393c-15.824-12.083-18.672-17.072-27.188-23.12
					C341.029,309.84,339.921,309.033,338.812,308.214z"/>
				<path fill="#E79CC0" d="M318.351,263.701c3.1,3.352,9.84,9.084,16.392,14.426l-0.214,0.265l-17.639,19.529l-0.063,0.088
					c-18.294-14.187-30.843-27.769-35.215-50.8c-4.409-23.258-6.967-53.244-6.967-53.244l-0.277,0.013l1.159,106.967l-41.161-0.088
					v-0.101l0.932-138.768c6.741,0.365,13.91-1.209,18.257-4.851c23.435,1.335,38.817,11.39,42.837,33.816
					c4.334,24.166,5.254,40.809,11.05,55.31C310.413,253.685,314.168,259.178,318.351,263.701z M264.918,214.136v-20.789h-21.104
					v20.789H264.918z"/>
				<rect x="243.814" y="193.348" fill="#E79CC0" width="21.104" height="20.789"/>
				<path fill="#E79CC0" d="M197.059,199.017h-0.113c0,0-2.847,25.513-7.534,48.721c-3.906,19.34-17.387,33.3-32.808,45.898
					l-0.353-0.44l-14.804-18.27l-0.013-0.012c9.071-7.169,18.181-15.396,24.115-29.13c7.975-18.445,6.236-32.833,12.586-59.519
					c5.027-21.078,23.435-30.477,42.169-30.137c2.898,3.541,8.756,5.531,14.993,5.859l-0.932,138.768v0.101l-39.083-0.076
					C195.282,300.78,196.92,228.487,197.059,199.017z"/>
				<path fill="#E79CC0" d="M141.458,305.468l-1.134,0.882l-0.252-0.076l-1.701-1.927l-10.621-12.008l-3.15-3.553l-0.164-0.314
					c4.107-3.238,8.504-6.93,8.504-6.93c2.759-2.192,5.62-4.359,8.492-6.627l0.013,0.012l14.804,18.27l0.353,0.44
					C151.677,297.682,146.536,301.574,141.458,305.468z"/>
				<path fill="#FFFFFF" d="M97.664,310.041c-1.537-1.877-1.877-4.12-3.011-5.015c-2.356-1.864-5.922-2.066-7.068,1.475
					c-1.071,3.326-1.323,5.128-2.595,5.82c-0.428,0.227-0.97,0.341-1.688,0.341c-2.81,0-3.149-4.536-2.23-8.543
					c2.407-10.495,18.193-7.874,24.972-5.619c6.236,2.066,11.654,1.223,14.036-0.29c1.423-0.906,3.905-2.872,7.307-5.543
					l0.366-0.328l10.621,12.008l-0.24,0.214l-4.536,3.653c-1.121,0.819-2.217,1.626-3.326,2.406
					c-8.529,6.048-11.364,11.037-27.189,23.12c-4.611,3.515-17.273,10.382-19.201,5.393l-0.428,0.037
					c-2.747,2.521-8.315,4.763-10.344,1.626c-2.268-3.49,2.507-6.615,5.682-8.731c0.832-0.555,2.129-1.437,3.679-2.507l-0.063-0.089
					c-2.217,0.769-5.392,0.92-6.992-1.99c-3.137-5.67,1.94-9.626,5.947-12.7c1.386-1.059,2.583-1.864,3.628-2.457
					c3.364-1.89,5.128-1.574,6.01-0.227c0.63,0.957,0.567,1.953,0.126,2.936l6.35-4.838L97.664,310.041z"/>
			</g>
			<g>
				
					<polyline fill="none" stroke="#3E0F3D" stroke-width="1.5" stroke-linecap="round" stroke-linejoin="round" stroke-miterlimit="10" points="
					195.282,300.78 234.365,300.856 275.526,300.944 				"/>
				
					<path fill="none" stroke="#3E0F3D" stroke-width="1.5" stroke-linecap="round" stroke-linejoin="round" stroke-miterlimit="10" d="
					M197.059,197.757c0,0.416,0,0.832,0,1.26c-0.138,29.47-1.776,101.763-1.776,101.763"/>
				
					<line fill="none" stroke="#3E0F3D" stroke-width="1.5" stroke-linecap="round" stroke-linejoin="round" stroke-miterlimit="10" x1="275.526" y1="300.944" x2="274.367" y2="193.978"/>
				
					<path fill="none" stroke="#3E0F3D" stroke-width="1.5" stroke-linecap="round" stroke-linejoin="round" stroke-miterlimit="10" d="
					M140.325,306.35l1.134-0.882c5.078-3.894,10.218-7.786,15.145-11.831c15.421-12.599,28.902-26.559,32.808-45.898
					c4.687-23.208,7.534-48.721,7.534-48.721"/>
				
					<path fill="none" stroke="#3E0F3D" stroke-width="1.5" stroke-linecap="round" stroke-linejoin="round" stroke-miterlimit="10" d="
					M102.2,323.824c-2.709,2.079-6.577,4.952-9.298,6.628c-5.519,3.401-10.558,4.699-9.021,8.681
					c1.928,4.989,14.59-1.878,19.201-5.393c15.825-12.083,18.66-17.072,27.189-23.12c1.109-0.78,2.205-1.587,3.326-2.406
					l4.536-3.653"/>
				
					<path fill="none" stroke="#3E0F3D" stroke-width="1.5" stroke-linecap="round" stroke-linejoin="round" stroke-miterlimit="10" d="
					M83.452,339.17c-2.747,2.521-8.315,4.763-10.344,1.626c-2.268-3.49,2.507-6.615,5.682-8.731
					c0.832-0.555,2.129-1.437,3.679-2.507c4.775-3.289,12.02-8.366,15.799-11.113"/>
				
					<path fill="none" stroke="#3E0F3D" stroke-width="1.5" stroke-linecap="round" stroke-linejoin="round" stroke-miterlimit="10" d="
					M82.406,329.469c-2.217,0.769-5.392,0.92-6.992-1.99c-3.137-5.67,1.94-9.626,5.947-12.7c1.386-1.059,2.583-1.864,3.628-2.457
					c3.364-1.89,5.128-1.574,6.01-0.227c0.63,0.957,0.567,1.953,0.126,2.936c-0.643,1.398-2.091,2.759-3.541,3.918
					c-3.717,2.999-5.556,4.347-5.556,4.347"/>
				
					<polyline fill="none" stroke="#3E0F3D" stroke-width="1.5" stroke-linecap="round" stroke-linejoin="round" stroke-miterlimit="10" points="
					91.087,315.056 91.125,315.03 97.475,310.192 				"/>
				
					<path fill="none" stroke="#3E0F3D" stroke-width="1.5" stroke-linecap="round" stroke-linejoin="round" stroke-miterlimit="10" d="
					M347.329,294.531c2.167,1.663,4.044,3.074,4.989,3.679c2.394,1.513,7.812,2.356,14.035,0.29
					c6.791-2.242,22.565-4.876,24.984,5.619c0.92,4.007,0.58,8.543-2.23,8.543c-0.718,0-1.26-0.114-1.688-0.341
					c-1.272-0.705-1.524-2.507-2.596-5.82c-1.146-3.541-4.712-3.326-7.068-1.475c-1.134,0.895-1.474,3.138-3.011,5.015
					c-1.298,1.601-3.452,2.923-7.673,2.948"/>
				
					<path fill="none" stroke="#3E0F3D" stroke-width="1.5" stroke-linecap="round" stroke-linejoin="round" stroke-miterlimit="10" d="
					M124.437,288.472c4.107-3.238,8.504-6.93,8.504-6.93c2.759-2.192,5.62-4.359,8.492-6.627
					c9.071-7.169,18.181-15.396,24.115-29.13c7.975-18.445,6.236-32.833,12.586-59.519c5.027-21.078,23.435-30.477,42.169-30.137
					c2.898,3.541,8.756,5.531,14.993,5.859c6.741,0.365,13.91-1.209,18.257-4.851c23.435,1.335,38.817,11.39,42.837,33.816
					c4.334,24.166,5.254,40.809,11.05,55.31c2.973,7.421,6.728,12.914,10.91,17.438c3.1,3.352,9.84,9.084,16.392,14.426
					c6.413,5.241,12.662,10.117,15.119,12.02"/>
				
					<path fill="none" stroke="#3E0F3D" stroke-width="1.5" stroke-linecap="round" stroke-linejoin="round" stroke-miterlimit="10" d="
					M105.337,312.989c-4.221-0.025-6.375-1.348-7.673-2.948c-1.537-1.877-1.877-4.12-3.011-5.015
					c-2.356-1.864-5.922-2.066-7.068,1.475c-1.071,3.326-1.323,5.128-2.595,5.82c-0.428,0.227-0.97,0.341-1.688,0.341
					c-2.81,0-3.149-4.536-2.23-8.543c2.407-10.495,18.193-7.874,24.972-5.619c6.236,2.066,11.654,1.223,14.036-0.29
					c1.423-0.906,3.905-2.872,7.307-5.543"/>
				
					<path fill="none" stroke="#3E0F3D" stroke-width="1.5" stroke-linecap="round" stroke-linejoin="round" stroke-miterlimit="10" d="
					M332.639,309.89l-0.076-0.062l-4.019-3.087c-4.12-2.986-8.038-5.871-11.718-8.731c-18.294-14.187-30.843-27.769-35.215-50.8
					c-4.409-23.258-6.967-53.244-6.967-53.244"/>
				
					<path fill="none" stroke="#3E0F3D" stroke-width="1.5" stroke-linecap="round" stroke-linejoin="round" stroke-miterlimit="10" d="
					M370.209,323.824c2.709,2.079,6.564,4.952,9.298,6.628c5.519,3.401,10.559,4.699,9.009,8.681
					c-1.928,4.989-14.577-1.878-19.188-5.393c-15.824-12.083-18.672-17.072-27.188-23.12c-1.109-0.78-2.218-1.587-3.327-2.406
					l-2.368-1.94"/>
				
					<path fill="none" stroke="#3E0F3D" stroke-width="1.5" stroke-linecap="round" stroke-linejoin="round" stroke-miterlimit="10" d="
					M388.957,339.17c2.746,2.521,8.315,4.763,10.344,1.626c2.255-3.49-2.508-6.615-5.695-8.731
					c-0.831-0.555-2.129-1.437-3.679-2.507c-4.788-3.289-12.02-8.366-15.799-11.113"/>
				
					<path fill="none" stroke="#3E0F3D" stroke-width="1.5" stroke-linecap="round" stroke-linejoin="round" stroke-miterlimit="10" d="
					M389.99,329.469c2.229,0.769,5.392,0.92,7.005-2.003c3.137-5.657-1.94-9.613-5.947-12.675c-1.373-1.059-2.583-1.865-3.628-2.457
					c-3.377-1.902-5.141-1.587-6.01-0.239c-0.63,0.957-0.58,1.953-0.126,2.936c0.643,1.398,2.091,2.759,3.527,3.918
					c3.729,2.999,5.569,4.347,5.569,4.347"/>
				
					<polyline fill="none" stroke="#3E0F3D" stroke-width="1.5" stroke-linecap="round" stroke-linejoin="round" stroke-miterlimit="10" points="
					381.321,315.056 381.284,315.03 374.934,310.192 				"/>
				
					<polyline fill="none" stroke="#3E0F3D" stroke-width="1.5" stroke-linecap="round" stroke-linejoin="round" stroke-miterlimit="10" points="
					124.601,288.786 127.751,292.339 138.372,304.347 140.073,306.273 				"/>
				
					<polyline fill="none" stroke="#3E0F3D" stroke-width="1.5" stroke-linecap="round" stroke-linejoin="round" stroke-miterlimit="10" points="
					332.752,309.575 336.04,305.908 346.712,293.989 349.962,290.361 				"/>
				
					<line fill="none" stroke="#3E0F3D" stroke-width="1.5" stroke-linecap="round" stroke-linejoin="round" stroke-miterlimit="10" x1="141.446" y1="274.927" x2="156.25" y2="293.196"/>
				
					<line fill="none" stroke="#3E0F3D" stroke-width="1.5" stroke-linecap="round" stroke-linejoin="round" stroke-miterlimit="10" x1="334.528" y1="278.392" x2="316.89" y2="297.921"/>
				
					<polyline fill="none" stroke="#3E0F3D" stroke-width="1.5" stroke-linecap="round" stroke-linejoin="round" stroke-miterlimit="10" points="
					235.297,161.673 235.297,161.988 234.365,300.756 				"/>
				
					<rect x="243.814" y="193.348" fill="none" stroke="#3E0F3D" stroke-width="1.5" stroke-linecap="round" stroke-linejoin="round" stroke-miterlimit="10" width="21.104" height="20.789"/>
			</g>
		</g>
	</g>
	<g id="XMLID_394_">
		<g>
			<path fill="#E79CC0" d="M235.303,161.673c-2.508,4.17-7.699,11.831-7.699,11.831l-16.442-17.74l11.39-1.701
				C222.552,154.063,230.426,160.312,235.303,161.673z"/>
		</g>
		<g>
			
				<path fill="none" stroke="#3E0F3D" stroke-width="1.5" stroke-linecap="round" stroke-linejoin="round" stroke-miterlimit="10" d="
				M222.552,154.063c0,0,7.875,6.249,12.751,7.61c-2.508,4.17-7.699,11.831-7.699,11.831l-16.442-17.74L222.552,154.063z"/>
		</g>
	</g>
	<g id="XMLID_393_">
		<g>
			<path fill="#E79CC0" d="M259.468,156.394l-15.333,17.576c0,0-6.161-7.761-8.189-12.335c4.989-0.882,13.241-6.778,13.241-6.778
				L259.468,156.394z"/>
		</g>
		<g>
			
				<path fill="none" stroke="#3E0F3D" stroke-width="1.5" stroke-linecap="round" stroke-linejoin="round" stroke-miterlimit="10" d="
				M249.187,154.857c0,0-8.252,5.896-13.241,6.778c2.028,4.574,8.189,12.335,8.189,12.335l15.333-17.576L249.187,154.857z"/>
		</g>
	</g>
</g>
<g>
	<g id="XMLID_392_">
		<g>
			<path fill="#F9F06C" d="M310.75,98.748c2.033,0,3.681,1.648,3.681,3.681c0,2.023-1.647,3.671-3.681,3.671
				c-2.023,0-3.671-1.647-3.671-3.671C307.079,100.396,308.727,98.748,310.75,98.748z"/>
		</g>
		<g>
			<path fill="none" stroke="#3E0F3D" stroke-width="1.5" stroke-linecap="round" stroke-linejoin="round" d="M314.431,102.429
				c0,2.023-1.647,3.671-3.681,3.671c-2.023,0-3.671-1.647-3.671-3.671c0-2.033,1.647-3.681,3.671-3.681
				C312.783,98.748,314.431,100.396,314.431,102.429z"/>
		</g>
	</g>
	<g id="XMLID_391_">
		<g>
			<path fill="#F9F06C" d="M420.344,98.748c2.023,0,3.671,1.648,3.671,3.681c0,2.023-1.647,3.671-3.671,3.671
				c-2.033,0-3.681-1.647-3.681-3.671C416.663,100.396,418.311,98.748,420.344,98.748z"/>
		</g>
		<g>
			<path fill="none" stroke="#3E0F3D" stroke-width="1.5" stroke-linecap="round" stroke-linejoin="round" d="M424.015,102.429
				c0,2.023-1.647,3.671-3.671,3.671c-2.033,0-3.681-1.647-3.681-3.671c0-2.033,1.647-3.681,3.681-3.681
				C422.367,98.748,424.015,100.396,424.015,102.429z"/>
		</g>
	</g>
	<path fill="#F9F06C" d="M387.692,36.833h-80.29V90.02h80.29V36.833z M400.529,78.141v23.496v0.115H297.631V24.997h102.898v0.688
		V78.141z"/>
	<rect id="microwaveScreenLarge" x="307.402" y="36.833" fill="#F9F06C" width="80.29" height="53.186"/>
	<path fill="#F9F06C" d="M400.529,78.141V25.685v-0.688h30.587v76.754h-30.587v-0.115V78.141z M425.704,41.453v-9.511h-19.313v9.511
		H425.704z M424.599,70.507v-7.821v-8.301v-8.009h-8.604h-8.604v8.009v8.301v7.821h8.604H424.599z M423.473,84.659
		c0-4.161-3.233-7.519-7.237-7.519c-3.994,0-7.237,3.358-7.237,7.519c0,4.15,3.243,7.508,7.237,7.508
		C420.239,92.167,423.473,88.81,423.473,84.659z"/>
	<rect id="microwaveScreenSmall" x="406.391" y="31.942" fill="#F9F06C" width="19.313" height="9.511"/>
	<polygon fill="#F9F06C" points="424.599,62.686 424.599,70.507 415.995,70.507 415.995,69.923 415.995,62.686 424.557,62.686 	"/>
	<polygon fill="#F9F06C" points="424.599,54.385 424.599,62.686 424.557,62.686 415.995,62.686 415.995,54.385 424.338,54.385 	"/>
	<polygon fill="#F9F06C" points="424.599,46.375 424.599,54.385 424.338,54.385 415.995,54.385 415.995,47.241 415.995,46.375 	"/>
	<path fill="#F9F06C" d="M416.235,77.14c4.004,0,7.237,3.358,7.237,7.519c0,4.15-3.233,7.508-7.237,7.508
		c-3.994,0-7.237-3.358-7.237-7.508C408.998,80.498,412.241,77.14,416.235,77.14z"/>
	<polygon fill="#F9F06C" points="415.995,69.923 415.995,70.507 407.392,70.507 407.392,62.686 415.995,62.686 	"/>
	<rect x="407.392" y="54.385" fill="#F9F06C" width="8.604" height="8.301"/>
	<polygon fill="#F9F06C" points="415.995,47.241 415.995,54.385 407.392,54.385 407.392,46.375 415.995,46.375 	"/>
	<g>
		<polygon fill="none" stroke="#3E0F3D" stroke-width="1.5" stroke-linecap="round" stroke-linejoin="round" points="
			400.529,24.997 431.116,24.997 431.116,101.751 400.529,101.751 297.631,101.751 297.631,24.997 		"/>
		
			<rect x="307.402" y="36.833" fill="none" stroke="#3E0F3D" stroke-width="1.5" stroke-linecap="round" stroke-linejoin="round" width="80.29" height="53.186"/>
		<path fill="none" stroke="#3E0F3D" stroke-width="1.5" stroke-linecap="round" stroke-linejoin="round" d="M423.473,84.659
			c0,4.15-3.233,7.508-7.237,7.508c-3.994,0-7.237-3.358-7.237-7.508c0-4.161,3.243-7.519,7.237-7.519
			C420.239,77.14,423.473,80.498,423.473,84.659z"/>
		<polyline fill="none" stroke="#3E0F3D" stroke-width="1.5" stroke-linecap="round" stroke-linejoin="round" points="
			400.529,25.685 400.529,78.141 400.529,101.637 		"/>
		
			<rect x="406.391" y="31.942" fill="none" stroke="#3E0F3D" stroke-width="1.5" stroke-linecap="round" stroke-linejoin="round" width="19.313" height="9.511"/>
		<polygon fill="none" stroke="#3E0F3D" stroke-width="1.5" stroke-linecap="round" stroke-linejoin="round" points="
			424.599,62.686 424.599,70.507 415.995,70.507 407.392,70.507 407.392,62.686 407.392,54.385 407.392,46.375 415.995,46.375 
			424.599,46.375 424.599,54.385 		"/>
		<polyline fill="none" stroke="#3E0F3D" stroke-width="1.5" stroke-linecap="round" stroke-linejoin="round" points="
			415.995,47.241 415.995,54.385 415.995,62.686 415.995,69.923 		"/>
		<polyline fill="none" stroke="#3E0F3D" stroke-width="1.5" stroke-linecap="round" stroke-linejoin="round" points="
			407.392,54.385 415.995,54.385 424.338,54.385 		"/>
		<polyline fill="none" stroke="#3E0F3D" stroke-width="1.5" stroke-linecap="round" stroke-linejoin="round" points="
			407.392,62.686 415.995,62.686 424.557,62.686 		"/>
		<path fill="none" stroke="#3E0F3D" stroke-width="1.5" stroke-linecap="round" stroke-linejoin="round" d="M400.092,44.113
			c0,0-11.159,16.863,0.438,34.028c0.031,0.042,0.053,0.083,0.084,0.125"/>
	</g>
</g>
<g id="XMLID_389_">
	<g>
		<path fill="#F9A36A" d="M43.973,50.113c-10.2,0-21.99,4.68-21.99,25.04c0,23.7,17.42,25.99,21.99,25.7v-8.88h-0.96
			c-5-0.74-13.21-2.91-13.21-17.4c0-12.44,6.93-15.01,13.37-15.2h0.8V50.113z"/>
		<path fill="#F9A36A" d="M35.473,108.563c-0.12,3.25,4.88,2.75,8.25,2.75h0.25v-5.25C40.353,106.063,35.593,105.313,35.473,108.563
			z"/>
		<polygon fill="#F9A36A" points="43.973,114.943 43.973,125.943 94.223,125.943 94.223,114.943 72.643,114.943 		"/>
		<path fill="#F9A36A" d="M43.973,111.313v3.63h28.67v-69.17v-0.33h-28.67v4.67v9.26v32.6v8.88v5.21V111.313z M52.143,99.443
			c0-0.09,0-0.36,0-0.78c0-1.15,0-3.42,0-6.33c0-1.89,0-4.05,0-6.34c0-2.04,0-4.19,0-6.34c0-2.14,0-4.28,0-6.34
			c0-2.26,0-4.41,0-6.33c0-2.71,0-4.94,0-6.34c0-1.01,0-1.58,0-1.58s-0.14-4.5,3.44-4.29c3.59,0.21,3.31,3.59,3.31,4.99
			c0,0.11,0,0.41,0,0.88c0,1.2,0,3.47,0,6.34c0,1.9,0,4.05,0,6.33c0,2.05,0,4.2,0,6.34c0,2.15,0,4.3,0,6.34c0,2.29,0,4.45,0,6.34
			c0,2.98,0,5.28,0,6.33c0,0.28,0,0.48,0,0.57c0,1.68-0.14,5.27-3.41,5.13C52.212,104.573,52.143,100.713,52.143,99.443z"/>
		<polygon fill="#F9A36A" points="43.973,34.273 43.973,45.443 72.643,45.443 94.223,45.443 103.303,34.273 		"/>
		<path fill="#F9A36A" d="M52.143,92.333c0,2.91,0,5.18,0,6.33h0.27h6.48c0-1.05,0-3.35,0-6.33h-6.48H52.143z"/>
		<path fill="#F9A36A" d="M52.143,85.993c0,2.29,0,4.45,0,6.34h0.27h6.48c0-1.89,0-4.05,0-6.34h-6.48H52.143z"/>
		<path fill="#F9A36A" d="M52.143,79.653c0,2.15,0,4.3,0,6.34h0.27h6.48c0-2.04,0-4.19,0-6.34h-6.48H52.143z"/>
		<path fill="#F9A36A" d="M52.413,79.653h6.48c0-2.14,0-4.29,0-6.34h-6.48h-0.27c0,2.06,0,4.2,0,6.34H52.413z"/>
		<path fill="#F9A36A" d="M52.143,66.983c0,1.92,0,4.07,0,6.33h0.27h6.48c0-2.28,0-4.43,0-6.33h-6.48H52.143z"/>
		<path fill="#F9A36A" d="M52.143,60.644c0,1.4,0,3.63,0,6.34h0.27h6.48c0-2.87,0-5.14,0-6.34h-6.48H52.143z"/>
		<path fill="#F9A36A" d="M52.413,98.664h-0.27c0,0.42,0,0.69,0,0.78c0,1.27,0.07,5.13,3.34,4.92c3.27,0.14,3.41-3.45,3.41-5.13
			c0-0.09,0-0.29,0-0.57H52.413z"/>
		<path fill="#F9A36A" d="M52.413,60.644h6.48c0-0.47,0-0.77,0-0.88c0-1.4,0.28-4.78-3.31-4.99c-3.58-0.21-3.44,4.29-3.44,4.29
			s0,0.57,0,1.58H52.413z"/>
		<polygon fill="#F9A36A" points="72.643,45.773 72.643,114.943 94.223,114.943 94.223,45.443 72.643,45.443 		"/>
	</g>
	<g>
		<polygon fill="none" stroke="#3E0F3D" stroke-width="1.5" stroke-linecap="round" stroke-linejoin="round" points="
			43.973,114.943 72.643,114.943 94.223,114.943 94.223,45.443 72.643,45.443 43.973,45.443 43.973,50.113 43.973,59.374 
			43.973,91.973 43.973,100.854 43.973,106.063 43.973,111.313 		"/>
		<path fill="none" stroke="#3E0F3D" stroke-width="1.5" stroke-linecap="round" stroke-linejoin="round" d="M43.973,50.113
			c-10.2,0-21.99,4.68-21.99,25.04c0,23.7,17.42,25.99,21.99,25.7"/>
		<path fill="none" stroke="#3E0F3D" stroke-width="1.5" stroke-linecap="round" stroke-linejoin="round" d="M43.172,59.374
			c-6.44,0.19-13.37,2.76-13.37,15.2c0,14.49,8.21,16.66,13.21,17.4"/>
		<polyline fill="none" stroke="#3E0F3D" stroke-width="1.5" stroke-linecap="round" stroke-linejoin="round" points="
			43.973,45.443 43.973,34.273 103.303,34.273 94.223,45.443 		"/>
		<path fill="none" stroke="#3E0F3D" stroke-width="1.5" stroke-linecap="round" stroke-linejoin="round" d="M52.143,98.664
			c0,0.42,0,0.69,0,0.78c0,1.27,0.07,5.13,3.34,4.92c3.27,0.14,3.41-3.45,3.41-5.13c0-0.09,0-0.29,0-0.57c0-1.05,0-3.35,0-6.33
			c0-1.89,0-4.05,0-6.34c0-2.04,0-4.19,0-6.34c0-2.14,0-4.29,0-6.34c0-2.28,0-4.43,0-6.33c0-2.87,0-5.14,0-6.34
			c0-0.47,0-0.77,0-0.88c0-1.4,0.28-4.78-3.31-4.99c-3.58-0.21-3.44,4.29-3.44,4.29s0,0.57,0,1.58c0,1.4,0,3.63,0,6.34
			c0,1.92,0,4.07,0,6.33c0,2.06,0,4.2,0,6.34c0,2.15,0,4.3,0,6.34c0,2.29,0,4.45,0,6.34C52.143,95.243,52.143,97.513,52.143,98.664z
			"/>
		
			<line fill="none" stroke="#3E0F3D" stroke-width="1.5" stroke-linecap="round" stroke-linejoin="round" x1="58.893" y1="73.313" x2="52.413" y2="73.313"/>
		
			<line fill="none" stroke="#3E0F3D" stroke-width="1.5" stroke-linecap="round" stroke-linejoin="round" x1="58.893" y1="79.653" x2="52.413" y2="79.653"/>
		
			<line fill="none" stroke="#3E0F3D" stroke-width="1.5" stroke-linecap="round" stroke-linejoin="round" x1="58.893" y1="85.993" x2="52.413" y2="85.993"/>
		
			<line fill="none" stroke="#3E0F3D" stroke-width="1.5" stroke-linecap="round" stroke-linejoin="round" x1="58.893" y1="92.333" x2="52.413" y2="92.333"/>
		
			<line fill="none" stroke="#3E0F3D" stroke-width="1.5" stroke-linecap="round" stroke-linejoin="round" x1="58.893" y1="98.664" x2="52.413" y2="98.664"/>
		
			<line fill="none" stroke="#3E0F3D" stroke-width="1.5" stroke-linecap="round" stroke-linejoin="round" x1="58.893" y1="66.983" x2="52.413" y2="66.983"/>
		
			<line fill="none" stroke="#3E0F3D" stroke-width="1.5" stroke-linecap="round" stroke-linejoin="round" x1="58.893" y1="60.644" x2="52.413" y2="60.644"/>
		
			<line fill="none" stroke="#3E0F3D" stroke-width="1.5" stroke-linecap="round" stroke-linejoin="round" x1="72.643" y1="45.773" x2="72.643" y2="114.943"/>
		<polyline fill="none" stroke="#3E0F3D" stroke-width="1.5" stroke-linecap="round" stroke-linejoin="round" points="
			94.223,114.943 94.223,125.943 43.973,125.943 43.973,114.943 		"/>
		<path fill="none" stroke="#3E0F3D" stroke-width="1.5" stroke-linecap="round" stroke-linejoin="round" d="M43.973,106.063
			c-3.62,0-8.38-0.75-8.5,2.5s4.88,2.75,8.25,2.75"/>
	</g>
</g>
<path fill="none" stroke="#3E0F3D" stroke-width="1.5" stroke-linecap="round" stroke-linejoin="round" d="M296.604,94.221
	c-4.946-1.293-9.502,4.577-8.58,9.605c0.921,5.028,5.404,8.659,10.057,10.777c10.739,4.889,23.129,4.037,34.836,2.561
	c11.707-1.476,23.729-3.463,35.169-0.574c11.44,2.889,22.25,12.226,22.55,24.021c0.18,7.097-3.366,14.297-1.298,21.089
	c1.838,6.034,7.694,10.125,9.799,16.072c3.405,9.621-3.985,20.661-0.392,30.213c1.799,4.779,6.141,8.252,10.879,10.155
	s10.258,2.396,15.343,2.86"/>
<g id="XMLID_386_">
	<g>
		<path fill="#F15847" d="M303.104,122.635c4.917-0.06,7.097,3.544,7.097,3.544s-2.439,3.695-7.011,3.715
			c-4.381,0.018-6.76-3.267-6.943-3.529v-0.037C296.402,126.048,298.39,122.692,303.104,122.635z"/>
		<path fill="#F15847" d="M296.246,126.328v0.037c-0.008-0.012-0.011-0.018-0.011-0.018S296.24,126.341,296.246,126.328z"/>
		<path fill="#F15847" d="M296.434,133.44c1.045-0.301,2.146-0.476,3.283-0.507c7.211-0.19,13.21,5.503,13.399,12.717
			c0.19,7.211-5.504,13.213-12.717,13.4c-1.482,0.039-2.913-0.171-4.254-0.59c5.087-1.893,8.65-6.858,8.5-12.589
			c-0.149-5.728-3.967-10.499-9.146-12.125C295.804,133.632,296.117,133.53,296.434,133.44z"/>
		<path fill="#F15847" d="M295.499,133.747c5.18,1.625,8.997,6.397,9.146,12.125c0.15,5.731-3.413,10.696-8.5,12.589
			c-5.18-1.625-8.996-6.396-9.146-12.127C286.849,140.605,290.412,135.64,295.499,133.747z"/>
		<path fill="#F15847" d="M291.245,133.155c1.482-0.039,2.913,0.173,4.254,0.592c-5.087,1.893-8.65,6.858-8.5,12.586
			c0.15,5.731,3.967,10.501,9.146,12.127c-1.314,0.489-2.732,0.773-4.215,0.812c-7.214,0.189-13.213-5.504-13.403-12.716
			C278.341,139.344,284.034,133.345,291.245,133.155z"/>
	</g>
	<g>
		
			<path fill="none" stroke="#3E0F3D" stroke-width="1.5" stroke-linecap="round" stroke-linejoin="round" stroke-miterlimit="10" d="
			M295.499,133.747c0.305-0.115,0.618-0.217,0.935-0.307c1.045-0.301,2.146-0.476,3.283-0.507c7.211-0.19,13.21,5.503,13.399,12.717
			c0.19,7.211-5.504,13.213-12.717,13.4c-1.482,0.039-2.913-0.171-4.254-0.59"/>
		
			<path fill="none" stroke="#3E0F3D" stroke-width="1.5" stroke-linecap="round" stroke-linejoin="round" stroke-miterlimit="10" d="
			M295.499,133.747c5.18,1.625,8.997,6.397,9.146,12.125c0.15,5.731-3.413,10.696-8.5,12.589c-1.314,0.489-2.732,0.773-4.215,0.812
			c-7.214,0.189-13.213-5.504-13.403-12.716c-0.187-7.212,5.507-13.212,12.718-13.402
			C292.728,133.116,294.158,133.328,295.499,133.747z"/>
		
			<line fill="none" stroke="#3E0F3D" stroke-width="1.5" stroke-linecap="round" stroke-linejoin="round" stroke-miterlimit="10" x1="296.246" y1="126.328" x2="296.125" y2="121.725"/>
		
			<polyline fill="none" stroke="#3E0F3D" stroke-width="1.5" stroke-linecap="round" stroke-linejoin="round" stroke-miterlimit="10" points="
			296.446,133.961 296.434,133.44 296.246,126.365 		"/>
		<path fill="none" stroke="#3E0F3D" stroke-width="1.5" stroke-linecap="round" stroke-linejoin="round" d="M296.246,126.365
			c-0.008-0.012-0.011-0.018-0.011-0.018s0.005-0.006,0.011-0.019c0.156-0.28,2.144-3.636,6.857-3.693
			c4.917-0.06,7.097,3.544,7.097,3.544s-2.439,3.695-7.011,3.715C298.809,129.912,296.43,126.627,296.246,126.365z"/>
	</g>
</g>
<g>
	<g id="XMLID_385_">
		<g>
			<path fill="#6287C5" d="M121.807,82.029c0,5.954,0,11.417,0,14.7c0,10.482,5.72,11.536,10.336,11.536c4.617,0,8.5,0,16.371,0
				s10.702-3.63,10.702-11.945c0,0,0.124-6.844,0.253-14.288c-3.036,0.028-3.063,1.684-6.155,1.684
				c-3.115,0-3.115-1.687-6.233-1.687c-3.12,0-3.12,1.687-6.237,1.687c-3.118,0-3.118-1.687-6.238-1.687
				c-3.118,0-3.118,1.687-6.237,1.687c-3.12,0-3.12-1.687-6.238-1.687H121.807z"/>
			<path fill="#6287C5" d="M122.604,53.572h-0.796c0,0,0,15.408,0,28.457h0.323c3.118,0,3.118,1.687,6.238,1.687
				c3.12,0,3.12-1.687,6.237-1.687c3.12,0,3.12,1.687,6.238,1.687c3.117,0,3.117-1.687,6.237-1.687c3.118,0,3.118,1.687,6.233,1.687
				c3.092,0,3.12-1.656,6.155-1.684c0.147-8.367,0.3-17.492,0.291-18.504c-0.016-1.914,1.146-3.437,3.956-3.591
				c2.654-0.147,4.839,1.405,4.839,1.405s-0.077-3.67-2.419-5.855c-2.094-1.956-5.891-1.944-6.671-1.921
				c-0.091,0.005-0.143,0.007-0.143,0.007H122.604z"/>
			<path fill="#6287C5" d="M122.604,53.572h36.718c0,0,0.052-0.002,0.143-0.007v-0.009c0-5.727-1.087-9.081-6.235-9.515
				c-5.432-0.461-17.666-0.539-22.624-0.274C125.569,44.04,122.728,46.014,122.604,53.572z"/>
			<circle fill="#6287C5" cx="141.843" cy="36.086" r="4.583"/>
		</g>
		<g>
			
				<path fill="none" stroke="#3E0F3D" stroke-width="1.5" stroke-linecap="round" stroke-linejoin="round" stroke-miterlimit="10" d="
				M159.469,82.031c-0.129,7.444-0.253,14.288-0.253,14.288c0,8.315-2.832,11.945-10.702,11.945s-11.754,0-16.371,0
				c-4.616,0-10.336-1.054-10.336-11.536c0-3.284,0-8.746,0-14.7c0-13.049,0-28.457,0-28.457h0.796h36.718
				c0,0,0.052-0.002,0.143-0.007c0.78-0.023,4.577-0.035,6.671,1.921c2.342,2.185,2.419,5.855,2.419,5.855s-2.186-1.553-4.839-1.405
				c-2.811,0.154-3.972,1.677-3.956,3.591C159.769,64.539,159.616,73.665,159.469,82.031z"/>
			
				<path fill="none" stroke="#3E0F3D" stroke-width="1.5" stroke-linecap="round" stroke-linejoin="round" stroke-miterlimit="10" d="
				M159.464,53.556c0-5.727-1.087-9.081-6.235-9.515c-5.432-0.461-17.666-0.539-22.624-0.274c-5.036,0.272-7.877,2.246-8.001,9.805
				c0,0.068-0.002,0.136-0.002,0.207"/>
			
				<circle fill="none" stroke="#3E0F3D" stroke-width="1.5" stroke-linecap="round" stroke-linejoin="round" stroke-miterlimit="10" cx="141.844" cy="36.087" r="4.585"/>
			
				<line fill="none" stroke="#3E0F3D" stroke-width="1.5" stroke-linecap="round" stroke-linejoin="round" stroke-miterlimit="10" x1="141.536" y1="40.8" x2="141.536" y2="43.189"/>
			
				<path fill="none" stroke="#3E0F3D" stroke-width="1.5" stroke-linecap="round" stroke-linejoin="round" stroke-miterlimit="10" d="
				M159.551,82.029c-0.028,0-0.054,0-0.082,0.002c-3.036,0.028-3.063,1.684-6.155,1.684c-3.115,0-3.115-1.687-6.233-1.687
				c-3.12,0-3.12,1.687-6.237,1.687c-3.118,0-3.118-1.687-6.238-1.687c-3.118,0-3.118,1.687-6.237,1.687
				c-3.12,0-3.12-1.687-6.238-1.687"/>
		</g>
	</g>
	<g id="XMLID_384_">
		<g>
			<path fill="#6287C5" d="M120.46,72.779l0.11-0.002c-0.028-1.005-0.145-4.902-0.072-6.343l-0.272-0.012
				c-6.324-0.45-15.602,2.068-15.85,14.131c-0.234,11.428,4.296,16.86,16.007,16.312l0.183-0.007
				c-0.04-1.291-0.138-4.837-0.065-6.146l-0.352-0.014c0,0-8.823,1.328-8.901-8.828C111.178,72.774,117.884,72.779,120.46,72.779z"
				/>
			<path fill="#6287C5" d="M120.498,66.434c-0.073,1.44,0.044,5.338,0.072,6.343c0.005,0.138,0.007,0.223,0.007,0.236
				c0,0.047,4.176,0.066,9.826,0.066c0-4.148,0-7.079,0-7.079v-0.166c-5.598,0.016-9.751,0.04-9.826,0.063
				C120.54,65.909,120.514,66.108,120.498,66.434z"/>
			<path fill="#6287C5" d="M120.5,90.712c-0.073,1.309,0.025,4.855,0.065,6.146c0.007,0.279,0.012,0.455,0.012,0.476
				c0,0.047,4.176,0.065,9.826,0.065c0-1.813,0-4.368,0-7.247c-5.598,0.017-9.751,0.042-9.826,0.065
				C120.54,90.229,120.517,90.412,120.5,90.712z"/>
			<path fill="#6287C5" d="M130.403,90.152c0,2.879,0,5.434,0,7.247c5.975,0,13.595-0.017,19.657-0.033c0-1.815,0-4.364,0-7.23
				C143.996,90.126,136.376,90.136,130.403,90.152z"/>
			<path fill="#6287C5" d="M130.403,66c0,0,0,2.93,0,7.079c5.975,0,13.595-0.017,19.657-0.033c0-4.129,0-7.046,0-7.046v-0.183
				c-6.064-0.009-13.684-0.002-19.657,0.017V66z"/>
			<path fill="#6287C5" d="M150.06,90.136c0,2.867,0,5.415,0,7.23c5.881-0.017,10.299-0.033,10.336-0.033
				c0.117,0,0.185-7.001,0-7.116C160.319,90.168,155.913,90.143,150.06,90.136z"/>
			<path fill="#6287C5" d="M150.06,66c0,0,0,2.917,0,7.046c5.881-0.017,10.299-0.033,10.336-0.033c0.117,0,0.185-6.999,0-7.116
				c-0.077-0.049-4.483-0.073-10.336-0.08V66z"/>
		</g>
		<g>
			
				<path fill="none" stroke="#3E0F3D" stroke-width="1.5" stroke-linecap="round" stroke-linejoin="round" stroke-miterlimit="10" d="
				M150.06,90.136c5.853,0.007,10.259,0.033,10.336,0.082c0.185,0.115,0.117,7.116,0,7.116c-0.038,0-4.455,0.016-10.336,0.033
				c-6.062,0.016-13.682,0.033-19.657,0.033c-5.649,0-9.826-0.019-9.826-0.065c0-0.021-0.005-0.197-0.012-0.476
				c-0.04-1.291-0.138-4.837-0.065-6.146c0.016-0.3,0.04-0.483,0.077-0.495c0.075-0.023,4.228-0.049,9.826-0.065
				C136.376,90.136,143.996,90.126,150.06,90.136z"/>
			
				<path fill="none" stroke="#3E0F3D" stroke-width="1.5" stroke-linecap="round" stroke-linejoin="round" stroke-miterlimit="10" d="
				M150.06,65.818c5.853,0.007,10.259,0.03,10.336,0.08c0.185,0.117,0.117,7.116,0,7.116c-0.038,0-4.455,0.017-10.336,0.033
				c-6.062,0.016-13.682,0.033-19.657,0.033c-5.649,0-9.826-0.019-9.826-0.066c0-0.014-0.002-0.098-0.007-0.236
				c-0.028-1.005-0.145-4.902-0.072-6.343c0.016-0.326,0.042-0.525,0.08-0.537c0.075-0.023,4.228-0.047,9.826-0.063
				C136.376,65.815,143.996,65.809,150.06,65.818z"/>
			
				<path fill="none" stroke="#3E0F3D" stroke-width="1.5" stroke-linecap="round" stroke-linejoin="round" stroke-miterlimit="10" d="
				M161.792,115.643c-1.834,0-7.615,0-9.507,0c-1.358,0-2.263-0.429-2.225-2.382c0-3.574,0-10.278,0-13.779c0-0.49,0-1.211,0-2.115
				c0-1.815,0-4.364,0-7.23c0-5.491,0-12.157,0-17.089c0-4.129,0-7.046,0-7.046"/>
			
				<path fill="none" stroke="#3E0F3D" stroke-width="1.5" stroke-linecap="round" stroke-linejoin="round" stroke-miterlimit="10" d="
				M117.596,115.643c1.834,0,8.69,0,10.583,0c1.358,0,2.263-0.429,2.225-2.382c0-3.574,0-10.278,0-13.779c0-0.483,0-1.192,0-2.083
				c0-1.813,0-4.368,0-7.247c0-5.483,0-12.138,0-17.073c0-4.148,0-7.079,0-7.079"/>
			
				<path fill="none" stroke="#3E0F3D" stroke-width="1.5" stroke-linecap="round" stroke-linejoin="round" stroke-miterlimit="10" d="
				M120.46,72.779c-2.577,0-9.283-0.005-9.212,9.09c0.078,10.156,8.901,8.828,8.901,8.828"/>
			
				<path fill="none" stroke="#3E0F3D" stroke-width="1.5" stroke-linecap="round" stroke-linejoin="round" stroke-miterlimit="10" d="
				M120.226,66.422c-6.324-0.45-15.602,2.068-15.85,14.131c-0.234,11.428,4.296,16.86,16.007,16.312"/>
		</g>
	</g>
</g>
<g id="XMLID_383_">
	<g>
		<polygon fill="#F15847" points="221.805,46.069 221.872,69.156 190.231,69.247 190.214,63.268 190.178,50.95 190.165,46.16 		"/>
	</g>
	<g>
		
			<polygon fill="none" stroke="#3E0F3D" stroke-width="1.5" stroke-linecap="round" stroke-linejoin="round" stroke-miterlimit="10" points="
			190.214,63.268 190.231,69.247 221.872,69.156 221.805,46.069 190.165,46.16 190.178,50.95 		"/>
		
			<path fill="none" stroke="#3E0F3D" stroke-width="1.5" stroke-linecap="round" stroke-linejoin="round" stroke-miterlimit="10" d="
			M189.771,50.951c-3.391-0.609-7.332-0.142-7.577,5.398c-0.261,5.557,3.214,7.388,7.547,6.919"/>
	</g>
</g>
<g>
	<g>
		
			<circle fill="#F15847" stroke="#3E0F3D" stroke-width="1.5" stroke-linecap="round" stroke-linejoin="round" cx="344.005" cy="153.139" r="24.568"/>
	</g>
	<g id="XMLID_382_">
		<g>
			<path fill="#F15847" d="M358.593,138.05c3.399,2.363,3.382,4.969,3.364,6.658c-0.027,2.513-2.921,3.772-5.129,4.969
				c-0.576,0.31-1.13,0.66-1.666,1.042l-0.115-0.479c-1.552-12.411-13.52-13.297-13.52-13.297l-0.102-0.288
				C347.414,134.535,353.327,134.389,358.593,138.05z"/>
			<path fill="#F15847" d="M350.393,155.336h0.412c-1.325,2.07-2.203,4.428-2.495,6.87c-9.836-3.329-18.971,0.665-18.971,0.665
				l-0.054,0.022c-1.348-3.036-1.87-6.449-1.383-9.738c0.222-1.498,0.674-3.027,1.316-4.521l0.12,0.053
				C329.339,148.688,342.414,147.358,350.393,155.336z"/>
			<path fill="#F15847" d="M348.31,162.207c-0.311,2.598-0.062,5.457-1.587,7.588c-1.18,1.653-3.267,2.513-5.297,2.513
				c-2.034,0-4.003-0.771-5.723-1.848c-2.854-1.791-5.058-4.486-6.418-7.566l0.054-0.022
				C329.339,162.872,338.474,158.878,348.31,162.207z"/>
			<path fill="#F15847" d="M355.162,150.718c-1.729,1.241-3.214,2.824-4.357,4.619h-0.412c-7.979-7.979-21.054-6.648-21.054-6.648
				l-0.12-0.053c2.189-5.115,6.582-9.849,11.423-11.693c0.261-0.098,0.522-0.195,0.784-0.288l0.102,0.288
				c0,0,11.968,0.886,13.52,13.297L355.162,150.718z"/>
		</g>
		<g>
			
				<path fill="none" stroke="#3E0F3D" stroke-width="1.5" stroke-linecap="round" stroke-linejoin="round" stroke-miterlimit="10" d="
				M355.162,150.718c0.536-0.381,1.09-0.731,1.666-1.042c2.208-1.197,5.102-2.456,5.129-4.969c0.018-1.689,0.035-4.295-3.364-6.658
				c-5.266-3.661-11.179-3.515-17.167-1.396c-0.262,0.093-0.523,0.19-0.784,0.288c-4.841,1.844-9.233,6.578-11.423,11.693
				c-0.643,1.494-1.095,3.023-1.316,4.521c-0.487,3.289,0.035,6.702,1.383,9.738c1.36,3.081,3.563,5.775,6.418,7.566
				c1.72,1.077,3.688,1.848,5.723,1.848c2.03,0,4.117-0.86,5.297-2.513c1.524-2.132,1.276-4.991,1.587-7.588
				c0.292-2.442,1.17-4.8,2.495-6.87C351.948,153.542,353.434,151.959,355.162,150.718z"/>
			
				<path fill="none" stroke="#3E0F3D" stroke-width="1.5" stroke-linecap="round" stroke-linejoin="round" stroke-miterlimit="10" d="
				M329.339,162.872c0,0,9.135-3.994,18.971-0.665"/>
			
				<path fill="none" stroke="#3E0F3D" stroke-width="1.5" stroke-linecap="round" stroke-linejoin="round" stroke-miterlimit="10" d="
				M329.339,148.688c0,0,13.075-1.33,21.054,6.648"/>
			
				<path fill="none" stroke="#3E0F3D" stroke-width="1.5" stroke-linecap="round" stroke-linejoin="round" stroke-miterlimit="10" d="
				M341.527,136.942c0,0,11.968,0.886,13.52,13.297"/>
		</g>
	</g>
</g>
<g>
	<g id="XMLID_381_">
		<g>
			<path fill="#F9A36A" d="M423.487,126.043c7.159,0.499,24.214,5.313,23.424,25.037c-0.625,15.643-16.229,22.649-30.34,19.827
				c-15.731-3.15-18.983-17.497-18.4-24.641C399.581,128.909,416.334,125.545,423.487,126.043z"/>
		</g>
		<g>
			
				<path fill="none" stroke="#3E0F3D" stroke-width="1.5" stroke-linecap="round" stroke-linejoin="round" stroke-miterlimit="10" d="
				M398.171,146.266c-0.583,7.144,2.669,21.491,18.4,24.641c14.11,2.822,29.715-4.185,30.34-19.827
				c0.79-19.724-16.265-24.539-23.424-25.037C416.334,125.545,399.581,128.909,398.171,146.266z"/>
		</g>
	</g>
	<g id="XMLID_380_">
		<g>
			<path fill="#F9A36A" d="M437.058,142.762l0.549,0.008c-0.021,2.023-0.069,4.02-0.15,5.88c-0.081,1.843-0.197,3.549-0.352,4.984
				c-0.201,1.778-0.467,3.146-0.818,3.878c-1.855,3.857-7.855,3.857-12.711,3.857c-4.864,0-11.571-0.287-14.002-2.001
				c-2.43-1.714-3.433-4.997-3.433-8.708c0-1.282,0.068-4.47,0.154-8.1h0.013C411.069,144.746,426.742,146.332,437.058,142.762z"/>
			<path fill="#F9A36A" d="M437.571,148.654c0,0,6.716,0.146,6.857-7.427c0.099-5.246-5.186-5.957-6.836-6.257
				c-0.017-1.749-0.047-3.364-0.077-4.744c2.551,0.184,11.481,1.83,11.058,11.858c-0.489,11.571-11.289,11.571-11.289,11.571
				l-0.18-0.021c0.154-1.436,0.271-3.142,0.352-4.984L437.571,148.654z"/>
			<path fill="#F9A36A" d="M437.593,134.97c0.034,2.443,0.043,5.139,0.014,7.8l-0.549-0.008c-10.315,3.57-25.988,1.984-30.75-0.202
				h-0.013c0.176-6.878,0.42-15.338,0.42-15.338c0,2.721,6.845,3.287,15.759,3.433c8.918,0.146,13.954-1.161,14.683-3
				c0.12-0.304,0.176-0.578,0.176-0.831h0.099c0.021,0.801,0.051,1.976,0.085,3.403C437.546,131.606,437.576,133.222,437.593,134.97
				z"/>
			<path fill="#F9A36A" d="M437.332,126.823c0,0.253-0.056,0.527-0.176,0.831c-0.729,1.839-5.765,3.146-14.683,3
				c-8.914-0.146-15.759-0.711-15.759-3.433c0-1.341,1.427-2.207,2.944-2.64c0,0,5.396-0.775,11.905-0.775
				c6.506,0,12.313,0.703,12.313,0.703S437.332,124.826,437.332,126.823z"/>
		</g>
		<g>
			
				<path fill="none" stroke="#3E0F3D" stroke-width="1.5" stroke-linecap="round" stroke-linejoin="round" stroke-miterlimit="10" d="
				M406.715,127.222c0-1.341,1.427-2.207,2.944-2.64c0,0,5.396-0.775,11.905-0.775c6.506,0,12.313,0.703,12.313,0.703
				s3.454,0.317,3.454,2.314c0,0.253-0.056,0.527-0.176,0.831c-0.729,1.839-5.765,3.146-14.683,3
				C413.56,130.509,406.715,129.943,406.715,127.222z"/>
			
				<path fill="none" stroke="#3E0F3D" stroke-width="1.5" stroke-linecap="round" stroke-linejoin="round" stroke-miterlimit="10" d="
				M406.715,127.222c0,0-0.244,8.46-0.42,15.338c-0.086,3.63-0.154,6.818-0.154,8.1c0,3.711,1.003,6.994,3.433,8.708
				c2.431,1.714,9.138,2.001,14.002,2.001c4.855,0,10.855,0,12.711-3.857c0.352-0.733,0.617-2.1,0.818-3.878
				c0.154-1.436,0.271-3.142,0.352-4.984c0.081-1.86,0.129-3.857,0.15-5.88c0.029-2.661,0.021-5.357-0.014-7.8
				c-0.017-1.749-0.047-3.364-0.077-4.744c-0.034-1.427-0.063-2.602-0.085-3.403c0-0.009,0-0.017,0-0.026"/>
			
				<path fill="none" stroke="#3E0F3D" stroke-width="1.5" stroke-linecap="round" stroke-linejoin="round" stroke-miterlimit="10" d="
				M437.431,130.222c0.025,0,0.056,0.004,0.085,0.004c2.551,0.184,11.481,1.83,11.058,11.858
				c-0.489,11.571-11.289,11.571-11.289,11.571"/>
			
				<path fill="none" stroke="#3E0F3D" stroke-width="1.5" stroke-linecap="round" stroke-linejoin="round" stroke-miterlimit="10" d="
				M437.431,134.94c0.051,0.009,0.103,0.021,0.162,0.03c1.65,0.3,6.935,1.011,6.836,6.257c-0.142,7.573-6.857,7.427-6.857,7.427"/>
			
				<path fill="none" stroke="#3E0F3D" stroke-width="1.5" stroke-linecap="round" stroke-linejoin="round" stroke-miterlimit="10" d="
				M406.308,142.56c4.762,2.186,20.435,3.771,30.75,0.202"/>
		</g>
	</g>
</g>
<g>
	<g>
		
			<circle fill="#3BB98A" stroke="#3E0F3D" stroke-width="1.5" stroke-linecap="round" stroke-linejoin="round" cx="119.338" cy="159.139" r="31.75"/>
	</g>
	<g id="XMLID_379_">
		<g>
			<path fill="#F9F06C" d="M113.322,156.134c3.828-0.573,12.894-2.902,16.34,1.579c5.924-0.938,25.959-4.116,30.936-4.861
				c3.386-0.507,11.359-1.843,15.72-2.497c4.36-0.653,6.341,0.459,6.499,2.56c0.142,1.895-0.887,3.447-5.078,4.278
				c-4.191,0.831-11.013,1.853-15.02,2.453c-6.632,0.993-24.143,3.615-31.958,4.785c-1.739,6.111-11.273,6.497-15.131,7.075
				l2.472-3.995l-3.244-1.125l2.604-3.146l-3.372-1.98l2.732-2.29L113.322,156.134z"/>
		</g>
		<g>
			<path fill="none" stroke="#3E0F3D" stroke-width="1.5" stroke-linecap="round" stroke-linejoin="round" d="M113.322,156.134
				l3.5,2.836l-2.732,2.29l3.372,1.98l-2.604,3.146l3.244,1.125l-2.472,3.995c3.858-0.578,13.393-0.963,15.131-7.075
				c7.815-1.17,25.326-3.792,31.958-4.785c4.007-0.6,10.829-1.622,15.02-2.453c4.191-0.831,5.22-2.383,5.078-4.278
				c-0.157-2.101-2.138-3.213-6.499-2.56c-4.36,0.653-12.334,1.989-15.72,2.497c-4.977,0.745-25.012,3.923-30.936,4.861
				C126.216,153.232,117.15,155.561,113.322,156.134z"/>
		</g>
	</g>
	<g id="XMLID_378_">
		<g>
			<path fill="#F9F06C" d="M155.694,141.908l0.147,0.601c0,0,12.618-2.614,18.308-3.927c3.286-0.758,11.086-2.392,15.318-3.368
				c4.232-0.977,5.58-2.976,4.875-5.354c-0.638-2.148-2.202-3.458-6.351-2.745c-4.149,0.714-10.772,2.24-14.661,3.138
				c-7.028,1.622-13.155,3.036-19.399,4.478l0.098,0.396L155.694,141.908z"/>
			<path fill="#F9F06C" d="M118.847,150.412c8.934-1.843,36.306-8.374,36.847-8.504l-1.666-6.783l-0.043,0.01
				c0,0-7.513,1.402-15.731,3.19C130.034,140.112,116.914,142.037,118.847,150.412z"/>
		</g>
		<g>
			<path fill="none" stroke="#3E0F3D" stroke-width="1.5" stroke-linecap="round" stroke-linejoin="round" d="M154.028,135.125
				l-0.098-0.396c6.244-1.441,12.371-2.855,19.399-4.478c3.889-0.897,10.512-2.423,14.661-3.138
				c4.149-0.714,5.713,0.596,6.351,2.745c0.705,2.379-0.642,4.377-4.875,5.354c-4.232,0.977-12.033,2.61-15.318,3.368
				c-5.69,1.313-18.308,3.927-18.308,3.927l-0.147-0.601L154.028,135.125z"/>
			<path fill="none" stroke="#3E0F3D" stroke-width="1.5" stroke-linecap="round" stroke-linejoin="round" d="M153.985,135.135
				c0,0-7.513,1.402-15.731,3.19c-8.22,1.787-21.339,3.712-19.406,12.087c8.934-1.843,36.306-8.374,36.847-8.504
				c0.006-0.001,0.008-0.002,0.008-0.002"/>
			
				<line fill="none" stroke="#3E0F3D" stroke-width="1.5" stroke-linecap="round" stroke-linejoin="round" x1="125.021" y1="146.967" x2="125.425" y2="148.719"/>
			
				<line fill="none" stroke="#3E0F3D" stroke-width="1.5" stroke-linecap="round" stroke-linejoin="round" x1="130.05" y1="146.052" x2="130.428" y2="147.688"/>
			
				<line fill="none" stroke="#3E0F3D" stroke-width="1.5" stroke-linecap="round" stroke-linejoin="round" x1="134.468" y1="145.156" x2="134.791" y2="146.558"/>
			
				<line fill="none" stroke="#3E0F3D" stroke-width="1.5" stroke-linecap="round" stroke-linejoin="round" x1="139.319" y1="143.913" x2="139.669" y2="145.432"/>
			
				<line fill="none" stroke="#3E0F3D" stroke-width="1.5" stroke-linecap="round" stroke-linejoin="round" x1="144.197" y1="142.788" x2="144.547" y2="144.306"/>
			
				<line fill="none" stroke="#3E0F3D" stroke-width="1.5" stroke-linecap="round" stroke-linejoin="round" x1="149.465" y1="141.572" x2="149.789" y2="142.973"/>
		</g>
	</g>
</g>
<g>
	<g id="XMLID_614_">
		<g>
			<path fill="#F9F06C" d="M402.235,386.263c4.661,13.994-2.912,29.123-16.906,33.784s-29.123-2.903-33.784-16.896
				c-4.662-14.004,2.902-29.123,16.906-33.785C382.445,364.704,397.574,372.269,402.235,386.263z"/>
		</g>
		<g>
			
				<path fill="none" stroke="#3E0F3D" stroke-width="1.5" stroke-linecap="round" stroke-linejoin="round" stroke-miterlimit="10" d="
				M402.235,386.263c4.661,13.994-2.912,29.123-16.906,33.784s-29.123-2.903-33.784-16.896
				c-4.662-14.004,2.902-29.123,16.906-33.785C382.445,364.704,397.574,372.269,402.235,386.263z"/>
		</g>
	</g>
	<g id="XMLID_387_">
		<g>
			<path fill="#F9F06C" d="M373.904,382.684c-0.126-1.513,5.808-2.647,7.096-2.687c1.292-0.038,11.999,7.855,11.237,10.047
				c-0.76,2.188-6.593,0.501-10.703-2.424c-0.739-0.527-1.458-0.994-2.139-1.409C376.294,384.311,373.969,383.442,373.904,382.684z"
				/>
			<path fill="#F9F06C" d="M369.583,399.466c-1.387-3.959-3.213-7.943-3.53-8.346c-0.082-0.103-0.177-0.178-0.287-0.229l0.011-0.029
				c0.607,0.194,7.192,2.333,11.288,4.478c-2.28-3.836-3.135-8.803-3.203-11.429c-0.015-0.503,0.004-0.922,0.043-1.228
				c0.064,0.759,2.39,1.627,5.491,3.527l-0.018,0.03c0,0,3.195,5.168,6.861,8.78c3.428,3.368,4.925,7.065,2.535,10.185
				c-0.17,0.219-0.358,0.437-0.564,0.65c-0.591,0.606-1.205,1.093-1.836,1.464c-2.712,1.611-5.696,1.077-8.527-1.061
				c-3.482-2.634-7.732-6.64-8.15-6.833L369.583,399.466z"/>
			<path fill="#F9F06C" d="M365.766,390.892c-0.584-0.271-1.522,0.148-2.414,0.822l-0.076-0.101
				c-4.986-4.919-7.474-9.244-9.78-14.076c-2.303-4.83-2.102-9.376,0.56-11.247c2.659-1.876,6.267,2.201,9.504,6.48
				c3.244,4.275,7.106,8.574,10.061,11.146l0.242-0.006c0.068,2.626,0.923,7.593,3.203,11.429
				c-4.096-2.145-10.681-4.283-11.288-4.478L365.766,390.892z"/>
			<path fill="#F9F06C" d="M363.352,391.714c0.892-0.674,1.83-1.093,2.414-0.822c0.11,0.051,0.205,0.126,0.287,0.229
				c0.317,0.402,2.144,4.387,3.53,8.346c1.391,3.976,2.338,7.922,0.872,8.195c-2.926,0.55-9.782-11.532-9.465-13.037
				C361.154,393.842,362.217,392.572,363.352,391.714z"/>
			<path fill="#F9F06C" d="M388.774,405.206l0.089,0.064l4.044,4.161l-2.253,2.389l-4.203-4.369l-0.077-0.131
				c0.631-0.371,1.245-0.857,1.836-1.464C388.416,405.643,388.604,405.425,388.774,405.206z"/>
		</g>
		<g>
			
				<path fill="none" stroke="#3E0F3D" stroke-width="1.5" stroke-linecap="round" stroke-linejoin="round" stroke-miterlimit="10" d="
				M369.583,399.466c-1.387-3.959-3.213-7.943-3.53-8.346c-0.082-0.103-0.177-0.178-0.287-0.229
				c-0.584-0.271-1.522,0.148-2.414,0.822c-1.135,0.858-2.197,2.128-2.361,2.91c-0.317,1.505,6.539,13.587,9.465,13.037
				C371.921,407.388,370.974,403.441,369.583,399.466z"/>
			
				<path fill="none" stroke="#3E0F3D" stroke-width="1.5" stroke-linecap="round" stroke-linejoin="round" stroke-miterlimit="10" d="
				M373.904,382.684c-0.126-1.513,5.808-2.647,7.096-2.687c1.292-0.038,11.999,7.855,11.237,10.047
				c-0.76,2.188-6.593,0.501-10.703-2.424c-0.739-0.527-1.458-0.994-2.139-1.409C376.294,384.311,373.969,383.442,373.904,382.684z"
				/>
			
				<path fill="none" stroke="#3E0F3D" stroke-width="1.5" stroke-linecap="round" stroke-linejoin="round" stroke-miterlimit="10" d="
				M365.73,390.845c0,0,0.018,0.004,0.046,0.018c0.607,0.194,7.192,2.333,11.288,4.478c-2.28-3.836-3.135-8.803-3.203-11.429
				c-0.015-0.503,0.004-0.922,0.043-1.228"/>
			
				<path fill="none" stroke="#3E0F3D" stroke-width="1.5" stroke-linecap="round" stroke-linejoin="round" stroke-miterlimit="10" d="
				M369.696,399.427c0.418,0.193,4.668,4.199,8.15,6.833c2.831,2.138,5.815,2.672,8.527,1.061c0.631-0.371,1.245-0.857,1.836-1.464
				c0.206-0.214,0.395-0.432,0.564-0.65c2.39-3.119,0.893-6.816-2.535-10.185c-3.666-3.612-6.861-8.78-6.861-8.78"/>
			
				<polyline fill="none" stroke="#3E0F3D" stroke-width="1.5" stroke-linecap="round" stroke-linejoin="round" stroke-miterlimit="10" points="
				386.451,407.451 390.654,411.82 392.907,409.432 388.863,405.271 			"/>
			
				<path fill="none" stroke="#3E0F3D" stroke-width="1.5" stroke-linecap="round" stroke-linejoin="round" stroke-miterlimit="10" d="
				M363.275,391.613c-4.986-4.919-7.474-9.244-9.78-14.076c-2.303-4.83-2.102-9.376,0.56-11.247c2.659-1.876,6.267,2.201,9.504,6.48
				c3.244,4.275,7.106,8.574,10.061,11.146"/>
		</g>
	</g>
</g>
<path fill="none" stroke="#3E0F3D" stroke-width="1.5" stroke-linecap="round" stroke-linejoin="round" d="M43.974,119.978
	c-4.342-0.152-8.109,2.293-10.225,6.088c-2.115,3.795-1.915,8.768,0.499,12.38c2.744,4.109,7.654,6.062,12.066,8.287
	c4.411,2.225,8.984,5.521,9.734,10.405c1.349,8.783-9.918,14.167-12.731,22.596c-1.725,5.167-0.003,10.869,2.544,15.684
	c2.546,4.815,5.924,9.212,7.853,14.306c2.91,7.685,2.153,16.669-2.001,23.76c-4.153,7.091-11.62,12.144-19.747,13.363"/>
<g id="steam">
	
		<path id="steam1" fill="none" stroke="#3E0F3D" stroke-width="1.5" stroke-linecap="round" stroke-linejoin="round" stroke-miterlimit="10" d="
		M105.32,30.296c2.278-1.679,2.946-5.186,1.444-7.585c-1.083-1.732-3.171-3.108-3.05-5.148c0.138-2.335,3.235-4.005,2.679-6.277"/>
	
		<path id="steam2" fill="none" stroke="#3E0F3D" stroke-width="1.5" stroke-linecap="round" stroke-linejoin="round" stroke-miterlimit="10" d="
		M110.421,31.349c2.291-0.645,3.248-3.505,2.861-5.854s-1.7-4.429-2.468-6.682s-0.861-5.048,0.846-6.706"/>
	
		<path id="steam3" fill="none" stroke="#3E0F3D" stroke-width="1.5" stroke-linecap="round" stroke-linejoin="round" stroke-miterlimit="10" d="
		M117.225,29.481c1.879-1.539,2.716-4.238,2.037-6.57c-0.557-1.912-1.98-3.437-2.868-5.219s-1.071-4.266,0.507-5.48"/>
</g>
<g id="candle">
	<path fill="#F9F06C" d="M41.68,405.969l-0.004-25.662c0.001-0.047,0.001-0.09,0.002-0.137c0.003-5.185-4.2-9.387-9.385-9.39
		c-5.181,0.005-9.382,4.204-9.381,9.385l-0.002,25.803c-4.195,2.956-6.936,7.836-6.936,13.354c0.001,9.013,7.31,16.321,16.323,16.32
		c9.012,0.007,16.321-7.302,16.32-16.318C48.616,413.801,45.877,408.923,41.68,405.969z"/>
	<g>
		<path fill="none" stroke="#3E0F3D" stroke-width="1.5" stroke-linecap="round" stroke-linejoin="round" d="M41.68,405.969
			c4.197,2.954,6.936,7.832,6.936,13.354c0.001,9.017-7.308,16.325-16.32,16.318c-9.013,0.001-16.321-7.308-16.323-16.32
			c0-5.518,2.741-10.397,6.936-13.354"/>
		<polyline fill="none" stroke="#3E0F3D" stroke-width="1.5" stroke-linecap="round" stroke-linejoin="round" points="
			22.912,380.165 22.91,405.968 22.91,419.97 41.681,419.97 41.68,405.969 41.676,380.307 		"/>
		<path fill="none" stroke="#3E0F3D" stroke-width="1.5" stroke-linecap="round" stroke-linejoin="round" d="M41.678,380.17
			c0,0.047-0.001,0.09-0.002,0.137c-0.073,5.117-4.246,9.243-9.379,9.244c-5.185,0.001-9.388-4.2-9.385-9.386
			c-0.001-5.181,4.2-9.38,9.381-9.385C37.478,370.783,41.682,374.985,41.678,380.17z"/>
	</g>
</g>
<g id="flameGroup">
	<path id="flame1" fill="#F9F06C" stroke="#3E0F3D" stroke-width="1.5" stroke-linecap="round" stroke-linejoin="round" d="
		M32.2,374.89c-0.04,0-0.07,0-0.1,0c-2.41-0.04-4.33-2.02-4.29-4.42c0.05-3.66,4.52-11.83,4.52-11.83s4.25,7.94,4.19,11.95
		C36.49,372.96,34.56,374.87,32.2,374.89z">
    

        
    
    </path>
	<polyline fill="none" stroke="#3E0F3D" stroke-width="1.5" stroke-linecap="round" stroke-linejoin="round" points="32.25,381.13 
		32.2,374.89 32.17,370.94 	"/>
</g>
</svg>
