<svg version="1.0" id="Q6" xmlns="http://www.w3.org/2000/svg" xmlns:xlink="http://www.w3.org/1999/xlink" x="0px" y="0px"
	 width="100%" height="100%" viewBox="0 0 460 460" enable-background="new 0 0 460 460" xml:space="preserve">

<style>
    #hourHand {
        transform-origin: bottom;
        -webkit-transform-origin: bottom;
        -moz-transform-origin: bottom;    
        -webkit-animation: hour 900s infinite linear;
    }
    
    #minuteHand {
        transform-origin: bottom;
        -webkit-transform-origin: bottom;
        -moz-transform-origin: bottom;        
        -webkit-animation: minute 30s infinite linear;
    }
    
    #z1 {
        animation: snore1 4s infinite;
        transform-origin: bottom;
        -webkit-transform-origin: bottom;   
        -moz-transform-origin: bottom;        
        -webkit-animation: snore1 4s infinite;
        opacity: 0;
    }
    
    #z2 {
        animation: snore2 4s infinite;
        transform-origin: bottom;
        -webkit-transform-origin: bottom;
        -moz-transform-origin: bottom;        
        -webkit-animation: snore2 4s infinite;
        opacity: 0;    
    }
    
    #z3 {
        animation: snore3 4s infinite;
        transform-origin: bottom;
        -webkit-transform-origin: bottom;
        -moz-transform-origin: bottom;        
        -webkit-animation: snore3 4s infinite;
        opacity: 0;    
    }
    
    #head {
        transform-origin: bottom left;
        -webkit-transform-origin: bottom left;
        -moz-transform-origin: bottom left;        
        -webkit-animation: bob 4s infinite;
    }
    
    @keyframes hour {
        0% {
            transform: rotate(120deg);
        }
        100% {
            transform: rotate(480deg);
        }
    }
    
    @-webkit-keyframes hour {
        0% {
            -webkit-transform: rotate(120deg);
        }
        100% {
            -webkit-transform: rotate(480deg);
        }    
    }
    
    @keyframes minute {
        0% {
            transform: rotate(0deg);
        }
        100% {
            transform: rotate(360deg);
        }
    }
    
    @-webkit-keyframes minute {
        0% {
            transform: rotate(0deg);
        }
        100% {
            transform: rotate(360deg);
        }    
    }
    
    @keyframes snore1 {
        0% {
            opacity: 0;
        }
        20% {
            opacity: 1;        
        }
        100% {
            opacity: 0;
        }
    }
    
    @-webkit-keyframes snore1 {
        0% {
            opacity: 0;
        }
        20% {
            opacity: 1;        
        }
        100% {
            opacity: 0;
        }
    }
    
    @keyframes snore2 {
        0% {
            opacity: 0;
        }
        20% {
            opacity: 0;
        }    
        40% {
            opacity: 1;        
        }
        100% {
            opacity: 0;
        }
    }
    
    @-webkit-keyframes snore2 {
        0% {
            opacity: 0;
        }
        20% {
            opacity: 0;
        }    
        40% {
            opacity: 1;        
        }
        100% {
            opacity: 0;
        }
    }    
    
    @keyframes snore3 {
        0% {
            opacity: 0;
        }
        40% {
            opacity: 0;
        }    
        60% {
            opacity: 1;        
        }
        100% {
            opacity: 0;
        }
    }
    
    @keyframes bob {
        0% {
            transform: rotate(0deg);
        }
        90% {
            transform: rotate(6deg);
        }
        100% {
            transform: rotate(0deg);
        }    
    }    
    
    
    
</style>    
    
<pattern  y="460" width="27.334" height="25.918" patternUnits="userSpaceOnUse" id="bodky_x5F_nove_6" viewBox="0.833 -26.716 27.334 25.918" overflow="visible">
	<g>
		<polygon fill="none" points="0.833,-26.717 28.167,-26.717 28.167,-0.799 0.833,-0.799 		"/>
		<g>
			
				<path fill="none" stroke="#3D0F3D" stroke-width="0.8" stroke-linecap="round" stroke-linejoin="round" stroke-miterlimit="10" d="
				M1.912-0.56C1.873-0.514,1.844-0.457,1.833-0.4"/>
			
				<path fill="none" stroke="#3D0F3D" stroke-width="0.8" stroke-linecap="round" stroke-linejoin="round" stroke-miterlimit="10" d="
				M22.02-0.654c-0.039,0.043-0.068,0.1-0.079,0.158"/>
		</g>
		<g>
			
				<path fill="none" stroke="#3D0F3D" stroke-width="0.8" stroke-linecap="round" stroke-linejoin="round" stroke-miterlimit="10" d="
				M28.555-7.28c0,0.024,0,0.053,0,0.078"/>
			
				<path fill="none" stroke="#3D0F3D" stroke-width="0.8" stroke-linecap="round" stroke-linejoin="round" stroke-miterlimit="10" d="
				M28.492-9.935c0.003,0.046,0.026,0.085,0.062,0.096"/>
		</g>
		<g>
			
				<path fill="none" stroke="#3D0F3D" stroke-width="0.8" stroke-linecap="round" stroke-linejoin="round" stroke-miterlimit="10" d="
				M1.667-22.01c0.105,0.102,0.139,0.227,0.105,0.372"/>
			
				<path fill="none" stroke="#3D0F3D" stroke-width="0.8" stroke-linecap="round" stroke-linejoin="round" stroke-miterlimit="10" d="
				M3.369-23.128c0.018,0.06,0,0.097-0.053,0.105"/>
			
				<path fill="none" stroke="#3D0F3D" stroke-width="0.8" stroke-linecap="round" stroke-linejoin="round" stroke-miterlimit="10" d="
				M1.667-24.246c0,0.053,0,0.107,0,0.159"/>
			
				<path fill="none" stroke="#3D0F3D" stroke-width="0.8" stroke-linecap="round" stroke-linejoin="round" stroke-miterlimit="10" d="
				M27.317-25.825c0.003,0.027-0.01,0.041-0.039,0.038"/>
			
				<path fill="none" stroke="#3D0F3D" stroke-width="0.8" stroke-linecap="round" stroke-linejoin="round" stroke-miterlimit="10" d="
				M5.287-22.995c0.014,0.025,0.026,0.054,0.041,0.08"/>
			
				<path fill="none" stroke="#3D0F3D" stroke-width="0.8" stroke-linecap="round" stroke-linejoin="round" stroke-miterlimit="10" d="
				M3.607-25.159c0.058,0.081,0.055,0.141-0.042,0.161"/>
			
				<path fill="none" stroke="#3D0F3D" stroke-width="0.8" stroke-linecap="round" stroke-linejoin="round" stroke-miterlimit="10" d="
				M6.206-25.072c-0.021,0.061-0.012,0.107,0.039,0.121"/>
			
				<path fill="none" stroke="#3D0F3D" stroke-width="0.8" stroke-linecap="round" stroke-linejoin="round" stroke-miterlimit="10" d="
				M7.203-22.157c0,0.041,0,0.081,0,0.12"/>
			
				<path fill="none" stroke="#3D0F3D" stroke-width="0.8" stroke-linecap="round" stroke-linejoin="round" stroke-miterlimit="10" d="
				M4.207-20.959c-0.002,0.047-0.015,0.082-0.039,0.121"/>
			
				<path fill="none" stroke="#3D0F3D" stroke-width="0.8" stroke-linecap="round" stroke-linejoin="round" stroke-miterlimit="10" d="
				M6.006-19.72c0,0.023,0,0.191,0,0.118"/>
			
				<path fill="none" stroke="#3D0F3D" stroke-width="0.8" stroke-linecap="round" stroke-linejoin="round" stroke-miterlimit="10" d="
				M2.288-19.444c-0.006,0.067-0.033,0.119-0.08,0.158"/>
			
				<path fill="none" stroke="#3D0F3D" stroke-width="0.8" stroke-linecap="round" stroke-linejoin="round" stroke-miterlimit="10" d="
				M4.326-18.283c0,0.043,0,0.233,0,0.081"/>
			
				<path fill="none" stroke="#3D0F3D" stroke-width="0.8" stroke-linecap="round" stroke-linejoin="round" stroke-miterlimit="10" d="
				M2.603-17.032c0,0.056,0,0.107,0,0.161"/>
			
				<path fill="none" stroke="#3D0F3D" stroke-width="0.8" stroke-linecap="round" stroke-linejoin="round" stroke-miterlimit="10" d="
				M5.926-17.125c0,0.025,0,0.054,0,0.081"/>
			
				<path fill="none" stroke="#3D0F3D" stroke-width="0.8" stroke-linecap="round" stroke-linejoin="round" stroke-miterlimit="10" d="
				M4.166-15.437c0,0.039,0,0.079,0,0.119"/>
			
				<path fill="none" stroke="#3D0F3D" stroke-width="0.8" stroke-linecap="round" stroke-linejoin="round" stroke-miterlimit="10" d="
				M1.285-14.799c0.019,0.056,0.019,0.103,0,0.159"/>
			
				<path fill="none" stroke="#3D0F3D" stroke-width="0.8" stroke-linecap="round" stroke-linejoin="round" stroke-miterlimit="10" d="
				M3.49-13.61c0.002,0.003,0.078,0.188,0.041,0.119"/>
			
				<path fill="none" stroke="#3D0F3D" stroke-width="0.8" stroke-linecap="round" stroke-linejoin="round" stroke-miterlimit="10" d="
				M1.932-11.733c-0.02,0.062-0.038,0.143-0.081,0.081"/>
			
				<path fill="none" stroke="#3D0F3D" stroke-width="0.8" stroke-linecap="round" stroke-linejoin="round" stroke-miterlimit="10" d="
				M3.809-10.935c-0.024,0.036-0.036,0.076-0.039,0.118"/>
			
				<path fill="none" stroke="#3D0F3D" stroke-width="0.8" stroke-linecap="round" stroke-linejoin="round" stroke-miterlimit="10" d="
				M6.245-14.568c0.028,0.027,0.053,0.052,0.08,0.078"/>
			
				<path fill="none" stroke="#3D0F3D" stroke-width="0.8" stroke-linecap="round" stroke-linejoin="round" stroke-miterlimit="10" d="
				M5.406-12.093c0,0.04,0,0.079,0,0.118"/>
			
				<path fill="none" stroke="#3D0F3D" stroke-width="0.8" stroke-linecap="round" stroke-linejoin="round" stroke-miterlimit="10" d="
				M2.791-8.891c0,0.026,0,0.053,0,0.079"/>
			
				<path fill="none" stroke="#3D0F3D" stroke-width="0.8" stroke-linecap="round" stroke-linejoin="round" stroke-miterlimit="10" d="
				M1.221-7.28c0,0.024,0,0.053,0,0.078"/>
			
				<path fill="none" stroke="#3D0F3D" stroke-width="0.8" stroke-linecap="round" stroke-linejoin="round" stroke-miterlimit="10" d="
				M3.011-6.701c0.023,0.037,0.036,0.076,0.04,0.119"/>
			
				<path fill="none" stroke="#3D0F3D" stroke-width="0.8" stroke-linecap="round" stroke-linejoin="round" stroke-miterlimit="10" d="
				M4.705-7.955c-0.009,0.016-0.077,0.136-0.04,0.081"/>
			
				<path fill="none" stroke="#3D0F3D" stroke-width="0.8" stroke-linecap="round" stroke-linejoin="round" stroke-miterlimit="10" d="
				M5.807-9.778C5.833-9.75,5.859-9.724,5.884-9.697"/>
			
				<path fill="none" stroke="#3D0F3D" stroke-width="0.8" stroke-linecap="round" stroke-linejoin="round" stroke-miterlimit="10" d="
				M5.926-5.903c0.014,0.045,0,0.072-0.042,0.081"/>
			
				<path fill="none" stroke="#3D0F3D" stroke-width="0.8" stroke-linecap="round" stroke-linejoin="round" stroke-miterlimit="10" d="
				M6.804-7.621c0,0.042,0,0.081,0,0.119"/>
			
				<path fill="none" stroke="#3D0F3D" stroke-width="0.8" stroke-linecap="round" stroke-linejoin="round" stroke-miterlimit="10" d="
				M7.963-9.458c0,0.041,0,0.08,0,0.119"/>
			
				<path fill="none" stroke="#3D0F3D" stroke-width="0.8" stroke-linecap="round" stroke-linejoin="round" stroke-miterlimit="10" d="
				M7.603-11.413c-0.026,0.018-0.04,0.046-0.04,0.078"/>
			
				<path fill="none" stroke="#3D0F3D" stroke-width="0.8" stroke-linecap="round" stroke-linejoin="round" stroke-miterlimit="10" d="
				M8-13.61c0.002,0.033-0.012,0.059-0.038,0.08"/>
			
				<path fill="none" stroke="#3D0F3D" stroke-width="0.8" stroke-linecap="round" stroke-linejoin="round" stroke-miterlimit="10" d="
				M8.122-5.465c0.012,0.041,0.026,0.081,0.04,0.12"/>
			
				<path fill="none" stroke="#3D0F3D" stroke-width="0.8" stroke-linecap="round" stroke-linejoin="round" stroke-miterlimit="10" d="
				M8.918-7.66C8.944-7.624,8.958-7.583,8.96-7.54"/>
			
				<path fill="none" stroke="#3D0F3D" stroke-width="0.8" stroke-linecap="round" stroke-linejoin="round" stroke-miterlimit="10" d="
				M10.356-6.344c0.017,0.064,0.032,0.077,0.042,0.042"/>
			
				<path fill="none" stroke="#3D0F3D" stroke-width="0.8" stroke-linecap="round" stroke-linejoin="round" stroke-miterlimit="10" d="
				M10.518-9.019c0,0.025,0,0.054,0,0.081"/>
			
				<path fill="none" stroke="#3D0F3D" stroke-width="0.8" stroke-linecap="round" stroke-linejoin="round" stroke-miterlimit="10" d="
				M9.759-10.816c-0.046,0.041-0.105,0.081-0.08,0.081"/>
			
				<path fill="none" stroke="#3D0F3D" stroke-width="0.8" stroke-linecap="round" stroke-linejoin="round" stroke-miterlimit="10" d="
				M11.836-11.056c0,0.026,0,0.055,0,0.081"/>
			
				<path fill="none" stroke="#3D0F3D" stroke-width="0.8" stroke-linecap="round" stroke-linejoin="round" stroke-miterlimit="10" d="
				M10.158-13.053c0.014,0.027,0.026,0.055,0.041,0.081"/>
			
				<path fill="none" stroke="#3D0F3D" stroke-width="0.8" stroke-linecap="round" stroke-linejoin="round" stroke-miterlimit="10" d="
				M12.115-13.411c-0.023,0.036-0.039,0.074-0.04,0.12"/>
			
				<path fill="none" stroke="#3D0F3D" stroke-width="0.8" stroke-linecap="round" stroke-linejoin="round" stroke-miterlimit="10" d="
				M7.603-15.808c0,0.027,0,0.055,0,0.078"/>
			
				<path fill="none" stroke="#3D0F3D" stroke-width="0.8" stroke-linecap="round" stroke-linejoin="round" stroke-miterlimit="10" d="
				M11.597-16.087c0.031,0.047,0.046,0.105,0.04,0.16"/>
			
				<path fill="none" stroke="#3D0F3D" stroke-width="0.8" stroke-linecap="round" stroke-linejoin="round" stroke-miterlimit="10" d="
				M9.799-15.428c-0.021,0.017-0.051,0.037-0.038,0"/>
			
				<path fill="none" stroke="#3D0F3D" stroke-width="0.8" stroke-linecap="round" stroke-linejoin="round" stroke-miterlimit="10" d="
				M9.878-17.925c0.02,0.061,0.012,0.107-0.04,0.121"/>
			
				<path fill="none" stroke="#3D0F3D" stroke-width="0.8" stroke-linecap="round" stroke-linejoin="round" stroke-miterlimit="10" d="
				M7.682-18.163c-0.006,0.056-0.034,0.104-0.08,0.119"/>
			
				<path fill="none" stroke="#3D0F3D" stroke-width="0.8" stroke-linecap="round" stroke-linejoin="round" stroke-miterlimit="10" d="
				M9.081-20.039C9.077-19.983,9.051-19.938,9-19.92"/>
			
				<path fill="none" stroke="#3D0F3D" stroke-width="0.8" stroke-linecap="round" stroke-linejoin="round" stroke-miterlimit="10" d="
				M8.361-23.714c0.011,0.046,0.037,0.072,0.08,0.079"/>
			
				<path fill="none" stroke="#3D0F3D" stroke-width="0.8" stroke-linecap="round" stroke-linejoin="round" stroke-miterlimit="10" d="
				M11.435-18.801c0,0.025,0,0.053,0,0.078"/>
			
				<path fill="none" stroke="#3D0F3D" stroke-width="0.8" stroke-linecap="round" stroke-linejoin="round" stroke-miterlimit="10" d="
				M9.878-22.076c0.014,0.045,0,0.072-0.04,0.08"/>
			
				<path fill="none" stroke="#3D0F3D" stroke-width="0.8" stroke-linecap="round" stroke-linejoin="round" stroke-miterlimit="10" d="
				M13.368-22.369c0.104,0.102,0.137,0.226,0.104,0.373"/>
			
				<path fill="none" stroke="#3D0F3D" stroke-width="0.8" stroke-linecap="round" stroke-linejoin="round" stroke-miterlimit="10" d="
				M15.07-23.487c0.016,0.06,0,0.096-0.053,0.105"/>
			
				<path fill="none" stroke="#3D0F3D" stroke-width="0.8" stroke-linecap="round" stroke-linejoin="round" stroke-miterlimit="10" d="
				M13.368-24.605c0,0.054,0,0.106,0,0.16"/>
			
				<path fill="none" stroke="#3D0F3D" stroke-width="0.8" stroke-linecap="round" stroke-linejoin="round" stroke-miterlimit="10" d="
				M11.958-26.037c0.003,0.03-0.01,0.043-0.04,0.039"/>
			
				<path fill="none" stroke="#3D0F3D" stroke-width="0.8" stroke-linecap="round" stroke-linejoin="round" stroke-miterlimit="10" d="
				M16.846-23.134c0.014,0.026,0.026,0.051,0.041,0.078"/>
			
				<path fill="none" stroke="#3D0F3D" stroke-width="0.8" stroke-linecap="round" stroke-linejoin="round" stroke-miterlimit="10" d="
				M17.317-25.912c0.013,0.026,0.026,0.052,0.04,0.077"/>
			
				<path fill="none" stroke="#3D0F3D" stroke-width="0.8" stroke-linecap="round" stroke-linejoin="round" stroke-miterlimit="10" d="
				M15.35-25.191c0.06,0.081,0.053,0.142-0.04,0.159"/>
			
				<path fill="none" stroke="#3D0F3D" stroke-width="0.8" stroke-linecap="round" stroke-linejoin="round" stroke-miterlimit="10" d="
				M8.128-25.85c-0.022,0.06-0.013,0.108,0.038,0.122"/>
			
				<path fill="none" stroke="#3D0F3D" stroke-width="0.8" stroke-linecap="round" stroke-linejoin="round" stroke-miterlimit="10" d="
				M18.911-22.045c0,0.039,0,0.08,0,0.119"/>
			
				<path fill="none" stroke="#3D0F3D" stroke-width="0.8" stroke-linecap="round" stroke-linejoin="round" stroke-miterlimit="10" d="
				M15.909-21.319c-0.004,0.046-0.017,0.083-0.04,0.12"/>
			
				<path fill="none" stroke="#3D0F3D" stroke-width="0.8" stroke-linecap="round" stroke-linejoin="round" stroke-miterlimit="10" d="
				M17.705-20.081c0,0.025,0,0.194,0,0.121"/>
			
				<path fill="none" stroke="#3D0F3D" stroke-width="0.8" stroke-linecap="round" stroke-linejoin="round" stroke-miterlimit="10" d="
				M14.271-19.68c-0.007,0.069-0.034,0.119-0.08,0.159"/>
			
				<path fill="none" stroke="#3D0F3D" stroke-width="0.8" stroke-linecap="round" stroke-linejoin="round" stroke-miterlimit="10" d="
				M16.028-18.642c0,0.042,0,0.232,0,0.078"/>
			
				<path fill="none" stroke="#3D0F3D" stroke-width="0.8" stroke-linecap="round" stroke-linejoin="round" stroke-miterlimit="10" d="
				M14.671-17.324c0,0.053,0,0.105,0,0.158"/>
			
				<path fill="none" stroke="#3D0F3D" stroke-width="0.8" stroke-linecap="round" stroke-linejoin="round" stroke-miterlimit="10" d="
				M17.626-17.483c0,0.027,0,0.052,0,0.078"/>
			
				<path fill="none" stroke="#3D0F3D" stroke-width="0.8" stroke-linecap="round" stroke-linejoin="round" stroke-miterlimit="10" d="
				M16.309-15.887c0,0.04,0,0.079,0,0.12"/>
			
				<path fill="none" stroke="#3D0F3D" stroke-width="0.8" stroke-linecap="round" stroke-linejoin="round" stroke-miterlimit="10" d="
				M13.593-15.168c0.02,0.057,0.017,0.103,0,0.159"/>
			
				<path fill="none" stroke="#3D0F3D" stroke-width="0.8" stroke-linecap="round" stroke-linejoin="round" stroke-miterlimit="10" d="
				M15.19-13.971c0.002,0.006,0.077,0.189,0.038,0.119"/>
			
				<path fill="none" stroke="#3D0F3D" stroke-width="0.8" stroke-linecap="round" stroke-linejoin="round" stroke-miterlimit="10" d="
				M13.633-12.093c-0.021,0.062-0.038,0.142-0.08,0.079"/>
			
				<path fill="none" stroke="#3D0F3D" stroke-width="0.8" stroke-linecap="round" stroke-linejoin="round" stroke-miterlimit="10" d="
				M15.51-11.296c-0.025,0.039-0.038,0.077-0.039,0.121"/>
			
				<path fill="none" stroke="#3D0F3D" stroke-width="0.8" stroke-linecap="round" stroke-linejoin="round" stroke-miterlimit="10" d="
				M17.944-14.929c0.026,0.026,0.055,0.054,0.081,0.079"/>
			
				<path fill="none" stroke="#3D0F3D" stroke-width="0.8" stroke-linecap="round" stroke-linejoin="round" stroke-miterlimit="10" d="
				M17.231-12.848c0,0.039,0,0.081,0,0.12"/>
			
				<path fill="none" stroke="#3D0F3D" stroke-width="0.8" stroke-linecap="round" stroke-linejoin="round" stroke-miterlimit="10" d="
				M14.31-9.298c0,0.025,0,0.053,0,0.081"/>
			
				<path fill="none" stroke="#3D0F3D" stroke-width="0.8" stroke-linecap="round" stroke-linejoin="round" stroke-miterlimit="10" d="
				M14.711-7.062c0.023,0.036,0.037,0.076,0.04,0.12"/>
			
				<path fill="none" stroke="#3D0F3D" stroke-width="0.8" stroke-linecap="round" stroke-linejoin="round" stroke-miterlimit="10" d="
				M16.228-8.579c-0.008,0.015-0.076,0.134-0.038,0.08"/>
			
				<path fill="none" stroke="#3D0F3D" stroke-width="0.8" stroke-linecap="round" stroke-linejoin="round" stroke-miterlimit="10" d="
				M17.506-10.136c0.027,0.025,0.054,0.054,0.08,0.079"/>
			
				<path fill="none" stroke="#3D0F3D" stroke-width="0.8" stroke-linecap="round" stroke-linejoin="round" stroke-miterlimit="10" d="
				M17.626-6.263c0.013,0.046,0,0.072-0.04,0.08"/>
			
				<path fill="none" stroke="#3D0F3D" stroke-width="0.8" stroke-linecap="round" stroke-linejoin="round" stroke-miterlimit="10" d="
				M18.505-7.98c0,0.04,0,0.08,0,0.121"/>
			
				<path fill="none" stroke="#3D0F3D" stroke-width="0.8" stroke-linecap="round" stroke-linejoin="round" stroke-miterlimit="10" d="
				M19.662-9.816c0,0.038,0,0.079,0,0.119"/>
			
				<path fill="none" stroke="#3D0F3D" stroke-width="0.8" stroke-linecap="round" stroke-linejoin="round" stroke-miterlimit="10" d="
				M19.304-11.773c-0.028,0.02-0.042,0.047-0.04,0.079"/>
			
				<path fill="none" stroke="#3D0F3D" stroke-width="0.8" stroke-linecap="round" stroke-linejoin="round" stroke-miterlimit="10" d="
				M19.702-13.971c0,0.032-0.012,0.06-0.04,0.081"/>
			
				<path fill="none" stroke="#3D0F3D" stroke-width="0.8" stroke-linecap="round" stroke-linejoin="round" stroke-miterlimit="10" d="
				M19.822-5.822c0.014,0.039,0.027,0.079,0.041,0.117"/>
			
				<path fill="none" stroke="#3D0F3D" stroke-width="0.8" stroke-linecap="round" stroke-linejoin="round" stroke-miterlimit="10" d="
				M20.619-8.02c0.026,0.036,0.04,0.077,0.042,0.119"/>
			
				<path fill="none" stroke="#3D0F3D" stroke-width="0.8" stroke-linecap="round" stroke-linejoin="round" stroke-miterlimit="10" d="
				M22.059-6.701c0.017,0.062,0.028,0.076,0.04,0.038"/>
			
				<path fill="none" stroke="#3D0F3D" stroke-width="0.8" stroke-linecap="round" stroke-linejoin="round" stroke-miterlimit="10" d="
				M22.22-9.378c0,0.026,0,0.053,0,0.08"/>
			
				<path fill="none" stroke="#3D0F3D" stroke-width="0.8" stroke-linecap="round" stroke-linejoin="round" stroke-miterlimit="10" d="
				M21.46-11.175c-0.047,0.038-0.104,0.081-0.081,0.079"/>
			
				<path fill="none" stroke="#3D0F3D" stroke-width="0.8" stroke-linecap="round" stroke-linejoin="round" stroke-miterlimit="10" d="
				M23.536-11.413c0,0.025,0,0.051,0,0.078"/>
			
				<path fill="none" stroke="#3D0F3D" stroke-width="0.8" stroke-linecap="round" stroke-linejoin="round" stroke-miterlimit="10" d="
				M21.69-13.229c0.014,0.025,0.026,0.053,0.039,0.079"/>
			
				<path fill="none" stroke="#3D0F3D" stroke-width="0.8" stroke-linecap="round" stroke-linejoin="round" stroke-miterlimit="10" d="
				M23.816-13.771c-0.024,0.036-0.037,0.077-0.04,0.12"/>
			
				<path fill="none" stroke="#3D0F3D" stroke-width="0.8" stroke-linecap="round" stroke-linejoin="round" stroke-miterlimit="10" d="
				M19.304-16.166c0,0.026,0,0.053,0,0.079"/>
			
				<path fill="none" stroke="#3D0F3D" stroke-width="0.8" stroke-linecap="round" stroke-linejoin="round" stroke-miterlimit="10" d="
				M23.297-16.445c0.033,0.046,0.046,0.103,0.04,0.158"/>
			
				<path fill="none" stroke="#3D0F3D" stroke-width="0.8" stroke-linecap="round" stroke-linejoin="round" stroke-miterlimit="10" d="
				M21.699-15.209c-0.021,0.017-0.051,0.035-0.04,0"/>
			
				<path fill="none" stroke="#3D0F3D" stroke-width="0.8" stroke-linecap="round" stroke-linejoin="round" stroke-miterlimit="10" d="
				M21.312-17.688c0.02,0.06,0.012,0.106-0.039,0.12"/>
			
				<path fill="none" stroke="#3D0F3D" stroke-width="0.8" stroke-linecap="round" stroke-linejoin="round" stroke-miterlimit="10" d="
				M19.384-18.522c-0.006,0.057-0.034,0.105-0.08,0.12"/>
			
				<path fill="none" stroke="#3D0F3D" stroke-width="0.8" stroke-linecap="round" stroke-linejoin="round" stroke-miterlimit="10" d="
				M20.781-20.4c-0.002,0.059-0.03,0.104-0.08,0.119"/>
			
				<path fill="none" stroke="#3D0F3D" stroke-width="0.8" stroke-linecap="round" stroke-linejoin="round" stroke-miterlimit="10" d="
				M20.148-23.748c0.011,0.046,0.038,0.074,0.082,0.08"/>
			
				<path fill="none" stroke="#3D0F3D" stroke-width="0.8" stroke-linecap="round" stroke-linejoin="round" stroke-miterlimit="10" d="
				M22.757-19.257c0,0.027,0,0.053,0,0.078"/>
			
				<path fill="none" stroke="#3D0F3D" stroke-width="0.8" stroke-linecap="round" stroke-linejoin="round" stroke-miterlimit="10" d="
				M21.58-22.436c0.013,0.045,0,0.071-0.039,0.078"/>
			
				<path fill="none" stroke="#3D0F3D" stroke-width="0.8" stroke-linecap="round" stroke-linejoin="round" stroke-miterlimit="10" d="
				M12.955-17.526c0.038,0.043,0.038,0.07,0,0.082"/>
			
				<path fill="none" stroke="#3D0F3D" stroke-width="0.8" stroke-linecap="round" stroke-linejoin="round" stroke-miterlimit="10" d="
				M11.756-20.76c0,0.027,0,0.054,0,0.081"/>
			
				<path fill="none" stroke="#3D0F3D" stroke-width="0.8" stroke-linecap="round" stroke-linejoin="round" stroke-miterlimit="10" d="
				M11.397-23.156c0,0.028,0,0.055,0,0.081"/>
			
				<path fill="none" stroke="#3D0F3D" stroke-width="0.8" stroke-linecap="round" stroke-linejoin="round" stroke-miterlimit="10" d="
				M10.356-24.992c-0.024,0.02-0.039,0.047-0.038,0.081"/>
			
				<path fill="none" stroke="#3D0F3D" stroke-width="0.8" stroke-linecap="round" stroke-linejoin="round" stroke-miterlimit="10" d="
				M22.577-24.233c0,0.024,0,0.053,0,0.08"/>
			
				<path fill="none" stroke="#3D0F3D" stroke-width="0.8" stroke-linecap="round" stroke-linejoin="round" stroke-miterlimit="10" d="
				M20.277-25.882c-0.04,0.046-0.068,0.103-0.079,0.161"/>
			
				<path fill="none" stroke="#3D0F3D" stroke-width="0.8" stroke-linecap="round" stroke-linejoin="round" stroke-miterlimit="10" d="
				M1.912-26.478c-0.04,0.046-0.068,0.103-0.08,0.159"/>
			
				<path fill="none" stroke="#3D0F3D" stroke-width="0.8" stroke-linecap="round" stroke-linejoin="round" stroke-miterlimit="10" d="
				M23.297-21.757c0.068-0.009,0.095,0.018,0.08,0.08"/>
			
				<path fill="none" stroke="#3D0F3D" stroke-width="0.8" stroke-linecap="round" stroke-linejoin="round" stroke-miterlimit="10" d="
				M12.475-8.938c0.017,0.06,0.003,0.116-0.041,0.158"/>
			
				<path fill="none" stroke="#3D0F3D" stroke-width="0.8" stroke-linecap="round" stroke-linejoin="round" stroke-miterlimit="10" d="
				M12.554-6.742c-0.026,0-0.053,0-0.079,0"/>
			
				<path fill="none" stroke="#3D0F3D" stroke-width="0.8" stroke-linecap="round" stroke-linejoin="round" stroke-miterlimit="10" d="
				M15.749-5.266c0,0.027,0,0.055,0,0.08"/>
			
				<path fill="none" stroke="#3D0F3D" stroke-width="0.8" stroke-linecap="round" stroke-linejoin="round" stroke-miterlimit="10" d="
				M12.993-5.305c0.037,0.062,0.05,0.13,0.04,0.2"/>
			
				<path fill="none" stroke="#3D0F3D" stroke-width="0.8" stroke-linecap="round" stroke-linejoin="round" stroke-miterlimit="10" d="
				M18.299-24.424c0.039,0.059,0.055,0.125,0.048,0.19"/>
			
				<path fill="none" stroke="#3D0F3D" stroke-width="0.8" stroke-linecap="round" stroke-linejoin="round" stroke-miterlimit="10" d="
				M24.822-25.576c-0.029,0.043-0.045,0.092-0.05,0.145"/>
			
				<path fill="none" stroke="#3D0F3D" stroke-width="0.8" stroke-linecap="round" stroke-linejoin="round" stroke-miterlimit="10" d="
				M24.869-22.991c-0.029,0.044-0.044,0.091-0.047,0.144"/>
			
				<path fill="none" stroke="#3D0F3D" stroke-width="0.8" stroke-linecap="round" stroke-linejoin="round" stroke-miterlimit="10" d="
				M26.593-22.13c0,0.049,0,0.097,0,0.145"/>
			
				<path fill="none" stroke="#3D0F3D" stroke-width="0.8" stroke-linecap="round" stroke-linejoin="round" stroke-miterlimit="10" d="
				M27.151-23.903c0,0.074,0,0.091,0,0.049"/>
			
				<path fill="none" stroke="#3D0F3D" stroke-width="0.8" stroke-linecap="round" stroke-linejoin="round" stroke-miterlimit="10" d="
				M24.718-20.043c0.015,0.032,0.031,0.063,0.047,0.095"/>
			
				<path fill="none" stroke="#3D0F3D" stroke-width="0.8" stroke-linecap="round" stroke-linejoin="round" stroke-miterlimit="10" d="
				M24.822-17.533c0.043,0.069,0.043,0.085,0,0.049"/>
			
				<path fill="none" stroke="#3D0F3D" stroke-width="0.8" stroke-linecap="round" stroke-linejoin="round" stroke-miterlimit="10" d="
				M26.449-18.778c-0.017,0.031-0.033,0.063-0.048,0.096"/>
			
				<path fill="none" stroke="#3D0F3D" stroke-width="0.8" stroke-linecap="round" stroke-linejoin="round" stroke-miterlimit="10" d="
				M27.646-16.864c0.016,0.032,0.031,0.063,0.048,0.096"/>
			
				<path fill="none" stroke="#3D0F3D" stroke-width="0.8" stroke-linecap="round" stroke-linejoin="round" stroke-miterlimit="10" d="
				M27.741-20.264c-0.018,0.073-0.002,0.14,0.048,0.193"/>
			
				<path fill="none" stroke="#3D0F3D" stroke-width="0.8" stroke-linecap="round" stroke-linejoin="round" stroke-miterlimit="10" d="
				M25.539-15.332c-0.048,0.033-0.097,0.065-0.144,0.097"/>
			
				<path fill="none" stroke="#3D0F3D" stroke-width="0.8" stroke-linecap="round" stroke-linejoin="round" stroke-miterlimit="10" d="
				M25.316-12.507c0.018,0.028,0.027,0.061,0.031,0.095"/>
			
				<path fill="none" stroke="#3D0F3D" stroke-width="0.8" stroke-linecap="round" stroke-linejoin="round" stroke-miterlimit="10" d="
				M27.151-11.284c0.033,0.048,0.044,0.104,0.033,0.161"/>
			
				<path fill="none" stroke="#3D0F3D" stroke-width="0.8" stroke-linecap="round" stroke-linejoin="round" stroke-miterlimit="10" d="
				M26.976-13.943c0,0.029,0,0.063,0,0.095"/>
			
				<path fill="none" stroke="#3D0F3D" stroke-width="0.8" stroke-linecap="round" stroke-linejoin="round" stroke-miterlimit="10" d="
				M23.752-8.008c0,0.031,0,0.063,0,0.095"/>
			
				<path fill="none" stroke="#3D0F3D" stroke-width="0.8" stroke-linecap="round" stroke-linejoin="round" stroke-miterlimit="10" d="
				M25.283-10.019c-0.01,0.031-0.021,0.063-0.031,0.096"/>
			
				<path fill="none" stroke="#3D0F3D" stroke-width="0.8" stroke-linecap="round" stroke-linejoin="round" stroke-miterlimit="10" d="
				M25.411-7.146c0.011,0.021,0.021,0.042,0.031,0.064"/>
			
				<path fill="none" stroke="#3D0F3D" stroke-width="0.8" stroke-linecap="round" stroke-linejoin="round" stroke-miterlimit="10" d="
				M27.038-8.614c0,0.032,0,0.063,0,0.096"/>
			
				<path fill="none" stroke="#3D0F3D" stroke-width="0.8" stroke-linecap="round" stroke-linejoin="round" stroke-miterlimit="10" d="
				M26.912-5.711c0,0.022,0,0.043,0,0.063"/>
			
				<path fill="none" stroke="#3D0F3D" stroke-width="0.8" stroke-linecap="round" stroke-linejoin="round" stroke-miterlimit="10" d="
				M1.956-4.722c0.014,0.05,0.001,0.095-0.033,0.128"/>
			
				<path fill="none" stroke="#3D0F3D" stroke-width="0.8" stroke-linecap="round" stroke-linejoin="round" stroke-miterlimit="10" d="
				M3.775-4.914c0.04,0.041,0.051,0.076,0,0.097"/>
			
				<path fill="none" stroke="#3D0F3D" stroke-width="0.8" stroke-linecap="round" stroke-linejoin="round" stroke-miterlimit="10" d="
				M2.415-2.744c0,0.032,0,0.064,0,0.096"/>
			
				<path fill="none" stroke="#3D0F3D" stroke-width="0.8" stroke-linecap="round" stroke-linejoin="round" stroke-miterlimit="10" d="
				M3.984-1.521c0,0.032,0,0.065,0,0.096"/>
			
				<path fill="none" stroke="#3D0F3D" stroke-width="0.8" stroke-linecap="round" stroke-linejoin="round" stroke-miterlimit="10" d="
				M6.118-1.27c0.01,0.029,0.031,0.1,0,0.032"/>
			
				<path fill="none" stroke="#3D0F3D" stroke-width="0.8" stroke-linecap="round" stroke-linejoin="round" stroke-miterlimit="10" d="
				M5.085-3.405C5.079-3.339,5.048-3.3,4.988-3.31"/>
			
				<path fill="none" stroke="#3D0F3D" stroke-width="0.8" stroke-linecap="round" stroke-linejoin="round" stroke-miterlimit="10" d="
				M7.222-3.253c0,0.021,0,0.042,0,0.062"/>
			
				<path fill="none" stroke="#3D0F3D" stroke-width="0.8" stroke-linecap="round" stroke-linejoin="round" stroke-miterlimit="10" d="
				M8.881-1.722c0,0.032,0,0.063,0,0.096"/>
			
				<path fill="none" stroke="#3D0F3D" stroke-width="0.8" stroke-linecap="round" stroke-linejoin="round" stroke-miterlimit="10" d="
				M9.743-3.923c0.039,0.054,0.043,0.11,0,0.158"/>
			
				<path fill="none" stroke="#3D0F3D" stroke-width="0.8" stroke-linecap="round" stroke-linejoin="round" stroke-miterlimit="10" d="
				M11.562-1.976c-0.009-0.021,0.039,0.14,0.031,0.062"/>
			
				<path fill="none" stroke="#3D0F3D" stroke-width="0.8" stroke-linecap="round" stroke-linejoin="round" stroke-miterlimit="10" d="
				M11.4-4.242c0,0.042,0,0.084,0,0.127"/>
			
				<path fill="none" stroke="#3D0F3D" stroke-width="0.8" stroke-linecap="round" stroke-linejoin="round" stroke-miterlimit="10" d="
				M13.508-2.838c-0.02,0.028-0.031,0.061-0.032,0.095"/>
			
				<path fill="none" stroke="#3D0F3D" stroke-width="0.8" stroke-linecap="round" stroke-linejoin="round" stroke-miterlimit="10" d="
				M13.935-1.081c0.006,0.024,0.054,0.224,0.032,0.095"/>
			
				<path fill="none" stroke="#3D0F3D" stroke-width="0.8" stroke-linecap="round" stroke-linejoin="round" stroke-miterlimit="10" d="
				M15.422-2.965c0,0.031,0,0.063,0,0.096"/>
			
				<path fill="none" stroke="#3D0F3D" stroke-width="0.8" stroke-linecap="round" stroke-linejoin="round" stroke-miterlimit="10" d="
				M17.338-3.892c-0.007,0.044-0.008,0.127-0.032,0.096"/>
			
				<path fill="none" stroke="#3D0F3D" stroke-width="0.8" stroke-linecap="round" stroke-linejoin="round" stroke-miterlimit="10" d="
				M18.269-1.74c-0.028,0.042-0.077,0.071-0.095,0.063"/>
			
				<path fill="none" stroke="#3D0F3D" stroke-width="0.8" stroke-linecap="round" stroke-linejoin="round" stroke-miterlimit="10" d="
				M16.386-1.426c-0.03,0.042-0.078,0.072-0.096,0.063"/>
			
				<path fill="none" stroke="#3D0F3D" stroke-width="0.8" stroke-linecap="round" stroke-linejoin="round" stroke-miterlimit="10" d="
				M19.987-2.104c0,0.02,0,0.042,0,0.063"/>
			
				<path fill="none" stroke="#3D0F3D" stroke-width="0.8" stroke-linecap="round" stroke-linejoin="round" stroke-miterlimit="10" d="
				M19.507-3.859c-0.012,0.032-0.033,0.054-0.062,0.063"/>
			
				<path fill="none" stroke="#3D0F3D" stroke-width="0.8" stroke-linecap="round" stroke-linejoin="round" stroke-miterlimit="10" d="
				M21.678-2.808c0.001,0.036,0.001,0.069,0,0.104c-0.007,0.043,0.032-0.04,0.032-0.04"/>
			
				<path fill="none" stroke="#3D0F3D" stroke-width="0.8" stroke-linecap="round" stroke-linejoin="round" stroke-miterlimit="10" d="
				M21.71-4.849c-0.011,0.011-0.022,0.021-0.032,0.031"/>
			
				<path fill="none" stroke="#3D0F3D" stroke-width="0.8" stroke-linecap="round" stroke-linejoin="round" stroke-miterlimit="10" d="
				M23.56-1.85c0.029,0.025,0.041,0.06,0.032,0.096"/>
			
				<path fill="none" stroke="#3D0F3D" stroke-width="0.8" stroke-linecap="round" stroke-linejoin="round" stroke-miterlimit="10" d="
				M23.655-4.242c0.015,0.049,0.005,0.092-0.031,0.127"/>
			
				<path fill="none" stroke="#3D0F3D" stroke-width="0.8" stroke-linecap="round" stroke-linejoin="round" stroke-miterlimit="10" d="
				M23.976-6.062c-0.037,0.031-0.081,0.052-0.128,0.063"/>
			
				<path fill="none" stroke="#3D0F3D" stroke-width="0.8" stroke-linecap="round" stroke-linejoin="round" stroke-miterlimit="10" d="
				M25.316-3.988c0.01,0.023,0.021,0.044,0.031,0.065"/>
			
				<path fill="none" stroke="#3D0F3D" stroke-width="0.8" stroke-linecap="round" stroke-linejoin="round" stroke-miterlimit="10" d="
				M25.52-1.898c0.004,0.047,0.026,0.084,0.063,0.096"/>
			
				<path fill="none" stroke="#3D0F3D" stroke-width="0.8" stroke-linecap="round" stroke-linejoin="round" stroke-miterlimit="10" d="
				M27.779-1.962c0.004,0.048,0.027,0.085,0.063,0.096"/>
			
				<path fill="none" stroke="#3D0F3D" stroke-width="0.8" stroke-linecap="round" stroke-linejoin="round" stroke-miterlimit="10" d="
				M27.518-3.604c0.037,0.032,0.08,0.054,0.128,0.062"/>
			
				<path fill="none" stroke="#3D0F3D" stroke-width="0.8" stroke-linecap="round" stroke-linejoin="round" stroke-miterlimit="10" d="
				M1.158-9.935C1.161-9.889,1.185-9.85,1.221-9.839"/>
			
				<path fill="none" stroke="#3D0F3D" stroke-width="0.8" stroke-linecap="round" stroke-linejoin="round" stroke-miterlimit="10" d="
				M22.02-26.572c-0.039,0.043-0.068,0.1-0.079,0.158"/>
		</g>
		<g>
			
				<path fill="none" stroke="#3D0F3D" stroke-width="0.8" stroke-linecap="round" stroke-linejoin="round" stroke-miterlimit="10" d="
				M0.407-20.264c-0.018,0.073-0.001,0.14,0.048,0.193"/>
			
				<path fill="none" stroke="#3D0F3D" stroke-width="0.8" stroke-linecap="round" stroke-linejoin="round" stroke-miterlimit="10" d="
				M0.445-1.962c0.004,0.048,0.027,0.085,0.064,0.096"/>
		</g>
		<g>
			
				<path fill="none" stroke="#3D0F3D" stroke-width="0.8" stroke-linecap="round" stroke-linejoin="round" stroke-miterlimit="10" d="
				M13.935-26.999c0.006,0.024,0.054,0.224,0.032,0.095"/>
		</g>
	</g>
</pattern>
<g>
	<g>
		<g id="XMLID_517_">
			<g>
				<rect x="14.373" y="234.64" fill="#5A89DB" width="429.9" height="211.03"/>
			</g>
			<g>
			</g>
		</g>
		<g id="XMLID_620_">
			<g>
				<pattern  id="SVGID_1_" xlink:href="#bodky_x5F_nove_6" patternTransform="matrix(2.5594 0 0 2.5594 11778.0059 13471.584)">
				</pattern>
				<rect x="14.373" y="234.64" fill="url(#SVGID_1_)" width="429.9" height="211.03"/>
			</g>
			<g>
				
					<rect x="14.373" y="234.64" fill="none" stroke="#3D0F3D" stroke-width="1.5" stroke-linecap="round" stroke-linejoin="round" stroke-miterlimit="10" width="429.9" height="211.03"/>
			</g>
		</g>
	</g>
	<g>
		<g>
			<g id="XMLID_516_">
				<g>
					<polygon fill="#FAF169" points="398.639,320.963 407.874,427.427 418.074,427.427 408.839,320.963 					"/>
				</g>
				<g>
					
						<polygon fill="none" stroke="#3D0F3D" stroke-width="1.5" stroke-linecap="round" stroke-linejoin="round" stroke-miterlimit="10" points="
						407.874,427.427 418.074,427.427 408.839,320.963 398.639,320.963 					"/>
				</g>
			</g>
		</g>
		<g>
			<g id="XMLID_515_">
				<g>
					<polygon fill="#FAF169" points="346.62,320.963 337.385,427.427 327.185,427.427 336.42,320.963 					"/>
				</g>
				<g>
					
						<polygon fill="none" stroke="#3D0F3D" stroke-width="1.5" stroke-linecap="round" stroke-linejoin="round" stroke-miterlimit="10" points="
						337.385,427.427 327.185,427.427 336.42,320.963 346.62,320.963 					"/>
				</g>
			</g>
		</g>
		<g>
			<g id="XMLID_514_">
				<g>
					<path fill="#FAF169" d="M315.314,311.461c-0.041,5.695,2.688,10.159,10.19,10.395c12.324,0.38,23.96,0.154,44.545,0.154
						c10.785,0,21.17-0.041,28.045-0.154c10.077-0.174,18.286-0.656,24.72-5.109c8.117-5.593,10.067-14.91,10.97-24.156
						c0.842-8.578,2.001-19.876,3.232-31.831c2.176-21.067,5.973-55.135,6.27-63.026c0.298-7.912-3.643-10.703-9.286-11.216
						c-5.634-0.523-10.169,2.042-11.154,9.338c-0.985,7.306-4.074,41.765-6.239,62.77c-1.231,11.985-1.99,21.611-3.242,30.18
						c-1.591,10.867-8.538,12.149-16.49,12.406c-19.908,0.656-63.797-0.216-70.467,0.021
						C319.102,301.497,315.355,305.786,315.314,311.461z"/>
				</g>
				<g>
					
						<path fill="none" stroke="#3D0F3D" stroke-width="1.5" stroke-linecap="round" stroke-linejoin="round" stroke-miterlimit="10" d="
						M370.05,322.01c10.785,0,21.17-0.041,28.045-0.154c10.077-0.174,18.286-0.656,24.72-5.109
						c8.117-5.593,10.067-14.91,10.97-24.156c0.842-8.578,2.001-19.876,3.232-31.831c2.176-21.067,5.973-55.135,6.27-63.026
						c0.298-7.912-3.643-10.703-9.286-11.216c-5.634-0.523-10.169,2.042-11.154,9.338c-0.985,7.306-4.074,41.765-6.239,62.77
						c-1.231,11.985-1.99,21.611-3.242,30.18c-1.591,10.867-8.538,12.149-16.49,12.406c-19.908,0.656-63.797-0.216-70.467,0.021
						c-7.306,0.267-11.052,4.556-11.093,10.23c-0.041,5.695,2.688,10.159,10.19,10.395
						C337.829,322.235,349.465,322.01,370.05,322.01z"/>
				</g>
			</g>
		</g>
	</g>
	<g>
		<g>
			<g id="XMLID_513_">
				<g>
					<polygon fill="#FAF169" points="59.802,323.189 50.567,424.553 40.367,424.553 49.603,323.189 					"/>
				</g>
				<g>
					
						<polygon fill="none" stroke="#3D0F3D" stroke-width="1.5" stroke-linecap="round" stroke-linejoin="round" stroke-miterlimit="10" points="
						50.567,424.553 40.367,424.553 49.603,323.189 59.802,323.189 					"/>
				</g>
			</g>
		</g>
		<g>
			<g id="XMLID_512_">
				<g>
					<polygon fill="#FAF169" points="111.821,323.189 121.056,424.553 131.256,424.553 122.021,323.189 					"/>
				</g>
				<g>
					
						<polygon fill="none" stroke="#3D0F3D" stroke-width="1.5" stroke-linecap="round" stroke-linejoin="round" stroke-miterlimit="10" points="
						121.056,424.553 131.256,424.553 122.021,323.189 111.821,323.189 					"/>
				</g>
			</g>
		</g>
		<g>
			<g id="XMLID_511_">
				<g>
					<path fill="#FAF169" d="M143.126,313.697c0.041,5.695-2.688,10.148-10.189,10.385c-12.324,0.39-23.961,0.164-44.545,0.164
						c-10.785,0-21.169-0.052-28.045-0.164c-10.077-0.175-18.286-0.657-24.72-5.101c-8.117-5.603-10.066-14.92-10.969-24.166
						c-0.842-8.578-2.001-19.866-3.232-31.831c-2.175-21.066-5.972-55.125-6.27-63.026c-0.297-7.901,3.643-10.703,9.287-11.216
						c5.634-0.523,10.169,2.042,11.154,9.338c0.985,7.306,4.074,41.775,6.239,62.78c1.231,11.976,1.991,21.601,3.243,30.18
						c1.59,10.856,8.538,12.149,16.49,12.406c19.907,0.646,63.796-0.216,70.466,0.021
						C139.34,303.723,143.085,308.013,143.126,313.697z"/>
				</g>
				<g>
					
						<path fill="none" stroke="#3D0F3D" stroke-width="1.5" stroke-linecap="round" stroke-linejoin="round" stroke-miterlimit="10" d="
						M88.391,324.246c-10.785,0-21.169-0.052-28.045-0.164c-10.077-0.175-18.286-0.657-24.72-5.101
						c-8.117-5.603-10.066-14.92-10.969-24.166c-0.842-8.578-2.001-19.866-3.232-31.831c-2.175-21.066-5.972-55.125-6.27-63.026
						c-0.297-7.901,3.643-10.703,9.287-11.216c5.634-0.523,10.169,2.042,11.154,9.338c0.985,7.306,4.074,41.775,6.239,62.78
						c1.231,11.976,1.991,21.601,3.243,30.18c1.59,10.856,8.538,12.149,16.49,12.406c19.907,0.646,63.796-0.216,70.466,0.021
						c7.307,0.256,11.052,4.546,11.093,10.23c0.041,5.695-2.688,10.148-10.189,10.385
						C120.612,324.472,108.976,324.246,88.391,324.246z"/>
				</g>
			</g>
		</g>
	</g>
	<g id="XMLID_510_">
		<g>
			<path fill="#21C28C" d="M249.35,418.089c0.703,7.599,7.398,7.624,20.039,7.271c3.694-0.103,9.239-0.249,12.016-1.51
				c2.709-1.221,5.164-3.74,7.874-6.385c7.745-7.56,11.872-13.947,11.872-13.947l0.084,21.646h7.03l-0.537-37.515
				c0,0-1.221-0.01-3.103-0.023c-4.226-0.027-11.787-0.069-16.43-0.037c-1.549,0.012-2.771,0.029-3.438,0.061
				c0,0-1.699,16.915-12.962,20.496C265.514,410.14,248.193,405.604,249.35,418.089z"/>
			<path fill="#7BBDF2" d="M288.289,386.862l-0.094,0.726c4.643-0.032,12.204,0.01,16.43,0.037l0.556-17.623l-16.554,0.409
				L288.289,386.862z"/>
		</g>
		<g>
			
				<path fill="none" stroke="#3D0F3D" stroke-width="1.5" stroke-linecap="round" stroke-linejoin="round" stroke-miterlimit="10" d="
				M304.625,387.625c1.882,0.014,3.103,0.023,3.103,0.023l0.537,37.515h-7.03l-0.084-21.646c0,0-4.127,6.388-11.872,13.947
				c-2.71,2.645-5.165,5.164-7.874,6.385c-2.776,1.261-8.321,1.407-12.016,1.51c-12.641,0.354-19.336,0.328-20.039-7.271
				c-1.156-12.484,16.164-7.949,22.445-9.944c11.263-3.581,12.962-20.496,12.962-20.496c0.667-0.031,1.89-0.049,3.438-0.061
				C292.838,387.556,300.399,387.598,304.625,387.625z"/>
			
				<polyline fill="none" stroke="#3D0F3D" stroke-width="1.5" stroke-linecap="round" stroke-linejoin="round" stroke-miterlimit="10" points="
				304.625,387.625 305.181,370.002 288.627,370.411 288.289,386.862 			"/>
		</g>
	</g>
	<g id="XMLID_509_">
		<g>
			<path fill="#7BBDF2" d="M222.092,416.963l-0.184,7.802l-33.071-0.197h-36.271l-0.071-7.465
				C152.496,417.103,221.378,417.687,222.092,416.963z"/>
			<path fill="#7BBDF2" d="M179.097,394.645c0.336,1.945,0.907,3.637,1.876,4.515c3.174,2.873,8.788,2.476,17.479,2.315
				c9.52-0.172,13.686,0.953,17.638,3.629c5.373,3.638,5.741,9.291,6.002,11.859c-0.714,0.724-69.597,0.14-69.597,0.14
				s-0.332-12.781-0.239-22.271l3.705-0.025l20.074-0.142L179.097,394.645z"/>
			<polygon fill="#FAF169" points="176.034,394.512 176.036,394.665 155.961,394.807 155.795,383.582 175.735,383.583 			"/>
		</g>
		<g>
			
				<path fill="none" stroke="#3D0F3D" stroke-width="1.5" stroke-linecap="round" stroke-linejoin="round" stroke-miterlimit="10" d="
				M176.036,394.665l3.062-0.021c0.336,1.945,0.907,3.637,1.876,4.515c3.174,2.873,8.788,2.476,17.479,2.315
				c9.52-0.172,13.686,0.953,17.638,3.629c5.373,3.638,5.741,9.291,6.002,11.859c-0.714,0.724-69.597,0.14-69.597,0.14
				s-0.332-12.781-0.239-22.271l3.705-0.025L176.036,394.665z"/>
			
				<polyline fill="none" stroke="#3D0F3D" stroke-width="1.5" stroke-linecap="round" stroke-linejoin="round" stroke-miterlimit="10" points="
				152.496,417.103 152.567,424.567 188.837,424.567 221.909,424.765 222.092,416.963 			"/>
			
				<line fill="none" stroke="#3D0F3D" stroke-width="1.5" stroke-linecap="round" stroke-linejoin="round" stroke-miterlimit="10" x1="180.21" y1="398.368" x2="176.055" y2="400.298"/>
			
				<line fill="none" stroke="#3D0F3D" stroke-width="1.5" stroke-linecap="round" stroke-linejoin="round" stroke-miterlimit="10" x1="182.606" y1="400.781" x2="180.689" y2="404.154"/>
			
				<line fill="none" stroke="#3D0F3D" stroke-width="1.5" stroke-linecap="round" stroke-linejoin="round" stroke-miterlimit="10" x1="188.038" y1="401.905" x2="187.559" y2="406.083"/>
			
				<line fill="none" stroke="#3D0F3D" stroke-width="1.5" stroke-linecap="round" stroke-linejoin="round" stroke-miterlimit="10" x1="193.95" y1="402.064" x2="193.95" y2="405.924"/>
			
				<polyline fill="none" stroke="#3D0F3D" stroke-width="1.5" stroke-linecap="round" stroke-linejoin="round" stroke-miterlimit="10" points="
				176.034,394.512 175.735,383.583 155.795,383.582 155.961,394.807 155.961,394.833 			"/>
		</g>
	</g>
	<g id="XMLID_508_">
		<g>
			<path fill="#E69BBF" d="M411.787,258.58c-0.133,5.006,2.982,18.205-3.499,30.445c-4.12,7.737-11.266,11.015-19.756,12.373
				c-9.804,1.536-25.174,0.162-35.981,0.502c-24.406,0.768-41.696-3.676-42.272,13.48c-0.575,16.817-0.502,61.628-0.502,61.628
				l-27.24,0.148c0,0-0.842-26.695-0.414-53.922c0.133-9.036,0.089-20.257,0.562-28.26c0.384-6.792,0.679-19.622,24.568-20.597
				c14.071-0.562,45.121-2.229,60.063-3.057v-11.059L411.787,258.58z"/>
		</g>
		<g>
			
				<path fill="none" stroke="#3D0F3D" stroke-width="1.5" stroke-linecap="round" stroke-linejoin="round" stroke-miterlimit="10" d="
				M411.787,258.58c-0.133,5.006,2.982,18.205-3.499,30.445c-4.12,7.737-11.266,11.015-19.756,12.373
				c-9.804,1.536-25.174,0.162-35.981,0.502c-24.406,0.768-41.696-3.676-42.272,13.48c-0.575,16.817-0.502,61.628-0.502,61.628
				l-27.24,0.148c0,0-0.842-26.695-0.414-53.922c0.133-9.036,0.089-20.257,0.562-28.26c0.384-6.792,0.679-19.622,24.568-20.597
				c14.071-0.562,45.121-2.229,60.063-3.057v-11.059L411.787,258.58z"/>
		</g>
	</g>
	<g id="XMLID_507_">
		<g>
			<path fill="#FFA468" d="M48.193,260.579c0.137,5.141-3.062,18.71,3.593,31.264c4.23,7.96,11.568,11.311,20.287,12.706
				c10.067,1.576,25.851,0.167,36.949,0.516c25.062,0.788,42.816-3.775,43.408,13.842c0.591,17.285,0.516,67.47,0.516,67.47
				l27.974,0.152c0,0,0.864-31.598,0.424-59.556c-0.136-9.279-0.091-20.802-0.576-29.02c-0.394-6.989-0.697-20.165-25.229-21.15
				c-14.449-0.576-46.334-2.29-61.678-3.139v-11.371L48.193,260.579z"/>
		</g>
		<g>
			
				<path fill="none" stroke="#3D0F3D" stroke-width="1.5" stroke-linecap="round" stroke-linejoin="round" stroke-miterlimit="10" d="
				M48.193,260.579c0.137,5.141-3.062,18.71,3.593,31.264c4.23,7.96,11.568,11.311,20.287,12.706
				c10.067,1.576,25.851,0.167,36.949,0.516c25.062,0.788,42.816-3.775,43.408,13.842c0.591,17.285,0.516,67.47,0.516,67.47
				l27.974,0.152c0,0,0.864-31.598,0.424-59.556c-0.136-9.279-0.091-20.802-0.576-29.02c-0.394-6.989-0.697-20.165-25.229-21.15
				c-14.449-0.576-46.334-2.29-61.678-3.139v-11.371L48.193,260.579z"/>
		</g>
	</g>
	<g id="XMLID_506_">
		<g>
			<path fill="#DB71AA" d="M232.371,343.436c16.565,0,29.989,13.435,29.989,29.999s-13.424,29.989-29.989,29.989
				c-16.574,0-29.999-13.425-29.999-29.989S215.797,343.436,232.371,343.436z"/>
		</g>
		<g>
			
				<path fill="none" stroke="#3D0F3D" stroke-width="1.5" stroke-linecap="round" stroke-linejoin="round" stroke-miterlimit="10" d="
				M262.36,373.435c0,16.564-13.424,29.989-29.989,29.989c-16.574,0-29.999-13.425-29.999-29.989s13.425-29.999,29.999-29.999
				C248.937,343.436,262.36,356.87,262.36,373.435z"/>
		</g>
	</g>
	<g>
		<g id="XMLID_505_">
			<g>
				<rect x="232.064" y="96.1" fill="#E69BBF" width="14.769" height="14.518"/>
				<path fill="#E69BBF" d="M224.415,70.161c0.438,0.022,0.886,0.022,1.355,0c10.186-0.375,12.06-6.329,12.06-6.329
					c21.39,0.375,32.258,17.013,33.959,36.668c1.589,18.476,1.354,41.965,1.354,64.082h-48.728V70.161z M246.833,110.618V96.1
					h-14.769v14.518H246.833z"/>
				<path fill="#E69BBF" d="M196.14,164.583h-18.67c0-22.117-0.234-45.606,1.365-64.082c1.691-19.655,12.559-36.294,33.948-36.668
					c0,0,2.546,6.102,11.632,6.329v94.421H196.14z"/>
			</g>
			<g>
				<path fill="none" stroke="#3D0F3D" stroke-width="1.5" stroke-linecap="round" stroke-linejoin="round" d="M196.14,164.583
					c0.52-46.502,1.701-66.35,1.701-66.35"/>
				<path fill="none" stroke="#3D0F3D" stroke-width="1.5" stroke-linecap="round" stroke-linejoin="round" d="M224.415,164.583
					h48.728c0-22.117,0.234-45.606-1.354-64.082c-1.701-19.655-12.569-36.294-33.959-36.668c0,0-1.874,5.955-12.06,6.329
					c-0.469,0.022-0.917,0.022-1.355,0c-9.085-0.227-11.632-6.329-11.632-6.329c-21.39,0.375-32.257,17.013-33.948,36.668
					c-1.599,18.476-1.365,41.965-1.365,64.082h18.67H224.415z"/>
				<polyline fill="none" stroke="#3D0F3D" stroke-width="1.5" stroke-linecap="round" stroke-linejoin="round" points="
					224.415,70.161 224.415,164.583 224.415,164.866 				"/>
				
					<rect x="232.064" y="96.1" fill="none" stroke="#3D0F3D" stroke-width="1.5" stroke-linecap="round" stroke-linejoin="round" width="14.769" height="14.518"/>
			</g>
		</g>
		<g id="XMLID_504_">
			<g>
				<path fill="#E69BBF" d="M224.544,68.927l-6.041,9.59l-16.968-14.595c0,0,6.43-1.792,11.422-1.605
					C217.663,68.744,224.544,68.927,224.544,68.927z"/>
			</g>
			<g>
				<path fill="none" stroke="#3D0F3D" stroke-width="1.5" stroke-linecap="round" stroke-linejoin="round" d="M212.958,62.317
					c-4.992-0.187-11.422,1.605-11.422,1.605l16.968,14.595l6.041-9.59C224.544,68.927,217.663,68.744,212.958,62.317z"/>
			</g>
		</g>
		<g id="XMLID_503_">
			<g>
				<path fill="#E69BBF" d="M246.339,63.488L231.13,79.277l-6.593-10.453c0,0,5.407,0.978,11.76-6.246
					C239.561,62.854,246.339,63.488,246.339,63.488z"/>
			</g>
			<g>
				<path fill="none" stroke="#3D0F3D" stroke-width="1.5" stroke-linecap="round" stroke-linejoin="round" d="M236.297,62.579
					c3.264,0.274,10.042,0.909,10.042,0.909L231.13,79.277l-6.593-10.453C224.537,68.825,229.944,69.802,236.297,62.579z"/>
			</g>
		</g>
		<g id="head">
			<g>
				<path fill="#FFFFFF" d="M229.581,68.766l-0.128,0.212c-10.397,2.584-14.895-4.964-14.895-4.964l1.092-4.921
					c0.439,0.163,0.836,0.266,1.152,0.318c6.678,1.104,9.634-8.511,16.137-8.478c6.8,0.04,8.638-1.444,11.57-5.819
					c3.053-4.556,7.675-2.94,14.193-1.895c1.236,0.197,2.287,0.117,3.167-0.17c0.038,1.156,0.024,2.526-0.084,3.792
					c-0.184,2.105-0.946,6.062-2.125,9.87l-2.045,5.685c0,0,1.622,1.286,0.859,2.978c-0.479,0.996-1.977,1.721-3.201,1.09
					c-0.9-0.478-1.347-1.583-1.347-1.583c-0.494,0.343-1.274,0.219-1.982-0.157l-0.096,0.184c-3.692,3.509-7.408,6.654-11.674,6.948
					C235.664,72.178,232.535,70.603,229.581,68.766z M257.948,50.576c0.687-0.083,0.987-0.997,0.779-1.687
					c-0.32-1.101-1.081-1.725-1.941-2.123c-1.146-0.532-2.128-0.751-3.307-0.375c-0.787,0.256-1.275,1.246-0.926,1.834
					c0.138,0.263,0.361,0.45,0.626,0.595c0.341,0.166,0.74,0.154,1.103,0.123c0.894-0.086,1.729,0.32,2.032,0.705
					C256.809,50.286,257.27,50.676,257.948,50.576z M245.201,67.662c0.421-0.606,0.271-1.436-0.344-1.862
					c-0.606-0.421-1.444-0.277-1.865,0.33c-0.427,0.615-0.268,1.45,0.339,1.871C243.945,68.427,244.774,68.277,245.201,67.662z"/>
				<path fill="#3D0F3D" d="M261.869,43.049c-0.88,0.288-1.931,0.368-3.167,0.17c-6.519-1.045-11.141-2.661-14.193,1.895
					c-2.933,4.375-4.771,5.859-11.57,5.819c-6.503-0.033-9.459,9.582-16.137,8.478c-0.316-0.053-0.713-0.155-1.152-0.318
					c-1.923-0.706-4.625-2.471-4.86-5.49c-0.373-4.68,2.372-5.592,2.189-10.294c-0.187-4.846-0.235-9.372,4.138-15.628
					c5.433-7.774,19.398-12.503,32.95-6.63c8.41,3.647,14.132,9.439,15.294,14.552C265.995,38.378,265.024,42.023,261.869,43.049z"
					/>
				<path fill="#3D0F3D" d="M244.857,65.8c0.615,0.427,0.765,1.256,0.344,1.862c-0.427,0.615-1.256,0.765-1.87,0.338
					c-0.606-0.42-0.766-1.256-0.339-1.871C243.413,65.523,244.251,65.379,244.857,65.8z"/>
				<path fill="#3D0F3D" d="M254.282,48.943c-0.362,0.031-0.762,0.042-1.103-0.123c-0.265-0.146-0.488-0.333-0.626-0.595
					c-0.35-0.588,0.139-1.578,0.926-1.834c1.179-0.376,2.161-0.156,3.307,0.375c0.86,0.398,1.621,1.022,1.941,2.123
					c0.208,0.69-0.093,1.604-0.779,1.687c-0.679,0.1-1.14-0.291-1.634-0.928C256.011,49.263,255.176,48.857,254.282,48.943z"/>
			</g>
			<g>
				<path fill="none" stroke="#3D0F3D" stroke-width="1.5" stroke-linecap="round" stroke-linejoin="round" d="M226.483,66.802
					c1.047,0.637,2.06,1.313,3.098,1.963c2.954,1.837,6.083,3.412,10.594,3.089c4.266-0.293,7.981-3.439,11.674-6.948"/>
				<path fill="none" stroke="#3D0F3D" stroke-width="1.5" stroke-linecap="round" stroke-linejoin="round" d="M253.18,48.82
					c-0.265-0.146-0.488-0.333-0.626-0.595c-0.35-0.588,0.139-1.578,0.926-1.834c1.179-0.376,2.161-0.156,3.307,0.375
					c0.86,0.398,1.621,1.022,1.941,2.123c0.208,0.69-0.093,1.604-0.779,1.687c-0.679,0.1-1.14-0.291-1.634-0.928
					c-0.304-0.385-1.139-0.791-2.032-0.705C253.92,48.975,253.521,48.986,253.18,48.82z"/>
				<path fill="none" stroke="#3D0F3D" stroke-width="1.5" stroke-linecap="round" stroke-linejoin="round" d="M261.852,42.639
					c0.005,0.132,0.011,0.271,0.018,0.41c0.038,1.156,0.024,2.526-0.084,3.792c-0.184,2.105-0.946,6.062-2.125,9.87l-2.045,5.685
					c0,0,1.622,1.286,0.859,2.978c-0.479,0.996-1.977,1.721-3.201,1.09c-0.9-0.478-1.347-1.583-1.347-1.583
					c-0.494,0.343-1.274,0.219-1.982-0.157c-1.251-0.676-2.261-2.171-0.936-3.37"/>
				<path fill="none" stroke="#3D0F3D" stroke-width="1.5" stroke-linecap="round" stroke-linejoin="round" d="M216.168,56.764
					l-0.519,2.329l-1.092,4.921c0,0,4.498,7.548,14.895,4.964"/>
				<path fill="none" stroke="#3D0F3D" stroke-width="1.5" stroke-linecap="round" stroke-linejoin="round" d="M256.181,53.957
					c-1.316,0.852-3.749-0.035-4.5-1.838"/>
				<path fill="none" stroke="#3D0F3D" stroke-width="1.5" stroke-linecap="round" stroke-linejoin="round" d="M245.201,67.662
					c-0.427,0.615-1.256,0.765-1.87,0.338c-0.606-0.42-0.766-1.256-0.339-1.871c0.421-0.606,1.259-0.75,1.865-0.33
					C245.473,66.227,245.622,67.056,245.201,67.662z"/>
				<path fill="none" stroke="#3D0F3D" stroke-width="1.5" stroke-linecap="round" stroke-linejoin="round" d="M215.649,59.093
					c-1.923-0.706-4.625-2.471-4.86-5.49c-0.373-4.68,2.372-5.592,2.189-10.294c-0.187-4.846-0.235-9.372,4.138-15.628
					c5.433-7.774,19.398-12.503,32.95-6.63c8.41,3.647,14.132,9.439,15.294,14.552c0.635,2.775-0.336,6.421-3.491,7.446
					c-0.88,0.288-1.931,0.368-3.167,0.17c-6.519-1.045-11.141-2.661-14.193,1.895c-2.933,4.375-4.771,5.859-11.57,5.819
					c-6.503-0.033-9.459,9.582-16.137,8.478C216.485,59.358,216.088,59.256,215.649,59.093z"/>
			</g>
		</g>
	</g>
	<g>
		<g id="XMLID_501_">
			<g>
				<polygon fill="#DB71AA" points="117.858,138.781 117.858,287.438 225.929,287.438 238.439,287.438 342.43,287.438 
					342.43,138.781 				"/>
				<rect x="225.929" y="287.438" fill="#DB71AA" width="12.511" height="88"/>
			</g>
			<g>
				
					<polygon fill="none" stroke="#3D0F3D" stroke-width="1.5" stroke-linecap="round" stroke-linejoin="round" stroke-miterlimit="10" points="
					238.439,287.438 342.43,287.438 342.43,138.781 117.858,138.781 117.858,287.438 225.929,287.438 				"/>
				
					<polyline fill="none" stroke="#3D0F3D" stroke-width="1.5" stroke-linecap="round" stroke-linejoin="round" stroke-miterlimit="10" points="
					225.929,287.438 225.929,375.438 238.439,375.438 238.439,287.438 				"/>
			</g>
		</g>
	</g>
	<g id="XMLID_500_">
		<g>
			<path fill="#FFFFFF" d="M129.454,125.528c1.687,0.187,2.164,2.121,2.127,4.778c-0.003,0.098-0.008,0.203-0.008,0.306
				c-0.084,2.811-0.15,5.154-3.129,5.042c-1.486-0.057-1.903-1.501-2.042-2.515l-0.021-0.003c0.176-0.973,0.215-2.12,0.25-3.289
				c0.024-0.893,0.039-1.728,0.004-2.476C126.907,126.092,127.5,125.305,129.454,125.528z"/>
			<path fill="#FFFFFF" d="M121.439,125.614c0.375-1.145,1.193-1.885,3.037-1.744c1.588,0.124,2.052,1.495,2.159,3.501
				c0.034,0.748,0.02,1.583-0.004,2.476c-0.034,1.169-0.074,2.316-0.25,3.289c-0.317,1.757-1.093,2.939-3.143,2.622
				c-2.649-0.417-2.226-3.372-2.15-6.25C121.126,128.112,121.086,126.684,121.439,125.614z"/>
			<path fill="#FFFFFF" d="M131.573,130.612c0-0.103,0.005-0.208,0.008-0.306l0.079-0.002c1.157,2.55,2.106,10.901,1.562,15.72
				c-0.51,4.539-3.039,7.582-3.295,13.831l-13.672-0.128c-0.025-4.32,0.679-6.156-3.033-10.395
				c-5.131-5.866-4.41-11.889-4.439-17.658c-0.021-4.969,0.869-5.611,2.113-5.763c1.518-0.179,2.444,1.425,2.664,2.672
				c0.232,1.296,0.623,3.386,0.724,5.383c0.042,0.944,0.127,1.647,0.26,2.186l0.043-0.006c0.302-2.803,0.514-8.713,0.822-13.756
				c0.328-5.377-0.164-11.792,3.013-11.634c4.219,0.209,3.378,6.504,3.155,11.93c-0.039,1.057-0.087,2.032-0.136,2.929
				c-0.353,1.07-0.313,2.499-0.351,3.893c-0.075,2.879-0.499,5.834,2.15,6.25c2.049,0.317,2.825-0.865,3.143-2.622l0.021,0.003
				c0.139,1.014,0.555,2.458,2.042,2.515C131.423,135.766,131.489,133.423,131.573,130.612z"/>
		</g>
		<g>
			<path fill="none" stroke="#3D0F3D" stroke-width="1.5" stroke-linecap="round" stroke-linejoin="round" d="M114.586,136.146
				c0.302-2.803,0.514-8.713,0.822-13.756c0.328-5.377-0.164-11.792,3.013-11.634c4.219,0.209,3.378,6.504,3.155,11.93
				c-0.039,1.057-0.087,2.032-0.136,2.929c-0.001,0.061-0.006,0.117-0.01,0.173"/>
			<path fill="none" stroke="#3D0F3D" stroke-width="1.5" stroke-linecap="round" stroke-linejoin="round" d="M121.439,125.614
				c0.375-1.145,1.193-1.885,3.037-1.744c1.588,0.124,2.052,1.495,2.159,3.501c0.034,0.748,0.02,1.583-0.004,2.476
				c-0.034,1.169-0.074,2.316-0.25,3.289c-0.317,1.757-1.093,2.939-3.143,2.622c-2.649-0.417-2.226-3.372-2.15-6.25
				C121.126,128.112,121.086,126.684,121.439,125.614z"/>
			<path fill="none" stroke="#3D0F3D" stroke-width="1.5" stroke-linecap="round" stroke-linejoin="round" d="M126.635,127.371
				c0.271-1.278,0.865-2.065,2.819-1.842c1.687,0.187,2.164,2.121,2.127,4.778c-0.003,0.098-0.008,0.203-0.008,0.306
				c-0.084,2.811-0.15,5.154-3.129,5.042c-1.486-0.057-1.903-1.501-2.042-2.515"/>
			<path fill="none" stroke="#3D0F3D" stroke-width="1.5" stroke-linecap="round" stroke-linejoin="round" d="M121.686,143.009
				c-0.855-1.634-2.213-3.116-5.372-4.746c-0.941-0.486-1.486-0.88-1.771-2.111c-0.133-0.539-0.217-1.242-0.26-2.186
				c-0.102-1.997-0.492-4.087-0.724-5.383c-0.22-1.247-1.146-2.851-2.664-2.672c-1.244,0.152-2.134,0.794-2.113,5.763
				c0.03,5.77-0.692,11.792,4.439,17.658c3.712,4.239,3.008,6.075,3.033,10.395l13.672,0.128c0.256-6.249,2.786-9.292,3.295-13.831
				c0.544-4.819-0.404-13.17-1.562-15.72"/>
		</g>
	</g>
	<g id="XMLID_499_">
		<g>
			<path fill="#21C28C" d="M113.285,157.415l21.133,0.187c0,0-0.17,6.122-0.496,14.707l-0.062-0.001l-20.464-0.746l-0.595-0.018
				C113.064,163.548,113.285,157.415,113.285,157.415z"/>
			<path fill="#21C28C" d="M133.861,172.307l0.062,0.001c-0.427,11.246-1.12,26.727-2.049,38.227
				c-1.66,20.543-5.697,32.32-21.471,31.644c-11.227-0.479-19.414-14.619-32.589-37.35c-14.94-25.78-24.521-40.995-12.793-47.336
				c9.181-4.968,15.396,3.51,27.175,28.19c5.947,12.457,8.919,16.687,12.853,23.536c4.433,7.713,6.93,7.75,6.869-3.063
				c-0.031-5.489,0.481-22.271,0.886-34.613l0.595,0.018L133.861,172.307z"/>
		</g>
		<g>
			<path fill="none" stroke="#3D0F3D" stroke-width="1.5" stroke-linecap="round" stroke-linejoin="round" d="M133.922,172.308
				c-0.427,11.246-1.12,26.727-2.049,38.227c-1.66,20.543-5.697,32.32-21.471,31.644c-11.227-0.479-19.414-14.619-32.589-37.35
				c-14.94-25.78-24.521-40.995-12.793-47.336c9.181-4.968,15.396,3.51,27.175,28.19c5.947,12.457,8.919,16.687,12.853,23.536
				c4.433,7.713,6.93,7.75,6.869-3.063c-0.031-5.489,0.481-22.271,0.886-34.613c0.263-7.995,0.483-14.128,0.483-14.128l21.133,0.187
				C134.418,157.602,134.248,163.723,133.922,172.308z"/>
			
				<line fill="none" stroke="#3D0F3D" stroke-width="1.5" stroke-linecap="round" stroke-linejoin="round" x1="113.396" y1="171.561" x2="133.861" y2="172.307"/>
		</g>
	</g>
	<g id="XMLID_498_">
		<g>
			<path fill="#3D0F3D" d="M50.995,123.295c1.719,8.835,9.166,14.844,13.115,13.938c0.844-0.192,1.528-0.704,1.962-1.572
				c1.959-3.891-1.314-7.659,6.894-10.301c8.219-2.628,5.053-7.029,6.307-13.852c1.263-6.817,8.679-5.555,14.732-7.959
				c0.516-0.206,0.952-0.435,1.33-0.699c3.99-2.761,0.067-8.279-2.95-10.587c-5.124-3.894-16.818-5.809-27.958-0.574
				C51.602,97.714,48.972,112.903,50.995,123.295z"/>
			<path fill="#3D0F3D" d="M90.695,132.664c0.001,0.881,0.719,1.591,1.6,1.59c0.873,0,1.593-0.711,1.591-1.592
				c-0.001-0.881-0.711-1.593-1.592-1.591C91.412,131.064,90.701,131.782,90.695,132.664z"/>
			<path fill="#3D0F3D" d="M87.464,110.166c-0.567,0.659-0.402,1.525,0.379,1.946c0.33,0.196,0.711,0.263,1.111,0.234
				c0.489-0.042,0.926-0.336,1.315-0.62c0.928-0.711,2.395-0.802,2.74-0.61c0.844,0.473,1.763,0.528,2.458-0.044
				c0.697-0.565,0.719-1.451,0.066-1.994c-1.016-0.847-2.375-1.214-3.769-1.099C90.124,108.137,88.539,108.955,87.464,110.166z"/>
			<path fill="#FFFFFF" d="M89.893,138.832c3.524-2.135,5.239-6.108,6.847-10.739l0.847-0.634c0.456-0.108,0.828-0.33,1.006-0.663
				c0,0,0.868,0.75,1.851,0.757c1.322,0.001,2.289-1.284,2.253-2.34c-0.093-1.79-2.046-2.173-2.046-2.173l-0.757-5.772
				c-0.673-3.771-1.296-6.849-2.447-9.8l-1.444-4.046l-0.668-0.572c-0.378,0.264-0.814,0.493-1.33,0.699
				c-6.053,2.404-13.469,1.142-14.732,7.959c-1.253,6.823,1.913,11.224-6.307,13.852c-8.208,2.642-4.934,6.41-6.894,10.301
				c-0.434,0.868-1.118,1.379-1.962,1.572l0.042,0.248l-0.11,11.979c8.617,3.728,16.995-0.334,16.995-0.334l-0.01-7.87l-0.001-0.249
				C84.056,140.959,87.198,140.47,89.893,138.832z M95.534,109.078c0.653,0.543,0.631,1.429-0.066,1.994
				c-0.695,0.572-1.614,0.517-2.458,0.044c-0.345-0.192-1.812-0.101-2.74,0.61c-0.39,0.284-0.826,0.579-1.315,0.62
				c-0.4,0.029-0.782-0.038-1.111-0.234c-0.782-0.421-0.946-1.288-0.379-1.946c1.075-1.211,2.659-2.029,4.301-2.187
				C93.159,107.864,94.518,108.231,95.534,109.078z M93.886,132.662c0.002,0.881-0.718,1.592-1.591,1.592
				c-0.88,0.001-1.598-0.709-1.6-1.59c0.006-0.882,0.716-1.6,1.599-1.594C93.175,131.068,93.885,131.781,93.886,132.662z
				 M92.951,117.647c-1.511,0.077-2.625-0.589-2.698-1.278c-0.065-0.691,1.329-1.646,2.913-1.732
				c0.222-0.011,0.43-0.011,0.633,0.007c1.342,0.121,2.383,0.863,2.345,1.404c-0.075,0.907-1.139,1.327-2.161,1.503
				C93.614,117.606,93.257,117.641,92.951,117.647z"/>
			<path fill="#FFFFFF" d="M93.166,114.637c-1.584,0.085-2.978,1.041-2.913,1.732c0.072,0.689,1.187,1.355,2.698,1.278
				c0.306-0.006,0.664-0.042,1.033-0.096l-0.018-0.145c-0.89-1.576-0.178-2.634-0.178-2.634l0.011-0.127
				C93.596,114.626,93.388,114.626,93.166,114.637z"/>
			<path fill="#3D0F3D" d="M93.966,117.406l0.018,0.145c1.022-0.176,2.086-0.596,2.161-1.503c0.038-0.541-1.003-1.283-2.345-1.404
				l-0.011,0.127C93.788,114.772,93.076,115.831,93.966,117.406z"/>
		</g>
		<g>
			<path fill="none" stroke="#3D0F3D" stroke-width="1.5" stroke-linecap="round" stroke-linejoin="round" d="M81.026,141.256
				l0.01,7.87c0,0-8.377,4.062-16.995,0.334l0.11-11.979"/>
			<path fill="none" stroke="#3D0F3D" stroke-width="1.5" stroke-linecap="round" stroke-linejoin="round" d="M73.782,140.61
				c2.097,0.15,4.634,0.436,7.243,0.397c3.031-0.048,6.173-0.537,8.867-2.176c3.524-2.135,5.239-6.108,6.847-10.739"/>
			<path fill="none" stroke="#3D0F3D" stroke-width="1.5" stroke-linecap="round" stroke-linejoin="round" d="M88.955,112.347
				c-0.4,0.029-0.782-0.038-1.111-0.234c-0.782-0.421-0.946-1.288-0.379-1.946c1.075-1.211,2.659-2.029,4.301-2.187
				c1.394-0.115,2.753,0.251,3.769,1.099c0.653,0.543,0.631,1.429-0.066,1.994c-0.695,0.572-1.614,0.517-2.458,0.044
				c-0.345-0.192-1.812-0.101-2.74,0.61C89.881,112.01,89.444,112.305,88.955,112.347z"/>
			<path fill="none" stroke="#3D0F3D" stroke-width="1.5" stroke-linecap="round" stroke-linejoin="round" d="M93.983,117.551
				c-0.369,0.055-0.727,0.09-1.033,0.096c-1.511,0.077-2.625-0.589-2.698-1.278c-0.065-0.691,1.329-1.646,2.913-1.732
				c0.222-0.011,0.43-0.011,0.633,0.007c1.342,0.121,2.383,0.863,2.345,1.404C96.07,116.956,95.005,117.375,93.983,117.551z"/>
			<path fill="none" stroke="#3D0F3D" stroke-width="1.5" stroke-linecap="round" stroke-linejoin="round" d="M93.788,114.772
				c0,0-0.712,1.059,0.178,2.634"/>
			<path fill="none" stroke="#3D0F3D" stroke-width="1.5" stroke-linecap="round" stroke-linejoin="round" d="M96.001,103.422
				l1.444,4.046c1.151,2.951,1.774,6.028,2.447,9.8l0.757,5.772c0,0,1.953,0.383,2.046,2.173c0.035,1.056-0.931,2.341-2.253,2.34
				c-0.982-0.007-1.851-0.757-1.851-0.757c-0.178,0.333-0.55,0.555-1.006,0.663c-1.463,0.348-3.771-0.475-3.048-2.4"/>
			<path fill="none" stroke="#3D0F3D" stroke-width="1.5" stroke-linecap="round" stroke-linejoin="round" d="M64.109,137.233
				c-3.949,0.906-11.396-5.103-13.115-13.938c-2.023-10.392,0.607-25.581,13.43-31.606c11.141-5.235,22.834-3.319,27.958,0.574
				c3.018,2.308,6.94,7.826,2.95,10.587c-0.378,0.264-0.814,0.493-1.33,0.699c-6.053,2.404-13.469,1.142-14.732,7.959
				c-1.253,6.823,1.913,11.224-6.307,13.852c-8.208,2.642-4.934,6.41-6.894,10.301C65.638,136.529,64.953,137.041,64.109,137.233z"
				/>
			<path fill="none" stroke="#3D0F3D" stroke-width="1.5" stroke-linecap="round" stroke-linejoin="round" d="M93.886,132.662
				c0.002,0.881-0.718,1.592-1.591,1.592c-0.88,0.001-1.598-0.709-1.6-1.59c0.006-0.882,0.716-1.6,1.599-1.594
				C93.175,131.068,93.885,131.781,93.886,132.662z"/>
		</g>
	</g>
	<g id="XMLID_497_">
		<g>
			<path fill="#21C28C" d="M96.028,200.197c1.679,23.022-0.555,68.843-0.555,68.843l-49.387-0.195c0,0,0.921-44.381,2.356-70.647
				c1.368-25.021,6.622-45.569,14.693-49.847c0,0,8.288,3.746,18.552-0.182C87.903,152.405,94.228,175.399,96.028,200.197z"/>
		</g>
		<g>
			
				<path fill="none" stroke="#3D0F3D" stroke-width="1.5" stroke-linecap="round" stroke-linejoin="round" stroke-miterlimit="10" d="
				M63.135,148.351c-8.071,4.277-13.325,24.826-14.693,49.847c-1.436,26.266-2.356,70.647-2.356,70.647l49.387,0.195
				c0,0,2.234-45.821,0.555-68.843c-1.801-24.797-8.125-47.792-14.341-52.027C71.423,152.097,63.135,148.351,63.135,148.351z"/>
		</g>
	</g>
	<g id="XMLID_496_">
		<g>
			<path fill="#FFFFFF" d="M283.133,196.193c-0.454-2.356,2.704-4.72,5.247-5.866c0.048-0.02,0.08-0.039,0.129-0.058
				c1.144-0.49,2.379-0.854,3.654-1.12l0.969,4.626c-1.114,0.19-2.076,0.436-2.703,0.726c-1.591,0.751-3.363,2.261-4.778,2.918
				C284.429,197.997,283.463,197.928,283.133,196.193z"/>
			<path fill="#FFFFFF" d="M292.128,185.108c5.524-1.658,18.318-2.156,24.615-1.164c3.199,0.501,9.5,0.813,16.044,0.53l0.058,11.398
				c-4.979,0.147-7.706-0.004-9.311,1.047c-1.587,1.066-2.56,3.136-3.622,4.366c-1.846,2.161-3.917,3.673-5.91,4.849
				c-3.542,2.074-7.418,8.627-10.051,5.901c-3.734-3.846,8.195-9.143,7.385-11.625s-13.227-2.539-17.652-1.55
				c-4.636,1.069-4.888,3.521-7.572,3.285c-2.6-0.226-1.959-3.069-0.461-4.726c1.415-0.657,3.188-2.167,4.778-2.918
				c0.627-0.29,1.589-0.536,2.703-0.726c3.326-0.568,8.074-0.7,9.979-0.709l0.104-4.697c-2.079-0.111-6.724-0.185-11.052,0.781
				c-1.275,0.267-2.511,0.63-3.654,1.12c-0.049,0.02-0.081,0.039-0.129,0.058l-0.154-0.321
				C287.386,188.835,288.424,186.231,292.128,185.108z"/>
			<path fill="#FFFFFF" d="M292.163,189.149c4.328-0.966,8.973-0.892,11.052-0.781l-0.104,4.697
				c-1.905,0.01-6.653,0.142-9.979,0.709L292.163,189.149z"/>
		</g>
		<g>
			
				<path fill="none" stroke="#3D0F3D" stroke-width="1.5" stroke-linecap="round" stroke-linejoin="round" stroke-miterlimit="10" d="
				M303.215,188.368c-2.079-0.111-6.724-0.185-11.052,0.781c-1.275,0.267-2.511,0.63-3.654,1.12
				c-0.049,0.02-0.081,0.039-0.129,0.058c-2.543,1.146-5.701,3.509-5.247,5.866c0.33,1.735,1.296,1.804,2.518,1.226
				c1.415-0.657,3.188-2.167,4.778-2.918c0.627-0.29,1.589-0.536,2.703-0.726c3.326-0.568,8.074-0.7,9.979-0.709
				c0.48,0.001,0.779,0.015,0.813,0.029"/>
			
				<path fill="none" stroke="#3D0F3D" stroke-width="1.5" stroke-linecap="round" stroke-linejoin="round" stroke-miterlimit="10" d="
				M285.65,197.418c-1.498,1.657-2.139,4.5,0.461,4.726c2.685,0.237,2.937-2.216,7.572-3.285c4.426-0.989,16.842-0.932,17.652,1.55
				s-11.119,7.779-7.385,11.625c2.633,2.726,6.509-3.828,10.051-5.901c1.993-1.176,4.064-2.688,5.91-4.849
				c1.062-1.23,2.035-3.3,3.622-4.366c1.604-1.051,4.332-0.9,9.311-1.047l-0.058-11.398c-6.544,0.284-12.845-0.029-16.044-0.53
				c-6.297-0.992-19.091-0.494-24.615,1.164c-3.704,1.123-4.742,3.727-3.902,4.898"/>
		</g>
	</g>
	<g id="XMLID_495_">
		<g>
			<rect x="329.288" y="181.687" fill="#FF5542" width="51.189" height="17.823"/>
		</g>
		<g>
			
				<rect x="329.289" y="181.688" fill="none" stroke="#3D0F3D" stroke-width="1.5" stroke-linecap="round" stroke-linejoin="round" width="51.189" height="17.823"/>
		</g>
	</g>
	<g id="XMLID_494_">
		<g>
			<path fill="#FF5542" d="M364.687,266.595h48.856c0,0-1.033-37.374-3.15-61.417c-2.132-24.044-4.117-46.808-13.833-50.285
				c0-0.013-7.372,2.035-15.738,0.283c-8.644,6.388-11.979,29.88-12.892,53.856C366.977,234.113,364.687,266.595,364.687,266.595z"
				/>
		</g>
		<g>
			
				<path fill="none" stroke="#3D0F3D" stroke-width="1.5" stroke-linecap="round" stroke-linejoin="round" stroke-miterlimit="10" d="
				M396.56,154.892c9.716,3.478,11.701,26.241,13.833,50.285c2.117,24.044,3.15,61.417,3.15,61.417h-48.856
				c0,0,2.29-32.481,3.243-57.563c0.913-23.977,4.248-47.468,12.892-53.856C389.188,156.927,396.56,154.879,396.56,154.892z"/>
		</g>
	</g>
	<g id="XMLID_493_">
		<g>
			<path fill="#FFFFFF" d="M264.048,220.745l0.012-0.729v-4.207h0.251c7.099,0.215,11.113,1.41,14.364,3.358
				c3.214,1.936,9.978,2.223,9.978,2.223l-0.92,12.26c-1.171-0.096-4.171,0.155-5.15,0.466c-6.202,1.996-9.56,3.812-16.323,3.489
				c0,0-0.849-0.023-2.199-0.071c-1.947-0.048-4.959-0.119-8.029-0.179c-5.903-0.108-10.611,0.394-10.373-3.131
				c0.072-1.1,0.646-1.709,1.733-2.044l-0.061-0.179c-3.848,0.143-5.222-1.243-5.198-2.952c0.013-1.23,1.017-2.641,2.952-2.772
				c0.144-0.012,0.287-0.012,0.418-0.024c-1.529-0.442-2.652-1.351-2.545-2.88c0.167-2.629,3.179-2.868,9.799-2.868
				C255.743,220.506,260.522,220.637,264.048,220.745z"/>
			<path fill="#FFFFFF" d="M264.048,220.745c-3.525-0.108-8.305-0.239-11.292-0.239c-6.62,0-9.632,0.239-9.799,2.868
				c-0.107,1.529,1.016,2.438,2.545,2.88c-0.131,0.012-0.274,0.012-0.418,0.024c-1.936,0.131-2.939,1.542-2.952,2.772
				c-0.023,1.709,1.351,3.095,5.198,2.952l0.061,0.179c-1.088,0.335-1.661,0.944-1.733,2.044c-0.238,3.524,4.47,3.022,10.373,3.131
				c3.07,0.06,6.082,0.131,8.029,0.179v0.096l0.013,10.922h-51.934l-0.012-39.123l51.946-0.012l-0.013,6.393v4.207L264.048,220.745z
				"/>
		</g>
		<g>
			
				<path fill="none" stroke="#3D0F3D" stroke-width="1.5" stroke-linecap="round" stroke-linejoin="round" stroke-miterlimit="10" d="
				M268.541,220.9c0,0-1.899-0.072-4.493-0.155c-3.525-0.108-8.305-0.239-11.292-0.239c-6.62,0-9.632,0.239-9.799,2.868
				c-0.107,1.529,1.016,2.438,2.545,2.88c0.024,0.012,0.036,0.024,0.06,0.024"/>
			
				<path fill="none" stroke="#3D0F3D" stroke-width="1.5" stroke-linecap="round" stroke-linejoin="round" stroke-miterlimit="10" d="
				M247.33,232.002c-3.848,0.143-5.222-1.243-5.198-2.952c0.013-1.23,1.017-2.641,2.952-2.772c0.144-0.012,0.287-0.012,0.418-0.024
				c4.529-0.239,6.238-0.155,11.567-0.155c4.924-0.012,7.588,0.143,7.588,0.143"/>
			
				<polyline fill="none" stroke="#3D0F3D" stroke-width="1.5" stroke-linecap="round" stroke-linejoin="round" stroke-miterlimit="10" points="
				264.06,220.016 264.06,215.81 264.072,209.417 212.126,209.429 212.139,248.552 264.072,248.552 264.06,237.63 			"/>
			
				<path fill="none" stroke="#3D0F3D" stroke-width="1.5" stroke-linecap="round" stroke-linejoin="round" stroke-miterlimit="10" d="
				M264.311,215.81c7.099,0.215,11.113,1.41,14.364,3.358c3.214,1.936,9.978,2.223,9.978,2.223l-0.92,12.26
				c-1.171-0.096-4.171,0.155-5.15,0.466c-6.202,1.996-9.56,3.812-16.323,3.489c0,0-0.849-0.023-2.199-0.071
				c-1.947-0.048-4.959-0.119-8.029-0.179c-5.903-0.108-10.611,0.394-10.373-3.131c0.072-1.1,0.646-1.709,1.733-2.044
				c1.409-0.454,3.704-0.442,6.858-0.502c4.828-0.083,10.408,0.311,10.408,0.311"/>
		</g>
	</g>
	<g id="XMLID_492_">
		<g>
			<path fill="#FF5542" d="M284.861,216.786l-0.871,20.463c0,0,36.395,2.315,59.826,0.574c19.691-1.484,26.836-9.935,33.505-19.315
				c4.216-5.957,8.193-12.844,11.756-19.929c11.161-22.106,11.993-33.426,3.463-36.83c-9.479-3.78-13.715,8.272-17.87,17.475
				c-7.441,16.485-12.271,34.099-27.548,37.008C329.528,219.577,284.861,216.786,284.861,216.786z"/>
		</g>
		<g>
			
				<path fill="none" stroke="#3D0F3D" stroke-width="1.5" stroke-linecap="round" stroke-linejoin="round" stroke-miterlimit="10" d="
				M392.54,161.75c8.53,3.404,7.698,14.724-3.463,36.83c-3.562,7.085-7.54,13.972-11.756,19.929
				c-6.669,9.38-13.813,17.831-33.505,19.315c-23.432,1.741-59.826-0.574-59.826-0.574l0.871-20.463c0,0,44.667,2.791,62.261-0.554
				c15.277-2.909,20.106-20.522,27.548-37.008C378.825,170.021,383.061,157.969,392.54,161.75z"/>
		</g>
	</g>
	<g id="XMLID_491_">
		<g>
			<polygon fill="#FFFFFF" points="244.029,164.701 236.697,217.004 198.685,211.665 206.016,159.361 			"/>
		</g>
		<g>
			
				<polygon fill="none" stroke="#3D0F3D" stroke-width="1.5" stroke-linecap="round" stroke-linejoin="round" stroke-miterlimit="10" points="
				244.029,164.701 236.697,217.004 198.685,211.665 206.016,159.361 			"/>
		</g>
	</g>
	<g id="XMLID_490_">
		<g>
			
				<rect x="167.664" y="188.394" transform="matrix(-0.1007 -0.9949 0.9949 -0.1007 -8.0376 422.3219)" fill="#FFFFFF" width="38.388" height="52.8"/>
		</g>
		<g>
			
				<rect x="160.458" y="195.6" transform="matrix(0.9949 -0.1007 0.1007 0.9949 -20.6742 19.9024)" fill="none" stroke="#3D0F3D" stroke-width="1.5" stroke-linecap="round" stroke-linejoin="round" stroke-miterlimit="10" width="52.8" height="38.388"/>
		</g>
	</g>
	<g id="XMLID_489_">
		<g>
			<path fill="#FFFFFF" d="M182.799,246.886c6.938-0.199,6.941-3.685,5.42-4.7l-0.038-0.356c0.775-0.056,1.579-0.158,2.41-0.274
				c4.617-0.687,4.101-5.198,1.401-5.586l-0.237-0.311c0.608-0.468,0.937-1.124,0.917-2.07c-0.044-2.779-3.529-2.748-8.894-2.857
				c-1.337-0.046-3.148-0.117-5.116-0.23l-0.006-0.151c3.787,0.096,3.849-3.863,0.415-5.018c-1.218-0.395-5.083-0.793-7.599-1.083
				c-6.943-0.789-11.815,0.177-18.268,2.905c-2.713,1.156-5.582,2.798-11.613,2.058l-1.859,13.135
				c1.822,0.339,5.046-0.436,9.915,0.616c7.224,1.607,9.701,3.948,18.433,4.102C175.976,247.216,176.931,247.073,182.799,246.886z"
				/>
		</g>
		<g>
			
				<path fill="none" stroke="#3D0F3D" stroke-width="1.5" stroke-linecap="round" stroke-linejoin="round" stroke-miterlimit="10" d="
				M178.636,230.342c0,0,0.014-0.007,0.021,0.007c3.787,0.096,3.849-3.863,0.415-5.018c-1.218-0.395-5.083-0.793-7.599-1.083
				c-6.943-0.789-11.815,0.177-18.268,2.905c-2.713,1.156-5.582,2.798-11.613,2.058l-1.859,13.135
				c1.822,0.339,5.046-0.436,9.915,0.616c7.224,1.607,9.701,3.948,18.433,4.102c7.895,0.151,8.85,0.009,14.718-0.179
				c6.938-0.199,6.941-3.685,5.42-4.7"/>
			
				<path fill="none" stroke="#3D0F3D" stroke-width="1.5" stroke-linecap="round" stroke-linejoin="round" stroke-miterlimit="10" d="
				M165.442,229.69c0,0,7.302,0.51,13.22,0.81c1.968,0.113,3.778,0.185,5.116,0.23c5.364,0.109,8.85,0.078,8.894,2.857
				c0.02,0.946-0.309,1.603-0.917,2.07c-1.858,1.438-6.362,0.993-11.711,0.809c-6.234-0.247-10.19-0.515-10.19-0.515"/>
			
				<path fill="none" stroke="#3D0F3D" stroke-width="1.5" stroke-linecap="round" stroke-linejoin="round" stroke-miterlimit="10" d="
				M191.992,235.969c2.7,0.388,3.216,4.899-1.401,5.586c-0.831,0.116-1.635,0.219-2.41,0.274c-3.557,0.339-6.787,0.193-11.178,0.154
				c-5.351-0.081-7.138-0.42-7.138-0.42"/>
		</g>
	</g>
	<g id="XMLID_488_">
		<g>
			<path fill="#FFFFFF" d="M148.045,226.05l-0.415,19.958c0,0-7.555,0.094-17.961,0.112l0.005-0.385l0.448-19.592l0.004-0.347
				C140.241,225.987,148.045,226.05,148.045,226.05z"/>
			<path fill="#21C28C" d="M130.127,225.797l-0.004,0.347l-0.448,19.592l-0.005,0.385c-17.69,0.059-43.627-0.067-54.559-1.059
				c-12.954-1.171-15.574-7.159-15.773-27.338s0.479-36.723,0.804-43.907c0.325-7.184,1.688-15.702,10.227-15.822
				c11.063-0.145,10.728,7.848,11.196,26.585c0.25,10.428,0.181,26.056,0.481,31.07c0.281,5.014,0.598,7.331,6.464,8.178
				C95.973,224.908,115.466,225.49,130.127,225.797z"/>
		</g>
		<g>
			
				<path fill="none" stroke="#3D0F3D" stroke-width="1.5" stroke-linecap="round" stroke-linejoin="round" stroke-miterlimit="10" d="
				M129.669,246.121c-17.69,0.059-43.627-0.067-54.559-1.059c-12.954-1.171-15.574-7.159-15.773-27.338s0.479-36.723,0.804-43.907
				c0.325-7.184,1.688-15.702,10.227-15.822c11.063-0.145,10.728,7.848,11.196,26.585c0.25,10.428,0.181,26.056,0.481,31.07
				c0.281,5.014,0.598,7.331,6.464,8.178c7.463,1.08,26.957,1.662,41.617,1.969c10.114,0.189,17.918,0.253,17.918,0.253
				l-0.415,19.958C147.63,246.009,140.075,246.103,129.669,246.121z"/>
			
				<line fill="none" stroke="#3D0F3D" stroke-width="1.5" stroke-linecap="round" stroke-linejoin="round" stroke-miterlimit="10" x1="130.123" y1="226.144" x2="129.674" y2="245.736"/>
		</g>
	</g>
	<g>
		<g id="XMLID_487_">
			<g>
				<path fill="#FFFFFF" d="M370.71,119.145c-0.602-0.5-0.627-1.432-0.092-1.982c0.831-0.841,2.155-0.917,3.363-0.825
					c1.406,0.137,2.706,0.667,3.612,1.748c0.484,0.571,0.418,1.524-0.274,1.937c-0.28,0.158-0.622,0.245-0.969,0.209
					c-0.428-0.036-0.8-0.301-1.121-0.55c-0.805-0.637-1.834-0.704-2.38-0.52C372.035,119.44,371.306,119.649,370.71,119.145z
					 M370.715,114.829c-1.381,2.649-2.573,6.344-3.598,9.824l-1.324,5.355c0,0-1.835,0.138-2.131,1.809
					c-0.143,0.989,0.693,2.033,1.819,2.441c0.861,0.301,1.794-0.504,1.794-0.504c0.193,0.52,0.851,0.826,1.58,0.887l-0.036,0.525
					c0.393,1.809,0.811,3.521,1.365,5.075c0.138-0.209,0.999-1.376,2.818-0.866c1.992,0.561,2.838,0.596,2.838,0.596
					s-1.778,2.849-4.244,2.757l-0.255,0.143c0.678,1.213,1.514,2.268,2.594,3.124c2.277,1.814,5.085,2.604,7.842,2.961l-0.352,6.013
					c1.672,0.953,5.065,1.697,9.474,0.703c-1.183-2.751-1.651-6.145-1.452-9.993c0.494-9.539-3.399-6.354-3.995-15.511
					c-0.479-7.338,2.955-13.361-6.313-15.72c-3.14-0.795-5.331-1.88-6.763-3.129L370.715,114.829z"/>
				<path fill="#3D0F3D" d="M370.185,140.241c0.326,0.938,0.704,1.819,1.157,2.629l0.255-0.143c2.466,0.092,4.244-2.757,4.244-2.757
					s-0.846-0.036-2.838-0.596C371.184,138.865,370.322,140.032,370.185,140.241z"/>
				<path fill="#3D0F3D" d="M372.376,111.318c1.432,1.249,3.623,2.334,6.763,3.129c9.269,2.359,5.834,8.382,6.313,15.72
					c0.596,9.157,4.489,5.972,3.995,15.511c-0.199,3.848,0.27,7.241,1.452,9.993c2.145,5.024,6.64,7.898,13.718,7.455
					c10.94-0.688,14.196-10.416,14.757-20.688c0.51-9.351,0.198-16.821-3.984-27.573c-8.495-21.83-37.556-22.931-44.084-11.817
					C369.676,105.825,369.579,108.887,372.376,111.318z"/>
				<path fill="#3D0F3D" d="M377.319,120.021c0.692-0.413,0.759-1.366,0.274-1.937c-0.906-1.08-2.206-1.61-3.612-1.748
					c-1.208-0.092-2.532-0.016-3.363,0.825c-0.535,0.55-0.51,1.483,0.092,1.982c0.596,0.504,1.325,0.295,2.14,0.015
					c0.546-0.184,1.575-0.117,2.38,0.52c0.321,0.25,0.693,0.515,1.121,0.55C376.697,120.266,377.039,120.179,377.319,120.021z"/>
			</g>
			<g>
				<path fill="none" stroke="#3D0F3D" stroke-width="1.5" stroke-linecap="round" stroke-linejoin="round" d="M385.085,149.23
					c-1.07-0.046-2.181-0.122-3.308-0.275c-2.757-0.357-5.564-1.146-7.842-2.961c-1.08-0.856-1.916-1.911-2.594-3.124
					c-0.453-0.81-0.831-1.692-1.157-2.629c-0.555-1.554-0.973-3.266-1.365-5.075"/>
				<path fill="none" stroke="#3D0F3D" stroke-width="1.5" stroke-linecap="round" stroke-linejoin="round" d="M376.351,120.23
					c0.347,0.036,0.688-0.051,0.969-0.209c0.692-0.413,0.759-1.366,0.274-1.937c-0.906-1.08-2.206-1.61-3.612-1.748
					c-1.208-0.092-2.532-0.016-3.363,0.825c-0.535,0.55-0.51,1.483,0.092,1.982c0.596,0.504,1.325,0.295,2.14,0.015
					c0.546-0.184,1.575-0.117,2.38,0.52C375.551,119.93,375.923,120.195,376.351,120.23z"/>
				<path fill="none" stroke="#3D0F3D" stroke-width="1.5" stroke-linecap="round" stroke-linejoin="round" d="M372.504,111.048
					l-0.128,0.27l-1.661,3.511c-1.381,2.649-2.573,6.344-3.598,9.824l-1.324,5.355c0,0-1.835,0.138-2.131,1.809
					c-0.143,0.989,0.693,2.033,1.819,2.441c0.861,0.301,1.794-0.504,1.794-0.504c0.193,0.52,0.851,0.826,1.58,0.887
					c1.248,0.102,2.695-0.535,2.318-2.084"/>
				<path fill="none" stroke="#3D0F3D" stroke-width="1.5" stroke-linecap="round" stroke-linejoin="round" d="M390.899,155.671
					c2.145,5.024,6.64,7.898,13.718,7.455c10.94-0.688,14.196-10.416,14.757-20.688c0.51-9.351,0.198-16.821-3.984-27.573
					c-8.495-21.83-37.556-22.931-44.084-11.817c-1.63,2.777-1.727,5.84,1.07,8.271c1.432,1.249,3.623,2.334,6.763,3.129
					c9.269,2.359,5.834,8.382,6.313,15.72c0.596,9.157,4.489,5.972,3.995,15.511C389.248,149.526,389.717,152.919,390.899,155.671z"
					/>
				<path fill="none" stroke="#3D0F3D" stroke-width="1.5" stroke-linecap="round" stroke-linejoin="round" d="M391.755,155.462
					c-0.29,0.077-0.575,0.148-0.855,0.209c-4.408,0.994-7.802,0.25-9.474-0.703l0.352-6.013v-0.031"/>
				<path fill="none" stroke="#3D0F3D" stroke-width="1.5" stroke-linecap="round" stroke-linejoin="round" d="M370.165,140.272
					c0,0,0.005-0.01,0.02-0.031c0.138-0.209,0.999-1.376,2.818-0.866c1.992,0.561,2.838,0.596,2.838,0.596s-1.778,2.849-4.244,2.757
					"/>
			</g>
		</g>
		<g id="XMLID_486_">
			<g>
				<path fill="#FFFFFF" d="M372.379,122.463c1.576-0.056,3.02,0.882,3.008,1.64c0.007,0.743-1.441,1.312-2.877,1.318
					c-0.175,0-0.355-0.007-0.544-0.026l0.004-0.059c0.153-1.15,0.035-2.679,0.022-2.84
					C372.121,122.479,372.25,122.468,372.379,122.463z"/>
				<path fill="#3D0F3D" d="M371.992,122.496c0.013,0.162,0.131,1.69-0.022,2.84l-0.004,0.059c-1.078-0.111-2.278-0.592-2.288-1.4
					C369.666,123.277,370.704,122.639,371.992,122.496z"/>
			</g>
			<g>
				<path fill="none" stroke="#3D0F3D" stroke-width="1.5" stroke-linecap="round" stroke-linejoin="round" d="M371.966,125.395
					c0.188,0.019,0.369,0.025,0.544,0.026c1.436-0.006,2.884-0.575,2.877-1.318c0.012-0.757-1.432-1.696-3.008-1.64
					c-0.129,0.004-0.258,0.016-0.387,0.033c-1.288,0.143-2.326,0.781-2.314,1.499C369.688,124.803,370.888,125.284,371.966,125.395z
					"/>
				<path fill="none" stroke="#3D0F3D" stroke-width="1.5" stroke-linecap="round" stroke-linejoin="round" d="M371.992,122.483
					c0,0,0,0.006,0,0.013c0.013,0.162,0.131,1.69-0.022,2.84"/>
				
					<line fill="none" stroke="#3D0F3D" stroke-width="1.5" stroke-linecap="round" stroke-linejoin="round" x1="376.402" y1="123.006" x2="375.38" y2="123.922"/>
				
					<line fill="none" stroke="#3D0F3D" stroke-width="1.5" stroke-linecap="round" stroke-linejoin="round" x1="369.003" y1="122.466" x2="369.689" y2="123.399"/>
				
					<line fill="none" stroke="#3D0F3D" stroke-width="1.5" stroke-linecap="round" stroke-linejoin="round" x1="371.431" y1="121.249" x2="371.69" y2="122.384"/>
				<path fill="none" stroke="#3D0F3D" stroke-width="1.5" stroke-linecap="round" stroke-linejoin="round" d="M374.05,121.415
					c-0.022,0.098-0.317,1.091-0.317,1.091"/>
			</g>
		</g>
	</g>
	<g id="XMLID_485_">
		<g>
			<path fill="#21C28C" d="M83.397,145.927c0,0,1.053,6.534,0.758,9.299c-5.906-0.397-24.903-3.706-24.903-3.706l2.031-6.739
				L83.397,145.927z"/>
		</g>
		<g>
			<path fill="none" stroke="#3D0F3D" stroke-width="1.5" stroke-linecap="round" stroke-linejoin="round" d="M61.283,144.781
				l-2.031,6.739c0,0,18.998,3.309,24.903,3.706c0.294-2.765-0.758-9.299-0.758-9.299L61.283,144.781z"/>
		</g>
	</g>
	<polyline id="z1" fill="none" stroke="#3D0F3D" stroke-width="1.5" stroke-linecap="round" stroke-linejoin="round" points="
		272.152,57.158 277.275,57.158 271.85,64.611 278.721,64.611 	"/>
	<polyline id="z2" fill="none" stroke="#3D0F3D" stroke-width="1.5" stroke-linecap="round" stroke-linejoin="round" points="
		282.528,56.187 288.461,56.187 282.798,65.355 289.27,65.625 	"/>
	<polyline id="z3" fill="none" stroke="#3D0F3D" stroke-width="1.5" stroke-linecap="round" stroke-linejoin="round" points="
		293.045,55.648 301.113,55.648 294.199,66.165 301.404,66.165 	"/>
	<path fill="none" stroke="#3D0F3D" stroke-width="1.5" stroke-linecap="round" stroke-linejoin="round" d="M228.912,138.832
		c-0.6-0.068-1.225,0.16-1.502,0.696s-0.189,1.238,0.212,1.688c0.358,0.401,0.91,0.589,1.26,0.998
		c0.585,0.683,0.42,1.712,0.187,2.58c-0.233,0.868-0.488,1.851-0.02,2.618c0.391,0.639,1.229,0.926,1.962,0.773
		c0.733-0.153,1.35-0.688,1.721-1.339c0.654-1.149,0.743-2.778,1.931-3.362c0.782-0.385,1.71-0.119,2.557,0.094
		c0.847,0.212,1.852,0.325,2.492-0.267c0.635-0.586,0.417-1.567,0.151-2.39c-0.346-1.073-1.846-2.088-1.846-2.088H228.912z"/>
	<g>
		<g id="XMLID_483_">
			<g>
				<path fill="#FFFFFF" d="M203.003,211.907c0.61,0.54,1.756,0.558,2.755-0.053c-2.457,2.141-5.332,3.141-7.843,4.441
					c-2.913,1.529-3.83,2.437-3.562,4.02c0.284,1.498,1.567,1.861,2.01,1.947l0.945,0.591c-0.185,0.36-0.258,0.805-0.19,1.38
					c0.263,2.068,3.636,2.709,7.817,1.158c0.838-0.31,1.63-0.642,2.363-0.998l0.008,0.027c-1.052,0.817-2.073,1.87-1.121,3.28
					c1.081,1.601,3.927,0.812,7.062-1.134c3.993-2.494,7.549-6.221,10.576-10.575c3.031-4.378,2.213-6.413,5.484-11.242
					c1.966-2.899,6.544-8.612,6.544-8.612l-9.654-8.406c-7.882,10.637-11.658,6.74-16.609,11.014
					c-2.731,2.368-3.868,4.675-6.219,8.113C201.005,210.295,202.2,211.177,203.003,211.907z"/>
			</g>
			<g>
				
					<path fill="none" stroke="#3D0F3D" stroke-width="1.5" stroke-linecap="round" stroke-linejoin="round" stroke-miterlimit="10" d="
					M197.308,222.854c-0.185,0.36-0.258,0.805-0.19,1.38c0.263,2.068,3.636,2.709,7.817,1.158c0.838-0.31,1.63-0.642,2.363-0.998
					c2.943-1.421,5.228-3.263,7.892-6.206c1.66-1.848,2.711-3.125,3.343-3.947"/>
				
					<path fill="none" stroke="#3D0F3D" stroke-width="1.5" stroke-linecap="round" stroke-linejoin="round" stroke-miterlimit="10" d="
					M212.35,202.933c-0.936,1.337-2.826,4.903-5.475,7.836c-0.356,0.39-0.733,0.751-1.117,1.085
					c-2.457,2.141-5.332,3.141-7.843,4.441c-2.913,1.529-3.83,2.437-3.562,4.02c0.284,1.498,1.567,1.861,2.01,1.947
					c0.086,0.017,0.135,0.026,0.135,0.026c0.086,0.017,2.79,0.49,9.986-3.975c6.144-3.839,8.049-8.142,8.049-8.142"/>
				
					<path fill="none" stroke="#3D0F3D" stroke-width="1.5" stroke-linecap="round" stroke-linejoin="round" stroke-miterlimit="10" d="
					M206.25,211.49c-0.154,0.136-0.318,0.258-0.492,0.364c-0.999,0.611-2.145,0.593-2.755,0.053
					c-0.803-0.73-1.998-1.612,0.365-5.047c2.351-3.438,3.488-5.745,6.219-8.113c4.951-4.274,8.727-0.377,16.609-11.014l9.654,8.406
					c0,0-4.578,5.712-6.544,8.612c-3.271,4.829-2.453,6.864-5.484,11.242c-3.026,4.354-6.583,8.081-10.576,10.575
					c-3.134,1.946-5.98,2.734-7.062,1.134c-0.952-1.41,0.069-2.463,1.121-3.28"/>
			</g>
		</g>
		<g id="XMLID_482_">
			<g>
				<path fill="#E69BBF" d="M219.293,190.398l16.487,12.221c0,0,19.083-25.478,28.553-38.104s8.971-21.598,8.971-30.9
					c0-7.147-0.354-13.292-1.019-25.585l-18.231-12.153l-0.125,0.002c0.125,1.991,0.912,15.405,1.064,32.253
					c0.162,17.954-3.12,20.598-11.428,30.9C235.26,169.331,219.293,190.398,219.293,190.398z"/>
			</g>
			<g>
				
					<path fill="none" stroke="#3D0F3D" stroke-width="1.5" stroke-linecap="round" stroke-linejoin="round" stroke-miterlimit="10" d="
					M272.285,108.029c0.665,12.293,1.019,18.438,1.019,25.585c0,9.303,0.499,18.273-8.971,30.9s-28.553,38.104-28.553,38.104
					l-16.487-12.221c0,0,15.966-21.067,24.272-31.366c8.308-10.302,11.59-12.946,11.428-30.9
					c-0.152-16.848-0.939-30.263-1.064-32.253c-0.01-0.169-0.015-0.257-0.015-0.257"/>
			</g>
		</g>
	</g>
	<g id="XMLID_481_">
		<g>
			
				<rect x="142.102" y="204.55" transform="matrix(0.9999 0.0108 -0.0108 0.9999 2.231 -1.792)" fill="#FF5542" width="50.561" height="3.114"/>
			<path fill="#FF5542" d="M192.679,204.823l-50.558-0.545l0.315-28.889l50.334,0.542l0.22,0.002L192.679,204.823z M176.3,198.528
				l10.001,0.108l0.18-16.668l-10.001-0.108L176.3,198.528z"/>
			
				<rect x="176.389" y="181.913" transform="matrix(0.9999 0.0108 -0.0108 0.9999 2.0632 -1.946)" fill="#FF5542" width="10.002" height="16.669"/>
			<polygon fill="#FF5542" points="167.342,168.799 174.025,168.871 180.713,168.943 187.396,169.015 193.064,169.076 
				192.99,175.933 192.77,175.931 142.436,175.388 142.509,168.531 147.283,168.583 153.97,168.655 160.654,168.727 			"/>
		</g>
		<g>
			
				<polygon fill="none" stroke="#3D0F3D" stroke-width="1.5" stroke-linecap="round" stroke-linejoin="round" stroke-miterlimit="10" points="
				142.121,204.277 142.436,175.388 142.509,168.531 147.283,168.583 153.97,168.655 160.654,168.727 167.342,168.799 
				174.025,168.871 180.713,168.943 187.396,169.015 193.064,169.076 192.99,175.933 192.679,204.823 			"/>
			
				<polyline fill="none" stroke="#3D0F3D" stroke-width="1.5" stroke-linecap="round" stroke-linejoin="round" stroke-miterlimit="10" points="
				192.679,204.823 192.645,207.936 142.087,207.391 142.121,204.277 			"/>
			
				<polyline fill="none" stroke="#3D0F3D" stroke-width="1.5" stroke-linecap="round" stroke-linejoin="round" stroke-miterlimit="10" points="
				192.77,175.931 142.436,175.388 142.432,175.388 			"/>
			
				<polyline fill="none" stroke="#3D0F3D" stroke-width="1.5" stroke-linecap="round" stroke-linejoin="round" stroke-miterlimit="10" points="
				180.738,166.609 180.713,168.943 180.685,171.5 			"/>
			
				<polyline fill="none" stroke="#3D0F3D" stroke-width="1.5" stroke-linecap="round" stroke-linejoin="round" stroke-miterlimit="10" points="
				174.051,166.537 174.025,168.871 173.998,171.428 			"/>
			
				<polyline fill="none" stroke="#3D0F3D" stroke-width="1.5" stroke-linecap="round" stroke-linejoin="round" stroke-miterlimit="10" points="
				167.367,166.465 167.342,168.799 167.314,171.355 			"/>
			
				<polyline fill="none" stroke="#3D0F3D" stroke-width="1.5" stroke-linecap="round" stroke-linejoin="round" stroke-miterlimit="10" points="
				160.679,166.393 160.654,168.727 160.627,171.284 			"/>
			
				<polyline fill="none" stroke="#3D0F3D" stroke-width="1.5" stroke-linecap="round" stroke-linejoin="round" stroke-miterlimit="10" points="
				153.996,166.321 153.97,168.655 153.943,171.211 			"/>
			
				<polyline fill="none" stroke="#3D0F3D" stroke-width="1.5" stroke-linecap="round" stroke-linejoin="round" stroke-miterlimit="10" points="
				187.422,166.681 187.396,169.015 187.369,171.572 			"/>
			
				<polyline fill="none" stroke="#3D0F3D" stroke-width="1.5" stroke-linecap="round" stroke-linejoin="round" stroke-miterlimit="10" points="
				147.308,166.249 147.283,168.583 147.255,171.139 			"/>
			
				<rect x="173.056" y="185.247" transform="matrix(-0.0108 0.9999 -0.9999 -0.0108 373.5822 10.9191)" fill="none" stroke="#3D0F3D" stroke-width="1.5" stroke-linecap="round" stroke-linejoin="round" stroke-miterlimit="10" width="16.669" height="10.002"/>
		</g>
	</g>
	<g id="XMLID_480_">
		<g>
			<path fill="#3D0F3D" d="M301.026,151.014v11.063c0,0-16.023,0.437-16.459,0c-0.171-0.169-0.21-5.094-0.19-11.063h0.123h16.074
				H301.026z"/>
			<path fill="#7BBDF2" d="M301.026,129.777v21.237h-0.452H284.5h-0.123c0.026-8.795,0.168-19.859,0.188-21.324
				c0.252,1.417,3.806,1.721,8.39,1.801c4.748,0.083,7.43-0.665,7.82-1.714H301.026z"/>
			<path fill="#7BBDF2" d="M284.564,129.683c-0.01-0.052-0.013-0.104-0.013-0.156c0-0.765,0.762-1.26,1.571-1.51
				c0,0,2.876-0.443,6.343-0.443s6.562,0.402,6.562,0.402s2.327,0.229,1.746,1.801c-0.391,1.049-3.072,1.797-7.82,1.714
				c-4.584-0.08-8.138-0.384-8.39-1.801C284.564,129.687,284.564,129.687,284.564,129.683z"/>
		</g>
		<g>
			
				<path fill="none" stroke="#3D0F3D" stroke-width="1.5" stroke-linecap="round" stroke-linejoin="round" stroke-miterlimit="10" d="
				M284.564,129.683c-0.01-0.052-0.013-0.104-0.013-0.156c0-0.765,0.762-1.26,1.571-1.51c0,0,2.876-0.443,6.343-0.443
				s6.562,0.402,6.562,0.402s2.327,0.229,1.746,1.801c-0.391,1.049-3.072,1.797-7.82,1.714c-4.584-0.08-8.138-0.384-8.39-1.801"/>
			
				<path fill="none" stroke="#3D0F3D" stroke-width="1.5" stroke-linecap="round" stroke-linejoin="round" stroke-miterlimit="10" d="
				M284.567,129.527c0,0,0,0.052-0.003,0.156c0,0.003,0,0.003,0,0.007c-0.02,1.465-0.161,12.529-0.188,21.324
				c-0.02,5.97,0.02,10.894,0.19,11.063c0.436,0.437,16.459,0,16.459,0v-11.063v-21.237"/>
			
				<line fill="none" stroke="#3D0F3D" stroke-width="1.5" stroke-linecap="round" stroke-linejoin="round" stroke-miterlimit="10" x1="284.5" y1="151.014" x2="300.574" y2="151.014"/>
		</g>
	</g>
	<g id="XMLID_479_">
		<g>
			<path fill="#3D0F3D" d="M237.69,261.681v11.063c0,0-16.017,0.437-16.459,0c-0.168-0.169-0.207-5.094-0.19-11.063h0.126h16.078
				H237.69z"/>
			<path fill="#7BBDF2" d="M237.69,240.443v21.237h-0.446h-16.078h-0.126c0.026-8.837,0.171-19.963,0.188-21.345
				c0.219,1.434,3.786,1.742,8.392,1.821c4.748,0.083,7.434-0.665,7.818-1.714H237.69z"/>
			<path fill="#7BBDF2" d="M221.228,240.336c-0.007-0.045-0.01-0.094-0.01-0.142c0-0.766,0.762-1.261,1.569-1.51
				c0,0,2.876-0.443,6.349-0.443c3.466,0,6.556,0.401,6.556,0.401s2.327,0.229,1.746,1.801c-0.385,1.049-3.07,1.797-7.818,1.714
				C225.014,242.078,221.447,241.77,221.228,240.336z"/>
		</g>
		<g>
			
				<path fill="none" stroke="#3D0F3D" stroke-width="1.5" stroke-linecap="round" stroke-linejoin="round" stroke-miterlimit="10" d="
				M221.228,240.336c-0.007-0.045-0.01-0.094-0.01-0.142c0-0.766,0.762-1.261,1.569-1.51c0,0,2.876-0.443,6.349-0.443
				c3.466,0,6.556,0.401,6.556,0.401s2.327,0.229,1.746,1.801c-0.385,1.049-3.07,1.797-7.818,1.714
				C225.014,242.078,221.447,241.77,221.228,240.336z"/>
			
				<path fill="none" stroke="#3D0F3D" stroke-width="1.5" stroke-linecap="round" stroke-linejoin="round" stroke-miterlimit="10" d="
				M221.231,240.194c0,0,0,0.048-0.003,0.142c-0.016,1.382-0.162,12.508-0.188,21.345c-0.016,5.97,0.022,10.895,0.19,11.063
				c0.442,0.437,16.459,0,16.459,0v-11.063v-21.237"/>
			
				<line fill="none" stroke="#3D0F3D" stroke-width="1.5" stroke-linecap="round" stroke-linejoin="round" stroke-miterlimit="10" x1="221.167" y1="261.681" x2="237.244" y2="261.681"/>
		</g>
	</g>
	<g id="XMLID_478_">
		<g>
			<path fill="#3D0F3D" d="M273.69,265.681v11.063c0,0-16.018,0.437-16.459,0c-0.168-0.169-0.207-5.094-0.19-11.063h0.125h16.078
				H273.69z"/>
			<path fill="#7BBDF2" d="M273.69,244.443v21.237h-0.446h-16.078h-0.125c0.025-8.837,0.171-19.963,0.187-21.345
				c0.22,1.434,3.786,1.742,8.393,1.821c4.748,0.083,7.434-0.665,7.818-1.714H273.69z"/>
			<path fill="#7BBDF2" d="M257.228,244.336c-0.006-0.045-0.01-0.094-0.01-0.142c0-0.766,0.762-1.261,1.569-1.51
				c0,0,2.876-0.443,6.349-0.443c3.467,0,6.557,0.401,6.557,0.401s2.327,0.229,1.746,1.801c-0.385,1.049-3.07,1.797-7.818,1.714
				C261.014,246.078,257.447,245.77,257.228,244.336z"/>
		</g>
		<g>
			
				<path fill="none" stroke="#3D0F3D" stroke-width="1.5" stroke-linecap="round" stroke-linejoin="round" stroke-miterlimit="10" d="
				M257.228,244.336c-0.006-0.045-0.01-0.094-0.01-0.142c0-0.766,0.762-1.261,1.569-1.51c0,0,2.876-0.443,6.349-0.443
				c3.467,0,6.557,0.401,6.557,0.401s2.327,0.229,1.746,1.801c-0.385,1.049-3.07,1.797-7.818,1.714
				C261.014,246.078,257.447,245.77,257.228,244.336z"/>
			
				<path fill="none" stroke="#3D0F3D" stroke-width="1.5" stroke-linecap="round" stroke-linejoin="round" stroke-miterlimit="10" d="
				M257.231,244.194c0,0,0,0.048-0.004,0.142c-0.016,1.382-0.161,12.508-0.187,21.345c-0.017,5.97,0.022,10.895,0.19,11.063
				c0.441,0.437,16.459,0,16.459,0v-11.063v-21.237"/>
			
				<line fill="none" stroke="#3D0F3D" stroke-width="1.5" stroke-linecap="round" stroke-linejoin="round" stroke-miterlimit="10" x1="257.166" y1="265.681" x2="273.244" y2="265.681"/>
		</g>
	</g>
	<g id="clock">
		<path fill="#FAF169" d="M132.299,41.708c0.92-0.006,1.677-0.737,1.696-1.651c0.006-0.907-0.72-1.646-1.645-1.639
			c-0.014,0-0.019,0-0.032,0c-0.9,0.018-1.645,0.75-1.658,1.645C130.648,40.971,131.376,41.708,132.299,41.708z M132.732,22.229
			c9.927,0,17.973,8.051,17.973,17.979c0,9.921-8.046,17.973-17.973,17.973c-9.934,0-17.978-8.052-17.978-17.973
			C114.754,30.28,122.797,22.229,132.732,22.229z"/>
		<path fill="#FF5542" d="M132.299,41.708c-0.925,0-1.651-0.737-1.638-1.646c0.013-0.895,0.758-1.627,1.658-1.645
			c0.013,0,0.018,0,0.032,0c0.925-0.006,1.65,0.732,1.645,1.639C133.978,40.971,133.219,41.703,132.299,41.708z"/>
		<path fill="#FAF169" d="M132.732,14.434c14.231,0,25.761,11.542,25.761,25.773s-11.53,25.768-25.761,25.768
			c-14.238,0-25.78-11.536-25.78-25.768S118.495,14.434,132.732,14.434z M150.706,40.207c0-9.927-8.046-17.979-17.973-17.979
			c-9.934,0-17.978,8.052-17.978,17.979c0,9.922,8.044,17.973,17.978,17.973C142.66,58.18,150.706,50.128,150.706,40.207z"/>
		<path fill="none" stroke="#3D0F3D" stroke-width="1.5" stroke-linecap="round" stroke-linejoin="round" d="M132.319,40.063"/>
		
			<polyline id="hourHand" fill="none" stroke="#3D0F3D" stroke-width="1.5" stroke-linecap="round" stroke-linejoin="round" points="
			132.327,31.125 132.319,38.418 132.319,40.063 		"/>
		
			<polyline id="minuteHand" fill="none" stroke="#3D0F3D" stroke-width="1.5" stroke-linecap="round" stroke-linejoin="round" points="
			132.327,26.586 132.319,37.582 132.319,40.063 		"/>
		<path fill="none" stroke="#3D0F3D" stroke-width="1.5" stroke-linecap="round" stroke-linejoin="round" d="M150.706,40.207
			c0,9.922-8.046,17.973-17.973,17.973c-9.934,0-17.978-8.051-17.978-17.973c0-9.927,8.044-17.979,17.978-17.979
			C142.66,22.229,150.706,30.28,150.706,40.207z"/>
		<path fill="none" stroke="#3D0F3D" stroke-width="1.5" stroke-linecap="round" stroke-linejoin="round" d="M158.492,40.207
			c0,14.232-11.528,25.768-25.761,25.768c-14.237,0-25.778-11.536-25.778-25.768c0-14.231,11.541-25.773,25.778-25.773
			C146.964,14.434,158.492,25.976,158.492,40.207z"/>
		<path fill="#FAF169" stroke="#3D0F3D" stroke-width="1.5" stroke-linecap="round" stroke-linejoin="round" d="M133.996,40.057
			c-0.018,0.914-0.776,1.646-1.696,1.651c-0.925,0-1.651-0.737-1.638-1.646c0.013-0.895,0.758-1.627,1.658-1.645
			c0.013,0,0.018,0,0.032,0C133.276,38.412,134.001,39.15,133.996,40.057z"/>
	</g>
</g>
</svg>
