<?xml version="1.0" encoding="utf-8"?>
<!-- Generator: Adobe Illustrator 16.0.1, SVG Export Plug-In . SVG Version: 6.00 Build 0)  -->
<!DOCTYPE svg PUBLIC "-//W3C//DTD SVG 1.1//EN" "http://www.w3.org/Graphics/SVG/1.1/DTD/svg11.dtd">
<svg version="1.1" id="Layer_1" xmlns="http://www.w3.org/2000/svg" xmlns:xlink="http://www.w3.org/1999/xlink" x="0px" y="0px"
	 width="360.688px" height="67px" viewBox="0 0 360.688 67" enable-background="new 0 0 360.688 67" xml:space="preserve">
<g>
	<g>
		<g id="XMLID_286_">
			<g>
				<g>
					
						<rect x="1.399" y="0.862" fill="#EAA3C6" stroke="#43193C" stroke-width="2.55" stroke-linecap="round" stroke-linejoin="round" stroke-miterlimit="10" width="358.065" height="65"/>
				</g>
			</g>
		</g>
	</g>
	<g>
		<g id="XMLID_285_">
			<g>
				<path fill="#FFFFFF" d="M128.132,56.634c-0.596-8.672-0.152-37.964,0-43.049c7.17-0.148,22.572,1.646,22.572,20.63
					C150.852,54.54,133.809,56.333,128.132,56.634z M135.651,44.976c0,0,7.17-1.027,6.981-11.824c-0.152-8.51-6.981-8.51-6.981-8.51
					V44.976z"/>
			</g>
			<g>
				
					<path fill="none" stroke="#43193C" stroke-width="2.55" stroke-linecap="round" stroke-linejoin="round" stroke-miterlimit="10" d="
					M128.132,13.584c-0.152,5.085-0.596,34.377,0,43.049c5.677-0.301,22.72-2.094,22.572-22.419
					C150.704,15.23,135.302,13.437,128.132,13.584z"/>
				
					<path fill="none" stroke="#43193C" stroke-width="2.55" stroke-linecap="round" stroke-linejoin="round" stroke-miterlimit="10" d="
					M135.651,24.642v20.334c0,0,7.17-1.027,6.981-11.824C142.48,24.642,135.651,24.642,135.651,24.642z"/>
			</g>
		</g>
		<g id="XMLID_284_">
			<g>
				<polygon fill="#FFFFFF" points="97.537,13.439 119.656,12.991 119.656,20.613 105.899,20.613 105.899,30.105 119.656,29.895 
					119.656,38.414 106.057,38.629 106.057,49.005 119.956,49.005 119.956,56.632 97.537,56.632 				"/>
			</g>
			<g>
				
					<polygon fill="none" stroke="#43193C" stroke-width="2.55" stroke-linecap="round" stroke-linejoin="round" stroke-miterlimit="10" points="
					97.537,13.439 97.537,56.632 119.956,56.632 119.956,49.005 106.057,49.005 106.057,38.629 119.656,38.414 119.656,29.895 
					105.899,30.105 105.899,20.613 119.656,20.613 119.656,12.991 				"/>
			</g>
		</g>
		<g id="XMLID_283_">
			<g>
				<polygon fill="#FFFFFF" points="88.399,38.415 74.8,38.63 74.8,49.011 88.699,49.011 88.699,56.633 66.285,56.633 
					66.285,13.436 88.399,12.987 88.399,20.614 74.647,20.614 74.647,30.107 88.399,29.892 				"/>
			</g>
			<g>
				
					<polygon fill="none" stroke="#43193C" stroke-width="2.55" stroke-linecap="round" stroke-linejoin="round" stroke-miterlimit="10" points="
					66.285,13.436 66.285,56.633 88.699,56.633 88.699,49.011 74.8,49.011 74.8,38.63 88.399,38.415 88.399,29.892 74.647,30.107 
					74.647,20.614 88.399,20.614 88.399,12.987 				"/>
			</g>
		</g>
		<g id="XMLID_282_">
			<g>
				<polygon fill="#FFFFFF" points="332.339,16.209 315.637,31.857 333.343,49.053 328.299,54.546 313.727,39.884 313.727,54.546 
					306.328,54.546 306.328,10.94 313.727,10.94 313.727,23.042 327.519,11.057 				"/>
			</g>
			<g>
				
					<line fill="none" stroke="#43193C" stroke-width="2.55" stroke-linecap="round" stroke-linejoin="round" stroke-miterlimit="10" x1="315.637" y1="31.857" x2="315.632" y2="31.857"/>
				
					<polygon fill="none" stroke="#43193C" stroke-width="2.55" stroke-linecap="round" stroke-linejoin="round" stroke-miterlimit="10" points="
					306.328,10.94 306.328,54.546 313.727,54.546 313.727,39.884 328.299,54.546 333.343,49.053 315.637,31.857 332.339,16.209 
					327.519,11.057 313.727,23.042 313.727,10.94 				"/>
			</g>
		</g>
		<g id="XMLID_281_">
			<g>
				<polygon fill="#FFFFFF" points="49.823,56.628 37.125,25.357 37.125,56.628 29.965,56.628 29.965,13.135 39.551,13.135 
					50.685,39.146 50.685,12.798 57.589,12.798 57.589,56.628 				"/>
			</g>
			<g>
				
					<line fill="none" stroke="#43193C" stroke-width="2.55" stroke-linecap="round" stroke-linejoin="round" stroke-miterlimit="10" x1="50.685" y1="39.15" x2="50.685" y2="39.146"/>
				
					<polygon fill="none" stroke="#43193C" stroke-width="2.55" stroke-linecap="round" stroke-linejoin="round" stroke-miterlimit="10" points="
					29.965,56.628 29.965,13.135 39.551,13.135 50.685,39.146 50.685,12.798 57.589,12.798 57.589,56.628 49.823,56.628 
					37.125,25.357 37.125,56.628 				"/>
			</g>
		</g>
		<g id="XMLID_280_">
			<g>
				<path fill="#FFFFFF" d="M254.976,19.786c-5.255-0.139-5.542,8.161-5.492,12.784c0.054,4.623,0.071,13.492,5.269,13.675
					c5.699,0.202,5.829-8.447,5.743-14.007C260.393,26.409,260.038,19.921,254.976,19.786z M242.538,32.346
					c-0.112-7.739,0.431-21.312,12.326-21.074c11.438,0.229,12.335,10.761,12.559,20.514c0.211,9.308,0,23.092-12.896,22.755
					C242.767,54.235,242.65,40.08,242.538,32.346z"/>
			</g>
			<g>
				
					<path fill="none" stroke="#43193C" stroke-width="2.55" stroke-linecap="round" stroke-linejoin="round" stroke-miterlimit="10" d="
					M254.864,11.271c11.438,0.229,12.335,10.761,12.559,20.514c0.211,9.308,0,23.092-12.896,22.755
					c-11.761-0.305-11.877-14.46-11.989-22.194C242.426,24.606,242.969,11.034,254.864,11.271z"/>
				
					<path fill="none" stroke="#43193C" stroke-width="2.55" stroke-linecap="round" stroke-linejoin="round" stroke-miterlimit="10" d="
					M254.976,19.786c5.062,0.135,5.417,6.623,5.52,12.452c0.086,5.56-0.044,14.209-5.743,14.007
					c-5.197-0.184-5.215-9.053-5.269-13.675C249.434,27.947,249.721,19.647,254.976,19.786z"/>
			</g>
		</g>
		<g id="XMLID_279_">
			<g>
				<path fill="#FFFFFF" d="M281.742,54.428l-7.058-0.107V10.598c6.385-0.112,19.208-0.978,19.545,9.223
					c0.201,6.192-3.87,8.829-7.416,9.954l15.007,20.742l-5.578,4.031l-14.5-20.052V54.428z M281.405,16.1v7.685
					c0,0,5.914,0.565,5.798-3.968C287.082,15.275,281.405,16.1,281.405,16.1z"/>
			</g>
			<g>
				
					<path fill="none" stroke="#43193C" stroke-width="2.55" stroke-linecap="round" stroke-linejoin="round" stroke-miterlimit="10" d="
					M301.82,50.518l-15.007-20.742c3.546-1.125,7.617-3.762,7.416-9.954c-0.337-10.201-13.16-9.335-19.545-9.223V54.32l7.058,0.107
					V34.497l14.5,20.052L301.82,50.518z"/>
				
					<path fill="none" stroke="#43193C" stroke-width="2.55" stroke-linecap="round" stroke-linejoin="round" stroke-miterlimit="10" d="
					M281.405,16.1v7.685c0,0,5.914,0.565,5.798-3.968C287.082,15.275,281.405,16.1,281.405,16.1z"/>
			</g>
		</g>
		<g id="XMLID_278_">
			<g>
				<path fill="#FFFFFF" d="M157.167,45.083c-0.031-0.959,0.027-3.139,0.027-3.139h7.658c0,0,0.071,2.309,0.39,3.206
					c0.489,1.309,1.529,2.959,3.758,3.076c4.483,0.225,6.577-4.784,1.789-8.519c-4.784-3.73-12.434-4.708-12.887-14.012
					c-0.39-8.062,4.479-12.452,12.106-12.559c8.407-0.112,10.873,6.618,10.757,11.663l-6.722-0.108c0,0-0.443-4.6-4.932-3.596
					c-3.687,0.834-4.659,7.304,1.232,9.869c7.73,3.363,10.883,6.358,11.43,12.55c0.448,5.053-1.677,13.007-12.743,13.115
					C158.7,56.737,157.297,48.581,157.167,45.083z"/>
			</g>
			<g>
				
					<path fill="none" stroke="#43193C" stroke-width="2.55" stroke-linecap="round" stroke-linejoin="round" stroke-miterlimit="10" d="
					M180.766,24.799c0.116-5.044-2.35-11.774-10.757-11.663c-7.627,0.107-12.496,4.497-12.106,12.559
					c0.453,9.304,8.103,10.282,12.887,14.012c4.788,3.735,2.694,8.744-1.789,8.519c-2.229-0.116-3.269-1.767-3.758-3.076
					c-0.318-0.897-0.39-3.206-0.39-3.206h-7.658c0,0-0.059,2.179-0.027,3.139c0.13,3.498,1.533,11.654,11.864,11.545
					c11.066-0.107,13.191-8.062,12.743-13.115c-0.547-6.192-3.699-9.188-11.43-12.55c-5.892-2.564-4.919-9.035-1.232-9.869
					c4.488-1.004,4.932,3.596,4.932,3.596L180.766,24.799z"/>
			</g>
		</g>
		
			<polygon fill="#FFFFFF" stroke="#43193C" stroke-width="2.55" stroke-linecap="round" stroke-linejoin="round" stroke-miterlimit="10" points="
			199.617,11.504 206.184,54.549 214.998,54.549 219.037,41.17 222.512,54.549 231.592,54.549 239.834,11.504 231.424,11.504 
			226.213,42.292 222.287,27.382 216.57,27.234 211.752,42.627 207.268,11.504 		"/>
	</g>
</g>
</svg>
