<?xml version="1.0" encoding="utf-8"?>
<!-- Generator: Adobe Illustrator 16.0.1, SVG Export Plug-In . SVG Version: 6.00 Build 0)  -->
<!DOCTYPE svg PUBLIC "-//W3C//DTD SVG 1.1//EN" "http://www.w3.org/Graphics/SVG/1.1/DTD/svg11.dtd">
<svg version="1.1" id="Layer_1" xmlns="http://www.w3.org/2000/svg" xmlns:xlink="http://www.w3.org/1999/xlink" x="0px" y="0px"
	 width="155.25px" height="67.75px" viewBox="0 0 155.25 67.75" enable-background="new 0 0 155.25 67.75" xml:space="preserve">
<g>
	<g>
		<g id="XMLID_69_">
			<g>
				<rect x="1" y="1" fill="#6889C6" width="152.98" height="65.395"/>
			</g>
			<g>
				
					<rect x="1" y="1" fill="none" stroke="#43193C" stroke-width="2.55" stroke-linecap="round" stroke-linejoin="round" stroke-miterlimit="10" width="152.98" height="65.395"/>
			</g>
		</g>
	</g>
	<g>
		<g id="XMLID_68_">
			<g>
				<path fill="#FFFFFF" d="M139.836,33.472c0.152,21.539-17.899,23.444-23.919,23.758c-0.632-9.189-0.157-40.227,0-45.615
					C123.52,11.458,139.836,13.359,139.836,33.472z M123.885,44.876c0,0,7.593-1.083,7.394-12.525
					c-0.156-9.019-7.394-9.019-7.394-9.019V44.876z"/>
			</g>
			<g>
				
					<path fill="none" stroke="#43193C" stroke-width="2.55" stroke-linecap="round" stroke-linejoin="round" stroke-miterlimit="10" d="
					M115.917,11.615c-0.157,5.388-0.632,36.426,0,45.615c6.02-0.314,24.071-2.22,23.919-23.758
					C139.836,13.359,123.52,11.458,115.917,11.615z"/>
				
					<path fill="none" stroke="#43193C" stroke-width="2.55" stroke-linecap="round" stroke-linejoin="round" stroke-miterlimit="10" d="
					M123.885,23.333v21.543c0,0,7.593-1.083,7.394-12.525C131.122,23.333,123.885,23.333,123.885,23.333z"/>
			</g>
		</g>
		<g id="XMLID_67_">
			<g>
				<path fill="#FFFFFF" d="M44.286,31.91c0.475,11.694-1.744,25.317-14.254,25.317c-12.511,0-14.73-12.982-14.882-24.072
					c-0.176-12.354,4.115-22.651,14.882-22.175c10.776,0.475,13.779,9.032,13.304,15.998h-8.548c0,0,0-7.132-4.756-7.132
					c-4.747,0-7.185,5.559-6.647,14.416c0.475,7.921,1.744,13.305,6.97,13.305c6.809,0,5.859-8.658,5.859-8.658l-7.132,0.076
					l-0.152-7.237C28.929,31.748,37.638,31.91,44.286,31.91z"/>
			</g>
			<g>
				
					<path fill="none" stroke="#43193C" stroke-width="2.55" stroke-linecap="round" stroke-linejoin="round" stroke-miterlimit="10" d="
					M30.354,47.566c-5.227,0-6.495-5.384-6.97-13.305c-0.537-8.857,1.9-14.416,6.647-14.416c4.756,0,4.756,7.132,4.756,7.132h8.548
					c0.475-6.966-2.528-15.523-13.304-15.998c-10.767-0.476-15.058,9.821-14.882,22.175c0.152,11.09,2.371,24.072,14.882,24.072
					c12.511,0,14.729-13.623,14.254-25.317c-6.647,0-15.357-0.162-15.357-0.162l0.152,7.237l7.132-0.076
					C36.213,38.909,37.163,47.566,30.354,47.566z"/>
			</g>
		</g>
		<g id="XMLID_66_">
			<g>
				<path fill="#FFFFFF" d="M76.843,33.111c0.232,9.859,0,24.471-13.661,24.109C50.714,56.897,50.595,41.901,50.476,33.7
					c-0.124-8.191,0.452-22.579,13.062-22.332C75.659,11.605,76.609,22.776,76.843,33.111z M63.424,48.43
					c6.034,0.219,6.177-8.952,6.077-14.838c-0.109-6.172-0.48-13.053-5.845-13.195c-5.573-0.147-5.868,8.653-5.816,13.542
					C57.889,38.841,57.908,48.235,63.424,48.43z"/>
			</g>
			<g>
				
					<path fill="none" stroke="#43193C" stroke-width="2.55" stroke-linecap="round" stroke-linejoin="round" stroke-miterlimit="10" d="
					M63.538,11.368c12.121,0.237,13.071,11.408,13.305,21.743c0.232,9.859,0,24.471-13.661,24.109
					C50.714,56.897,50.595,41.901,50.476,33.7C50.353,25.509,50.928,11.121,63.538,11.368z"/>
				
					<path fill="none" stroke="#43193C" stroke-width="2.55" stroke-linecap="round" stroke-linejoin="round" stroke-miterlimit="10" d="
					M63.657,20.396c5.365,0.143,5.735,7.023,5.845,13.195c0.1,5.887-0.043,15.057-6.077,14.838
					c-5.517-0.194-5.536-9.588-5.583-14.492C57.789,29.049,58.083,20.249,63.657,20.396z"/>
			</g>
		</g>
		<g id="XMLID_65_">
			<g>
				<path fill="#FFFFFF" d="M108.864,33.112c0.228,9.86,0,24.47-13.661,24.11c-12.473-0.323-12.596-15.319-12.71-23.521
					c-0.119-8.192,0.456-22.58,13.062-22.333C107.672,11.606,108.622,22.777,108.864,33.112z M95.437,48.431
					c6.039,0.219,6.182-8.952,6.082-14.839c-0.104-6.172-0.48-13.052-5.84-13.195c-5.578-0.143-5.878,8.652-5.821,13.542
					C89.905,38.842,89.929,48.236,95.437,48.431z"/>
			</g>
			<g>
				
					<path fill="none" stroke="#43193C" stroke-width="2.55" stroke-linecap="round" stroke-linejoin="round" stroke-miterlimit="10" d="
					M95.555,11.369c12.117,0.238,13.067,11.409,13.31,21.743c0.228,9.86,0,24.47-13.661,24.11
					c-12.473-0.323-12.596-15.319-12.71-23.521C82.374,25.509,82.949,11.122,95.555,11.369z"/>
				
					<path fill="none" stroke="#43193C" stroke-width="2.55" stroke-linecap="round" stroke-linejoin="round" stroke-miterlimit="10" d="
					M95.679,20.397c5.359,0.143,5.735,7.022,5.84,13.195c0.1,5.887-0.043,15.058-6.082,14.839
					c-5.508-0.194-5.531-9.588-5.579-14.492C89.801,29.049,90.101,20.254,95.679,20.397z"/>
			</g>
		</g>
	</g>
</g>
</svg>
