<?xml version="1.0" encoding="utf-8"?>
<!-- Generator: Adobe Illustrator 16.0.1, SVG Export Plug-In . SVG Version: 6.00 Build 0)  -->
<!DOCTYPE svg PUBLIC "-//W3C//DTD SVG 1.1//EN" "http://www.w3.org/Graphics/SVG/1.1/DTD/svg11.dtd">
<svg version="1.1" id="Layer_1" xmlns="http://www.w3.org/2000/svg" xmlns:xlink="http://www.w3.org/1999/xlink" x="0px" y="0px"
	 width="136.333px" height="67px" viewBox="0 0 136.333 67" enable-background="new 0 0 136.333 67" xml:space="preserve">
<g>
	<g>
		<g id="XMLID_277_">
			<polygon fill="#FDEE63" points="110.813,1.2 1.399,1.2 1.399,65.818 110.813,65.818 135.069,65.818 135.069,1.2 			"/>
			
				<polygon fill="none" stroke="#43193C" stroke-width="2.55" stroke-linecap="round" stroke-linejoin="round" stroke-miterlimit="10" points="
				110.813,1.2 1.399,1.2 1.399,65.818 110.813,65.818 135.069,65.818 135.069,1.2 			"/>
		</g>
	</g>
	<g>
		<g id="XMLID_276_">
			<g>
				<path fill="#FFFFFF" d="M50.92,19.775c-5.508-0.146-5.799,8.541-5.752,13.377c0.047,4.846,0.066,14.128,5.522,14.325
					c5.958,0.212,6.099-8.851,5.996-14.672C56.587,26.71,56.211,19.912,50.92,19.775z M37.891,32.922
					c-0.118-8.104,0.446-22.312,12.912-22.073c11.973,0.24,12.912,11.273,13.146,21.486c0.226,9.743,0,24.181-13.503,23.829
					C38.125,55.84,38.008,41.022,37.891,32.922z"/>
			</g>
			<g>
				
					<path fill="none" stroke="#43193C" stroke-width="2.55" stroke-linecap="round" stroke-linejoin="round" stroke-miterlimit="10" d="
					M50.803,10.85c11.973,0.24,12.912,11.273,13.146,21.486c0.226,9.743,0,24.181-13.503,23.829
					C38.125,55.84,38.008,41.022,37.891,32.922C37.773,24.818,38.336,10.61,50.803,10.85z"/>
				
					<path fill="none" stroke="#43193C" stroke-width="2.55" stroke-linecap="round" stroke-linejoin="round" stroke-miterlimit="10" d="
					M50.92,19.775c5.292,0.136,5.667,6.935,5.766,13.03c0.104,5.822-0.038,14.884-5.996,14.672
					c-5.456-0.197-5.475-9.479-5.522-14.325C45.121,28.316,45.412,19.63,50.92,19.775z"/>
			</g>
		</g>
		<g id="XMLID_275_">
			<g>
				<polygon fill="#FFFFFF" points="98.586,48.756 93.571,54.217 79.084,39.641 79.084,54.217 71.734,54.217 71.734,10.863 
					79.084,10.863 79.084,22.902 92.791,10.97 97.583,16.1 80.983,31.657 				"/>
			</g>
			<g>
				
					<polygon fill="none" stroke="#43193C" stroke-width="2.55" stroke-linecap="round" stroke-linejoin="round" stroke-miterlimit="10" points="
					71.734,10.863 71.734,54.217 79.084,54.217 79.084,39.641 93.571,54.217 98.586,48.756 80.983,31.657 97.583,16.1 92.791,10.97 
					79.084,22.902 79.084,10.863 				"/>
			</g>
		</g>
	</g>
</g>
</svg>
