<?xml version="1.0" encoding="utf-8"?>
<!-- Generator: Adobe Illustrator 16.0.1, SVG Export Plug-In . SVG Version: 6.00 Build 0)  -->
<!DOCTYPE svg PUBLIC "-//W3C//DTD SVG 1.1//EN" "http://www.w3.org/Graphics/SVG/1.1/DTD/svg11.dtd">
<svg version="1.1" id="Layer_1" xmlns="http://www.w3.org/2000/svg" xmlns:xlink="http://www.w3.org/1999/xlink" x="0px" y="0px"
	 width="188.312px" height="67.875px" viewBox="0 0 188.312 67.875" enable-background="new 0 0 188.312 67.875"
	 xml:space="preserve">
<g>
	<g>
		<g>
			<g>
				<rect x="1.3" y="1.201" fill="#3FB181" width="185.808" height="65.395"/>
			</g>
			<g>
				
					<rect x="1.3" y="1.201" fill="none" stroke="#43193C" stroke-width="2.55" stroke-linecap="round" stroke-linejoin="round" stroke-miterlimit="10" width="185.808" height="65.395"/>
			</g>
		</g>
	</g>
</g>
<polygon fill="#FFFFFF" stroke="#43193C" stroke-width="2.55" stroke-linecap="round" stroke-linejoin="round" stroke-miterlimit="10" points="
	-87.145,10.848 -113.991,10.729 -113.991,18.593 -95.46,18.593 -100.092,31.794 -105.201,31.794 -105.201,36.07 -101.591,36.07 
	-108.955,57.051 -100.486,57.051 -93.295,36.07 -88.871,36.07 -88.871,31.794 -91.83,31.794 -87.145,18.119 "/>
<path id="_x32_" fill="#FFFFFF" stroke="#43193C" stroke-width="2.55" stroke-linecap="round" stroke-linejoin="round" stroke-miterlimit="10" d="
	M-57.427,174.381c0-3.393,1.251-14.619,12.396-14.941c11.146-0.322,15.991,9.691,8.723,20.474
	c-6.966,10.335-12.115,17.284-12.115,17.284h16.678v8.562H-57.75l0.324-9.975c-0.458,0.719,4.995-6.315,9.045-12.479
	c1.125-1.715,3.829-5.414,5.169-7.431c3.876-5.836,1.21-8.502-2.121-8.017c-2.023,0.295-3.453,3.009-4.18,6.36
	C-51.814,174.461-57.427,174.381-57.427,174.381z"/>
<path id="_x33_" fill="#FFFFFF" stroke="#43193C" stroke-width="2.55" stroke-linecap="round" stroke-linejoin="round" stroke-miterlimit="10" d="
	M-39.259,193.615c-0.239,7.613,5.187,11.996,11.261,12.174c8.09,0.238,14.227-3.971,13.72-13.006
	c-0.555-9.913-10.866-10.706-10.866-10.706s4.521-0.318,7.535-5.948c3.083-5.76,0.237-16.895-10.232-16.654
	c-8.659,0.196-10.399,5.767-10.741,10.109h7.174c0.119-2.02,1.427-3.686,3.806-3.805c2.379-0.118,5.097,1.453,4.64,5.115
	c-0.674,5.393-5.513,6.504-10.746,6.66c0,5.354-0.079,8.487-0.079,8.487s4.916-0.16,8.571,1.339
	c2.424,0.995,4.018,3.362,3.166,7.305c-1.167,5.397-9.994,5.154-10.548-0.832L-39.259,193.615z"/>
<polygon id="_x34_" fill="#FFFFFF" stroke="#43193C" stroke-width="2.55" stroke-linecap="round" stroke-linejoin="round" stroke-miterlimit="10" points="
	-9.893,196.605 -9.893,184.751 -18.169,184.751 -13.151,168.659 -9.509,168.659 -13.194,181.01 -9.893,181.01 -9.893,178.979 
	-6.356,178.979 -6.356,181.01 -3.657,181.01 -3.657,184.799 -6.021,184.799 -6.021,196.605 "/>
<path id="_x35_" fill="#FFFFFF" stroke="#43193C" stroke-width="2.55" stroke-linecap="round" stroke-linejoin="round" stroke-miterlimit="10" d="
	M1.11,168.467c0,0,0,11.525,0,14.646c1.345-0.049,8.729-1.562,9.508,3.457c1.105,7.106-8.547,5.666-9.844,5.307
	c0,3.025,0,4.538,0,4.538s15.152,3.622,14.887-9.269c-0.192-9.315-10.517-8.293-10.517-8.293v-6.138h9.22v-4.25L1.11,168.467
	L1.11,168.467z"/>
<path id="_x36_" fill="#FFFFFF" stroke="#43193C" stroke-width="2.55" stroke-linecap="round" stroke-linejoin="round" stroke-miterlimit="10" d="
	M30.297,182.449c6.459,1.193,9.199,5.777,8.568,13.199c-0.665,7.756-6.26,10.678-13.798,10.047
	c-9.332-0.799-11.807-9.332-11.408-21.536c0.166-4.733,0.282-10.146,1.361-14.662c1.262-5.313,3.587-10.047,11.557-10.047
	c7.987,0,12.919,5.497,12.039,13.067l-6.127-0.231c0,0,0.232-6.062-5.828-6.062c-6.692,0-5.696,12.952-5.696,18.613
	C20.965,184.839,23.107,181.121,30.297,182.449z M27.44,199.068c3.172,0,5.33-1.991,5.248-5.512
	c-0.082-3.521-2.491-4.947-5.43-4.865c-2.59,0.082-5.181,1.627-5.347,4.468C21.746,195.98,23.854,199.068,27.44,199.068z"/>
<polygon id="_x37_" fill="#FFFFFF" stroke="#43193C" stroke-width="2.55" stroke-linecap="round" stroke-linejoin="round" stroke-miterlimit="10" points="
	54.412,168.684 38.134,168.611 38.134,173.38 49.37,173.38 46.562,181.385 43.464,181.385 43.464,183.979 45.652,183.979 
	41.188,196.703 46.323,196.703 50.683,183.979 53.366,183.979 53.366,181.385 51.571,181.385 54.412,173.092 "/>
<path id="_x39_" fill="#FFFFFF" stroke="#43193C" stroke-width="2.55" stroke-linecap="round" stroke-linejoin="round" stroke-miterlimit="10" d="
	M-51.575,83.48c9.331,0.797,11.806,9.332,11.406,21.518c-0.148,4.75-0.282,10.146-1.344,14.678
	c-1.262,5.297-3.603,10.047-11.572,10.047c-7.971,0-12.918-5.498-12.037-13.068l6.142,0.232c0,0-0.248,6.062,5.812,6.062
	c6.708,0,5.712-12.949,5.712-18.611c0,0-2.158,3.718-9.331,2.39c-6.458-1.193-9.215-5.777-8.567-13.199
	C-64.691,85.771-59.096,82.834-51.575,83.48z M-48.42,96.016c0.184-2.84-1.927-5.926-5.513-5.926c-3.188,0-5.33,1.992-5.245,5.512
	c0.082,3.521,2.473,4.965,5.428,4.881C-51.177,100.4-48.585,98.838-48.42,96.016z"/>
<g id="_x31_0">
	
		<polygon id="_x31__2_" fill="#FFFFFF" stroke="#43193C" stroke-width="2.55" stroke-linecap="round" stroke-linejoin="round" stroke-miterlimit="10" points="
		8.219,23.656 19.603,10.691 27.666,10.691 27.666,57.019 19.443,57.019 19.443,23.656 13.121,29.664 	"/>
	
		<path id="_x30_" fill="#FFFFFF" stroke="#43193C" stroke-width="2.55" stroke-linecap="round" stroke-linejoin="round" stroke-miterlimit="10" d="
		M60.992,32.207c0.119,12.978-0.74,25.467-14.307,24.859c-13.719-0.604-12.49-14.912-12.609-23.16
		c-0.135-8.229-0.135-23.312,13.703-23.145C57.828,10.881,60.859,19.246,60.992,32.207z M47.14,48.719
		c6.277,0.389,6.682-7.591,6.614-15.889c-0.051-8.301-1.448-13.635-6.108-13.719c-6.414-0.102-6.414,9.526-6.348,14.812
		C41.349,39.193,40.777,48.333,47.14,48.719z"/>
</g>
<g id="pm">
	<g id="XMLID_1_">
		<g>
			<polygon fill="#FFFFFF" points="178.095,31.797 178.095,57.06 173.606,57.06 173.606,38.62 168.181,47.038 163.094,39.208 
				163.094,57.06 158.684,57.06 158.684,31.866 164.213,31.866 168.181,39.53 172.344,31.857 			"/>
		</g>
		<g>
			
				<polygon fill="none" stroke="#43193C" stroke-width="2.55" stroke-linecap="round" stroke-linejoin="round" stroke-miterlimit="10" points="
				158.684,57.06 158.684,31.866 164.213,31.866 168.181,39.53 172.344,31.857 178.095,31.797 178.095,57.06 173.606,57.06 
				173.606,38.62 168.181,47.038 163.094,39.208 163.094,57.06 			"/>
		</g>
	</g>
	
		<path fill="#FFFFFF" stroke="#43193C" stroke-width="2.55" stroke-linecap="round" stroke-linejoin="round" stroke-miterlimit="10" d="
		M151.894,37.154c0.207,6.253-7.174,6.203-7.174,6.203v13.69l-4.061-0.066V31.844C144.333,31.782,151.7,31.286,151.894,37.154z
		 M144.525,39.428c0,0,3.397,0.331,3.331-2.278c-0.068-2.607-3.331-2.138-3.331-2.138V39.428z"/>
</g>
<g>
	<g>
		<g>
			<g>
				<rect x="-25.663" y="-93.486" fill="#3FB181" width="237.45" height="65.395"/>
			</g>
			<g>
				
					<rect x="-25.663" y="-93.486" fill="none" stroke="#43193C" stroke-width="2.55" stroke-linecap="round" stroke-linejoin="round" stroke-miterlimit="10" width="237.45" height="65.395"/>
			</g>
		</g>
	</g>
</g>
<g>
	<g id="pm_1_">
		<g id="XMLID_2_">
			<g>
				<polygon fill="#FFFFFF" points="196.812,-62.891 196.812,-37.628 192.324,-37.628 192.324,-56.067 186.898,-47.649 
					181.812,-55.479 181.812,-37.628 177.401,-37.628 177.401,-62.822 182.931,-62.822 186.898,-55.157 191.062,-62.83 				"/>
			</g>
			<g>
				
					<polygon fill="none" stroke="#43193C" stroke-width="2.55" stroke-linecap="round" stroke-linejoin="round" stroke-miterlimit="10" points="
					177.401,-37.628 177.401,-62.822 182.931,-62.822 186.898,-55.157 191.062,-62.83 196.812,-62.891 196.812,-37.628 
					192.324,-37.628 192.324,-56.067 186.898,-47.649 181.812,-55.479 181.812,-37.628 				"/>
			</g>
		</g>
		
			<path fill="#FFFFFF" stroke="#43193C" stroke-width="2.55" stroke-linecap="round" stroke-linejoin="round" stroke-miterlimit="10" d="
			M170.611-57.533c0.207,6.253-7.174,6.203-7.174,6.203v13.69l-4.061-0.066v-25.138C163.051-62.906,170.418-63.402,170.611-57.533z
			 M163.243-55.26c0,0,3.397,0.331,3.331-2.278c-0.068-2.607-3.331-2.138-3.331-2.138V-55.26z"/>
	</g>
</g>
<path id="_x33__1_" fill="#FFFFFF" stroke="#43193C" stroke-width="2.55" stroke-linecap="round" stroke-linejoin="round" stroke-miterlimit="10" d="
	M76.457,45.323c-0.239,7.613,5.188,11.996,11.261,12.174c8.09,0.238,14.228-3.971,13.72-13.006
	c-0.555-9.912-10.865-10.704-10.865-10.704s4.521-0.318,7.535-5.948c3.082-5.76,0.236-16.895-10.232-16.654
	c-8.659,0.196-10.399,5.767-10.741,10.109h7.174c0.119-2.02,1.427-3.686,3.806-3.805c2.379-0.118,5.098,1.453,4.641,5.115
	c-0.674,5.393-5.514,6.504-10.746,6.66c0,5.354-0.079,8.485-0.079,8.485s4.916-0.16,8.571,1.339
	c2.424,0.995,4.018,3.362,3.166,7.305c-1.167,5.397-9.994,5.154-10.549-0.832L76.457,45.323z"/>
<g id="_x31_0_1_">
	
		<path id="_x30__1_" fill="#FFFFFF" stroke="#43193C" stroke-width="2.55" stroke-linecap="round" stroke-linejoin="round" stroke-miterlimit="10" d="
		M132.176,32.614c0.119,12.976-0.74,25.465-14.307,24.857c-13.719-0.604-12.49-14.912-12.609-23.158
		c-0.135-8.229-0.135-23.312,13.703-23.145C129.012,11.288,132.043,19.653,132.176,32.614z M118.324,49.124
		c6.277,0.389,6.682-7.591,6.614-15.887c-0.051-8.301-1.448-13.635-6.108-13.719c-6.414-0.102-6.414,9.526-6.348,14.812
		C112.533,39.599,111.961,48.738,118.324,49.124z"/>
</g>
<path fill="#FFFFFF" stroke="#43193C" stroke-width="2.55" stroke-linecap="round" stroke-linejoin="round" stroke-miterlimit="10" d="
	M71.348,54.269c0,1.57-1.27,2.84-2.83,2.84c-1.559,0-2.83-1.27-2.83-2.84c0-1.561,1.271-2.83,2.83-2.83
	C70.078,51.438,71.348,52.708,71.348,54.269z"/>
</svg>
