<?xml version="1.0" encoding="utf-8"?>
<!-- Generator: Adobe Illustrator 16.0.1, SVG Export Plug-In . SVG Version: 6.00 Build 0)  -->
<!DOCTYPE svg PUBLIC "-//W3C//DTD SVG 1.1//EN" "http://www.w3.org/Graphics/SVG/1.1/DTD/svg11.dtd">
<svg version="1.1" id="Layer_1" xmlns="http://www.w3.org/2000/svg" xmlns:xlink="http://www.w3.org/1999/xlink" x="0px" y="0px"
	 width="100.25px" height="67.875px" viewBox="0 0 100.25 67.875" enable-background="new 0 0 100.25 67.875" xml:space="preserve">
<g>
	<g>
		<g>
			<g>
				<rect x="1.3" y="1.201" fill="#3FB181" width="97.782" height="65.395"/>
			</g>
			<g>
				
					<rect x="1.3" y="1.201" fill="none" stroke="#43193C" stroke-width="2.55" stroke-linecap="round" stroke-linejoin="round" stroke-miterlimit="10" width="97.782" height="65.395"/>
			</g>
		</g>
	</g>
</g>
<polygon fill="#FFFFFF" stroke="#43193C" stroke-width="2.55" stroke-linecap="round" stroke-linejoin="round" stroke-miterlimit="10" points="
	-87.145,10.848 -113.991,10.729 -113.991,18.593 -95.46,18.593 -100.092,31.794 -105.201,31.794 -105.201,36.071 -101.591,36.071 
	-108.955,57.051 -100.486,57.051 -93.295,36.071 -88.871,36.071 -88.871,31.794 -91.83,31.794 -87.145,18.119 "/>
<g id="am">
	<g>
		<g id="XMLID_118_">
			<g>
				<path fill="#FFFFFF" d="M54.208,118.319l6.529,25.237h-5.641l-1.975-9.5h-5.041l-1.965,9.5h-5.518l6.603-25.237H54.208z
					 M52.323,129.123l-1.758-5.55l-1.495,5.55H52.323z"/>
			</g>
			<g>
				
					<polygon fill="none" stroke="#43193C" stroke-width="2.55" stroke-linecap="round" stroke-linejoin="round" stroke-miterlimit="10" points="
					40.598,143.557 47.2,118.319 54.208,118.319 60.737,143.557 55.096,143.557 53.122,134.057 48.081,134.057 46.116,143.557 				
					"/>
				
					<polygon fill="none" stroke="#43193C" stroke-width="2.55" stroke-linecap="round" stroke-linejoin="round" stroke-miterlimit="10" points="
					49.069,129.123 50.564,123.573 52.323,129.123 				"/>
			</g>
		</g>
	</g>
	<g id="XMLID_117_">
		<g>
			<polygon fill="#FFFFFF" points="84.239,118.307 84.239,143.564 79.751,143.564 79.751,125.124 74.325,133.542 69.238,125.712 
				69.238,143.564 64.828,143.564 64.828,118.374 70.357,118.374 74.325,126.035 78.488,118.366 			"/>
		</g>
		<g>
			
				<polygon fill="none" stroke="#43193C" stroke-width="2.55" stroke-linecap="round" stroke-linejoin="round" stroke-miterlimit="10" points="
				64.828,143.564 64.828,118.374 70.357,118.374 74.325,126.035 78.488,118.366 84.239,118.307 84.239,143.564 79.751,143.564 
				79.751,125.124 74.325,133.542 69.238,125.712 69.238,143.564 			"/>
		</g>
	</g>
</g>
<g id="_x31_1">
	
		<polygon id="_x31_" fill="#FFFFFF" stroke="#43193C" stroke-width="2.55" stroke-linecap="round" stroke-linejoin="round" stroke-miterlimit="10" points="
		-62.513,23.739 -51.128,10.774 -43.065,10.774 -43.065,57.102 -51.288,57.102 -51.288,23.739 -57.611,29.747 	"/>
	
		<polygon id="_x31__1_" fill="#FFFFFF" stroke="#43193C" stroke-width="2.55" stroke-linecap="round" stroke-linejoin="round" stroke-miterlimit="10" points="
		-39.362,23.739 -27.978,10.774 -19.915,10.774 -19.915,57.102 -28.137,57.102 -28.137,23.739 -34.46,29.747 	"/>
</g>
<path id="_x32_" fill="#FFFFFF" stroke="#43193C" stroke-width="2.55" stroke-linecap="round" stroke-linejoin="round" stroke-miterlimit="10" d="
	M-57.427,174.381c0-3.393,1.251-14.619,12.396-14.942c11.146-0.322,15.991,9.692,8.723,20.474
	c-6.966,10.335-12.115,17.284-12.115,17.284h16.678v8.562H-57.75l0.324-9.975c-0.458,0.719,4.995-6.315,9.045-12.479
	c1.125-1.715,3.829-5.415,5.169-7.431c3.876-5.836,1.21-8.502-2.121-8.016c-2.023,0.294-3.453,3.008-4.18,6.36
	C-51.814,174.461-57.427,174.381-57.427,174.381z"/>
<path id="_x33_" fill="#FFFFFF" stroke="#43193C" stroke-width="2.55" stroke-linecap="round" stroke-linejoin="round" stroke-miterlimit="10" d="
	M-39.259,193.615c-0.239,7.614,5.187,11.996,11.261,12.174c8.09,0.238,14.227-3.971,13.72-13.006
	c-0.555-9.913-10.866-10.706-10.866-10.706s4.521-0.318,7.535-5.948c3.083-5.76,0.237-16.894-10.232-16.654
	c-8.659,0.196-10.399,5.766-10.741,10.109h7.174c0.119-2.02,1.427-3.686,3.806-3.805c2.379-0.118,5.097,1.454,4.64,5.115
	c-0.674,5.393-5.513,6.504-10.746,6.661c0,5.354-0.079,8.487-0.079,8.487s4.916-0.16,8.571,1.339
	c2.424,0.995,4.018,3.362,3.166,7.305c-1.167,5.397-9.994,5.154-10.548-0.833L-39.259,193.615z"/>
<polygon id="_x34_" fill="#FFFFFF" stroke="#43193C" stroke-width="2.55" stroke-linecap="round" stroke-linejoin="round" stroke-miterlimit="10" points="
	-9.893,196.606 -9.893,184.751 -18.169,184.751 -13.151,168.659 -9.509,168.659 -13.194,181.01 -9.893,181.01 -9.893,178.979 
	-6.356,178.979 -6.356,181.01 -3.657,181.01 -3.657,184.799 -6.021,184.799 -6.021,196.606 "/>
<path id="_x35_" fill="#FFFFFF" stroke="#43193C" stroke-width="2.55" stroke-linecap="round" stroke-linejoin="round" stroke-miterlimit="10" d="
	M1.11,168.467c0,0,0,11.525,0,14.646c1.345-0.048,8.729-1.562,9.508,3.457c1.105,7.107-8.547,5.667-9.844,5.307
	c0,3.025,0,4.538,0,4.538s15.152,3.622,14.887-9.269c-0.192-9.315-10.517-8.292-10.517-8.292v-6.138h9.22v-4.25H1.11z"/>
<path id="_x36_" fill="#FFFFFF" stroke="#43193C" stroke-width="2.55" stroke-linecap="round" stroke-linejoin="round" stroke-miterlimit="10" d="
	M30.297,182.449c6.459,1.194,9.199,5.777,8.568,13.2c-0.665,7.755-6.26,10.677-13.798,10.046
	c-9.332-0.798-11.807-9.332-11.408-21.536c0.166-4.733,0.282-10.146,1.361-14.662c1.262-5.313,3.587-10.047,11.557-10.047
	c7.987,0,12.919,5.497,12.039,13.068l-6.127-0.232c0,0,0.232-6.061-5.828-6.061c-6.692,0-5.696,12.952-5.696,18.613
	C20.965,184.839,23.107,181.121,30.297,182.449z M27.44,199.069c3.172,0,5.33-1.992,5.248-5.513s-2.491-4.947-5.43-4.865
	c-2.59,0.083-5.181,1.628-5.347,4.468C21.746,195.98,23.854,199.069,27.44,199.069z"/>
<polygon id="_x37_" fill="#FFFFFF" stroke="#43193C" stroke-width="2.55" stroke-linecap="round" stroke-linejoin="round" stroke-miterlimit="10" points="
	54.412,168.684 38.134,168.611 38.134,173.38 49.37,173.38 46.562,181.385 43.464,181.385 43.464,183.978 45.652,183.978 
	41.188,196.703 46.323,196.703 50.683,183.978 53.366,183.978 53.366,181.385 51.571,181.385 54.412,173.092 "/>
<g id="_x31_0">
	
		<polygon id="_x31__2_" fill="#FFFFFF" stroke="#43193C" stroke-width="2.55" stroke-linecap="round" stroke-linejoin="round" stroke-miterlimit="10" points="
		66.964,172.396 78.348,159.432 86.41,159.432 86.41,205.759 78.188,205.759 78.188,172.396 71.865,178.404 	"/>
	
		<path id="_x30_" fill="#FFFFFF" stroke="#43193C" stroke-width="2.55" stroke-linecap="round" stroke-linejoin="round" stroke-miterlimit="10" d="
		M119.737,180.947c0.118,12.978-0.74,25.467-14.308,24.86c-13.718-0.604-12.49-14.912-12.608-23.161
		c-0.135-8.229-0.135-23.312,13.703-23.144C116.572,159.621,119.603,167.986,119.737,180.947z M105.885,197.459
		c6.277,0.388,6.682-7.591,6.614-15.889c-0.051-8.3-1.448-13.635-6.109-13.719c-6.414-0.101-6.414,9.527-6.347,14.812
		C100.094,187.934,99.521,197.073,105.885,197.459z"/>
</g>
<g id="pm">
	<g id="XMLID_1_">
		<g>
			<polygon fill="#FFFFFF" points="84.239,31.798 84.239,57.056 79.751,57.056 79.751,38.615 74.325,47.033 69.238,39.203 
				69.238,57.056 64.828,57.056 64.828,31.866 70.357,31.866 74.325,39.526 78.488,31.858 			"/>
		</g>
		<g>
			
				<polygon fill="none" stroke="#43193C" stroke-width="2.55" stroke-linecap="round" stroke-linejoin="round" stroke-miterlimit="10" points="
				64.828,57.056 64.828,31.866 70.357,31.866 74.325,39.526 78.488,31.858 84.239,31.798 84.239,57.056 79.751,57.056 
				79.751,38.615 74.325,47.033 69.238,39.203 69.238,57.056 			"/>
		</g>
	</g>
	
		<path fill="#FFFFFF" stroke="#43193C" stroke-width="2.55" stroke-linecap="round" stroke-linejoin="round" stroke-miterlimit="10" d="
		M58.038,37.15c0.207,6.252-7.174,6.203-7.174,6.203v13.691l-4.061-0.067V31.845C50.478,31.781,57.845,31.286,58.038,37.15z
		 M50.67,39.424c0,0,3.398,0.331,3.331-2.278c-0.069-2.608-3.331-2.138-3.331-2.138V39.424z"/>
</g>
<polygon id="_x31__3_" fill="#FFFFFF" stroke="#43193C" stroke-width="2.55" stroke-linecap="round" stroke-linejoin="round" stroke-miterlimit="10" points="
	14.398,23.939 25.783,10.974 33.846,10.974 33.846,57.301 25.624,57.301 25.624,23.939 19.3,29.947 "/>
</svg>
