<?xml version="1.0" encoding="utf-8"?>
<!-- Generator: Adobe Illustrator 16.0.1, SVG Export Plug-In . SVG Version: 6.00 Build 0)  -->
<!DOCTYPE svg PUBLIC "-//W3C//DTD SVG 1.1//EN" "http://www.w3.org/Graphics/SVG/1.1/DTD/svg11.dtd">
<svg version="1.1" id="Layer_1" xmlns="http://www.w3.org/2000/svg" xmlns:xlink="http://www.w3.org/1999/xlink" x="0px" y="0px"
	 width="100.25px" height="67.875px" viewBox="0 0 100.25 67.875" enable-background="new 0 0 100.25 67.875" xml:space="preserve">
<g>
	<g>
		<g>
			<g>
				<g>
					<rect x="1.3" y="1.201" fill="#3FB181" width="97.782" height="65.395"/>
				</g>
				<g>
					
						<rect x="1.3" y="1.201" fill="none" stroke="#43193C" stroke-width="2.55" stroke-linecap="round" stroke-linejoin="round" stroke-miterlimit="10" width="97.782" height="65.395"/>
				</g>
			</g>
		</g>
	</g>
	<g>
		
			<polygon fill="#FFFFFF" stroke="#43193C" stroke-width="2.55" stroke-linecap="round" stroke-linejoin="round" stroke-miterlimit="10" points="
			38.105,10.848 11.259,10.729 11.259,18.593 29.79,18.593 25.158,31.794 20.049,31.794 20.049,36.071 23.659,36.071 16.295,57.051 
			24.764,57.051 31.955,36.071 36.379,36.071 36.379,31.794 33.42,31.794 38.105,18.119 		"/>
		<g>
			<g id="XMLID_118_">
				<g>
					<path fill="#FFFFFF" d="M54.208,31.82l6.529,25.237h-5.641l-1.975-9.5h-5.041l-1.965,9.5h-5.518L47.2,31.82H54.208z
						 M52.323,42.624l-1.758-5.55l-1.495,5.55H52.323z"/>
				</g>
				<g>
					
						<polygon fill="none" stroke="#43193C" stroke-width="2.55" stroke-linecap="round" stroke-linejoin="round" stroke-miterlimit="10" points="
						40.598,57.057 47.2,31.82 54.208,31.82 60.737,57.057 55.096,57.057 53.122,47.557 48.081,47.557 46.116,57.057 					"/>
					
						<polygon fill="none" stroke="#43193C" stroke-width="2.55" stroke-linecap="round" stroke-linejoin="round" stroke-miterlimit="10" points="
						49.069,42.624 50.564,37.073 52.323,42.624 					"/>
				</g>
			</g>
		</g>
		<g id="XMLID_117_">
			<g>
				<polygon fill="#FFFFFF" points="84.239,31.807 84.239,57.064 79.751,57.064 79.751,38.624 74.325,47.042 69.238,39.212 
					69.238,57.064 64.828,57.064 64.828,31.875 70.357,31.875 74.325,39.535 78.488,31.867 				"/>
			</g>
			<g>
				
					<polygon fill="none" stroke="#43193C" stroke-width="2.55" stroke-linecap="round" stroke-linejoin="round" stroke-miterlimit="10" points="
					64.828,57.064 64.828,31.875 70.357,31.875 74.325,39.535 78.488,31.867 84.239,31.807 84.239,57.064 79.751,57.064 
					79.751,38.624 74.325,47.042 69.238,39.212 69.238,57.064 				"/>
			</g>
		</g>
	</g>
</g>
</svg>
