<?xml version="1.0" encoding="utf-8"?>
<!-- Generator: Adobe Illustrator 16.0.0, SVG Export Plug-In . SVG Version: 6.00 Build 0)  -->
<!DOCTYPE svg PUBLIC "-//W3C//DTD SVG 1.1//EN" "http://www.w3.org/Graphics/SVG/1.1/DTD/svg11.dtd">
<svg version="1.1" id="Layer_1" xmlns="http://www.w3.org/2000/svg" xmlns:xlink="http://www.w3.org/1999/xlink" x="0px" y="0px"
	 width="250px" height="67px" viewBox="0 0 250 67" enable-background="new 0 0 250 67" xml:space="preserve">
<g id="Layer_1_1_">
	<g>
		<rect x="1.275" y="1.275" fill="#FDEE63" width="247.45" height="64.45"/>
		<path fill="#43193C" d="M247.451,2.55v61.9h-42.814H2.55V2.55h202.085H247.451 M250,0h-45.365H0v67h204.635H250V0L250,0z"/>
	</g>
</g>
<g>
	<g id="XMLID_1_">
		<g>
			<polygon fill="#FFFFFF" points="43.045,25.858 43.045,33.529 31.946,33.529 31.946,53.401 24,53.401 24,13.385 43.045,13.254 
				43.045,20.921 32.077,20.921 32.077,25.858 			"/>
		</g>
		<g>
			
				<polygon fill="none" stroke="#3D0E3D" stroke-width="1.5" stroke-linecap="round" stroke-linejoin="round" stroke-miterlimit="10" points="
				24,13.385 24,53.401 31.946,53.401 31.946,33.529 43.045,33.529 43.045,25.858 32.077,25.858 32.077,20.921 43.045,20.921 
				43.045,13.254 			"/>
		</g>
	</g>
	<g id="XMLID_2_">
		<g>
			<rect x="63.363" y="13.254" fill="#FFFFFF" width="7.766" height="40.291"/>
		</g>
		<g>
			
				<rect x="63.363" y="13.254" fill="none" stroke="#3D0E3D" stroke-width="1.5" stroke-linecap="round" stroke-linejoin="round" stroke-miterlimit="10" width="7.766" height="40.291"/>
		</g>
	</g>
	<g id="XMLID_3_">
		<g>
			<polygon fill="#FFFFFF" points="118.634,13.553 118.634,53.745 111.514,53.745 99.875,25.071 99.875,53.745 93.311,53.745 
				93.311,13.869 102.091,13.869 112.307,37.709 112.307,13.553 			"/>
		</g>
		<g>
			
				<polygon fill="none" stroke="#3D0E3D" stroke-width="1.5" stroke-linecap="round" stroke-linejoin="round" stroke-miterlimit="10" points="
				93.311,53.745 93.311,13.869 102.091,13.869 112.307,37.709 112.307,13.553 118.634,13.553 118.634,53.745 111.514,53.745 
				99.875,25.071 99.875,53.745 			"/>
		</g>
	</g>
	<g id="XMLID_4_">
		<g>
			<rect x="137.815" y="13.254" fill="#FFFFFF" width="7.766" height="40.291"/>
		</g>
		<g>
			
				<rect x="137.815" y="13.254" fill="none" stroke="#3D0E3D" stroke-width="1.5" stroke-linecap="round" stroke-linejoin="round" stroke-miterlimit="10" width="7.766" height="40.291"/>
		</g>
	</g>
	<g id="XMLID_5_">
		<g>
			<path fill="#FFFFFF" d="M186.685,41.717c0.411,4.625-1.541,11.918-11.688,12.028c-9.472,0.095-10.762-7.392-10.873-10.59
				c-0.037-0.884,0.021-2.877,0.021-2.877h7.021c0,0,0.062,2.112,0.357,2.935c0.448,1.2,1.406,2.718,3.445,2.816
				c4.111,0.21,6.03-4.387,1.645-7.811c-4.387-3.417-11.408-4.313-11.819-12.839c-0.354-7.4,4.115-11.416,11.096-11.511
				c7.708-0.111,9.973,6.06,9.866,10.688l-6.162-0.107c0,0-0.411-4.209-4.526-3.289c-3.384,0.756-4.271,6.697,1.135,9.044
				C183.293,33.285,186.175,36.044,186.685,41.717z"/>
		</g>
		<g>
			
				<path fill="none" stroke="#3D0E3D" stroke-width="1.5" stroke-linecap="round" stroke-linejoin="round" stroke-miterlimit="10" d="
				M185.756,24.558c0.106-4.629-2.158-10.799-9.866-10.688c-6.98,0.095-11.449,4.111-11.096,11.511
				c0.411,8.526,7.433,9.422,11.819,12.839c4.386,3.424,2.467,8.021-1.645,7.811c-2.039-0.099-2.997-1.616-3.445-2.816
				c-0.296-0.822-0.357-2.935-0.357-2.935h-7.021c0,0-0.058,1.993-0.021,2.877c0.111,3.198,1.401,10.685,10.873,10.59
				c10.146-0.11,12.099-7.403,11.688-12.028c-0.51-5.673-3.392-8.432-10.482-11.511c-5.406-2.347-4.519-8.288-1.135-9.044
				c4.115-0.921,4.526,3.289,4.526,3.289L185.756,24.558z"/>
		</g>
	</g>
	<g id="XMLID_6_">
		<g>
			<polygon fill="#FFFFFF" points="226.001,13.796 226.001,53.673 218.736,53.673 218.736,37.895 209.426,37.895 209.426,53.673 
				202.297,53.673 202.297,13.796 209.281,13.796 209.281,30.388 218.877,30.388 218.877,13.796 			"/>
		</g>
		<g>
			
				<polygon fill="none" stroke="#3D0E3D" stroke-width="1.5" stroke-linecap="round" stroke-linejoin="round" stroke-miterlimit="10" points="
				202.297,13.796 202.297,53.673 209.426,53.673 209.426,37.895 218.736,37.895 218.736,53.673 226.001,53.673 226.001,13.796 
				218.877,13.796 218.877,30.388 209.281,30.388 209.281,13.796 			"/>
		</g>
	</g>
</g>
</svg>
