<svg class="letter" version="1.1" id="Layer_1" xmlns="http://www.w3.org/2000/svg" xmlns:xlink="http://www.w3.org/1999/xlink" x="0px" y="0px"
	 width="52.5px" height="52.5px" viewBox="0 0 52.5 52.5" enable-background="new 0 0 52.5 52.5" xml:space="preserve">
<g>
	<g id="XMLID_5_">
		<g>
			<circle fill="#92C1E9" cx="26.25" cy="26.25" r="25"/>
		</g>
		<g>
			
				<circle fill="none" stroke="#43193C" stroke-width="2.55" stroke-linecap="round" stroke-linejoin="round" stroke-miterlimit="10" cx="26.25" cy="26.25" r="25"/>
		</g>
	</g>
	<g id="XMLID_42_">
		<g>
			<path fill="#FFFFFF" d="M25.67,42.14c-9.515-0.456-11.102-11.441-11.214-16.991C14.34,19.484,15.135,9.062,25.554,9.29
				c10.99,0.238,9.63,10.083,9.63,10.083l-5.553,0.112c0,0-0.452-3.625-3.962-3.625c-3.514,0-4.873,3.058-4.646,9.742
				c0.211,6.226,1.923,9.855,4.985,9.855c3.622,0,3.85-3.966,3.85-3.966l6.004-0.112C35.864,31.378,35.854,42.623,25.67,42.14z"/>
		</g>
		<g>
			
				<path fill="none" stroke="#43193C" stroke-width="2.55" stroke-linecap="round" stroke-linejoin="round" stroke-miterlimit="10" d="
				M25.67,42.14c-9.515-0.456-11.102-11.441-11.214-16.991C14.34,19.484,15.135,9.062,25.554,9.29
				c10.99,0.238,9.63,10.083,9.63,10.083l-5.553,0.112c0,0-0.452-3.625-3.962-3.625c-3.514,0-4.873,3.058-4.646,9.742
				c0.211,6.226,1.923,9.855,4.985,9.855c3.622,0,3.85-3.966,3.85-3.966l6.004-0.112C35.864,31.378,35.854,42.623,25.67,42.14z"/>
		</g>
	</g>
</g>
</svg>
