<svg version="1.0" id="pattern-dots" xmlns="http://www.w3.org/2000/svg" xmlns:xlink="http://www.w3.org/1999/xlink" viewBox="0 0 460 460" xml:space="preserve">

<style>
    .background {
        overflow: visible;
    }
</style>

<pattern  y="0" width="27.334" height="25.918" patternUnits="userSpaceOnUse" id="dots" viewBox="0.833 -26.601 27.334 25.918" overflow="visible">
	<g>
		<polygon fill="none" points="0.833,-26.601 28.167,-26.601 28.167,-0.683 0.833,-0.683 		"/>
		<g>
			<!--<defs>-->
				<!--<rect id="SVGID_1_" x="0.833" y="-26.601" width="27.334" height="25.918"/>-->
			<!--</defs>-->
			<!--<clipPath id="SVGID_2_">-->
				<!--<use xlink:href="#SVGID_1_"  overflow="visible"/>-->
			<!--</clipPath>-->
			
				<path clip-path="url(#SVGID_2_)" fill="none" stroke="#3D0F3D" stroke-width="0.8" stroke-linecap="round" stroke-linejoin="round" stroke-miterlimit="10" d="
				M1.912-26.84c-0.039-0.046-0.068-0.103-0.079-0.159"/>
			
				<path clip-path="url(#SVGID_2_)" fill="none" stroke="#3D0F3D" stroke-width="0.8" stroke-linecap="round" stroke-linejoin="round" stroke-miterlimit="10" d="
				M22.02-26.745c-0.039-0.043-0.067-0.1-0.079-0.158"/>
			
				<line clip-path="url(#SVGID_2_)" fill="none" stroke="#3D0F3D" stroke-width="0.8" stroke-linecap="round" stroke-linejoin="round" stroke-miterlimit="10" x1="28.555" y1="-20.119" x2="28.555" y2="-20.197"/>
			
				<path clip-path="url(#SVGID_2_)" fill="none" stroke="#3D0F3D" stroke-width="0.8" stroke-linecap="round" stroke-linejoin="round" stroke-miterlimit="10" d="
				M28.492-17.465c0.003-0.046,0.026-0.085,0.062-0.096"/>
			
				<path clip-path="url(#SVGID_2_)" fill="none" stroke="#3D0F3D" stroke-width="0.8" stroke-linecap="round" stroke-linejoin="round" stroke-miterlimit="10" d="
				M1.667-5.39c0.105-0.102,0.139-0.227,0.105-0.372"/>
			
				<path clip-path="url(#SVGID_2_)" fill="none" stroke="#3D0F3D" stroke-width="0.8" stroke-linecap="round" stroke-linejoin="round" stroke-miterlimit="10" d="
				M3.369-4.271c0.018-0.06,0-0.097-0.053-0.104"/>
			
				<line clip-path="url(#SVGID_2_)" fill="none" stroke="#3D0F3D" stroke-width="0.8" stroke-linecap="round" stroke-linejoin="round" stroke-miterlimit="10" x1="1.667" y1="-3.153" x2="1.667" y2="-3.312"/>
			
				<path clip-path="url(#SVGID_2_)" fill="none" stroke="#3D0F3D" stroke-width="0.8" stroke-linecap="round" stroke-linejoin="round" stroke-miterlimit="10" d="
				M27.317-1.574c0.003-0.027-0.01-0.041-0.039-0.038"/>
			
				<path clip-path="url(#SVGID_2_)" fill="none" stroke="#3D0F3D" stroke-width="0.8" stroke-linecap="round" stroke-linejoin="round" stroke-miterlimit="10" d="
				M5.287-4.404c0.014-0.025,0.026-0.054,0.041-0.08"/>
			
				<path clip-path="url(#SVGID_2_)" fill="none" stroke="#3D0F3D" stroke-width="0.8" stroke-linecap="round" stroke-linejoin="round" stroke-miterlimit="10" d="
				M3.607-2.24c0.059-0.081,0.055-0.141-0.041-0.161"/>
			
				<path clip-path="url(#SVGID_2_)" fill="none" stroke="#3D0F3D" stroke-width="0.8" stroke-linecap="round" stroke-linejoin="round" stroke-miterlimit="10" d="
				M6.206-2.327C6.185-2.388,6.193-2.435,6.245-2.448"/>
			
				<line clip-path="url(#SVGID_2_)" fill="none" stroke="#3D0F3D" stroke-width="0.8" stroke-linecap="round" stroke-linejoin="round" stroke-miterlimit="10" x1="7.203" y1="-5.242" x2="7.203" y2="-5.362"/>
			
				<path clip-path="url(#SVGID_2_)" fill="none" stroke="#3D0F3D" stroke-width="0.8" stroke-linecap="round" stroke-linejoin="round" stroke-miterlimit="10" d="
				M4.207-6.44C4.205-6.487,4.192-6.522,4.169-6.562"/>
			
				<line clip-path="url(#SVGID_2_)" fill="none" stroke="#3D0F3D" stroke-width="0.8" stroke-linecap="round" stroke-linejoin="round" stroke-miterlimit="10" x1="6.007" y1="-7.68" x2="6.007" y2="-7.798"/>
			
				<path clip-path="url(#SVGID_2_)" fill="none" stroke="#3D0F3D" stroke-width="0.8" stroke-linecap="round" stroke-linejoin="round" stroke-miterlimit="10" d="
				M2.288-7.955c-0.006-0.067-0.033-0.119-0.08-0.158"/>
			
				<line clip-path="url(#SVGID_2_)" fill="none" stroke="#3D0F3D" stroke-width="0.8" stroke-linecap="round" stroke-linejoin="round" stroke-miterlimit="10" x1="4.326" y1="-9.116" x2="4.326" y2="-9.197"/>
			
				<line clip-path="url(#SVGID_2_)" fill="none" stroke="#3D0F3D" stroke-width="0.8" stroke-linecap="round" stroke-linejoin="round" stroke-miterlimit="10" x1="2.603" y1="-10.367" x2="2.603" y2="-10.528"/>
			
				<line clip-path="url(#SVGID_2_)" fill="none" stroke="#3D0F3D" stroke-width="0.8" stroke-linecap="round" stroke-linejoin="round" stroke-miterlimit="10" x1="5.926" y1="-10.274" x2="5.926" y2="-10.355"/>
			
				<line clip-path="url(#SVGID_2_)" fill="none" stroke="#3D0F3D" stroke-width="0.8" stroke-linecap="round" stroke-linejoin="round" stroke-miterlimit="10" x1="4.166" y1="-11.963" x2="4.166" y2="-12.082"/>
			
				<path clip-path="url(#SVGID_2_)" fill="none" stroke="#3D0F3D" stroke-width="0.8" stroke-linecap="round" stroke-linejoin="round" stroke-miterlimit="10" d="
				M1.285-12.601c0.019-0.056,0.019-0.103,0-0.159"/>
			
				<path clip-path="url(#SVGID_2_)" fill="none" stroke="#3D0F3D" stroke-width="0.8" stroke-linecap="round" stroke-linejoin="round" stroke-miterlimit="10" d="
				M3.49-13.789c0.002-0.003,0.077-0.188,0.04-0.119"/>
			
				<path clip-path="url(#SVGID_2_)" fill="none" stroke="#3D0F3D" stroke-width="0.8" stroke-linecap="round" stroke-linejoin="round" stroke-miterlimit="10" d="
				M1.933-15.666c-0.02-0.062-0.038-0.143-0.081-0.081"/>
			
				<path clip-path="url(#SVGID_2_)" fill="none" stroke="#3D0F3D" stroke-width="0.8" stroke-linecap="round" stroke-linejoin="round" stroke-miterlimit="10" d="
				M3.809-16.465c-0.023-0.036-0.036-0.076-0.039-0.118"/>
			
				<path clip-path="url(#SVGID_2_)" fill="none" stroke="#3D0F3D" stroke-width="0.8" stroke-linecap="round" stroke-linejoin="round" stroke-miterlimit="10" d="
				M6.245-12.831c0.027-0.027,0.053-0.052,0.079-0.078"/>
			
				<line clip-path="url(#SVGID_2_)" fill="none" stroke="#3D0F3D" stroke-width="0.8" stroke-linecap="round" stroke-linejoin="round" stroke-miterlimit="10" x1="5.406" y1="-15.307" x2="5.406" y2="-15.425"/>
			
				<line clip-path="url(#SVGID_2_)" fill="none" stroke="#3D0F3D" stroke-width="0.8" stroke-linecap="round" stroke-linejoin="round" stroke-miterlimit="10" x1="2.791" y1="-18.509" x2="2.791" y2="-18.588"/>
			
				<line clip-path="url(#SVGID_2_)" fill="none" stroke="#3D0F3D" stroke-width="0.8" stroke-linecap="round" stroke-linejoin="round" stroke-miterlimit="10" x1="1.221" y1="-20.119" x2="1.221" y2="-20.197"/>
			
				<path clip-path="url(#SVGID_2_)" fill="none" stroke="#3D0F3D" stroke-width="0.8" stroke-linecap="round" stroke-linejoin="round" stroke-miterlimit="10" d="
				M3.011-20.698c0.023-0.037,0.036-0.076,0.04-0.119"/>
			
				<path clip-path="url(#SVGID_2_)" fill="none" stroke="#3D0F3D" stroke-width="0.8" stroke-linecap="round" stroke-linejoin="round" stroke-miterlimit="10" d="
				M4.705-19.444c-0.009-0.016-0.077-0.136-0.039-0.081"/>
			
				<path clip-path="url(#SVGID_2_)" fill="none" stroke="#3D0F3D" stroke-width="0.8" stroke-linecap="round" stroke-linejoin="round" stroke-miterlimit="10" d="
				M5.807-17.621c0.026-0.028,0.053-0.055,0.078-0.081"/>
			
				<path clip-path="url(#SVGID_2_)" fill="none" stroke="#3D0F3D" stroke-width="0.8" stroke-linecap="round" stroke-linejoin="round" stroke-miterlimit="10" d="
				M5.926-21.496c0.014-0.045,0-0.072-0.041-0.081"/>
			
				<line clip-path="url(#SVGID_2_)" fill="none" stroke="#3D0F3D" stroke-width="0.8" stroke-linecap="round" stroke-linejoin="round" stroke-miterlimit="10" x1="6.805" y1="-19.778" x2="6.805" y2="-19.897"/>
			
				<line clip-path="url(#SVGID_2_)" fill="none" stroke="#3D0F3D" stroke-width="0.8" stroke-linecap="round" stroke-linejoin="round" stroke-miterlimit="10" x1="7.963" y1="-17.941" x2="7.963" y2="-18.061"/>
			
				<path clip-path="url(#SVGID_2_)" fill="none" stroke="#3D0F3D" stroke-width="0.8" stroke-linecap="round" stroke-linejoin="round" stroke-miterlimit="10" d="
				M7.603-15.986c-0.026-0.018-0.04-0.046-0.04-0.078"/>
			
				<path clip-path="url(#SVGID_2_)" fill="none" stroke="#3D0F3D" stroke-width="0.8" stroke-linecap="round" stroke-linejoin="round" stroke-miterlimit="10" d="
				M8.001-13.789c0.002-0.033-0.013-0.059-0.038-0.08"/>
			
				<path clip-path="url(#SVGID_2_)" fill="none" stroke="#3D0F3D" stroke-width="0.8" stroke-linecap="round" stroke-linejoin="round" stroke-miterlimit="10" d="
				M8.122-21.935c0.013-0.041,0.026-0.081,0.04-0.12"/>
			
				<path clip-path="url(#SVGID_2_)" fill="none" stroke="#3D0F3D" stroke-width="0.8" stroke-linecap="round" stroke-linejoin="round" stroke-miterlimit="10" d="
				M8.919-19.739c0.025-0.036,0.039-0.077,0.042-0.12"/>
			
				<path clip-path="url(#SVGID_2_)" fill="none" stroke="#3D0F3D" stroke-width="0.8" stroke-linecap="round" stroke-linejoin="round" stroke-miterlimit="10" d="
				M10.356-21.056c0.017-0.063,0.031-0.077,0.042-0.042"/>
			
				<line clip-path="url(#SVGID_2_)" fill="none" stroke="#3D0F3D" stroke-width="0.8" stroke-linecap="round" stroke-linejoin="round" stroke-miterlimit="10" x1="10.518" y1="-18.381" x2="10.518" y2="-18.462"/>
			
				<path clip-path="url(#SVGID_2_)" fill="none" stroke="#3D0F3D" stroke-width="0.8" stroke-linecap="round" stroke-linejoin="round" stroke-miterlimit="10" d="
				M9.759-16.583c-0.046-0.041-0.104-0.081-0.08-0.081"/>
			
				<line clip-path="url(#SVGID_2_)" fill="none" stroke="#3D0F3D" stroke-width="0.8" stroke-linecap="round" stroke-linejoin="round" stroke-miterlimit="10" x1="11.836" y1="-16.344" x2="11.836" y2="-16.425"/>
			
				<path clip-path="url(#SVGID_2_)" fill="none" stroke="#3D0F3D" stroke-width="0.8" stroke-linecap="round" stroke-linejoin="round" stroke-miterlimit="10" d="
				M10.158-14.347c0.015-0.027,0.026-0.055,0.041-0.081"/>
			
				<path clip-path="url(#SVGID_2_)" fill="none" stroke="#3D0F3D" stroke-width="0.8" stroke-linecap="round" stroke-linejoin="round" stroke-miterlimit="10" d="
				M12.115-13.988c-0.023-0.036-0.038-0.074-0.04-0.12"/>
			
				<line clip-path="url(#SVGID_2_)" fill="none" stroke="#3D0F3D" stroke-width="0.8" stroke-linecap="round" stroke-linejoin="round" stroke-miterlimit="10" x1="7.603" y1="-11.592" x2="7.603" y2="-11.67"/>
			
				<path clip-path="url(#SVGID_2_)" fill="none" stroke="#3D0F3D" stroke-width="0.8" stroke-linecap="round" stroke-linejoin="round" stroke-miterlimit="10" d="
				M11.597-11.312c0.031-0.047,0.046-0.105,0.04-0.16"/>
			
				<path clip-path="url(#SVGID_2_)" fill="none" stroke="#3D0F3D" stroke-width="0.8" stroke-linecap="round" stroke-linejoin="round" stroke-miterlimit="10" d="
				M9.799-11.972c-0.021-0.017-0.051-0.037-0.038,0"/>
			
				<path clip-path="url(#SVGID_2_)" fill="none" stroke="#3D0F3D" stroke-width="0.8" stroke-linecap="round" stroke-linejoin="round" stroke-miterlimit="10" d="
				M9.879-9.475c0.02-0.061,0.012-0.107-0.04-0.121"/>
			
				<path clip-path="url(#SVGID_2_)" fill="none" stroke="#3D0F3D" stroke-width="0.8" stroke-linecap="round" stroke-linejoin="round" stroke-miterlimit="10" d="
				M7.683-9.236c-0.006-0.056-0.034-0.104-0.08-0.119"/>
			
				<path clip-path="url(#SVGID_2_)" fill="none" stroke="#3D0F3D" stroke-width="0.8" stroke-linecap="round" stroke-linejoin="round" stroke-miterlimit="10" d="
				M9.081-7.36C9.077-7.416,9.051-7.462,9-7.479"/>
			
				<path clip-path="url(#SVGID_2_)" fill="none" stroke="#3D0F3D" stroke-width="0.8" stroke-linecap="round" stroke-linejoin="round" stroke-miterlimit="10" d="
				M8.361-3.686c0.011-0.046,0.037-0.072,0.08-0.079"/>
			
				<line clip-path="url(#SVGID_2_)" fill="none" stroke="#3D0F3D" stroke-width="0.8" stroke-linecap="round" stroke-linejoin="round" stroke-miterlimit="10" x1="11.436" y1="-8.599" x2="11.436" y2="-8.677"/>
			
				<path clip-path="url(#SVGID_2_)" fill="none" stroke="#3D0F3D" stroke-width="0.8" stroke-linecap="round" stroke-linejoin="round" stroke-miterlimit="10" d="
				M9.879-5.323c0.014-0.045,0-0.072-0.04-0.08"/>
			
				<path clip-path="url(#SVGID_2_)" fill="none" stroke="#3D0F3D" stroke-width="0.8" stroke-linecap="round" stroke-linejoin="round" stroke-miterlimit="10" d="
				M13.368-5.03c0.104-0.102,0.137-0.226,0.104-0.373"/>
			
				<path clip-path="url(#SVGID_2_)" fill="none" stroke="#3D0F3D" stroke-width="0.8" stroke-linecap="round" stroke-linejoin="round" stroke-miterlimit="10" d="
				M15.07-3.912c0.016-0.059,0-0.096-0.053-0.104"/>
			
				<line clip-path="url(#SVGID_2_)" fill="none" stroke="#3D0F3D" stroke-width="0.8" stroke-linecap="round" stroke-linejoin="round" stroke-miterlimit="10" x1="13.368" y1="-2.794" x2="13.368" y2="-2.954"/>
			
				<path clip-path="url(#SVGID_2_)" fill="none" stroke="#3D0F3D" stroke-width="0.8" stroke-linecap="round" stroke-linejoin="round" stroke-miterlimit="10" d="
				M11.958-1.362c0.003-0.03-0.01-0.043-0.04-0.039"/>
			
				<path clip-path="url(#SVGID_2_)" fill="none" stroke="#3D0F3D" stroke-width="0.8" stroke-linecap="round" stroke-linejoin="round" stroke-miterlimit="10" d="
				M16.846-4.266c0.014-0.026,0.026-0.051,0.041-0.078"/>
			
				<path clip-path="url(#SVGID_2_)" fill="none" stroke="#3D0F3D" stroke-width="0.8" stroke-linecap="round" stroke-linejoin="round" stroke-miterlimit="10" d="
				M17.317-1.487c0.013-0.026,0.026-0.052,0.04-0.077"/>
			
				<path clip-path="url(#SVGID_2_)" fill="none" stroke="#3D0F3D" stroke-width="0.8" stroke-linecap="round" stroke-linejoin="round" stroke-miterlimit="10" d="
				M15.35-2.208c0.06-0.081,0.053-0.142-0.04-0.159"/>
			
				<path clip-path="url(#SVGID_2_)" fill="none" stroke="#3D0F3D" stroke-width="0.8" stroke-linecap="round" stroke-linejoin="round" stroke-miterlimit="10" d="
				M8.128-1.55C8.107-1.608,8.115-1.658,8.166-1.672"/>
			
				<line clip-path="url(#SVGID_2_)" fill="none" stroke="#3D0F3D" stroke-width="0.8" stroke-linecap="round" stroke-linejoin="round" stroke-miterlimit="10" x1="18.911" y1="-5.354" x2="18.911" y2="-5.474"/>
			
				<path clip-path="url(#SVGID_2_)" fill="none" stroke="#3D0F3D" stroke-width="0.8" stroke-linecap="round" stroke-linejoin="round" stroke-miterlimit="10" d="
				M15.909-6.08c-0.004-0.046-0.017-0.083-0.04-0.12"/>
			
				<line clip-path="url(#SVGID_2_)" fill="none" stroke="#3D0F3D" stroke-width="0.8" stroke-linecap="round" stroke-linejoin="round" stroke-miterlimit="10" x1="17.705" y1="-7.318" x2="17.705" y2="-7.439"/>
			
				<path clip-path="url(#SVGID_2_)" fill="none" stroke="#3D0F3D" stroke-width="0.8" stroke-linecap="round" stroke-linejoin="round" stroke-miterlimit="10" d="
				M14.271-7.72c-0.007-0.069-0.034-0.119-0.08-0.159"/>
			
				<line clip-path="url(#SVGID_2_)" fill="none" stroke="#3D0F3D" stroke-width="0.8" stroke-linecap="round" stroke-linejoin="round" stroke-miterlimit="10" x1="16.028" y1="-8.758" x2="16.028" y2="-8.836"/>
			
				<line clip-path="url(#SVGID_2_)" fill="none" stroke="#3D0F3D" stroke-width="0.8" stroke-linecap="round" stroke-linejoin="round" stroke-miterlimit="10" x1="14.671" y1="-10.075" x2="14.671" y2="-10.233"/>
			
				<line clip-path="url(#SVGID_2_)" fill="none" stroke="#3D0F3D" stroke-width="0.8" stroke-linecap="round" stroke-linejoin="round" stroke-miterlimit="10" x1="17.626" y1="-9.916" x2="17.626" y2="-9.994"/>
			
				<line clip-path="url(#SVGID_2_)" fill="none" stroke="#3D0F3D" stroke-width="0.8" stroke-linecap="round" stroke-linejoin="round" stroke-miterlimit="10" x1="16.309" y1="-11.513" x2="16.309" y2="-11.633"/>
			
				<path clip-path="url(#SVGID_2_)" fill="none" stroke="#3D0F3D" stroke-width="0.8" stroke-linecap="round" stroke-linejoin="round" stroke-miterlimit="10" d="
				M13.593-12.231c0.02-0.057,0.018-0.103,0-0.159"/>
			
				<path clip-path="url(#SVGID_2_)" fill="none" stroke="#3D0F3D" stroke-width="0.8" stroke-linecap="round" stroke-linejoin="round" stroke-miterlimit="10" d="
				M15.19-13.429c0.002-0.006,0.077-0.189,0.038-0.119"/>
			
				<path clip-path="url(#SVGID_2_)" fill="none" stroke="#3D0F3D" stroke-width="0.8" stroke-linecap="round" stroke-linejoin="round" stroke-miterlimit="10" d="
				M13.633-15.307c-0.02-0.061-0.038-0.142-0.08-0.079"/>
			
				<path clip-path="url(#SVGID_2_)" fill="none" stroke="#3D0F3D" stroke-width="0.8" stroke-linecap="round" stroke-linejoin="round" stroke-miterlimit="10" d="
				M15.51-16.104c-0.024-0.039-0.038-0.077-0.039-0.121"/>
			
				<path clip-path="url(#SVGID_2_)" fill="none" stroke="#3D0F3D" stroke-width="0.8" stroke-linecap="round" stroke-linejoin="round" stroke-miterlimit="10" d="
				M17.944-12.471c0.026-0.026,0.055-0.054,0.081-0.079"/>
			
				<line clip-path="url(#SVGID_2_)" fill="none" stroke="#3D0F3D" stroke-width="0.8" stroke-linecap="round" stroke-linejoin="round" stroke-miterlimit="10" x1="17.231" y1="-14.552" x2="17.231" y2="-14.672"/>
			
				<line clip-path="url(#SVGID_2_)" fill="none" stroke="#3D0F3D" stroke-width="0.8" stroke-linecap="round" stroke-linejoin="round" stroke-miterlimit="10" x1="14.311" y1="-18.102" x2="14.311" y2="-18.183"/>
			
				<path clip-path="url(#SVGID_2_)" fill="none" stroke="#3D0F3D" stroke-width="0.8" stroke-linecap="round" stroke-linejoin="round" stroke-miterlimit="10" d="
				M14.711-20.338c0.023-0.036,0.037-0.076,0.04-0.12"/>
			
				<path clip-path="url(#SVGID_2_)" fill="none" stroke="#3D0F3D" stroke-width="0.8" stroke-linecap="round" stroke-linejoin="round" stroke-miterlimit="10" d="
				M16.228-18.82c-0.008-0.015-0.076-0.134-0.038-0.08"/>
			
				<path clip-path="url(#SVGID_2_)" fill="none" stroke="#3D0F3D" stroke-width="0.8" stroke-linecap="round" stroke-linejoin="round" stroke-miterlimit="10" d="
				M17.506-17.264c0.027-0.025,0.055-0.054,0.08-0.079"/>
			
				<path clip-path="url(#SVGID_2_)" fill="none" stroke="#3D0F3D" stroke-width="0.8" stroke-linecap="round" stroke-linejoin="round" stroke-miterlimit="10" d="
				M17.626-21.137c0.014-0.046,0-0.072-0.04-0.08"/>
			
				<line clip-path="url(#SVGID_2_)" fill="none" stroke="#3D0F3D" stroke-width="0.8" stroke-linecap="round" stroke-linejoin="round" stroke-miterlimit="10" x1="18.505" y1="-19.419" x2="18.505" y2="-19.54"/>
			
				<line clip-path="url(#SVGID_2_)" fill="none" stroke="#3D0F3D" stroke-width="0.8" stroke-linecap="round" stroke-linejoin="round" stroke-miterlimit="10" x1="19.662" y1="-17.583" x2="19.662" y2="-17.702"/>
			
				<path clip-path="url(#SVGID_2_)" fill="none" stroke="#3D0F3D" stroke-width="0.8" stroke-linecap="round" stroke-linejoin="round" stroke-miterlimit="10" d="
				M19.304-15.626c-0.028-0.02-0.042-0.047-0.04-0.079"/>
			
				<path clip-path="url(#SVGID_2_)" fill="none" stroke="#3D0F3D" stroke-width="0.8" stroke-linecap="round" stroke-linejoin="round" stroke-miterlimit="10" d="
				M19.702-13.429c0-0.032-0.013-0.059-0.04-0.081"/>
			
				<path clip-path="url(#SVGID_2_)" fill="none" stroke="#3D0F3D" stroke-width="0.8" stroke-linecap="round" stroke-linejoin="round" stroke-miterlimit="10" d="
				M19.822-21.577c0.014-0.039,0.027-0.079,0.041-0.117"/>
			
				<path clip-path="url(#SVGID_2_)" fill="none" stroke="#3D0F3D" stroke-width="0.8" stroke-linecap="round" stroke-linejoin="round" stroke-miterlimit="10" d="
				M20.619-19.38c0.026-0.036,0.04-0.077,0.042-0.119"/>
			
				<path clip-path="url(#SVGID_2_)" fill="none" stroke="#3D0F3D" stroke-width="0.8" stroke-linecap="round" stroke-linejoin="round" stroke-miterlimit="10" d="
				M22.059-20.698c0.017-0.062,0.028-0.076,0.04-0.038"/>
			
				<line clip-path="url(#SVGID_2_)" fill="none" stroke="#3D0F3D" stroke-width="0.8" stroke-linecap="round" stroke-linejoin="round" stroke-miterlimit="10" x1="22.22" y1="-18.021" x2="22.22" y2="-18.102"/>
			
				<path clip-path="url(#SVGID_2_)" fill="none" stroke="#3D0F3D" stroke-width="0.8" stroke-linecap="round" stroke-linejoin="round" stroke-miterlimit="10" d="
				M21.46-16.225c-0.047-0.038-0.105-0.081-0.081-0.079"/>
			
				<line clip-path="url(#SVGID_2_)" fill="none" stroke="#3D0F3D" stroke-width="0.8" stroke-linecap="round" stroke-linejoin="round" stroke-miterlimit="10" x1="23.536" y1="-15.986" x2="23.536" y2="-16.064"/>
			
				<path clip-path="url(#SVGID_2_)" fill="none" stroke="#3D0F3D" stroke-width="0.8" stroke-linecap="round" stroke-linejoin="round" stroke-miterlimit="10" d="
				M21.69-14.171c0.014-0.025,0.026-0.053,0.039-0.079"/>
			
				<path clip-path="url(#SVGID_2_)" fill="none" stroke="#3D0F3D" stroke-width="0.8" stroke-linecap="round" stroke-linejoin="round" stroke-miterlimit="10" d="
				M23.816-13.629c-0.024-0.036-0.037-0.077-0.04-0.12"/>
			
				<line clip-path="url(#SVGID_2_)" fill="none" stroke="#3D0F3D" stroke-width="0.8" stroke-linecap="round" stroke-linejoin="round" stroke-miterlimit="10" x1="19.304" y1="-11.233" x2="19.304" y2="-11.312"/>
			
				<path clip-path="url(#SVGID_2_)" fill="none" stroke="#3D0F3D" stroke-width="0.8" stroke-linecap="round" stroke-linejoin="round" stroke-miterlimit="10" d="
				M23.298-10.954c0.032-0.046,0.046-0.103,0.039-0.158"/>
			
				<path clip-path="url(#SVGID_2_)" fill="none" stroke="#3D0F3D" stroke-width="0.8" stroke-linecap="round" stroke-linejoin="round" stroke-miterlimit="10" d="
				M21.699-12.19c-0.021-0.017-0.051-0.035-0.04,0"/>
			
				<path clip-path="url(#SVGID_2_)" fill="none" stroke="#3D0F3D" stroke-width="0.8" stroke-linecap="round" stroke-linejoin="round" stroke-miterlimit="10" d="
				M21.312-9.712c0.02-0.06,0.012-0.106-0.039-0.12"/>
			
				<path clip-path="url(#SVGID_2_)" fill="none" stroke="#3D0F3D" stroke-width="0.8" stroke-linecap="round" stroke-linejoin="round" stroke-miterlimit="10" d="
				M19.384-8.877c-0.006-0.057-0.034-0.104-0.08-0.12"/>
			
				<path clip-path="url(#SVGID_2_)" fill="none" stroke="#3D0F3D" stroke-width="0.8" stroke-linecap="round" stroke-linejoin="round" stroke-miterlimit="10" d="
				M20.781-6.999c-0.003-0.059-0.03-0.104-0.08-0.119"/>
			
				<path clip-path="url(#SVGID_2_)" fill="none" stroke="#3D0F3D" stroke-width="0.8" stroke-linecap="round" stroke-linejoin="round" stroke-miterlimit="10" d="
				M20.148-3.651c0.011-0.046,0.038-0.074,0.082-0.08"/>
			
				<line clip-path="url(#SVGID_2_)" fill="none" stroke="#3D0F3D" stroke-width="0.8" stroke-linecap="round" stroke-linejoin="round" stroke-miterlimit="10" x1="22.757" y1="-8.143" x2="22.757" y2="-8.221"/>
			
				<path clip-path="url(#SVGID_2_)" fill="none" stroke="#3D0F3D" stroke-width="0.8" stroke-linecap="round" stroke-linejoin="round" stroke-miterlimit="10" d="
				M21.58-4.964c0.013-0.045,0-0.071-0.039-0.078"/>
			
				<path clip-path="url(#SVGID_2_)" fill="none" stroke="#3D0F3D" stroke-width="0.8" stroke-linecap="round" stroke-linejoin="round" stroke-miterlimit="10" d="
				M12.955-9.873c0.038-0.043,0.038-0.07,0-0.082"/>
			
				<line clip-path="url(#SVGID_2_)" fill="none" stroke="#3D0F3D" stroke-width="0.8" stroke-linecap="round" stroke-linejoin="round" stroke-miterlimit="10" x1="11.756" y1="-6.64" x2="11.756" y2="-6.721"/>
			
				<line clip-path="url(#SVGID_2_)" fill="none" stroke="#3D0F3D" stroke-width="0.8" stroke-linecap="round" stroke-linejoin="round" stroke-miterlimit="10" x1="11.397" y1="-4.243" x2="11.397" y2="-4.324"/>
			
				<path clip-path="url(#SVGID_2_)" fill="none" stroke="#3D0F3D" stroke-width="0.8" stroke-linecap="round" stroke-linejoin="round" stroke-miterlimit="10" d="
				M10.356-2.407c-0.024-0.02-0.039-0.047-0.038-0.081"/>
			
				<line clip-path="url(#SVGID_2_)" fill="none" stroke="#3D0F3D" stroke-width="0.8" stroke-linecap="round" stroke-linejoin="round" stroke-miterlimit="10" x1="22.577" y1="-3.166" x2="22.577" y2="-3.246"/>
			
				<path clip-path="url(#SVGID_2_)" fill="none" stroke="#3D0F3D" stroke-width="0.8" stroke-linecap="round" stroke-linejoin="round" stroke-miterlimit="10" d="
				M20.277-1.518c-0.04-0.046-0.068-0.103-0.079-0.161"/>
			
				<path clip-path="url(#SVGID_2_)" fill="none" stroke="#3D0F3D" stroke-width="0.8" stroke-linecap="round" stroke-linejoin="round" stroke-miterlimit="10" d="
				M1.912-0.922C1.873-0.968,1.844-1.024,1.833-1.081"/>
			
				<path clip-path="url(#SVGID_2_)" fill="none" stroke="#3D0F3D" stroke-width="0.8" stroke-linecap="round" stroke-linejoin="round" stroke-miterlimit="10" d="
				M23.298-5.643c0.067,0.009,0.095-0.018,0.079-0.08"/>
			
				<path clip-path="url(#SVGID_2_)" fill="none" stroke="#3D0F3D" stroke-width="0.8" stroke-linecap="round" stroke-linejoin="round" stroke-miterlimit="10" d="
				M12.475-18.462c0.017-0.06,0.003-0.116-0.041-0.158"/>
			
				<line clip-path="url(#SVGID_2_)" fill="none" stroke="#3D0F3D" stroke-width="0.8" stroke-linecap="round" stroke-linejoin="round" stroke-miterlimit="10" x1="12.554" y1="-20.657" x2="12.475" y2="-20.657"/>
			
				<line clip-path="url(#SVGID_2_)" fill="none" stroke="#3D0F3D" stroke-width="0.8" stroke-linecap="round" stroke-linejoin="round" stroke-miterlimit="10" x1="15.749" y1="-22.134" x2="15.749" y2="-22.214"/>
			
				<path clip-path="url(#SVGID_2_)" fill="none" stroke="#3D0F3D" stroke-width="0.8" stroke-linecap="round" stroke-linejoin="round" stroke-miterlimit="10" d="
				M12.993-22.095c0.037-0.062,0.051-0.13,0.04-0.2"/>
			
				<path clip-path="url(#SVGID_2_)" fill="none" stroke="#3D0F3D" stroke-width="0.8" stroke-linecap="round" stroke-linejoin="round" stroke-miterlimit="10" d="
				M18.299-2.976c0.039-0.059,0.055-0.125,0.048-0.189"/>
			
				<path clip-path="url(#SVGID_2_)" fill="none" stroke="#3D0F3D" stroke-width="0.8" stroke-linecap="round" stroke-linejoin="round" stroke-miterlimit="10" d="
				M24.822-1.823c-0.029-0.043-0.045-0.092-0.05-0.145"/>
			
				<path clip-path="url(#SVGID_2_)" fill="none" stroke="#3D0F3D" stroke-width="0.8" stroke-linecap="round" stroke-linejoin="round" stroke-miterlimit="10" d="
				M24.869-4.408c-0.029-0.044-0.044-0.091-0.047-0.143"/>
			
				<line clip-path="url(#SVGID_2_)" fill="none" stroke="#3D0F3D" stroke-width="0.8" stroke-linecap="round" stroke-linejoin="round" stroke-miterlimit="10" x1="26.594" y1="-5.27" x2="26.594" y2="-5.414"/>
			
				<line clip-path="url(#SVGID_2_)" fill="none" stroke="#3D0F3D" stroke-width="0.8" stroke-linecap="round" stroke-linejoin="round" stroke-miterlimit="10" x1="27.151" y1="-3.496" x2="27.151" y2="-3.545"/>
			
				<path clip-path="url(#SVGID_2_)" fill="none" stroke="#3D0F3D" stroke-width="0.8" stroke-linecap="round" stroke-linejoin="round" stroke-miterlimit="10" d="
				M24.719-7.356c0.015-0.032,0.03-0.063,0.047-0.095"/>
			
				<path clip-path="url(#SVGID_2_)" fill="none" stroke="#3D0F3D" stroke-width="0.8" stroke-linecap="round" stroke-linejoin="round" stroke-miterlimit="10" d="
				M24.822-9.866c0.043-0.069,0.043-0.085,0-0.049"/>
			
				<path clip-path="url(#SVGID_2_)" fill="none" stroke="#3D0F3D" stroke-width="0.8" stroke-linecap="round" stroke-linejoin="round" stroke-miterlimit="10" d="
				M26.449-8.621c-0.017-0.031-0.033-0.063-0.048-0.096"/>
			
				<path clip-path="url(#SVGID_2_)" fill="none" stroke="#3D0F3D" stroke-width="0.8" stroke-linecap="round" stroke-linejoin="round" stroke-miterlimit="10" d="
				M27.646-10.535c0.016-0.032,0.031-0.062,0.048-0.096"/>
			
				<path clip-path="url(#SVGID_2_)" fill="none" stroke="#3D0F3D" stroke-width="0.8" stroke-linecap="round" stroke-linejoin="round" stroke-miterlimit="10" d="
				M27.741-7.136c-0.018-0.073-0.002-0.14,0.048-0.193"/>
			
				<path clip-path="url(#SVGID_2_)" fill="none" stroke="#3D0F3D" stroke-width="0.8" stroke-linecap="round" stroke-linejoin="round" stroke-miterlimit="10" d="
				M25.539-12.067c-0.048-0.033-0.097-0.064-0.144-0.097"/>
			
				<path clip-path="url(#SVGID_2_)" fill="none" stroke="#3D0F3D" stroke-width="0.8" stroke-linecap="round" stroke-linejoin="round" stroke-miterlimit="10" d="
				M25.316-14.893c0.018-0.028,0.027-0.061,0.031-0.095"/>
			
				<path clip-path="url(#SVGID_2_)" fill="none" stroke="#3D0F3D" stroke-width="0.8" stroke-linecap="round" stroke-linejoin="round" stroke-miterlimit="10" d="
				M27.151-16.115c0.033-0.048,0.044-0.104,0.033-0.161"/>
			
				<line clip-path="url(#SVGID_2_)" fill="none" stroke="#3D0F3D" stroke-width="0.8" stroke-linecap="round" stroke-linejoin="round" stroke-miterlimit="10" x1="26.976" y1="-13.456" x2="26.976" y2="-13.551"/>
			
				<line clip-path="url(#SVGID_2_)" fill="none" stroke="#3D0F3D" stroke-width="0.8" stroke-linecap="round" stroke-linejoin="round" stroke-miterlimit="10" x1="23.752" y1="-19.392" x2="23.752" y2="-19.486"/>
			
				<path clip-path="url(#SVGID_2_)" fill="none" stroke="#3D0F3D" stroke-width="0.8" stroke-linecap="round" stroke-linejoin="round" stroke-miterlimit="10" d="
				M25.283-17.381c-0.01-0.031-0.02-0.063-0.031-0.096"/>
			
				<path clip-path="url(#SVGID_2_)" fill="none" stroke="#3D0F3D" stroke-width="0.8" stroke-linecap="round" stroke-linejoin="round" stroke-miterlimit="10" d="
				M25.411-20.253c0.011-0.021,0.021-0.042,0.031-0.063"/>
			
				<line clip-path="url(#SVGID_2_)" fill="none" stroke="#3D0F3D" stroke-width="0.8" stroke-linecap="round" stroke-linejoin="round" stroke-miterlimit="10" x1="27.038" y1="-18.785" x2="27.038" y2="-18.881"/>
			
				<line clip-path="url(#SVGID_2_)" fill="none" stroke="#3D0F3D" stroke-width="0.8" stroke-linecap="round" stroke-linejoin="round" stroke-miterlimit="10" x1="26.912" y1="-21.688" x2="26.912" y2="-21.751"/>
			
				<path clip-path="url(#SVGID_2_)" fill="none" stroke="#3D0F3D" stroke-width="0.8" stroke-linecap="round" stroke-linejoin="round" stroke-miterlimit="10" d="
				M1.956-22.678c0.014-0.05,0.001-0.095-0.033-0.128"/>
			
				<path clip-path="url(#SVGID_2_)" fill="none" stroke="#3D0F3D" stroke-width="0.8" stroke-linecap="round" stroke-linejoin="round" stroke-miterlimit="10" d="
				M3.775-22.485c0.04-0.041,0.051-0.076,0-0.097"/>
			
				<line clip-path="url(#SVGID_2_)" fill="none" stroke="#3D0F3D" stroke-width="0.8" stroke-linecap="round" stroke-linejoin="round" stroke-miterlimit="10" x1="2.415" y1="-24.655" x2="2.415" y2="-24.751"/>
			
				<line clip-path="url(#SVGID_2_)" fill="none" stroke="#3D0F3D" stroke-width="0.8" stroke-linecap="round" stroke-linejoin="round" stroke-miterlimit="10" x1="3.984" y1="-25.878" x2="3.984" y2="-25.974"/>
			
				<path clip-path="url(#SVGID_2_)" fill="none" stroke="#3D0F3D" stroke-width="0.8" stroke-linecap="round" stroke-linejoin="round" stroke-miterlimit="10" d="
				M6.118-26.13c0.011-0.029,0.031-0.1,0-0.032"/>
			
				<path clip-path="url(#SVGID_2_)" fill="none" stroke="#3D0F3D" stroke-width="0.8" stroke-linecap="round" stroke-linejoin="round" stroke-miterlimit="10" d="
				M5.085-23.994c-0.006-0.066-0.037-0.104-0.097-0.096"/>
			
				<line clip-path="url(#SVGID_2_)" fill="none" stroke="#3D0F3D" stroke-width="0.8" stroke-linecap="round" stroke-linejoin="round" stroke-miterlimit="10" x1="7.222" y1="-24.146" x2="7.222" y2="-24.208"/>
			
				<line clip-path="url(#SVGID_2_)" fill="none" stroke="#3D0F3D" stroke-width="0.8" stroke-linecap="round" stroke-linejoin="round" stroke-miterlimit="10" x1="8.881" y1="-25.678" x2="8.881" y2="-25.773"/>
			
				<path clip-path="url(#SVGID_2_)" fill="none" stroke="#3D0F3D" stroke-width="0.8" stroke-linecap="round" stroke-linejoin="round" stroke-miterlimit="10" d="
				M9.743-23.477c0.039-0.054,0.043-0.11,0-0.158"/>
			
				<path clip-path="url(#SVGID_2_)" fill="none" stroke="#3D0F3D" stroke-width="0.8" stroke-linecap="round" stroke-linejoin="round" stroke-miterlimit="10" d="
				M11.562-25.424c-0.009,0.021,0.039-0.14,0.031-0.062"/>
			
				<line clip-path="url(#SVGID_2_)" fill="none" stroke="#3D0F3D" stroke-width="0.8" stroke-linecap="round" stroke-linejoin="round" stroke-miterlimit="10" x1="11.4" y1="-23.157" x2="11.4" y2="-23.284"/>
			
				<path clip-path="url(#SVGID_2_)" fill="none" stroke="#3D0F3D" stroke-width="0.8" stroke-linecap="round" stroke-linejoin="round" stroke-miterlimit="10" d="
				M13.508-24.562c-0.02-0.028-0.031-0.061-0.032-0.095"/>
			
				<path clip-path="url(#SVGID_2_)" fill="none" stroke="#3D0F3D" stroke-width="0.8" stroke-linecap="round" stroke-linejoin="round" stroke-miterlimit="10" d="
				M13.935-26.318c0.006-0.024,0.054-0.224,0.032-0.095"/>
			
				<line clip-path="url(#SVGID_2_)" fill="none" stroke="#3D0F3D" stroke-width="0.8" stroke-linecap="round" stroke-linejoin="round" stroke-miterlimit="10" x1="15.423" y1="-24.435" x2="15.423" y2="-24.53"/>
			
				<path clip-path="url(#SVGID_2_)" fill="none" stroke="#3D0F3D" stroke-width="0.8" stroke-linecap="round" stroke-linejoin="round" stroke-miterlimit="10" d="
				M17.338-23.508c-0.007-0.044-0.008-0.127-0.032-0.096"/>
			
				<path clip-path="url(#SVGID_2_)" fill="none" stroke="#3D0F3D" stroke-width="0.8" stroke-linecap="round" stroke-linejoin="round" stroke-miterlimit="10" d="
				M18.269-25.659c-0.028-0.042-0.077-0.071-0.095-0.062"/>
			
				<path clip-path="url(#SVGID_2_)" fill="none" stroke="#3D0F3D" stroke-width="0.8" stroke-linecap="round" stroke-linejoin="round" stroke-miterlimit="10" d="
				M16.386-25.974c-0.029-0.042-0.078-0.072-0.096-0.062"/>
			
				<line clip-path="url(#SVGID_2_)" fill="none" stroke="#3D0F3D" stroke-width="0.8" stroke-linecap="round" stroke-linejoin="round" stroke-miterlimit="10" x1="19.987" y1="-25.296" x2="19.987" y2="-25.358"/>
			
				<path clip-path="url(#SVGID_2_)" fill="none" stroke="#3D0F3D" stroke-width="0.8" stroke-linecap="round" stroke-linejoin="round" stroke-miterlimit="10" d="
				M19.507-23.54c-0.012-0.032-0.033-0.054-0.062-0.062"/>
			
				<path clip-path="url(#SVGID_2_)" fill="none" stroke="#3D0F3D" stroke-width="0.8" stroke-linecap="round" stroke-linejoin="round" stroke-miterlimit="10" d="
				M21.678-24.592c0.001-0.036,0.001-0.069,0-0.104c-0.007-0.042,0.032,0.041,0.032,0.041"/>
			
				<path clip-path="url(#SVGID_2_)" fill="none" stroke="#3D0F3D" stroke-width="0.8" stroke-linecap="round" stroke-linejoin="round" stroke-miterlimit="10" d="
				M21.71-22.551c-0.011-0.011-0.023-0.021-0.032-0.031"/>
			
				<path clip-path="url(#SVGID_2_)" fill="none" stroke="#3D0F3D" stroke-width="0.8" stroke-linecap="round" stroke-linejoin="round" stroke-miterlimit="10" d="
				M23.561-25.55c0.028-0.024,0.04-0.06,0.031-0.096"/>
			
				<path clip-path="url(#SVGID_2_)" fill="none" stroke="#3D0F3D" stroke-width="0.8" stroke-linecap="round" stroke-linejoin="round" stroke-miterlimit="10" d="
				M23.655-23.157c0.015-0.049,0.005-0.092-0.031-0.127"/>
			
				<path clip-path="url(#SVGID_2_)" fill="none" stroke="#3D0F3D" stroke-width="0.8" stroke-linecap="round" stroke-linejoin="round" stroke-miterlimit="10" d="
				M23.976-21.338c-0.037-0.031-0.081-0.052-0.128-0.062"/>
			
				<path clip-path="url(#SVGID_2_)" fill="none" stroke="#3D0F3D" stroke-width="0.8" stroke-linecap="round" stroke-linejoin="round" stroke-miterlimit="10" d="
				M25.316-23.411c0.01-0.023,0.02-0.044,0.031-0.065"/>
			
				<path clip-path="url(#SVGID_2_)" fill="none" stroke="#3D0F3D" stroke-width="0.8" stroke-linecap="round" stroke-linejoin="round" stroke-miterlimit="10" d="
				M25.52-25.501c0.004-0.047,0.026-0.084,0.064-0.096"/>
			
				<path clip-path="url(#SVGID_2_)" fill="none" stroke="#3D0F3D" stroke-width="0.8" stroke-linecap="round" stroke-linejoin="round" stroke-miterlimit="10" d="
				M27.779-25.438c0.004-0.048,0.027-0.085,0.064-0.096"/>
			
				<path clip-path="url(#SVGID_2_)" fill="none" stroke="#3D0F3D" stroke-width="0.8" stroke-linecap="round" stroke-linejoin="round" stroke-miterlimit="10" d="
				M27.518-23.796c0.037-0.032,0.08-0.054,0.128-0.062"/>
			
				<path clip-path="url(#SVGID_2_)" fill="none" stroke="#3D0F3D" stroke-width="0.8" stroke-linecap="round" stroke-linejoin="round" stroke-miterlimit="10" d="
				M1.158-17.465c0.003-0.046,0.026-0.085,0.062-0.096"/>
			
				<path clip-path="url(#SVGID_2_)" fill="none" stroke="#3D0F3D" stroke-width="0.8" stroke-linecap="round" stroke-linejoin="round" stroke-miterlimit="10" d="
				M22.02-0.827c-0.039-0.043-0.067-0.1-0.079-0.158"/>
			
				<path clip-path="url(#SVGID_2_)" fill="none" stroke="#3D0F3D" stroke-width="0.8" stroke-linecap="round" stroke-linejoin="round" stroke-miterlimit="10" d="
				M0.407-7.136c-0.018-0.073-0.002-0.14,0.048-0.193"/>
			
				<path clip-path="url(#SVGID_2_)" fill="none" stroke="#3D0F3D" stroke-width="0.8" stroke-linecap="round" stroke-linejoin="round" stroke-miterlimit="10" d="
				M0.445-25.438c0.004-0.048,0.027-0.085,0.064-0.096"/>
			
				<path clip-path="url(#SVGID_2_)" fill="none" stroke="#3D0F3D" stroke-width="0.8" stroke-linecap="round" stroke-linejoin="round" stroke-miterlimit="10" d="
				M13.935-0.4c0.006-0.023,0.054-0.224,0.032-0.095"/>
		</g>
	</g>
</pattern>



<pattern id="SVGID_3_" xlink:href="#dots" patternTransform="matrix(2.5594 0 0 -2.5594 11027.9004 11407.8174)">
</pattern>

    <rect class="background" id="pattern" fill="url(#SVGID_3_)" width="460" height="460" />

</svg>