<svg version="1.1" id="Layer_1" xmlns="http://www.w3.org/2000/svg" xmlns:xlink="http://www.w3.org/1999/xlink" x="0px" y="0px" width="100%" height="100%" viewBox="0 0 1280 1280" enable-background="new 0 0 1280 1280" xml:space="preserve">

<pattern  width="27.334" height="25.918" patternUnits="userSpaceOnUse" id="bodky_x5F_nove_6" viewBox="0.833 -26.716 27.334 25.918" overflow="visible">
	<g>
		<polygon fill="none" points="0.833,-26.716 28.167,-26.716 28.167,-0.798 0.833,-0.798 		"/>
		<g>
			
				<path fill="none" stroke="#3E0F3D" stroke-width="0.8" stroke-linecap="round" stroke-linejoin="round" stroke-miterlimit="10" d="
				M1.912-0.559C1.873-0.513,1.844-0.457,1.833-0.4"/>
			
				<path fill="none" stroke="#3E0F3D" stroke-width="0.8" stroke-linecap="round" stroke-linejoin="round" stroke-miterlimit="10" d="
				M22.02-0.654c-0.039,0.043-0.068,0.1-0.079,0.158"/>
		</g>
		<g>
			
				<path fill="none" stroke="#3E0F3D" stroke-width="0.8" stroke-linecap="round" stroke-linejoin="round" stroke-miterlimit="10" d="
				M28.555-7.28c0,0.024,0,0.053,0,0.078"/>
			
				<path fill="none" stroke="#3E0F3D" stroke-width="0.8" stroke-linecap="round" stroke-linejoin="round" stroke-miterlimit="10" d="
				M28.492-9.934c0.003,0.046,0.026,0.085,0.062,0.096"/>
		</g>
		<g>
			
				<path fill="none" stroke="#3E0F3D" stroke-width="0.8" stroke-linecap="round" stroke-linejoin="round" stroke-miterlimit="10" d="
				M1.667-22.009c0.105,0.102,0.139,0.227,0.105,0.372"/>
			
				<path fill="none" stroke="#3E0F3D" stroke-width="0.8" stroke-linecap="round" stroke-linejoin="round" stroke-miterlimit="10" d="
				M3.369-23.127c0.018,0.06,0,0.097-0.053,0.105"/>
			
				<path fill="none" stroke="#3E0F3D" stroke-width="0.8" stroke-linecap="round" stroke-linejoin="round" stroke-miterlimit="10" d="
				M1.667-24.246c0,0.053,0,0.107,0,0.159"/>
			
				<path fill="none" stroke="#3E0F3D" stroke-width="0.8" stroke-linecap="round" stroke-linejoin="round" stroke-miterlimit="10" d="
				M27.317-25.825c0.003,0.027-0.01,0.041-0.039,0.038"/>
			
				<path fill="none" stroke="#3E0F3D" stroke-width="0.8" stroke-linecap="round" stroke-linejoin="round" stroke-miterlimit="10" d="
				M5.287-22.995c0.014,0.025,0.026,0.054,0.041,0.08"/>
			
				<path fill="none" stroke="#3E0F3D" stroke-width="0.8" stroke-linecap="round" stroke-linejoin="round" stroke-miterlimit="10" d="
				M3.607-25.159c0.058,0.081,0.055,0.141-0.042,0.161"/>
			
				<path fill="none" stroke="#3E0F3D" stroke-width="0.8" stroke-linecap="round" stroke-linejoin="round" stroke-miterlimit="10" d="
				M6.206-25.072c-0.021,0.061-0.012,0.107,0.039,0.121"/>
			
				<path fill="none" stroke="#3E0F3D" stroke-width="0.8" stroke-linecap="round" stroke-linejoin="round" stroke-miterlimit="10" d="
				M7.203-22.157c0,0.041,0,0.081,0,0.12"/>
			
				<path fill="none" stroke="#3E0F3D" stroke-width="0.8" stroke-linecap="round" stroke-linejoin="round" stroke-miterlimit="10" d="
				M4.207-20.958c-0.002,0.047-0.015,0.082-0.039,0.121"/>
			
				<path fill="none" stroke="#3E0F3D" stroke-width="0.8" stroke-linecap="round" stroke-linejoin="round" stroke-miterlimit="10" d="
				M6.006-19.719c0,0.023,0,0.191,0,0.118"/>
			
				<path fill="none" stroke="#3E0F3D" stroke-width="0.8" stroke-linecap="round" stroke-linejoin="round" stroke-miterlimit="10" d="
				M2.288-19.444c-0.006,0.067-0.033,0.119-0.08,0.158"/>
			
				<path fill="none" stroke="#3E0F3D" stroke-width="0.8" stroke-linecap="round" stroke-linejoin="round" stroke-miterlimit="10" d="
				M4.326-18.283c0,0.043,0,0.233,0,0.081"/>
			
				<path fill="none" stroke="#3E0F3D" stroke-width="0.8" stroke-linecap="round" stroke-linejoin="round" stroke-miterlimit="10" d="
				M2.603-17.032c0,0.056,0,0.107,0,0.161"/>
			
				<path fill="none" stroke="#3E0F3D" stroke-width="0.8" stroke-linecap="round" stroke-linejoin="round" stroke-miterlimit="10" d="
				M5.926-17.125c0,0.025,0,0.054,0,0.081"/>
			
				<path fill="none" stroke="#3E0F3D" stroke-width="0.8" stroke-linecap="round" stroke-linejoin="round" stroke-miterlimit="10" d="
				M4.166-15.436c0,0.039,0,0.079,0,0.119"/>
			
				<path fill="none" stroke="#3E0F3D" stroke-width="0.8" stroke-linecap="round" stroke-linejoin="round" stroke-miterlimit="10" d="
				M1.285-14.798c0.019,0.056,0.019,0.103,0,0.159"/>
			
				<path fill="none" stroke="#3E0F3D" stroke-width="0.8" stroke-linecap="round" stroke-linejoin="round" stroke-miterlimit="10" d="
				M3.49-13.61c0.002,0.003,0.078,0.188,0.041,0.119"/>
			
				<path fill="none" stroke="#3E0F3D" stroke-width="0.8" stroke-linecap="round" stroke-linejoin="round" stroke-miterlimit="10" d="
				M1.932-11.733c-0.02,0.062-0.038,0.143-0.081,0.081"/>
			
				<path fill="none" stroke="#3E0F3D" stroke-width="0.8" stroke-linecap="round" stroke-linejoin="round" stroke-miterlimit="10" d="
				M3.809-10.934c-0.024,0.036-0.036,0.076-0.039,0.118"/>
			
				<path fill="none" stroke="#3E0F3D" stroke-width="0.8" stroke-linecap="round" stroke-linejoin="round" stroke-miterlimit="10" d="
				M6.245-14.568c0.028,0.027,0.053,0.052,0.08,0.078"/>
			
				<path fill="none" stroke="#3E0F3D" stroke-width="0.8" stroke-linecap="round" stroke-linejoin="round" stroke-miterlimit="10" d="
				M5.406-12.092c0,0.04,0,0.079,0,0.118"/>
			
				<path fill="none" stroke="#3E0F3D" stroke-width="0.8" stroke-linecap="round" stroke-linejoin="round" stroke-miterlimit="10" d="
				M2.791-8.89c0,0.026,0,0.053,0,0.079"/>
			
				<path fill="none" stroke="#3E0F3D" stroke-width="0.8" stroke-linecap="round" stroke-linejoin="round" stroke-miterlimit="10" d="
				M1.221-7.28c0,0.024,0,0.053,0,0.078"/>
			
				<path fill="none" stroke="#3E0F3D" stroke-width="0.8" stroke-linecap="round" stroke-linejoin="round" stroke-miterlimit="10" d="
				M3.011-6.701c0.023,0.037,0.036,0.076,0.04,0.119"/>
			
				<path fill="none" stroke="#3E0F3D" stroke-width="0.8" stroke-linecap="round" stroke-linejoin="round" stroke-miterlimit="10" d="
				M4.705-7.955c-0.009,0.016-0.077,0.136-0.04,0.081"/>
			
				<path fill="none" stroke="#3E0F3D" stroke-width="0.8" stroke-linecap="round" stroke-linejoin="round" stroke-miterlimit="10" d="
				M5.807-9.778C5.833-9.75,5.859-9.723,5.884-9.697"/>
			
				<path fill="none" stroke="#3E0F3D" stroke-width="0.8" stroke-linecap="round" stroke-linejoin="round" stroke-miterlimit="10" d="
				M5.926-5.903c0.014,0.045,0,0.072-0.042,0.081"/>
			
				<path fill="none" stroke="#3E0F3D" stroke-width="0.8" stroke-linecap="round" stroke-linejoin="round" stroke-miterlimit="10" d="
				M6.804-7.621c0,0.042,0,0.081,0,0.119"/>
			
				<path fill="none" stroke="#3E0F3D" stroke-width="0.8" stroke-linecap="round" stroke-linejoin="round" stroke-miterlimit="10" d="
				M7.963-9.458c0,0.041,0,0.08,0,0.119"/>
			
				<path fill="none" stroke="#3E0F3D" stroke-width="0.8" stroke-linecap="round" stroke-linejoin="round" stroke-miterlimit="10" d="
				M7.603-11.413c-0.026,0.018-0.04,0.046-0.04,0.078"/>
			
				<path fill="none" stroke="#3E0F3D" stroke-width="0.8" stroke-linecap="round" stroke-linejoin="round" stroke-miterlimit="10" d="
				M8-13.61c0.002,0.033-0.012,0.059-0.038,0.08"/>
			
				<path fill="none" stroke="#3E0F3D" stroke-width="0.8" stroke-linecap="round" stroke-linejoin="round" stroke-miterlimit="10" d="
				M8.122-5.464c0.012,0.041,0.026,0.081,0.04,0.12"/>
			
				<path fill="none" stroke="#3E0F3D" stroke-width="0.8" stroke-linecap="round" stroke-linejoin="round" stroke-miterlimit="10" d="
				M8.918-7.66C8.944-7.624,8.958-7.583,8.96-7.54"/>
			
				<path fill="none" stroke="#3E0F3D" stroke-width="0.8" stroke-linecap="round" stroke-linejoin="round" stroke-miterlimit="10" d="
				M10.356-6.343c0.017,0.064,0.032,0.077,0.042,0.042"/>
			
				<path fill="none" stroke="#3E0F3D" stroke-width="0.8" stroke-linecap="round" stroke-linejoin="round" stroke-miterlimit="10" d="
				M10.518-9.018c0,0.025,0,0.054,0,0.081"/>
			
				<path fill="none" stroke="#3E0F3D" stroke-width="0.8" stroke-linecap="round" stroke-linejoin="round" stroke-miterlimit="10" d="
				M9.759-10.816c-0.046,0.041-0.105,0.081-0.08,0.081"/>
			
				<path fill="none" stroke="#3E0F3D" stroke-width="0.8" stroke-linecap="round" stroke-linejoin="round" stroke-miterlimit="10" d="
				M11.836-11.055c0,0.026,0,0.055,0,0.081"/>
			
				<path fill="none" stroke="#3E0F3D" stroke-width="0.8" stroke-linecap="round" stroke-linejoin="round" stroke-miterlimit="10" d="
				M10.158-13.052c0.014,0.027,0.026,0.055,0.041,0.081"/>
			
				<path fill="none" stroke="#3E0F3D" stroke-width="0.8" stroke-linecap="round" stroke-linejoin="round" stroke-miterlimit="10" d="
				M12.115-13.411c-0.023,0.036-0.039,0.074-0.04,0.12"/>
			
				<path fill="none" stroke="#3E0F3D" stroke-width="0.8" stroke-linecap="round" stroke-linejoin="round" stroke-miterlimit="10" d="
				M7.603-15.807c0,0.027,0,0.055,0,0.078"/>
			
				<path fill="none" stroke="#3E0F3D" stroke-width="0.8" stroke-linecap="round" stroke-linejoin="round" stroke-miterlimit="10" d="
				M11.597-16.086c0.031,0.047,0.046,0.105,0.04,0.16"/>
			
				<path fill="none" stroke="#3E0F3D" stroke-width="0.8" stroke-linecap="round" stroke-linejoin="round" stroke-miterlimit="10" d="
				M9.799-15.427c-0.021,0.017-0.051,0.037-0.038,0"/>
			
				<path fill="none" stroke="#3E0F3D" stroke-width="0.8" stroke-linecap="round" stroke-linejoin="round" stroke-miterlimit="10" d="
				M9.878-17.924c0.02,0.061,0.012,0.107-0.04,0.121"/>
			
				<path fill="none" stroke="#3E0F3D" stroke-width="0.8" stroke-linecap="round" stroke-linejoin="round" stroke-miterlimit="10" d="
				M7.682-18.163c-0.006,0.056-0.034,0.104-0.08,0.119"/>
			
				<path fill="none" stroke="#3E0F3D" stroke-width="0.8" stroke-linecap="round" stroke-linejoin="round" stroke-miterlimit="10" d="
				M9.081-20.039C9.077-19.983,9.051-19.937,9-19.919"/>
			
				<path fill="none" stroke="#3E0F3D" stroke-width="0.8" stroke-linecap="round" stroke-linejoin="round" stroke-miterlimit="10" d="
				M8.361-23.713c0.011,0.046,0.037,0.072,0.08,0.079"/>
			
				<path fill="none" stroke="#3E0F3D" stroke-width="0.8" stroke-linecap="round" stroke-linejoin="round" stroke-miterlimit="10" d="
				M11.435-18.8c0,0.025,0,0.053,0,0.078"/>
			
				<path fill="none" stroke="#3E0F3D" stroke-width="0.8" stroke-linecap="round" stroke-linejoin="round" stroke-miterlimit="10" d="
				M9.878-22.076c0.014,0.045,0,0.072-0.04,0.08"/>
			
				<path fill="none" stroke="#3E0F3D" stroke-width="0.8" stroke-linecap="round" stroke-linejoin="round" stroke-miterlimit="10" d="
				M13.368-22.369c0.104,0.102,0.137,0.226,0.104,0.373"/>
			
				<path fill="none" stroke="#3E0F3D" stroke-width="0.8" stroke-linecap="round" stroke-linejoin="round" stroke-miterlimit="10" d="
				M15.07-23.487c0.016,0.06,0,0.096-0.053,0.105"/>
			
				<path fill="none" stroke="#3E0F3D" stroke-width="0.8" stroke-linecap="round" stroke-linejoin="round" stroke-miterlimit="10" d="
				M13.368-24.605c0,0.054,0,0.106,0,0.16"/>
			
				<path fill="none" stroke="#3E0F3D" stroke-width="0.8" stroke-linecap="round" stroke-linejoin="round" stroke-miterlimit="10" d="
				M11.958-26.037c0.003,0.03-0.01,0.043-0.04,0.039"/>
			
				<path fill="none" stroke="#3E0F3D" stroke-width="0.8" stroke-linecap="round" stroke-linejoin="round" stroke-miterlimit="10" d="
				M16.846-23.133c0.014,0.026,0.026,0.051,0.041,0.078"/>
			
				<path fill="none" stroke="#3E0F3D" stroke-width="0.8" stroke-linecap="round" stroke-linejoin="round" stroke-miterlimit="10" d="
				M17.317-25.912c0.013,0.026,0.026,0.052,0.04,0.077"/>
			
				<path fill="none" stroke="#3E0F3D" stroke-width="0.8" stroke-linecap="round" stroke-linejoin="round" stroke-miterlimit="10" d="
				M15.35-25.191c0.06,0.081,0.053,0.142-0.04,0.159"/>
			
				<path fill="none" stroke="#3E0F3D" stroke-width="0.8" stroke-linecap="round" stroke-linejoin="round" stroke-miterlimit="10" d="
				M8.128-25.849c-0.022,0.06-0.013,0.108,0.038,0.122"/>
			
				<path fill="none" stroke="#3E0F3D" stroke-width="0.8" stroke-linecap="round" stroke-linejoin="round" stroke-miterlimit="10" d="
				M18.911-22.044c0,0.039,0,0.08,0,0.119"/>
			
				<path fill="none" stroke="#3E0F3D" stroke-width="0.8" stroke-linecap="round" stroke-linejoin="round" stroke-miterlimit="10" d="
				M15.909-21.319c-0.004,0.046-0.017,0.083-0.04,0.12"/>
			
				<path fill="none" stroke="#3E0F3D" stroke-width="0.8" stroke-linecap="round" stroke-linejoin="round" stroke-miterlimit="10" d="
				M17.705-20.081c0,0.025,0,0.194,0,0.121"/>
			
				<path fill="none" stroke="#3E0F3D" stroke-width="0.8" stroke-linecap="round" stroke-linejoin="round" stroke-miterlimit="10" d="
				M14.271-19.679c-0.007,0.069-0.034,0.119-0.08,0.159"/>
			
				<path fill="none" stroke="#3E0F3D" stroke-width="0.8" stroke-linecap="round" stroke-linejoin="round" stroke-miterlimit="10" d="
				M16.028-18.641c0,0.042,0,0.232,0,0.078"/>
			
				<path fill="none" stroke="#3E0F3D" stroke-width="0.8" stroke-linecap="round" stroke-linejoin="round" stroke-miterlimit="10" d="
				M14.671-17.324c0,0.053,0,0.105,0,0.158"/>
			
				<path fill="none" stroke="#3E0F3D" stroke-width="0.8" stroke-linecap="round" stroke-linejoin="round" stroke-miterlimit="10" d="
				M17.626-17.483c0,0.027,0,0.052,0,0.078"/>
			
				<path fill="none" stroke="#3E0F3D" stroke-width="0.8" stroke-linecap="round" stroke-linejoin="round" stroke-miterlimit="10" d="
				M16.309-15.886c0,0.04,0,0.079,0,0.12"/>
			
				<path fill="none" stroke="#3E0F3D" stroke-width="0.8" stroke-linecap="round" stroke-linejoin="round" stroke-miterlimit="10" d="
				M13.593-15.167c0.02,0.057,0.017,0.103,0,0.159"/>
			
				<path fill="none" stroke="#3E0F3D" stroke-width="0.8" stroke-linecap="round" stroke-linejoin="round" stroke-miterlimit="10" d="
				M15.19-13.97c0.002,0.006,0.077,0.189,0.038,0.119"/>
			
				<path fill="none" stroke="#3E0F3D" stroke-width="0.8" stroke-linecap="round" stroke-linejoin="round" stroke-miterlimit="10" d="
				M13.633-12.092c-0.021,0.062-0.038,0.142-0.08,0.079"/>
			
				<path fill="none" stroke="#3E0F3D" stroke-width="0.8" stroke-linecap="round" stroke-linejoin="round" stroke-miterlimit="10" d="
				M15.51-11.295c-0.025,0.039-0.038,0.077-0.039,0.121"/>
			
				<path fill="none" stroke="#3E0F3D" stroke-width="0.8" stroke-linecap="round" stroke-linejoin="round" stroke-miterlimit="10" d="
				M17.944-14.928c0.026,0.026,0.055,0.054,0.081,0.079"/>
			
				<path fill="none" stroke="#3E0F3D" stroke-width="0.8" stroke-linecap="round" stroke-linejoin="round" stroke-miterlimit="10" d="
				M17.231-12.847c0,0.039,0,0.081,0,0.12"/>
			
				<path fill="none" stroke="#3E0F3D" stroke-width="0.8" stroke-linecap="round" stroke-linejoin="round" stroke-miterlimit="10" d="
				M14.31-9.297c0,0.025,0,0.053,0,0.081"/>
			
				<path fill="none" stroke="#3E0F3D" stroke-width="0.8" stroke-linecap="round" stroke-linejoin="round" stroke-miterlimit="10" d="
				M14.711-7.061c0.023,0.036,0.037,0.076,0.04,0.12"/>
			
				<path fill="none" stroke="#3E0F3D" stroke-width="0.8" stroke-linecap="round" stroke-linejoin="round" stroke-miterlimit="10" d="
				M16.228-8.579c-0.008,0.015-0.076,0.134-0.038,0.08"/>
			
				<path fill="none" stroke="#3E0F3D" stroke-width="0.8" stroke-linecap="round" stroke-linejoin="round" stroke-miterlimit="10" d="
				M17.506-10.135c0.027,0.025,0.054,0.054,0.08,0.079"/>
			
				<path fill="none" stroke="#3E0F3D" stroke-width="0.8" stroke-linecap="round" stroke-linejoin="round" stroke-miterlimit="10" d="
				M17.626-6.262c0.013,0.046,0,0.072-0.04,0.08"/>
			
				<path fill="none" stroke="#3E0F3D" stroke-width="0.8" stroke-linecap="round" stroke-linejoin="round" stroke-miterlimit="10" d="
				M18.505-7.98c0,0.04,0,0.08,0,0.121"/>
			
				<path fill="none" stroke="#3E0F3D" stroke-width="0.8" stroke-linecap="round" stroke-linejoin="round" stroke-miterlimit="10" d="
				M19.662-9.816c0,0.038,0,0.079,0,0.119"/>
			
				<path fill="none" stroke="#3E0F3D" stroke-width="0.8" stroke-linecap="round" stroke-linejoin="round" stroke-miterlimit="10" d="
				M19.304-11.773c-0.028,0.02-0.042,0.047-0.04,0.079"/>
			
				<path fill="none" stroke="#3E0F3D" stroke-width="0.8" stroke-linecap="round" stroke-linejoin="round" stroke-miterlimit="10" d="
				M19.702-13.97c0,0.032-0.012,0.06-0.04,0.081"/>
			
				<path fill="none" stroke="#3E0F3D" stroke-width="0.8" stroke-linecap="round" stroke-linejoin="round" stroke-miterlimit="10" d="
				M19.822-5.822c0.014,0.039,0.027,0.079,0.041,0.117"/>
			
				<path fill="none" stroke="#3E0F3D" stroke-width="0.8" stroke-linecap="round" stroke-linejoin="round" stroke-miterlimit="10" d="
				M20.619-8.019c0.026,0.036,0.04,0.077,0.042,0.119"/>
			
				<path fill="none" stroke="#3E0F3D" stroke-width="0.8" stroke-linecap="round" stroke-linejoin="round" stroke-miterlimit="10" d="
				M22.059-6.701c0.017,0.062,0.028,0.076,0.04,0.038"/>
			
				<path fill="none" stroke="#3E0F3D" stroke-width="0.8" stroke-linecap="round" stroke-linejoin="round" stroke-miterlimit="10" d="
				M22.22-9.377c0,0.026,0,0.053,0,0.08"/>
			
				<path fill="none" stroke="#3E0F3D" stroke-width="0.8" stroke-linecap="round" stroke-linejoin="round" stroke-miterlimit="10" d="
				M21.46-11.174c-0.047,0.038-0.104,0.081-0.081,0.079"/>
			
				<path fill="none" stroke="#3E0F3D" stroke-width="0.8" stroke-linecap="round" stroke-linejoin="round" stroke-miterlimit="10" d="
				M23.536-11.413c0,0.025,0,0.051,0,0.078"/>
			
				<path fill="none" stroke="#3E0F3D" stroke-width="0.8" stroke-linecap="round" stroke-linejoin="round" stroke-miterlimit="10" d="
				M21.69-13.228c0.014,0.025,0.026,0.053,0.039,0.079"/>
			
				<path fill="none" stroke="#3E0F3D" stroke-width="0.8" stroke-linecap="round" stroke-linejoin="round" stroke-miterlimit="10" d="
				M23.816-13.77c-0.024,0.036-0.037,0.077-0.04,0.12"/>
			
				<path fill="none" stroke="#3E0F3D" stroke-width="0.8" stroke-linecap="round" stroke-linejoin="round" stroke-miterlimit="10" d="
				M19.304-16.166c0,0.026,0,0.053,0,0.079"/>
			
				<path fill="none" stroke="#3E0F3D" stroke-width="0.8" stroke-linecap="round" stroke-linejoin="round" stroke-miterlimit="10" d="
				M23.297-16.445c0.033,0.046,0.046,0.103,0.04,0.158"/>
			
				<path fill="none" stroke="#3E0F3D" stroke-width="0.8" stroke-linecap="round" stroke-linejoin="round" stroke-miterlimit="10" d="
				M21.699-15.208c-0.021,0.017-0.051,0.035-0.04,0"/>
			
				<path fill="none" stroke="#3E0F3D" stroke-width="0.8" stroke-linecap="round" stroke-linejoin="round" stroke-miterlimit="10" d="
				M21.312-17.687c0.02,0.06,0.012,0.106-0.039,0.12"/>
			
				<path fill="none" stroke="#3E0F3D" stroke-width="0.8" stroke-linecap="round" stroke-linejoin="round" stroke-miterlimit="10" d="
				M19.384-18.522c-0.006,0.057-0.034,0.105-0.08,0.12"/>
			
				<path fill="none" stroke="#3E0F3D" stroke-width="0.8" stroke-linecap="round" stroke-linejoin="round" stroke-miterlimit="10" d="
				M20.781-20.4c-0.002,0.059-0.03,0.104-0.08,0.119"/>
			
				<path fill="none" stroke="#3E0F3D" stroke-width="0.8" stroke-linecap="round" stroke-linejoin="round" stroke-miterlimit="10" d="
				M20.148-23.748c0.011,0.046,0.038,0.074,0.082,0.08"/>
			
				<path fill="none" stroke="#3E0F3D" stroke-width="0.8" stroke-linecap="round" stroke-linejoin="round" stroke-miterlimit="10" d="
				M22.757-19.256c0,0.027,0,0.053,0,0.078"/>
			
				<path fill="none" stroke="#3E0F3D" stroke-width="0.8" stroke-linecap="round" stroke-linejoin="round" stroke-miterlimit="10" d="
				M21.58-22.435c0.013,0.045,0,0.071-0.039,0.078"/>
			
				<path fill="none" stroke="#3E0F3D" stroke-width="0.8" stroke-linecap="round" stroke-linejoin="round" stroke-miterlimit="10" d="
				M12.955-17.526c0.038,0.043,0.038,0.07,0,0.082"/>
			
				<path fill="none" stroke="#3E0F3D" stroke-width="0.8" stroke-linecap="round" stroke-linejoin="round" stroke-miterlimit="10" d="
				M11.756-20.759c0,0.027,0,0.054,0,0.081"/>
			
				<path fill="none" stroke="#3E0F3D" stroke-width="0.8" stroke-linecap="round" stroke-linejoin="round" stroke-miterlimit="10" d="
				M11.397-23.156c0,0.028,0,0.055,0,0.081"/>
			
				<path fill="none" stroke="#3E0F3D" stroke-width="0.8" stroke-linecap="round" stroke-linejoin="round" stroke-miterlimit="10" d="
				M10.356-24.992c-0.024,0.02-0.039,0.047-0.038,0.081"/>
			
				<path fill="none" stroke="#3E0F3D" stroke-width="0.8" stroke-linecap="round" stroke-linejoin="round" stroke-miterlimit="10" d="
				M22.577-24.233c0,0.024,0,0.053,0,0.08"/>
			
				<path fill="none" stroke="#3E0F3D" stroke-width="0.8" stroke-linecap="round" stroke-linejoin="round" stroke-miterlimit="10" d="
				M20.277-25.881c-0.04,0.046-0.068,0.103-0.079,0.161"/>
			
				<path fill="none" stroke="#3E0F3D" stroke-width="0.8" stroke-linecap="round" stroke-linejoin="round" stroke-miterlimit="10" d="
				M1.912-26.477c-0.04,0.046-0.068,0.103-0.08,0.159"/>
			
				<path fill="none" stroke="#3E0F3D" stroke-width="0.8" stroke-linecap="round" stroke-linejoin="round" stroke-miterlimit="10" d="
				M23.297-21.756c0.068-0.009,0.095,0.018,0.08,0.08"/>
			
				<path fill="none" stroke="#3E0F3D" stroke-width="0.8" stroke-linecap="round" stroke-linejoin="round" stroke-miterlimit="10" d="
				M12.475-8.937c0.017,0.06,0.003,0.116-0.041,0.158"/>
			
				<path fill="none" stroke="#3E0F3D" stroke-width="0.8" stroke-linecap="round" stroke-linejoin="round" stroke-miterlimit="10" d="
				M12.554-6.742c-0.026,0-0.053,0-0.079,0"/>
			
				<path fill="none" stroke="#3E0F3D" stroke-width="0.8" stroke-linecap="round" stroke-linejoin="round" stroke-miterlimit="10" d="
				M15.749-5.265c0,0.027,0,0.055,0,0.08"/>
			
				<path fill="none" stroke="#3E0F3D" stroke-width="0.8" stroke-linecap="round" stroke-linejoin="round" stroke-miterlimit="10" d="
				M12.993-5.304c0.037,0.062,0.05,0.13,0.04,0.2"/>
			
				<path fill="none" stroke="#3E0F3D" stroke-width="0.8" stroke-linecap="round" stroke-linejoin="round" stroke-miterlimit="10" d="
				M18.299-24.423c0.039,0.059,0.055,0.125,0.048,0.19"/>
			
				<path fill="none" stroke="#3E0F3D" stroke-width="0.8" stroke-linecap="round" stroke-linejoin="round" stroke-miterlimit="10" d="
				M24.822-25.576c-0.029,0.043-0.045,0.092-0.05,0.145"/>
			
				<path fill="none" stroke="#3E0F3D" stroke-width="0.8" stroke-linecap="round" stroke-linejoin="round" stroke-miterlimit="10" d="
				M24.869-22.991c-0.029,0.044-0.044,0.091-0.047,0.144"/>
			
				<path fill="none" stroke="#3E0F3D" stroke-width="0.8" stroke-linecap="round" stroke-linejoin="round" stroke-miterlimit="10" d="
				M26.593-22.129c0,0.049,0,0.097,0,0.145"/>
			
				<path fill="none" stroke="#3E0F3D" stroke-width="0.8" stroke-linecap="round" stroke-linejoin="round" stroke-miterlimit="10" d="
				M27.151-23.903c0,0.074,0,0.091,0,0.049"/>
			
				<path fill="none" stroke="#3E0F3D" stroke-width="0.8" stroke-linecap="round" stroke-linejoin="round" stroke-miterlimit="10" d="
				M24.718-20.042c0.015,0.032,0.031,0.063,0.047,0.095"/>
			
				<path fill="none" stroke="#3E0F3D" stroke-width="0.8" stroke-linecap="round" stroke-linejoin="round" stroke-miterlimit="10" d="
				M24.822-17.533c0.043,0.069,0.043,0.085,0,0.049"/>
			
				<path fill="none" stroke="#3E0F3D" stroke-width="0.8" stroke-linecap="round" stroke-linejoin="round" stroke-miterlimit="10" d="
				M26.449-18.778c-0.017,0.031-0.033,0.063-0.048,0.096"/>
			
				<path fill="none" stroke="#3E0F3D" stroke-width="0.8" stroke-linecap="round" stroke-linejoin="round" stroke-miterlimit="10" d="
				M27.646-16.864c0.016,0.032,0.031,0.063,0.048,0.096"/>
			
				<path fill="none" stroke="#3E0F3D" stroke-width="0.8" stroke-linecap="round" stroke-linejoin="round" stroke-miterlimit="10" d="
				M27.741-20.263c-0.018,0.073-0.002,0.14,0.048,0.193"/>
			
				<path fill="none" stroke="#3E0F3D" stroke-width="0.8" stroke-linecap="round" stroke-linejoin="round" stroke-miterlimit="10" d="
				M25.539-15.332c-0.048,0.033-0.097,0.065-0.144,0.097"/>
			
				<path fill="none" stroke="#3E0F3D" stroke-width="0.8" stroke-linecap="round" stroke-linejoin="round" stroke-miterlimit="10" d="
				M25.316-12.506c0.018,0.028,0.027,0.061,0.031,0.095"/>
			
				<path fill="none" stroke="#3E0F3D" stroke-width="0.8" stroke-linecap="round" stroke-linejoin="round" stroke-miterlimit="10" d="
				M27.151-11.284c0.033,0.048,0.044,0.104,0.033,0.161"/>
			
				<path fill="none" stroke="#3E0F3D" stroke-width="0.8" stroke-linecap="round" stroke-linejoin="round" stroke-miterlimit="10" d="
				M26.976-13.943c0,0.029,0,0.063,0,0.095"/>
			
				<path fill="none" stroke="#3E0F3D" stroke-width="0.8" stroke-linecap="round" stroke-linejoin="round" stroke-miterlimit="10" d="
				M23.752-8.007c0,0.031,0,0.063,0,0.095"/>
			
				<path fill="none" stroke="#3E0F3D" stroke-width="0.8" stroke-linecap="round" stroke-linejoin="round" stroke-miterlimit="10" d="
				M25.283-10.018c-0.01,0.031-0.021,0.063-0.031,0.096"/>
			
				<path fill="none" stroke="#3E0F3D" stroke-width="0.8" stroke-linecap="round" stroke-linejoin="round" stroke-miterlimit="10" d="
				M25.411-7.146c0.011,0.021,0.021,0.042,0.031,0.064"/>
			
				<path fill="none" stroke="#3E0F3D" stroke-width="0.8" stroke-linecap="round" stroke-linejoin="round" stroke-miterlimit="10" d="
				M27.038-8.614c0,0.032,0,0.063,0,0.096"/>
			
				<path fill="none" stroke="#3E0F3D" stroke-width="0.8" stroke-linecap="round" stroke-linejoin="round" stroke-miterlimit="10" d="
				M26.912-5.71c0,0.022,0,0.043,0,0.063"/>
			
				<path fill="none" stroke="#3E0F3D" stroke-width="0.8" stroke-linecap="round" stroke-linejoin="round" stroke-miterlimit="10" d="
				M1.956-4.721c0.014,0.05,0.001,0.095-0.033,0.128"/>
			
				<path fill="none" stroke="#3E0F3D" stroke-width="0.8" stroke-linecap="round" stroke-linejoin="round" stroke-miterlimit="10" d="
				M3.775-4.914c0.04,0.041,0.051,0.076,0,0.097"/>
			
				<path fill="none" stroke="#3E0F3D" stroke-width="0.8" stroke-linecap="round" stroke-linejoin="round" stroke-miterlimit="10" d="
				M2.415-2.744c0,0.032,0,0.064,0,0.096"/>
			
				<path fill="none" stroke="#3E0F3D" stroke-width="0.8" stroke-linecap="round" stroke-linejoin="round" stroke-miterlimit="10" d="
				M3.984-1.521c0,0.032,0,0.065,0,0.096"/>
			
				<path fill="none" stroke="#3E0F3D" stroke-width="0.8" stroke-linecap="round" stroke-linejoin="round" stroke-miterlimit="10" d="
				M6.118-1.269c0.01,0.029,0.031,0.1,0,0.032"/>
			
				<path fill="none" stroke="#3E0F3D" stroke-width="0.8" stroke-linecap="round" stroke-linejoin="round" stroke-miterlimit="10" d="
				M5.085-3.405C5.079-3.338,5.048-3.299,4.988-3.309"/>
			
				<path fill="none" stroke="#3E0F3D" stroke-width="0.8" stroke-linecap="round" stroke-linejoin="round" stroke-miterlimit="10" d="
				M7.222-3.252c0,0.021,0,0.042,0,0.062"/>
			
				<path fill="none" stroke="#3E0F3D" stroke-width="0.8" stroke-linecap="round" stroke-linejoin="round" stroke-miterlimit="10" d="
				M8.881-1.721c0,0.032,0,0.063,0,0.096"/>
			
				<path fill="none" stroke="#3E0F3D" stroke-width="0.8" stroke-linecap="round" stroke-linejoin="round" stroke-miterlimit="10" d="
				M9.743-3.922c0.039,0.054,0.043,0.11,0,0.158"/>
			
				<path fill="none" stroke="#3E0F3D" stroke-width="0.8" stroke-linecap="round" stroke-linejoin="round" stroke-miterlimit="10" d="
				M11.562-1.975c-0.009-0.021,0.039,0.14,0.031,0.062"/>
			
				<path fill="none" stroke="#3E0F3D" stroke-width="0.8" stroke-linecap="round" stroke-linejoin="round" stroke-miterlimit="10" d="
				M11.4-4.242c0,0.042,0,0.084,0,0.127"/>
			
				<path fill="none" stroke="#3E0F3D" stroke-width="0.8" stroke-linecap="round" stroke-linejoin="round" stroke-miterlimit="10" d="
				M13.508-2.837c-0.02,0.028-0.031,0.061-0.032,0.095"/>
			
				<path fill="none" stroke="#3E0F3D" stroke-width="0.8" stroke-linecap="round" stroke-linejoin="round" stroke-miterlimit="10" d="
				M13.935-1.081c0.006,0.024,0.054,0.224,0.032,0.095"/>
			
				<path fill="none" stroke="#3E0F3D" stroke-width="0.8" stroke-linecap="round" stroke-linejoin="round" stroke-miterlimit="10" d="
				M15.422-2.964c0,0.031,0,0.063,0,0.096"/>
			
				<path fill="none" stroke="#3E0F3D" stroke-width="0.8" stroke-linecap="round" stroke-linejoin="round" stroke-miterlimit="10" d="
				M17.338-3.891c-0.007,0.044-0.008,0.127-0.032,0.096"/>
			
				<path fill="none" stroke="#3E0F3D" stroke-width="0.8" stroke-linecap="round" stroke-linejoin="round" stroke-miterlimit="10" d="
				M18.269-1.74c-0.028,0.042-0.077,0.071-0.095,0.063"/>
			
				<path fill="none" stroke="#3E0F3D" stroke-width="0.8" stroke-linecap="round" stroke-linejoin="round" stroke-miterlimit="10" d="
				M16.386-1.425c-0.03,0.042-0.078,0.072-0.096,0.063"/>
			
				<path fill="none" stroke="#3E0F3D" stroke-width="0.8" stroke-linecap="round" stroke-linejoin="round" stroke-miterlimit="10" d="
				M19.987-2.103c0,0.02,0,0.042,0,0.063"/>
			
				<path fill="none" stroke="#3E0F3D" stroke-width="0.8" stroke-linecap="round" stroke-linejoin="round" stroke-miterlimit="10" d="
				M19.507-3.859c-0.012,0.032-0.033,0.054-0.062,0.063"/>
			
				<path fill="none" stroke="#3E0F3D" stroke-width="0.8" stroke-linecap="round" stroke-linejoin="round" stroke-miterlimit="10" d="
				M21.678-2.807c0.001,0.036,0.001,0.069,0,0.104c-0.007,0.043,0.032-0.04,0.032-0.04"/>
			
				<path fill="none" stroke="#3E0F3D" stroke-width="0.8" stroke-linecap="round" stroke-linejoin="round" stroke-miterlimit="10" d="
				M21.71-4.848c-0.011,0.011-0.022,0.021-0.032,0.031"/>
			
				<path fill="none" stroke="#3E0F3D" stroke-width="0.8" stroke-linecap="round" stroke-linejoin="round" stroke-miterlimit="10" d="
				M23.56-1.849c0.029,0.025,0.041,0.06,0.032,0.096"/>
			
				<path fill="none" stroke="#3E0F3D" stroke-width="0.8" stroke-linecap="round" stroke-linejoin="round" stroke-miterlimit="10" d="
				M23.655-4.242c0.015,0.049,0.005,0.092-0.031,0.127"/>
			
				<path fill="none" stroke="#3E0F3D" stroke-width="0.8" stroke-linecap="round" stroke-linejoin="round" stroke-miterlimit="10" d="
				M23.976-6.061c-0.037,0.031-0.081,0.052-0.128,0.063"/>
			
				<path fill="none" stroke="#3E0F3D" stroke-width="0.8" stroke-linecap="round" stroke-linejoin="round" stroke-miterlimit="10" d="
				M25.316-3.988c0.01,0.023,0.021,0.044,0.031,0.065"/>
			
				<path fill="none" stroke="#3E0F3D" stroke-width="0.8" stroke-linecap="round" stroke-linejoin="round" stroke-miterlimit="10" d="
				M25.52-1.898c0.004,0.047,0.026,0.084,0.063,0.096"/>
			
				<path fill="none" stroke="#3E0F3D" stroke-width="0.8" stroke-linecap="round" stroke-linejoin="round" stroke-miterlimit="10" d="
				M27.779-1.961c0.004,0.048,0.027,0.085,0.063,0.096"/>
			
				<path fill="none" stroke="#3E0F3D" stroke-width="0.8" stroke-linecap="round" stroke-linejoin="round" stroke-miterlimit="10" d="
				M27.518-3.603c0.037,0.032,0.08,0.054,0.128,0.062"/>
			
				<path fill="none" stroke="#3E0F3D" stroke-width="0.8" stroke-linecap="round" stroke-linejoin="round" stroke-miterlimit="10" d="
				M1.158-9.934c0.003,0.046,0.026,0.085,0.062,0.096"/>
			
				<path fill="none" stroke="#3E0F3D" stroke-width="0.8" stroke-linecap="round" stroke-linejoin="round" stroke-miterlimit="10" d="
				M22.02-26.572c-0.039,0.043-0.068,0.1-0.079,0.158"/>
		</g>
		<g>
			
				<path fill="none" stroke="#3E0F3D" stroke-width="0.8" stroke-linecap="round" stroke-linejoin="round" stroke-miterlimit="10" d="
				M0.407-20.263c-0.018,0.073-0.001,0.14,0.048,0.193"/>
			
				<path fill="none" stroke="#3E0F3D" stroke-width="0.8" stroke-linecap="round" stroke-linejoin="round" stroke-miterlimit="10" d="
				M0.445-1.961c0.004,0.048,0.027,0.085,0.064,0.096"/>
		</g>
		<g>
			
				<path fill="none" stroke="#3E0F3D" stroke-width="0.8" stroke-linecap="round" stroke-linejoin="round" stroke-miterlimit="10" d="
				M13.935-26.999c0.006,0.024,0.054,0.224,0.032,0.095"/>
		</g>
	</g>
</pattern>
<g id="XMLID_917_">
	<g>
		<pattern  id="SVGID_1_" xlink:href="#bodky_x5F_nove_6" patternTransform="matrix(2.5594 0 0 2.5594 11500.5664 10237.209)">
		</pattern>
		<rect x="-0.012" fill="url(#SVGID_1_)" width="1280" height="1280"/>
	</g>
	<g>
	</g>
</g>
</svg>
