<?xml version="1.0" encoding="utf-8"?>
<!-- Generator: Adobe Illustrator 16.0.0, SVG Export Plug-In . SVG Version: 6.00 Build 0)  -->
<!DOCTYPE svg PUBLIC "-//W3C//DTD SVG 1.1//EN" "http://www.w3.org/Graphics/SVG/1.1/DTD/svg11.dtd">
<svg version="1.1" id="Layer_1" xmlns="http://www.w3.org/2000/svg" xmlns:xlink="http://www.w3.org/1999/xlink" x="0px" y="0px"
	 width="80px" height="80px" viewBox="0 0 80 80" enable-background="new 0 0 80 80" xml:space="preserve">
<g>
	<path fill="none" stroke="#3E0F3D" stroke-width="1.6" stroke-linecap="round" stroke-linejoin="round" stroke-miterlimit="10" d="
		M1.022,78.533C0.908,78.668,0.823,78.832,0.791,79"/>
	<path fill="none" stroke="#3E0F3D" stroke-width="1.6" stroke-linecap="round" stroke-linejoin="round" stroke-miterlimit="10" d="
		M60.77,75.759c-0.121,0.119-0.217,0.28-0.258,0.447"/>
	<path fill="none" stroke="#3E0F3D" stroke-width="1.6" stroke-linecap="round" stroke-linejoin="round" stroke-miterlimit="10" d="
		M77.027,58.958c0,0.07,0,0.154,0,0.229"/>
	<path fill="none" stroke="#3E0F3D" stroke-width="1.6" stroke-linecap="round" stroke-linejoin="round" stroke-miterlimit="10" d="
		M77.647,52.557c0.009,0.135,0.076,0.248,0.182,0.281"/>
	<path fill="none" stroke="#3E0F3D" stroke-width="1.6" stroke-linecap="round" stroke-linejoin="round" stroke-miterlimit="10" d="
		M1.283,15.755c0.307,0.299,0.407,0.665,0.307,1.089"/>
	<path fill="none" stroke="#3E0F3D" stroke-width="1.6" stroke-linecap="round" stroke-linejoin="round" stroke-miterlimit="10" d="
		M5.287,12.483c0.053,0.176,0,0.284-0.155,0.307"/>
	<path fill="none" stroke="#3E0F3D" stroke-width="1.6" stroke-linecap="round" stroke-linejoin="round" stroke-miterlimit="10" d="
		M1,9.208c0,0.155,0,0.313,0,0.465"/>
	<path fill="none" stroke="#3E0F3D" stroke-width="1.6" stroke-linecap="round" stroke-linejoin="round" stroke-miterlimit="10" d="
		M75.377,4.586c0.008,0.079-0.029,0.12-0.115,0.111"/>
	<path fill="none" stroke="#3E0F3D" stroke-width="1.6" stroke-linecap="round" stroke-linejoin="round" stroke-miterlimit="10" d="
		M10.9,12.869c0.041,0.073,0.076,0.158,0.12,0.234"/>
	<path fill="none" stroke="#3E0F3D" stroke-width="1.6" stroke-linecap="round" stroke-linejoin="round" stroke-miterlimit="10" d="
		M5.983,6.536c0.17,0.237,0.161,0.413-0.123,0.471"/>
	<path fill="none" stroke="#3E0F3D" stroke-width="1.6" stroke-linecap="round" stroke-linejoin="round" stroke-miterlimit="10" d="
		M13.59,6.791c-0.062,0.178-0.035,0.313,0.114,0.354"/>
	<path fill="none" stroke="#3E0F3D" stroke-width="1.6" stroke-linecap="round" stroke-linejoin="round" stroke-miterlimit="10" d="
		M16.508,15.322c0,0.12,0,0.237,0,0.351"/>
	<path fill="none" stroke="#3E0F3D" stroke-width="1.6" stroke-linecap="round" stroke-linejoin="round" stroke-miterlimit="10" d="
		M7.739,18.831c-0.006,0.138-0.044,0.24-0.114,0.354"/>
	<path fill="none" stroke="#3E0F3D" stroke-width="1.6" stroke-linecap="round" stroke-linejoin="round" stroke-miterlimit="10" d="
		M13.004,22.457c0,0.067,0,0.559,0,0.346"/>
	<path fill="none" stroke="#3E0F3D" stroke-width="1.6" stroke-linecap="round" stroke-linejoin="round" stroke-miterlimit="10" d="
		M2.123,23.262c-0.018,0.196-0.096,0.348-0.234,0.462"/>
	<path fill="none" stroke="#3E0F3D" stroke-width="1.6" stroke-linecap="round" stroke-linejoin="round" stroke-miterlimit="10" d="
		M8.087,26.66c0,0.126,0,0.682,0,0.237"/>
	<path fill="none" stroke="#3E0F3D" stroke-width="1.6" stroke-linecap="round" stroke-linejoin="round" stroke-miterlimit="10" d="
		M3.044,30.321c0,0.164,0,0.313,0,0.471"/>
	<path fill="none" stroke="#3E0F3D" stroke-width="1.6" stroke-linecap="round" stroke-linejoin="round" stroke-miterlimit="10" d="
		M12.77,30.049c0,0.073,0,0.158,0,0.237"/>
	<path fill="none" stroke="#3E0F3D" stroke-width="1.6" stroke-linecap="round" stroke-linejoin="round" stroke-miterlimit="10" d="
		M7.619,34.993c0,0.114,0,0.231,0,0.348"/>
	<path fill="none" stroke="#3E0F3D" stroke-width="1.6" stroke-linecap="round" stroke-linejoin="round" stroke-miterlimit="10" d="
		M5.641,40.336c0.006,0.01,0.229,0.551,0.12,0.35"/>
	<path fill="none" stroke="#3E0F3D" stroke-width="1.6" stroke-linecap="round" stroke-linejoin="round" stroke-miterlimit="10" d="
		M1.081,45.83c-0.058,0.182-0.111,0.418-0.237,0.236"/>
	<path fill="none" stroke="#3E0F3D" stroke-width="1.6" stroke-linecap="round" stroke-linejoin="round" stroke-miterlimit="10" d="
		M6.574,48.168c-0.07,0.105-0.105,0.223-0.114,0.346"/>
	<path fill="none" stroke="#3E0F3D" stroke-width="1.6" stroke-linecap="round" stroke-linejoin="round" stroke-miterlimit="10" d="
		M13.704,37.533c0.082,0.079,0.155,0.152,0.234,0.229"/>
	<path fill="none" stroke="#3E0F3D" stroke-width="1.6" stroke-linecap="round" stroke-linejoin="round" stroke-miterlimit="10" d="
		M11.249,44.779c0,0.117,0,0.23,0,0.346"/>
	<path fill="none" stroke="#3E0F3D" stroke-width="1.6" stroke-linecap="round" stroke-linejoin="round" stroke-miterlimit="10" d="
		M3.595,54.15c0,0.076,0,0.156,0,0.232"/>
	<path fill="none" stroke="#3E0F3D" stroke-width="1.6" stroke-linecap="round" stroke-linejoin="round" stroke-miterlimit="10" d="
		M1,37.863c0,0.07,0,0.154,0,0.229"/>
	<path fill="none" stroke="#3E0F3D" stroke-width="1.6" stroke-linecap="round" stroke-linejoin="round" stroke-miterlimit="10" d="
		M4.239,60.559c0.067,0.107,0.105,0.223,0.117,0.348"/>
	<path fill="none" stroke="#3E0F3D" stroke-width="1.6" stroke-linecap="round" stroke-linejoin="round" stroke-miterlimit="10" d="
		M9.197,56.889c-0.026,0.047-0.226,0.396-0.117,0.236"/>
	<path fill="none" stroke="#3E0F3D" stroke-width="1.6" stroke-linecap="round" stroke-linejoin="round" stroke-miterlimit="10" d="
		M12.422,51.553c0.076,0.082,0.152,0.16,0.226,0.236"/>
	<path fill="none" stroke="#3E0F3D" stroke-width="1.6" stroke-linecap="round" stroke-linejoin="round" stroke-miterlimit="10" d="
		M12.77,62.895c0.041,0.131,0,0.209-0.123,0.236"/>
	<path fill="none" stroke="#3E0F3D" stroke-width="1.6" stroke-linecap="round" stroke-linejoin="round" stroke-miterlimit="10" d="
		M15.34,57.865c0,0.123,0,0.236,0,0.348"/>
	<path fill="none" stroke="#3E0F3D" stroke-width="1.6" stroke-linecap="round" stroke-linejoin="round" stroke-miterlimit="10" d="
		M18.732,52.488c0,0.121,0,0.234,0,0.35"/>
	<path fill="none" stroke="#3E0F3D" stroke-width="1.6" stroke-linecap="round" stroke-linejoin="round" stroke-miterlimit="10" d="
		M17.678,46.768c-0.076,0.053-0.117,0.133-0.117,0.227"/>
	<path fill="none" stroke="#3E0F3D" stroke-width="1.6" stroke-linecap="round" stroke-linejoin="round" stroke-miterlimit="10" d="
		M18.84,40.336c0.006,0.098-0.035,0.174-0.111,0.234"/>
	<path fill="none" stroke="#3E0F3D" stroke-width="1.6" stroke-linecap="round" stroke-linejoin="round" stroke-miterlimit="10" d="
		M19.197,64.178c0.035,0.121,0.076,0.238,0.117,0.352"/>
	<path fill="none" stroke="#3E0F3D" stroke-width="1.6" stroke-linecap="round" stroke-linejoin="round" stroke-miterlimit="10" d="
		M21.527,57.752c0.076,0.105,0.117,0.225,0.123,0.35"/>
	<path fill="none" stroke="#3E0F3D" stroke-width="1.6" stroke-linecap="round" stroke-linejoin="round" stroke-miterlimit="10" d="
		M25.736,61.605c0.05,0.188,0.094,0.227,0.123,0.123"/>
	<path fill="none" stroke="#3E0F3D" stroke-width="1.6" stroke-linecap="round" stroke-linejoin="round" stroke-miterlimit="10" d="
		M26.21,53.777c0,0.072,0,0.158,0,0.236"/>
	<path fill="none" stroke="#3E0F3D" stroke-width="1.6" stroke-linecap="round" stroke-linejoin="round" stroke-miterlimit="10" d="
		M23.988,48.514c-0.134,0.121-0.307,0.238-0.234,0.238"/>
	<path fill="none" stroke="#3E0F3D" stroke-width="1.6" stroke-linecap="round" stroke-linejoin="round" stroke-miterlimit="10" d="
		M30.067,47.814c0,0.076,0,0.16,0,0.236"/>
	<path fill="none" stroke="#3E0F3D" stroke-width="1.6" stroke-linecap="round" stroke-linejoin="round" stroke-miterlimit="10" d="
		M25.156,41.969c0.041,0.08,0.076,0.162,0.12,0.238"/>
	<path fill="none" stroke="#3E0F3D" stroke-width="1.6" stroke-linecap="round" stroke-linejoin="round" stroke-miterlimit="10" d="
		M30.884,40.92c-0.067,0.104-0.114,0.215-0.117,0.35"/>
	<path fill="none" stroke="#3E0F3D" stroke-width="1.6" stroke-linecap="round" stroke-linejoin="round" stroke-miterlimit="10" d="
		M17.678,33.907c0,0.079,0,0.161,0,0.229"/>
	<path fill="none" stroke="#3E0F3D" stroke-width="1.6" stroke-linecap="round" stroke-linejoin="round" stroke-miterlimit="10" d="
		M29.368,33.09c0.091,0.137,0.135,0.307,0.117,0.468"/>
	<path fill="none" stroke="#3E0F3D" stroke-width="1.6" stroke-linecap="round" stroke-linejoin="round" stroke-miterlimit="10" d="
		M24.105,35.019c-0.062,0.05-0.149,0.108-0.111,0"/>
	<path fill="none" stroke="#3E0F3D" stroke-width="1.6" stroke-linecap="round" stroke-linejoin="round" stroke-miterlimit="10" d="
		M24.337,27.711c0.059,0.178,0.035,0.313-0.117,0.354"/>
	<path fill="none" stroke="#3E0F3D" stroke-width="1.6" stroke-linecap="round" stroke-linejoin="round" stroke-miterlimit="10" d="
		M17.91,27.011c-0.018,0.164-0.1,0.305-0.234,0.348"/>
	<path fill="none" stroke="#3E0F3D" stroke-width="1.6" stroke-linecap="round" stroke-linejoin="round" stroke-miterlimit="10" d="
		M22.004,21.521c-0.011,0.164-0.087,0.299-0.237,0.352"/>
	<path fill="none" stroke="#3E0F3D" stroke-width="1.6" stroke-linecap="round" stroke-linejoin="round" stroke-miterlimit="10" d="
		M19.897,10.768c0.032,0.135,0.108,0.211,0.234,0.231"/>
	<path fill="none" stroke="#3E0F3D" stroke-width="1.6" stroke-linecap="round" stroke-linejoin="round" stroke-miterlimit="10" d="
		M28.894,25.147c0,0.073,0,0.155,0,0.228"/>
	<path fill="none" stroke="#3E0F3D" stroke-width="1.6" stroke-linecap="round" stroke-linejoin="round" stroke-miterlimit="10" d="
		M24.337,15.559c0.041,0.131,0,0.21-0.117,0.234"/>
	<path fill="none" stroke="#3E0F3D" stroke-width="1.6" stroke-linecap="round" stroke-linejoin="round" stroke-miterlimit="10" d="
		M17.748,1.85c0.041,0.131,0,0.21-0.117,0.234"/>
	<path fill="none" stroke="#3E0F3D" stroke-width="1.6" stroke-linecap="round" stroke-linejoin="round" stroke-miterlimit="10" d="
		M34.551,14.701c0.304,0.299,0.401,0.662,0.304,1.092"/>
	<path fill="none" stroke="#3E0F3D" stroke-width="1.6" stroke-linecap="round" stroke-linejoin="round" stroke-miterlimit="10" d="
		M39.533,11.429c0.046,0.176,0,0.281-0.156,0.307"/>
	<path fill="none" stroke="#3E0F3D" stroke-width="1.6" stroke-linecap="round" stroke-linejoin="round" stroke-miterlimit="10" d="
		M34.551,8.157c0,0.158,0,0.31,0,0.468"/>
	<path fill="none" stroke="#3E0F3D" stroke-width="1.6" stroke-linecap="round" stroke-linejoin="round" stroke-miterlimit="10" d="
		M30.625,3.096c0.009,0.088-0.029,0.126-0.117,0.114"/>
	<path fill="none" stroke="#3E0F3D" stroke-width="1.6" stroke-linecap="round" stroke-linejoin="round" stroke-miterlimit="10" d="
		M44.73,12.465c0.041,0.076,0.076,0.149,0.12,0.228"/>
	<path fill="none" stroke="#3E0F3D" stroke-width="1.6" stroke-linecap="round" stroke-linejoin="round" stroke-miterlimit="10" d="
		M46.109,4.332c0.037,0.076,0.076,0.152,0.117,0.225"/>
	<path fill="none" stroke="#3E0F3D" stroke-width="1.6" stroke-linecap="round" stroke-linejoin="round" stroke-miterlimit="10" d="
		M40.352,6.442c0.176,0.237,0.156,0.416-0.117,0.465"/>
	<path fill="none" stroke="#3E0F3D" stroke-width="1.6" stroke-linecap="round" stroke-linejoin="round" stroke-miterlimit="10" d="
		M20.363,5.72c-0.064,0.176-0.038,0.316,0.111,0.357"/>
	<path fill="none" stroke="#3E0F3D" stroke-width="1.6" stroke-linecap="round" stroke-linejoin="round" stroke-miterlimit="10" d="
		M50.774,15.652c0,0.114,0,0.234,0,0.349"/>
	<path fill="none" stroke="#3E0F3D" stroke-width="1.6" stroke-linecap="round" stroke-linejoin="round" stroke-miterlimit="10" d="
		M41.988,17.774c-0.012,0.135-0.05,0.243-0.117,0.351"/>
	<path fill="none" stroke="#3E0F3D" stroke-width="1.6" stroke-linecap="round" stroke-linejoin="round" stroke-miterlimit="10" d="
		M47.244,21.398c0,0.073,0,0.567,0,0.354"/>
	<path fill="none" stroke="#3E0F3D" stroke-width="1.6" stroke-linecap="round" stroke-linejoin="round" stroke-miterlimit="10" d="
		M37.194,22.574c-0.021,0.202-0.099,0.348-0.234,0.465"/>
	<path fill="none" stroke="#3E0F3D" stroke-width="1.6" stroke-linecap="round" stroke-linejoin="round" stroke-miterlimit="10" d="
		M42.336,25.612c0,0.123,0,0.679,0,0.228"/>
	<path fill="none" stroke="#3E0F3D" stroke-width="1.6" stroke-linecap="round" stroke-linejoin="round" stroke-miterlimit="10" d="
		M38.365,29.467c0,0.155,0,0.307,0,0.462"/>
	<path fill="none" stroke="#3E0F3D" stroke-width="1.6" stroke-linecap="round" stroke-linejoin="round" stroke-miterlimit="10" d="
		M47.014,29.001c0,0.079,0,0.152,0,0.229"/>
	<path fill="none" stroke="#3E0F3D" stroke-width="1.6" stroke-linecap="round" stroke-linejoin="round" stroke-miterlimit="10" d="
		M43.158,33.675c0,0.117,0,0.231,0,0.352"/>
	<path fill="none" stroke="#3E0F3D" stroke-width="1.6" stroke-linecap="round" stroke-linejoin="round" stroke-miterlimit="10" d="
		M17.345,75.334c0,0.117,0,0.23,0,0.352"/>
	<path fill="none" stroke="#3E0F3D" stroke-width="1.6" stroke-linecap="round" stroke-linejoin="round" stroke-miterlimit="10" d="
		M35.209,35.78c0.059,0.167,0.05,0.302,0,0.465"/>
	<path fill="none" stroke="#3E0F3D" stroke-width="1.6" stroke-linecap="round" stroke-linejoin="round" stroke-miterlimit="10" d="
		M39.884,39.283c0.006,0.018,0.226,0.553,0.111,0.348"/>
	<path fill="none" stroke="#3E0F3D" stroke-width="1.6" stroke-linecap="round" stroke-linejoin="round" stroke-miterlimit="10" d="
		M35.327,44.779c-0.062,0.182-0.111,0.416-0.234,0.23"/>
	<path fill="none" stroke="#3E0F3D" stroke-width="1.6" stroke-linecap="round" stroke-linejoin="round" stroke-miterlimit="10" d="
		M40.82,47.111c-0.073,0.115-0.111,0.227-0.114,0.355"/>
	<path fill="none" stroke="#3E0F3D" stroke-width="1.6" stroke-linecap="round" stroke-linejoin="round" stroke-miterlimit="10" d="
		M47.943,36.479c0.076,0.076,0.162,0.158,0.238,0.231"/>
	<path fill="none" stroke="#3E0F3D" stroke-width="1.6" stroke-linecap="round" stroke-linejoin="round" stroke-miterlimit="10" d="
		M45.857,42.57c0,0.113,0,0.236,0,0.352"/>
	<path fill="none" stroke="#3E0F3D" stroke-width="1.6" stroke-linecap="round" stroke-linejoin="round" stroke-miterlimit="10" d="
		M37.308,52.961c0,0.072,0,0.154,0,0.236"/>
	<path fill="none" stroke="#3E0F3D" stroke-width="1.6" stroke-linecap="round" stroke-linejoin="round" stroke-miterlimit="10" d="
		M38.482,59.504c0.066,0.105,0.107,0.223,0.116,0.352"/>
	<path fill="none" stroke="#3E0F3D" stroke-width="1.6" stroke-linecap="round" stroke-linejoin="round" stroke-miterlimit="10" d="
		M42.922,55.062c-0.023,0.043-0.223,0.391-0.111,0.232"/>
	<path fill="none" stroke="#3E0F3D" stroke-width="1.6" stroke-linecap="round" stroke-linejoin="round" stroke-miterlimit="10" d="
		M46.662,50.508c0.079,0.072,0.158,0.158,0.234,0.23"/>
	<path fill="none" stroke="#3E0F3D" stroke-width="1.6" stroke-linecap="round" stroke-linejoin="round" stroke-miterlimit="10" d="
		M67.742,77.679c0.079,0.072,0.158,0.158,0.234,0.23"/>
	<path fill="none" stroke="#3E0F3D" stroke-width="1.6" stroke-linecap="round" stroke-linejoin="round" stroke-miterlimit="10" d="
		M47.014,61.844c0.037,0.133,0,0.209-0.117,0.232"/>
	<path fill="none" stroke="#3E0F3D" stroke-width="1.6" stroke-linecap="round" stroke-linejoin="round" stroke-miterlimit="10" d="
		M54.891,78.282c0.037,0.133,0,0.209-0.117,0.232"/>
	<path fill="none" stroke="#3E0F3D" stroke-width="1.6" stroke-linecap="round" stroke-linejoin="round" stroke-miterlimit="10" d="
		M49.586,56.814c0,0.117,0,0.234,0,0.354"/>
	<path fill="none" stroke="#3E0F3D" stroke-width="1.6" stroke-linecap="round" stroke-linejoin="round" stroke-miterlimit="10" d="
		M52.973,51.441c0,0.111,0,0.23,0,0.348"/>
	<path fill="none" stroke="#3E0F3D" stroke-width="1.6" stroke-linecap="round" stroke-linejoin="round" stroke-miterlimit="10" d="
		M51.924,45.713c-0.082,0.059-0.123,0.139-0.117,0.23"/>
	<path fill="none" stroke="#3E0F3D" stroke-width="1.6" stroke-linecap="round" stroke-linejoin="round" stroke-miterlimit="10" d="
		M53.09,39.283c0,0.094-0.035,0.176-0.117,0.236"/>
	<path fill="none" stroke="#3E0F3D" stroke-width="1.6" stroke-linecap="round" stroke-linejoin="round" stroke-miterlimit="10" d="
		M53.44,63.131c0.041,0.113,0.079,0.23,0.12,0.342"/>
	<path fill="none" stroke="#3E0F3D" stroke-width="1.6" stroke-linecap="round" stroke-linejoin="round" stroke-miterlimit="10" d="
		M55.773,56.701c0.076,0.105,0.117,0.225,0.123,0.348"/>
	<path fill="none" stroke="#3E0F3D" stroke-width="1.6" stroke-linecap="round" stroke-linejoin="round" stroke-miterlimit="10" d="
		M59.988,60.559c0.049,0.182,0.081,0.223,0.116,0.111"/>
	<path fill="none" stroke="#3E0F3D" stroke-width="1.6" stroke-linecap="round" stroke-linejoin="round" stroke-miterlimit="10" d="
		M69.988,1.559c0.049,0.182,0.081,0.223,0.116,0.111"/>
	<path fill="none" stroke="#3E0F3D" stroke-width="1.6" stroke-linecap="round" stroke-linejoin="round" stroke-miterlimit="10" d="
		M60.459,52.727c0,0.076,0,0.154,0,0.234"/>
	<path fill="none" stroke="#3E0F3D" stroke-width="1.6" stroke-linecap="round" stroke-linejoin="round" stroke-miterlimit="10" d="
		M58.234,47.467c-0.138,0.111-0.305,0.236-0.236,0.23"/>
	<path fill="none" stroke="#3E0F3D" stroke-width="1.6" stroke-linecap="round" stroke-linejoin="round" stroke-miterlimit="10" d="
		M64.311,46.768c0,0.072,0,0.148,0,0.227"/>
	<path fill="none" stroke="#3E0F3D" stroke-width="1.6" stroke-linecap="round" stroke-linejoin="round" stroke-miterlimit="10" d="
		M76.512,43.449c0,0.072,0,0.148,0,0.227"/>
	<path fill="none" stroke="#3E0F3D" stroke-width="1.6" stroke-linecap="round" stroke-linejoin="round" stroke-miterlimit="10" d="
		M58.908,41.455c0.041,0.072,0.076,0.154,0.113,0.23"/>
	<path fill="none" stroke="#3E0F3D" stroke-width="1.6" stroke-linecap="round" stroke-linejoin="round" stroke-miterlimit="10" d="
		M65.13,39.869c-0.07,0.105-0.108,0.225-0.117,0.35"/>
	<path fill="none" stroke="#3E0F3D" stroke-width="1.6" stroke-linecap="round" stroke-linejoin="round" stroke-miterlimit="10" d="
		M51.924,32.856c0,0.076,0,0.155,0,0.231"/>
	<path fill="none" stroke="#3E0F3D" stroke-width="1.6" stroke-linecap="round" stroke-linejoin="round" stroke-miterlimit="10" d="
		M63.611,32.04c0.096,0.135,0.135,0.301,0.117,0.462"/>
	<path fill="none" stroke="#3E0F3D" stroke-width="1.6" stroke-linecap="round" stroke-linejoin="round" stroke-miterlimit="10" d="
		M58.934,35.66c-0.061,0.05-0.148,0.103-0.117,0"/>
	<path fill="none" stroke="#3E0F3D" stroke-width="1.6" stroke-linecap="round" stroke-linejoin="round" stroke-miterlimit="10" d="
		M57.801,28.404c0.059,0.176,0.035,0.311-0.113,0.351"/>
	<path fill="none" stroke="#3E0F3D" stroke-width="1.6" stroke-linecap="round" stroke-linejoin="round" stroke-miterlimit="10" d="
		M52.158,25.96c-0.018,0.167-0.1,0.308-0.234,0.352"/>
	<path fill="none" stroke="#3E0F3D" stroke-width="1.6" stroke-linecap="round" stroke-linejoin="round" stroke-miterlimit="10" d="
		M56.247,20.464c-0.006,0.172-0.088,0.304-0.233,0.348"/>
	<path fill="none" stroke="#3E0F3D" stroke-width="1.6" stroke-linecap="round" stroke-linejoin="round" stroke-miterlimit="10" d="
		M54.395,10.666c0.032,0.134,0.111,0.216,0.24,0.234"/>
	<path fill="none" stroke="#3E0F3D" stroke-width="1.6" stroke-linecap="round" stroke-linejoin="round" stroke-miterlimit="10" d="
		M62.03,23.812c0,0.079,0,0.155,0,0.228"/>
	<path fill="none" stroke="#3E0F3D" stroke-width="1.6" stroke-linecap="round" stroke-linejoin="round" stroke-miterlimit="10" d="
		M58.586,14.508c0.037,0.132,0,0.208-0.114,0.228"/>
	<path fill="none" stroke="#3E0F3D" stroke-width="1.6" stroke-linecap="round" stroke-linejoin="round" stroke-miterlimit="10" d="
		M33.342,28.875c0.111,0.126,0.111,0.205,0,0.24"/>
	<path fill="none" stroke="#3E0F3D" stroke-width="1.6" stroke-linecap="round" stroke-linejoin="round" stroke-miterlimit="10" d="
		M29.833,19.414c0,0.079,0,0.158,0,0.237"/>
	<path fill="none" stroke="#3E0F3D" stroke-width="1.6" stroke-linecap="round" stroke-linejoin="round" stroke-miterlimit="10" d="
		M29.776,10.427c0,0.082,0,0.161,0,0.237"/>
	<path fill="none" stroke="#3E0F3D" stroke-width="1.6" stroke-linecap="round" stroke-linejoin="round" stroke-miterlimit="10" d="
		M25.736,7.024c-0.07,0.059-0.114,0.138-0.111,0.237"/>
	<path fill="none" stroke="#3E0F3D" stroke-width="1.6" stroke-linecap="round" stroke-linejoin="round" stroke-miterlimit="10" d="
		M23.919,3.105c-0.07,0.059-0.114,0.138-0.111,0.237"/>
	<path fill="none" stroke="#3E0F3D" stroke-width="1.6" stroke-linecap="round" stroke-linejoin="round" stroke-miterlimit="10" d="
		M63.769,10.218c0,0.07,0,0.155,0,0.234"/>
	<path fill="none" stroke="#3E0F3D" stroke-width="1.6" stroke-linecap="round" stroke-linejoin="round" stroke-miterlimit="10" d="
		M57.388,6.766c-0.116,0.135-0.198,0.302-0.23,0.471"/>
	<path fill="none" stroke="#3E0F3D" stroke-width="1.6" stroke-linecap="round" stroke-linejoin="round" stroke-miterlimit="10" d="
		M1,2.678C0.883,2.813,0.801,2.979,0.766,3.144"/>
	<path fill="none" stroke="#3E0F3D" stroke-width="1.6" stroke-linecap="round" stroke-linejoin="round" stroke-miterlimit="10" d="
		M63.611,16.496c0.199-0.026,0.277,0.053,0.234,0.234"/>
	<path fill="none" stroke="#3E0F3D" stroke-width="1.6" stroke-linecap="round" stroke-linejoin="round" stroke-miterlimit="10" d="
		M31.938,54.014c0.05,0.176,0.009,0.34-0.12,0.463"/>
	<path fill="none" stroke="#3E0F3D" stroke-width="1.6" stroke-linecap="round" stroke-linejoin="round" stroke-miterlimit="10" d="
		M32.169,60.438c-0.076,0-0.155,0-0.231,0"/>
	<path fill="none" stroke="#3E0F3D" stroke-width="1.6" stroke-linecap="round" stroke-linejoin="round" stroke-miterlimit="10" d="
		M27.169,79c-0.076,0-0.155,0-0.231,0"/>
	<path fill="none" stroke="#3E0F3D" stroke-width="1.6" stroke-linecap="round" stroke-linejoin="round" stroke-miterlimit="10" d="
		M41.52,64.762c0,0.078,0,0.16,0,0.232"/>
	<path fill="none" stroke="#3E0F3D" stroke-width="1.6" stroke-linecap="round" stroke-linejoin="round" stroke-miterlimit="10" d="
		M33.454,64.646c0.108,0.182,0.146,0.381,0.117,0.586"/>
	<path fill="none" stroke="#3E0F3D" stroke-width="1.6" stroke-linecap="round" stroke-linejoin="round" stroke-miterlimit="10" d="
		M48.982,8.69c0.115,0.172,0.162,0.366,0.141,0.556"/>
	<path fill="none" stroke="#3E0F3D" stroke-width="1.6" stroke-linecap="round" stroke-linejoin="round" stroke-miterlimit="10" d="
		M50.909,3.243c-0.021-0.19,0.025-0.383,0.141-0.556"/>
	<path fill="none" stroke="#3E0F3D" stroke-width="1.6" stroke-linecap="round" stroke-linejoin="round" stroke-miterlimit="10" d="
		M68.074,5.315c-0.085,0.125-0.132,0.269-0.146,0.424"/>
	<path fill="none" stroke="#3E0F3D" stroke-width="1.6" stroke-linecap="round" stroke-linejoin="round" stroke-miterlimit="10" d="
		M68.212,12.881c-0.085,0.129-0.129,0.266-0.138,0.421"/>
	<path fill="none" stroke="#3E0F3D" stroke-width="1.6" stroke-linecap="round" stroke-linejoin="round" stroke-miterlimit="10" d="
		M73.258,15.404c0,0.144,0,0.284,0,0.424"/>
	<path fill="none" stroke="#3E0F3D" stroke-width="1.6" stroke-linecap="round" stroke-linejoin="round" stroke-miterlimit="10" d="
		M73.182,8.544c0,0.216,0,0.266,0,0.143"/>
	<path fill="none" stroke="#3E0F3D" stroke-width="1.6" stroke-linecap="round" stroke-linejoin="round" stroke-miterlimit="10" d="
		M68.266,19.735c0.045,0.094,0.091,0.185,0.138,0.278"/>
	<path fill="none" stroke="#3E0F3D" stroke-width="1.6" stroke-linecap="round" stroke-linejoin="round" stroke-miterlimit="10" d="
		M68.074,28.855c0.126,0.202,0.126,0.249,0,0.144"/>
	<path fill="none" stroke="#3E0F3D" stroke-width="1.6" stroke-linecap="round" stroke-linejoin="round" stroke-miterlimit="10" d="
		M72.836,25.211c-0.05,0.091-0.097,0.184-0.141,0.281"/>
	<path fill="none" stroke="#3E0F3D" stroke-width="1.6" stroke-linecap="round" stroke-linejoin="round" stroke-miterlimit="10" d="
		M76.34,30.813c0.047,0.094,0.09,0.185,0.141,0.281"/>
	<path fill="none" stroke="#3E0F3D" stroke-width="1.6" stroke-linecap="round" stroke-linejoin="round" stroke-miterlimit="10" d="
		M76.617,20.865c-0.053,0.213-0.006,0.41,0.141,0.565"/>
	<path fill="none" stroke="#3E0F3D" stroke-width="1.6" stroke-linecap="round" stroke-linejoin="round" stroke-miterlimit="10" d="
		M70.173,35.297c-0.141,0.097-0.284,0.19-0.421,0.284"/>
	<path fill="none" stroke="#3E0F3D" stroke-width="1.6" stroke-linecap="round" stroke-linejoin="round" stroke-miterlimit="10" d="
		M69.52,43.568c0.053,0.082,0.08,0.178,0.092,0.277"/>
	<path fill="none" stroke="#3E0F3D" stroke-width="1.6" stroke-linecap="round" stroke-linejoin="round" stroke-miterlimit="10" d="
		M74.891,47.145c0.097,0.141,0.129,0.305,0.097,0.471"/>
	<path fill="none" stroke="#3E0F3D" stroke-width="1.6" stroke-linecap="round" stroke-linejoin="round" stroke-miterlimit="10" d="
		M74.379,39.361c0,0.086,0,0.186,0,0.279"/>
	<path fill="none" stroke="#3E0F3D" stroke-width="1.6" stroke-linecap="round" stroke-linejoin="round" stroke-miterlimit="10" d="
		M64.942,56.736c0,0.09,0,0.184,0,0.277"/>
	<path fill="none" stroke="#3E0F3D" stroke-width="1.6" stroke-linecap="round" stroke-linejoin="round" stroke-miterlimit="10" d="
		M69.424,50.85c-0.029,0.092-0.062,0.186-0.091,0.281"/>
	<path fill="none" stroke="#3E0F3D" stroke-width="1.6" stroke-linecap="round" stroke-linejoin="round" stroke-miterlimit="10" d="
		M69.799,59.256c0.031,0.061,0.061,0.123,0.09,0.188"/>
	<path fill="none" stroke="#3E0F3D" stroke-width="1.6" stroke-linecap="round" stroke-linejoin="round" stroke-miterlimit="10" d="
		M74.561,54.959c0,0.094,0,0.184,0,0.281"/>
	<path fill="none" stroke="#3E0F3D" stroke-width="1.6" stroke-linecap="round" stroke-linejoin="round" stroke-miterlimit="10" d="
		M74.191,63.459c0,0.064,0,0.125,0,0.184"/>
	<path fill="none" stroke="#3E0F3D" stroke-width="1.6" stroke-linecap="round" stroke-linejoin="round" stroke-miterlimit="10" d="
		M1.151,66.354c0.041,0.146,0.003,0.277-0.097,0.375"/>
	<path fill="none" stroke="#3E0F3D" stroke-width="1.6" stroke-linecap="round" stroke-linejoin="round" stroke-miterlimit="10" d="
		M6.475,65.789c0.117,0.119,0.149,0.221,0,0.283"/>
	<path fill="none" stroke="#3E0F3D" stroke-width="1.6" stroke-linecap="round" stroke-linejoin="round" stroke-miterlimit="10" d="
		M2.494,72.139c0,0.094,0,0.188,0,0.281"/>
	<path fill="none" stroke="#3E0F3D" stroke-width="1.6" stroke-linecap="round" stroke-linejoin="round" stroke-miterlimit="10" d="
		M7.086,75.719c0,0.094,0,0.189,0,0.281"/>
	<path fill="none" stroke="#3E0F3D" stroke-width="1.6" stroke-linecap="round" stroke-linejoin="round" stroke-miterlimit="10" d="
		M13.332,76.457c0.029,0.084,0.091,0.291,0,0.094"/>
	<path fill="none" stroke="#3E0F3D" stroke-width="1.6" stroke-linecap="round" stroke-linejoin="round" stroke-miterlimit="10" d="
		M10.309,70.205c-0.018,0.195-0.108,0.311-0.284,0.281"/>
	<path fill="none" stroke="#3E0F3D" stroke-width="1.6" stroke-linecap="round" stroke-linejoin="round" stroke-miterlimit="10" d="
		M16.563,70.652c0,0.061,0,0.123,0,0.182"/>
	<path fill="none" stroke="#3E0F3D" stroke-width="1.6" stroke-linecap="round" stroke-linejoin="round" stroke-miterlimit="10" d="
		M21.419,75.133c0,0.094,0,0.186,0,0.281"/>
	<path fill="none" stroke="#3E0F3D" stroke-width="1.6" stroke-linecap="round" stroke-linejoin="round" stroke-miterlimit="10" d="
		M23.942,68.691c0.114,0.158,0.125,0.322,0,0.463"/>
	<path fill="none" stroke="#3E0F3D" stroke-width="1.6" stroke-linecap="round" stroke-linejoin="round" stroke-miterlimit="10" d="
		M29.266,74.391c-0.026-0.062,0.114,0.408,0.09,0.182"/>
	<path fill="none" stroke="#3E0F3D" stroke-width="1.6" stroke-linecap="round" stroke-linejoin="round" stroke-miterlimit="10" d="
		M28.792,67.756c0,0.121,0,0.244,0,0.371"/>
	<path fill="none" stroke="#3E0F3D" stroke-width="1.6" stroke-linecap="round" stroke-linejoin="round" stroke-miterlimit="10" d="
		M34.961,71.867c-0.059,0.082-0.091,0.178-0.094,0.277"/>
	<path fill="none" stroke="#3E0F3D" stroke-width="1.6" stroke-linecap="round" stroke-linejoin="round" stroke-miterlimit="10" d="
		M36.21,77.006c0.018,0.07,0.158,0.656,0.094,0.279"/>
	<path fill="none" stroke="#3E0F3D" stroke-width="1.6" stroke-linecap="round" stroke-linejoin="round" stroke-miterlimit="10" d="
		M40.562,71.496c0,0.09,0,0.184,0,0.279"/>
	<path fill="none" stroke="#3E0F3D" stroke-width="1.6" stroke-linecap="round" stroke-linejoin="round" stroke-miterlimit="10" d="
		M46.17,68.781c-0.02,0.129-0.023,0.373-0.094,0.281"/>
	<path fill="none" stroke="#3E0F3D" stroke-width="1.6" stroke-linecap="round" stroke-linejoin="round" stroke-miterlimit="10" d="
		M47.557,78.62c-0.02,0.129-0.023,0.373-0.094,0.281"/>
	<path fill="none" stroke="#3E0F3D" stroke-width="1.6" stroke-linecap="round" stroke-linejoin="round" stroke-miterlimit="10" d="
		M49.508,73.521c-0.081,0.123-0.225,0.207-0.277,0.184"/>
	<path fill="none" stroke="#3E0F3D" stroke-width="1.6" stroke-linecap="round" stroke-linejoin="round" stroke-miterlimit="10" d="
		M43.385,76c-0.088,0.123-0.229,0.211-0.281,0.184"/>
	<path fill="none" stroke="#3E0F3D" stroke-width="1.6" stroke-linecap="round" stroke-linejoin="round" stroke-miterlimit="10" d="
		M53.924,74.016c0,0.059,0,0.123,0,0.184"/>
	<path fill="none" stroke="#3E0F3D" stroke-width="1.6" stroke-linecap="round" stroke-linejoin="round" stroke-miterlimit="10" d="
		M51.949,67.742c-0.035,0.094-0.097,0.158-0.182,0.186"/>
	<path fill="none" stroke="#3E0F3D" stroke-width="1.6" stroke-linecap="round" stroke-linejoin="round" stroke-miterlimit="10" d="
		M59.689,71.089c0.002,0.105,0.002,0.201,0,0.305c-0.021,0.125,0.094-0.117,0.094-0.117"/>
	<path fill="none" stroke="#3E0F3D" stroke-width="1.6" stroke-linecap="round" stroke-linejoin="round" stroke-miterlimit="10" d="
		M58.967,65.98c-0.033,0.033-0.064,0.062-0.094,0.092"/>
	<path fill="none" stroke="#3E0F3D" stroke-width="1.6" stroke-linecap="round" stroke-linejoin="round" stroke-miterlimit="10" d="
		M65.023,72.763c0.084,0.074,0.119,0.176,0.094,0.281"/>
	<path fill="none" stroke="#3E0F3D" stroke-width="1.6" stroke-linecap="round" stroke-linejoin="round" stroke-miterlimit="10" d="
		M64.658,67.756c0.045,0.143,0.016,0.268-0.09,0.371"/>
	<path fill="none" stroke="#3E0F3D" stroke-width="1.6" stroke-linecap="round" stroke-linejoin="round" stroke-miterlimit="10" d="
		M65.598,62.432c-0.107,0.09-0.236,0.152-0.374,0.184"/>
	<path fill="none" stroke="#3E0F3D" stroke-width="1.6" stroke-linecap="round" stroke-linejoin="round" stroke-miterlimit="10" d="
		M69.52,68.498c0.029,0.068,0.062,0.129,0.092,0.191"/>
	<path fill="none" stroke="#3E0F3D" stroke-width="1.6" stroke-linecap="round" stroke-linejoin="round" stroke-miterlimit="10" d="
		M70.117,74.615c0.012,0.137,0.076,0.246,0.185,0.281"/>
	<path fill="none" stroke="#3E0F3D" stroke-width="1.6" stroke-linecap="round" stroke-linejoin="round" stroke-miterlimit="10" d="
		M76.729,74.432c0.012,0.141,0.079,0.248,0.185,0.279"/>
	<path fill="none" stroke="#3E0F3D" stroke-width="1.6" stroke-linecap="round" stroke-linejoin="round" stroke-miterlimit="10" d="
		M75.965,69.625c0.108,0.094,0.234,0.158,0.375,0.182"/>
	<path fill="none" stroke="#3E0F3D" stroke-width="1.6" stroke-linecap="round" stroke-linejoin="round" stroke-miterlimit="10" d="
		M59.873,2.4c-0.113,0.125-0.199,0.292-0.23,0.462"/>
	<path fill="none" stroke="#3E0F3D" stroke-width="1.6" stroke-linecap="round" stroke-linejoin="round" stroke-miterlimit="10" d="
		M9.86,0.865C9.807,1.079,9.857,1.275,10,1.43"/>
	<path fill="none" stroke="#3E0F3D" stroke-width="1.6" stroke-linecap="round" stroke-linejoin="round" stroke-miterlimit="10" d="
		M36.21,2.15c0.018,0.07,0.158,0.656,0.094,0.278"/>
</g>
</svg>
