<svg class="counter" version="1.1" id="Layer_1" xmlns="http://www.w3.org/2000/svg" xmlns:xlink="http://www.w3.org/1999/xlink" x="0px" y="0px"
	 width="135px" height="134.25px" viewBox="0 0 135 134.25" enable-background="new 0 0 135 134.25" xml:space="preserve">
<g>
	<g id="XMLID_78_">
		<g>
			<circle class="circle" cx="67.501" cy="67" r="65.319"/>
		</g>
		<g>
			
				<circle fill="none" stroke="#43193C" stroke-width="2.55" stroke-linecap="round" stroke-linejoin="round" stroke-miterlimit="10" cx="67.501" cy="67" r="65.319"/>
		</g>
	</g>
	<g>
		
			<polygon fill="#FFFFFF" stroke="#43193C" stroke-width="2.55" stroke-linecap="round" stroke-linejoin="round" stroke-miterlimit="10" points="
			80.41,66.832 71.875,89.473 68.374,89.428 76.908,66.787 		"/>
		<g>
			
				<path fill="#FFFFFF" stroke="#43193C" stroke-width="2.55" stroke-linecap="round" stroke-linejoin="round" stroke-miterlimit="10" d="
				M103.627,101.766c0.34,7.153-4.049,11.303-10.674,11.453c-7.482,0.176-11.229-4.953-11.215-10.724
				c0.012-4.777,2.088-7.581,5.004-9.052c-1.799-1.71-2.703-4.187-2.703-6.826c0.012-6.261,4.111-8.537,8.562-8.775
				c5.078-0.277,9.264,2.111,9.555,8.172c0.162,3.406-0.906,6.009-2.842,7.656C101.789,95.166,103.438,97.806,103.627,101.766z
				 M93.002,108.076c3.357-0.075,5.52-2.225,5.406-5.934c-0.1-3.344-2.74-5.18-5.846-5.004c-2.715,0.151-5.23,1.535-5.23,5.369
				C87.32,105.5,89.219,108.164,93.002,108.076z M93.328,90.79c2.578-0.062,4.275-1.709,4.137-4.55
				c-0.125-2.842-2.1-3.973-4.475-3.836c-2.088,0.114-4.012,1.17-4.012,4.111C88.967,88.816,90.426,90.854,93.328,90.79z"/>
		</g>
	</g>
</g>


<polygon class="question-counter question-counter-0" fill="#FFFFFF" stroke="#43193C" stroke-width="2.55" stroke-linecap="round" stroke-linejoin="round" stroke-miterlimit="10" points="
	36.446,36.764 51.79,19.29 62.656,19.29 62.656,81.729 51.575,81.729 51.575,36.764 43.053,44.861 "/>
<path class="question-counter question-counter-1" fill="#FFFFFF" stroke="#43193C" stroke-width="2.55" stroke-linecap="round" stroke-linejoin="round" stroke-miterlimit="10" d="
	M28.22,38.814c0-4.68,1.727-20.17,17.104-20.616c15.379-0.444,22.064,13.374,12.036,28.249
	c-9.611,14.261-16.716,23.847-16.716,23.847h23.012V82.11H27.774l0.446-13.766c-0.632,0.992,6.892-8.711,12.48-17.215
	c1.552-2.366,5.283-7.473,7.132-10.253c5.349-8.052,1.67-11.73-2.926-11.06c-2.792,0.406-4.764,4.149-5.768,8.775
	C35.964,38.925,28.22,38.814,28.22,38.814z"/>
<path class="question-counter question-counter-2" fill="#FFFFFF" stroke="#43193C" stroke-width="2.55" stroke-linecap="round" stroke-linejoin="round" stroke-miterlimit="10" d="
	M30.221,65.317c-0.329,10.495,7.15,16.538,15.523,16.782c11.152,0.329,19.612-5.474,18.914-17.929
	C63.894,50.505,49.68,49.41,49.68,49.41s6.232-0.438,10.388-8.2c4.249-7.939,0.327-23.287-14.105-22.958
	c-11.937,0.271-14.336,7.948-14.807,13.936h9.889c0.165-2.784,1.968-5.08,5.247-5.245c3.279-0.163,7.026,2.005,6.396,7.052
	c-0.929,7.433-7.599,8.964-14.814,9.183c0,7.38-0.109,11.698-0.109,11.698s6.777-0.218,11.815,1.846
	c3.341,1.374,5.538,4.638,4.364,10.072c-1.607,7.439-13.776,7.106-14.541-1.147L30.221,65.317z"/>
<polygon class="question-counter question-counter-3" fill="#FFFFFF" stroke="#43193C" stroke-width="2.55" stroke-linecap="round" stroke-linejoin="round" stroke-miterlimit="10" points="
	50.685,82.1 50.685,55.374 32.027,55.374 43.338,19.1 51.55,19.1 43.241,46.94 50.685,46.94 50.685,42.362 58.656,42.362 
	58.656,46.94 64.741,46.94 64.741,55.483 59.413,55.483 59.413,82.1 "/>
<path class="question-counter question-counter-4" fill="#FFFFFF" stroke="#43193C" stroke-width="2.55" stroke-linecap="round" stroke-linejoin="round" stroke-miterlimit="10" d="
	M32.694,19.1c0,0,0,25.552,0,32.471c2.98-0.106,19.351-3.464,21.078,7.665C56.224,74.992,34.824,71.799,31.949,71
	c0,6.707,0,10.061,0,10.061s33.593,8.029,33.004-20.548C64.526,39.86,41.638,42.129,41.638,42.129V28.522h20.439V19.1H32.694z"/>
<g class="question-counter question-counter-5">
	<g display="inline">
		<path fill="#FFFFFF" d="M32.136,32.761C33.852,25.536,37.013,19.1,47.852,19.1c10.861,0,17.568,7.474,16.371,17.771l-8.333-0.316
			c0,0,0.316-8.242-7.926-8.242c-9.1,0-7.745,17.613-7.745,25.313c0,0,2.913-5.058,12.69-3.252
			c8.784,1.626,12.51,7.858,11.651,17.952c-0.903,10.545-8.513,14.519-18.764,13.661c-12.69-1.084-16.055-12.69-15.513-29.287
			C30.51,46.265,30.668,38.903,32.136,32.761z M49.026,72.978c4.313,0,7.248-2.71,7.135-7.497s-3.387-6.729-7.384-6.616
			c-3.522,0.113-7.045,2.213-7.271,6.074C41.281,68.777,44.148,72.978,49.026,72.978z"/>
	</g>
	<g display="inline">
		
			<path fill="none" stroke="#43193C" stroke-width="2.55" stroke-linecap="round" stroke-linejoin="round" stroke-miterlimit="10" d="
			M64.223,36.871C65.419,26.574,58.713,19.1,47.852,19.1c-10.839,0-14,6.436-15.716,13.661c-1.468,6.142-1.626,13.503-1.852,19.939
			c-0.542,16.597,2.823,28.203,15.513,29.287c10.251,0.857,17.861-3.116,18.764-13.661C65.419,58.232,61.693,52,52.91,50.374
			c-9.777-1.806-12.69,3.252-12.69,3.252c0-7.7-1.354-25.313,7.745-25.313c8.242,0,7.926,8.242,7.926,8.242L64.223,36.871z"/>
		
			<path fill="none" stroke="#43193C" stroke-width="2.55" stroke-linecap="round" stroke-linejoin="round" stroke-miterlimit="10" d="
			M48.777,58.864c3.997-0.113,7.271,1.829,7.384,6.616s-2.822,7.497-7.135,7.497c-4.877,0-7.745-4.2-7.52-8.039
			C41.732,61.077,45.255,58.978,48.777,58.864z"/>
	</g>
</g>


<polygon class="question-counter question-counter-6" fill="#FFFFFF" stroke="#43193C" stroke-width="2.55" stroke-linecap="round" stroke-linejoin="round" stroke-miterlimit="10" points="71.418,19.262 34.911,19.1 34.911,29.794 60.11,29.794 53.812,47.747 46.865,47.747 46.865,53.561 51.772,53.561 41.76,82.1 53.277,82.1 63.054,53.561 69.072,53.561 69.072,47.747 65.047,47.747 71.418,29.148 "/>




<g class="question-counter question-counter-7" display="none">
	<g display="inline">
		<path fill="#FFFFFF" d="M58.169,47.305c4.407,2.662,7.338,7.36,7.674,14.407c0.604,12.729-7.204,20.112-18.994,20.381
			c-13.311,0.313-19.978-8.814-19.956-19.083c0.022-8.501,3.714-13.49,8.904-16.108c-3.199-3.042-4.81-7.45-4.81-12.148
			c0.022-11.141,7.316-15.19,15.235-15.616c9.039-0.492,16.488,3.759,17.003,14.542C63.516,39.743,61.614,44.374,58.169,47.305z
			 M56.558,62.383c-0.179-5.951-4.877-9.217-10.403-8.904c-4.833,0.268-9.307,2.729-9.307,9.553
			c-0.022,5.324,3.355,10.067,10.09,9.911C52.912,72.809,56.76,68.983,56.558,62.383z M39.779,34.575
			c-0.022,4.094,2.573,7.719,7.741,7.607c4.586-0.112,7.606-3.043,7.36-8.099c-0.224-5.056-3.736-7.069-7.964-6.823
			C43.202,27.46,39.779,29.34,39.779,34.575z"/>
	</g>
	<g display="inline">
		
			<path fill="none" stroke="#43193C" stroke-width="2.55" stroke-linecap="round" stroke-linejoin="round" stroke-miterlimit="10" d="
			M65.843,61.712c-0.336-7.047-3.267-11.745-7.674-14.407c3.445-2.931,5.347-7.562,5.056-13.625
			c-0.515-10.783-7.964-15.034-17.003-14.542c-7.919,0.425-15.213,4.475-15.235,15.616c0,4.698,1.611,9.105,4.81,12.148
			c-5.19,2.618-8.881,7.606-8.904,16.108c-0.022,10.269,6.645,19.396,19.956,19.083C58.639,81.824,66.447,74.441,65.843,61.712z"/>
		
			<path fill="none" stroke="#43193C" stroke-width="2.55" stroke-linecap="round" stroke-linejoin="round" stroke-miterlimit="10" d="
			M46.916,27.259c4.228-0.246,7.741,1.768,7.964,6.823c0.246,5.056-2.774,7.987-7.36,8.099c-5.168,0.112-7.763-3.513-7.741-7.607
			C39.779,29.34,43.202,27.46,46.916,27.259z"/>
		
			<path fill="none" stroke="#43193C" stroke-width="2.55" stroke-linecap="round" stroke-linejoin="round" stroke-miterlimit="10" d="
			M46.155,53.479c5.526-0.313,10.224,2.953,10.403,8.904c0.202,6.6-3.646,10.425-9.62,10.56c-6.734,0.156-10.112-4.587-10.09-9.911
			C36.849,56.208,41.323,53.748,46.155,53.479z"/>
	</g>
</g>
</svg>
