<?xml version="1.0" encoding="utf-8"?>
<!-- Generator: Adobe Illustrator 16.0.0, SVG Export Plug-In . SVG Version: 6.00 Build 0)  -->
<!DOCTYPE svg PUBLIC "-//W3C//DTD SVG 1.1//EN" "http://www.w3.org/Graphics/SVG/1.1/DTD/svg11.dtd">
<svg version="1.1" xmlns="http://www.w3.org/2000/svg" xmlns:xlink="http://www.w3.org/1999/xlink" x="0px" y="0px" width="250px"
	 height="67px" viewBox="0 0 250 67" enable-background="new 0 0 250 67" xml:space="preserve">
<g id="Layer_1">
	<g>
		<rect x="1.275" y="1.275" fill="#FDEE63" width="247.45" height="64.45"/>
		<path fill="#43193C" d="M247.451,2.55v61.9h-42.815H2.55V2.55h202.085H247.451 M250,0h-45.365H0v67h204.635H250V0L250,0z"/>
	</g>
</g>
<g id="Layer_2">
	<g>
		<g id="XMLID_369_">
			<g>
				<path fill="#FFFFFF" d="M31.785,30.956l13.802,19.077l-5.127,3.713L27.12,35.3v18.335l-6.497-0.104V13.314
					c5.878-0.104,17.671-0.899,17.98,8.485C38.789,27.495,35.048,29.917,31.785,30.956z M26.81,25.441c0,0,5.437,0.528,5.33-3.65
					c-0.107-4.17-5.33-3.412-5.33-3.412V25.441z"/>
			</g>
			<g>
				
					<path fill="none" stroke="#3D0E3D" stroke-width="1.5" stroke-linecap="round" stroke-linejoin="round" stroke-miterlimit="10" d="
					M45.587,50.033L31.785,30.956c3.263-1.04,7.004-3.461,6.819-9.157c-0.31-9.384-12.103-8.588-17.98-8.485v40.217l6.497,0.104
					V35.3l13.34,18.446L45.587,50.033z"/>
				
					<path fill="none" stroke="#3D0E3D" stroke-width="1.5" stroke-linecap="round" stroke-linejoin="round" stroke-miterlimit="10" d="
					M26.81,18.379v7.062c0,0,5.437,0.528,5.33-3.65C32.032,17.62,26.81,18.379,26.81,18.379z"/>
			</g>
		</g>
		<g id="XMLID_434_">
			<g>
				<polygon fill="#FFFFFF" points="73.902,46.561 73.902,53.573 53.277,53.573 53.277,13.838 73.625,13.425 73.625,20.434 
					60.978,20.434 60.978,29.17 73.625,28.972 73.625,36.813 61.114,37.012 61.114,46.561 				"/>
			</g>
			<g>
				
					<polygon fill="none" stroke="#3D0E3D" stroke-width="1.5" stroke-linecap="round" stroke-linejoin="round" stroke-miterlimit="10" points="
					53.277,13.838 53.277,53.573 73.902,53.573 73.902,46.561 61.114,46.561 61.114,37.012 73.625,36.813 73.625,28.972 
					60.978,29.17 60.978,20.434 73.625,20.434 73.625,13.425 				"/>
			</g>
		</g>
		<g id="XMLID_435_">
			<g>
				<path fill="#FFFFFF" d="M94.544,13.495c7.738-0.103,10.011,6.084,9.904,10.729l-6.184-0.111c0,0-0.412-4.224-4.542-3.292
					c-3.391,0.755-4.285,6.711,1.139,9.066c7.116,3.098,10.012,5.857,10.519,11.55c0.413,4.641-1.547,11.966-11.723,12.069
					c-9.508,0.095-10.803-7.408-10.923-10.626c-0.033-0.883,0.024-2.879,0.024-2.879h7.05c0,0,0.058,2.116,0.354,2.941
					c0.454,1.208,1.411,2.722,3.457,2.825c4.129,0.21,6.056-4.397,1.654-7.837c-4.401-3.433-11.447-4.323-11.859-12.887
					C83.056,17.628,87.541,13.59,94.544,13.495z"/>
			</g>
			<g>
				
					<path fill="none" stroke="#3D0E3D" stroke-width="1.5" stroke-linecap="round" stroke-linejoin="round" stroke-miterlimit="10" d="
					M104.449,24.224c0.106-4.645-2.166-10.832-9.904-10.729c-7.004,0.095-11.488,4.133-11.129,11.55
					c0.412,8.563,7.458,9.454,11.859,12.887c4.401,3.439,2.475,8.047-1.654,7.837c-2.046-0.104-3.003-1.617-3.457-2.825
					c-0.297-0.825-0.354-2.941-0.354-2.941h-7.05c0,0-0.058,1.996-0.024,2.879c0.12,3.218,1.415,10.721,10.923,10.626
					c10.176-0.104,12.136-7.429,11.723-12.069c-0.507-5.692-3.402-8.452-10.519-11.55c-5.424-2.355-4.529-8.312-1.139-9.066
					c4.13-0.933,4.542,3.292,4.542,3.292L104.449,24.224z"/>
			</g>
		</g>
		<g id="XMLID_436_">
			<g>
				<polygon fill="#FFFFFF" points="137.918,13.492 137.918,21.123 128.225,21.123 128.225,53.61 121.032,53.61 121.032,21.028 
					111.21,21.028 111.21,13.393 				"/>
			</g>
			<g>
				
					<polygon fill="none" stroke="#3D0E3D" stroke-width="1.5" stroke-linecap="round" stroke-linejoin="round" stroke-miterlimit="10" points="
					111.21,13.393 111.21,21.028 121.032,21.028 121.032,53.61 128.225,53.61 128.225,21.123 137.918,21.123 137.918,13.492 				"/>
			</g>
		</g>
		<g id="XMLID_437_">
			<g>
				<path fill="#FFFFFF" d="M160.669,13.494l10.347,40.011h-8.943l-3.134-15.06h-7.991l-3.111,15.06h-8.751l10.471-40.011H160.669z
					 M157.68,30.628l-2.792-8.798l-2.37,8.798H157.68z"/>
			</g>
			<g>
				
					<polygon fill="none" stroke="#3D0E3D" stroke-width="1.5" stroke-linecap="round" stroke-linejoin="round" stroke-miterlimit="10" points="
					139.085,53.505 149.556,13.494 160.669,13.494 171.016,53.505 162.073,53.505 158.939,38.445 150.948,38.445 147.836,53.505 
									"/>
				
					<polygon fill="none" stroke="#3D0E3D" stroke-width="1.5" stroke-linecap="round" stroke-linejoin="round" stroke-miterlimit="10" points="
					152.518,30.628 154.888,21.83 157.68,30.628 				"/>
			</g>
		</g>
		<g id="XMLID_438_">
			<g>
				<path fill="#FFFFFF" d="M195.038,21.798c0.186,5.696-3.556,8.118-6.818,9.157l13.798,19.078l-5.123,3.713l-13.34-18.447v18.335
					l-6.497-0.103V13.313C182.935,13.21,194.728,12.414,195.038,21.798z M183.245,25.44c0,0,5.437,0.528,5.329-3.65
					c-0.107-4.17-5.329-3.411-5.329-3.411V25.44z"/>
			</g>
			<g>
				
					<path fill="none" stroke="#3D0E3D" stroke-width="1.5" stroke-linecap="round" stroke-linejoin="round" stroke-miterlimit="10" d="
					M202.017,50.033l-13.798-19.078c3.263-1.04,7.004-3.461,6.818-9.157c-0.31-9.384-12.103-8.588-17.98-8.485v40.218l6.497,0.103
					V35.299l13.34,18.447L202.017,50.033z"/>
				
					<path fill="none" stroke="#3D0E3D" stroke-width="1.5" stroke-linecap="round" stroke-linejoin="round" stroke-miterlimit="10" d="
					M183.245,18.379v7.062c0,0,5.437,0.528,5.329-3.65C188.466,17.62,183.245,18.379,183.245,18.379z"/>
			</g>
		</g>
		<g id="XMLID_439_">
			<g>
				<polygon fill="#FFFFFF" points="229.379,13.49 229.379,21.122 219.686,21.122 219.686,53.609 212.492,53.609 212.492,21.027 
					202.67,21.027 202.67,13.392 				"/>
			</g>
			<g>
				
					<polygon fill="none" stroke="#3D0E3D" stroke-width="1.5" stroke-linecap="round" stroke-linejoin="round" stroke-miterlimit="10" points="
					202.67,13.392 202.67,21.027 212.492,21.027 212.492,53.609 219.686,53.609 219.686,21.122 229.379,21.122 229.379,13.49 				
					"/>
			</g>
		</g>
	</g>
</g>
</svg>
