<?xml version="1.0" encoding="utf-8"?>
<!-- Generator: Adobe Illustrator 16.0.0, SVG Export Plug-In . SVG Version: 6.00 Build 0)  -->
<!DOCTYPE svg PUBLIC "-//W3C//DTD SVG 1.1//EN" "http://www.w3.org/Graphics/SVG/1.1/DTD/svg11.dtd">
<svg version="1.1" id="Layer_1" xmlns="http://www.w3.org/2000/svg" xmlns:xlink="http://www.w3.org/1999/xlink" x="0px" y="0px"
	 width="50px" height="50px" viewBox="0 0 50 50" enable-background="new 0 0 50 50" xml:space="preserve">
<g id="Layer_1_1_">
	<g>
		<path fill="#767676" d="M25,49C11.767,49,1,38.234,1,25.003C1,11.768,11.767,1,25,1c13.232,0,24,10.768,24,24.003
			C49,38.234,38.232,49,25,49z"/>
		<path d="M25,2c12.684,0,23,10.318,23,23.003C48,37.684,37.684,48,25,48C12.318,48,2,37.684,2,25.003C2,12.318,12.318,2,25,2 M25,0
			C11.192,0,0,11.191,0,25.003C0,38.811,11.192,50,25,50c13.809,0,25-11.189,25-24.997C50,11.191,38.809,0,25,0L25,0z"/>
	</g>
</g>
<path fill="#FFFFFF" d="M33.61,22.5l-0.556-0.556l-7.916,3.75l-7.916-3.75L16.805,22.5l8.334,6.804L33.61,22.5z M35.279,15.973
	H14.584L12.5,19.444V32.36l2.222,1.667h20.696L37.5,32.36V19.444L35.279,15.973z M34.584,30.972H15.417V19.028h19.167V30.972z"/>
</svg>
