<?xml version="1.0" encoding="utf-8"?>
<!-- Generator: Adobe Illustrator 16.0.0, SVG Export Plug-In . SVG Version: 6.00 Build 0)  -->
<!DOCTYPE svg PUBLIC "-//W3C//DTD SVG 1.1//EN" "http://www.w3.org/Graphics/SVG/1.1/DTD/svg11.dtd">
<svg version="1.1" id="Layer_1" xmlns="http://www.w3.org/2000/svg" xmlns:xlink="http://www.w3.org/1999/xlink" x="0px" y="0px"
	 width="50px" height="50px" viewBox="0 0 50 50" enable-background="new 0 0 50 50" xml:space="preserve">
<g id="Layer_1_1_">
	<g>
		<path fill="#22B0E6" d="M25,49C11.767,49,1,38.234,1,25.003C1,11.768,11.767,1,25,1c13.232,0,24,10.768,24,24.003
			C49,38.234,38.232,49,25,49z"/>
		<path d="M25,2c12.684,0,23,10.318,23,23.003C48,37.684,37.684,48,25,48C12.318,48,2,37.684,2,25.003C2,12.318,12.318,2,25,2 M25,0
			C11.192,0,0,11.191,0,25.003C0,38.811,11.192,50,25,50c13.809,0,25-11.189,25-24.997C50,11.191,38.809,0,25,0L25,0z"/>
	</g>
</g>
<g id="Layer_2">
	<path fill="#FFFFFF" d="M34.984,19.527v0.74c0,6.95-5.178,14.939-14.646,14.939c-2.958,0-5.621-0.888-7.839-2.365
		c0.443,0,0.888,0.146,1.184,0.146c2.368,0,4.586-0.887,6.362-2.219c-2.219,0-4.144-1.479-4.883-3.553
		c0.296,0,0.592,0.148,1.036,0.148l1.332-0.148c-2.368-0.443-4.142-2.662-4.142-5.176c0.74,0.443,1.48,0.592,2.366,0.592
		c-1.332-0.888-2.366-2.516-2.366-4.29c0-0.888,0.295-1.923,0.74-2.663c2.513,3.105,6.359,5.325,10.648,5.473
		c-0.146-0.443-0.146-0.739-0.146-1.184c0-2.958,2.368-5.177,5.177-5.177c1.479,0,2.812,0.592,3.698,1.628
		c1.185-0.148,2.22-0.592,3.257-1.184c-0.445,1.184-1.186,2.219-2.222,2.811c1.036-0.148,2.071-0.443,2.959-0.738
		C36.908,17.898,36.021,18.787,34.984,19.527z"/>
</g>
</svg>
