<?xml version="1.0" encoding="utf-8"?>
<!-- Generator: Adobe Illustrator 16.0.0, SVG Export Plug-In . SVG Version: 6.00 Build 0)  -->
<!DOCTYPE svg PUBLIC "-//W3C//DTD SVG 1.1//EN" "http://www.w3.org/Graphics/SVG/1.1/DTD/svg11.dtd">
<svg version="1.1" id="Layer_1" xmlns="http://www.w3.org/2000/svg" xmlns:xlink="http://www.w3.org/1999/xlink" x="0px" y="0px"
	 width="50px" height="50px" viewBox="0 0 50 50" enable-background="new 0 0 50 50" xml:space="preserve">
<g id="Layer_1_1_">
	<g>
		<path fill="#0071A1" d="M25,49C11.767,49,1,38.234,1,25.003C1,11.768,11.767,1,25,1c13.232,0,24,10.768,24,24.003
			C49,38.234,38.232,49,25,49z"/>
		<path d="M25,2c12.684,0,23,10.318,23,23.003C48,37.684,37.684,48,25,48C12.318,48,2,37.684,2,25.003C2,12.318,12.318,2,25,2 M25,0
			C11.192,0,0,11.191,0,25.003C0,38.811,11.192,50,25,50c13.809,0,25-11.189,25-24.997C50,11.191,38.809,0,25,0L25,0z"/>
	</g>
</g>
<path fill="#FFFFFF" d="M15.883,13.021c1.59,0,2.882,1.292,2.882,2.883c0,1.592-1.292,2.886-2.882,2.886
	c-1.594,0-2.883-1.294-2.883-2.886C13,14.313,14.287,13.021,15.883,13.021z M13.396,20.975h4.974v16.002h-4.976V20.975H13.396z
	 M21.491,20.975h4.77v2.188h0.07c0.662-1.259,2.286-2.586,4.703-2.586c5.035,0,5.966,3.314,5.966,7.626v8.774h-4.966v-7.779
	c0-1.857-0.035-4.243-2.585-4.243c-2.59,0-2.983,2.021-2.983,4.107v7.919h-4.972V20.978"/>
</svg>
