<?xml version="1.0" encoding="utf-8"?>
<!-- Generator: Adobe Illustrator 16.0.0, SVG Export Plug-In . SVG Version: 6.00 Build 0)  -->
<!DOCTYPE svg PUBLIC "-//W3C//DTD SVG 1.1//EN" "http://www.w3.org/Graphics/SVG/1.1/DTD/svg11.dtd">
<svg version="1.1" id="Layer_1" xmlns="http://www.w3.org/2000/svg" xmlns:xlink="http://www.w3.org/1999/xlink" x="0px" y="0px"
	 width="245px" height="67.75px" viewBox="53.125 59.375 245 67.75" enable-background="new 53.125 59.375 245 67.75"
	 xml:space="preserve">
<g>
	<g id="XMLID_69_">
		<g>
			<rect x="54.125" y="60.375" fill="#6889C6" width="242.855" height="65.395"/>
		</g>
		<g>
			
				<rect x="54.125" y="60.375" fill="none" stroke="#43193C" stroke-width="2.55" stroke-linecap="round" stroke-linejoin="round" stroke-miterlimit="10" width="242.855" height="65.395"/>
		</g>
	</g>
</g>
<g>
	<g id="XMLID_1_">
		<g>
			<polygon fill="#FFFFFF" points="77.124,70.917 105.973,71.029 105.973,79.273 95.505,79.273 95.505,114.366 87.734,114.366 
				87.734,79.166 77.124,79.166 			"/>
		</g>
		<g>
			
				<polygon fill="none" stroke="#3D0E3D" stroke-width="2" stroke-linecap="round" stroke-linejoin="round" stroke-miterlimit="10" points="
				77.124,70.917 77.124,79.166 87.734,79.166 87.734,114.366 95.505,114.366 95.505,79.273 105.973,79.273 105.973,71.029 			"/>
		</g>
	</g>
	<g id="XMLID_2_">
		<g>
			<polygon fill="#FFFFFF" points="130.542,71.182 138.269,71.182 138.269,114.408 130.386,114.408 130.386,97.3 120.288,97.3 
				120.288,114.408 112.561,114.408 112.561,71.182 120.136,71.182 120.136,89.167 130.542,89.167 			"/>
		</g>
		<g>
			
				<polygon fill="none" stroke="#3D0E3D" stroke-width="2" stroke-linecap="round" stroke-linejoin="round" stroke-miterlimit="10" points="
				112.561,71.182 112.561,114.408 120.288,114.408 120.288,97.3 130.386,97.3 130.386,114.408 138.269,114.408 138.269,71.182 
				130.542,71.182 130.542,89.167 120.136,89.167 120.136,71.182 			"/>
		</g>
	</g>
	<g id="XMLID_3_">
		<g>
			<polygon fill="#FFFFFF" points="146.145,113.962 146.145,71.039 168.127,70.594 168.127,78.165 154.46,78.165 154.46,87.603 
				168.127,87.389 168.127,95.856 154.611,96.07 154.611,106.387 168.426,106.387 168.426,113.962 			"/>
		</g>
		<g>
			
				<polygon fill="none" stroke="#3D0E3D" stroke-width="2" stroke-linecap="round" stroke-linejoin="round" stroke-miterlimit="10" points="
				146.145,71.039 146.145,113.962 168.426,113.962 168.426,106.387 154.611,106.387 154.611,96.07 168.127,95.856 168.127,87.389 
				154.46,87.603 154.46,78.165 168.127,78.165 168.127,70.594 			"/>
		</g>
	</g>
	<g id="XMLID_4_">
		<g>
			<polygon fill="#FFFFFF" points="195.322,78.165 195.322,87.603 208.99,87.389 208.99,95.856 195.474,96.07 195.474,106.387 
				209.288,106.387 209.288,113.962 187.007,113.962 187.007,71.039 208.99,70.594 208.99,78.165 			"/>
		</g>
		<g>
			
				<polygon fill="none" stroke="#3D0E3D" stroke-width="2" stroke-linecap="round" stroke-linejoin="round" stroke-miterlimit="10" points="
				187.007,71.039 187.007,113.962 209.288,113.962 209.288,106.387 195.474,106.387 195.474,96.07 208.99,95.856 208.99,87.389 
				195.322,87.603 195.322,78.165 208.99,78.165 208.99,70.594 			"/>
		</g>
	</g>
	<g id="XMLID_5_">
		<g>
			<polygon fill="#FFFFFF" points="223.406,83.399 223.406,114.482 216.294,114.482 216.294,71.256 225.812,71.256 236.882,97.103 
				236.882,70.917 243.745,70.917 243.745,114.482 236.026,114.482 			"/>
		</g>
		<g>
			
				<polygon fill="none" stroke="#3D0E3D" stroke-width="2" stroke-linecap="round" stroke-linejoin="round" stroke-miterlimit="10" points="
				216.294,114.482 216.294,71.256 225.812,71.256 236.882,97.103 236.882,70.917 243.745,70.917 243.745,114.482 236.026,114.482 
				223.406,83.399 223.406,114.482 			"/>
		</g>
	</g>
	<g id="XMLID_6_">
		<g>
			<path fill="#FFFFFF" d="M250.815,113.819c-0.593-8.618-0.147-37.736,0-42.78c7.13-0.151,22.433,1.631,22.433,20.495
				C273.396,111.738,256.462,113.517,250.815,113.819z M258.288,102.233c0,0,7.126-1.021,6.938-11.751
				c-0.151-8.458-6.938-8.458-6.938-8.458V102.233z"/>
		</g>
		<g>
			<path fill="none" stroke="#3D0E3D" stroke-width="2" stroke-linecap="round" stroke-linejoin="round" stroke-miterlimit="10" d="
				M250.815,71.039c-0.147,5.044-0.593,34.162,0,42.78c5.646-0.303,22.58-2.081,22.433-22.286
				C273.248,72.67,257.945,70.888,250.815,71.039z"/>
			<path fill="none" stroke="#3D0E3D" stroke-width="2" stroke-linecap="round" stroke-linejoin="round" stroke-miterlimit="10" d="
				M258.288,82.024v20.209c0,0,7.126-1.021,6.938-11.751C265.075,82.024,258.288,82.024,258.288,82.024z"/>
		</g>
	</g>
</g>
</svg>
